<svg width="99" height="91" viewBox="0 0 99 91" fill="none" xmlns="http://www.w3.org/2000/svg">
<rect x="0.5" y="0.5" width="98" height="90" rx="19.5" fill="white" stroke="#212121"/>
<path d="M27.4222 29.28C27.3023 28.1015 28.2273 27.0776 29.4119 27.0776H69.5353C70.7199 27.0776 71.6449 28.1015 71.525 29.28L67.059 73.2021C66.9552 74.2231 66.0955 74.9998 65.0693 74.9998H33.8779C32.8517 74.9998 31.992 74.2231 31.8882 73.2021L27.4222 29.28Z" fill="#797878"/>
<path d="M36.7451 25.9918C37.7371 21.7675 38.4269 19.9396 40.4577 20.0015H59.0205C60.7812 20.1209 62.7021 21.9821 63.2634 25.9918" stroke="#212121" stroke-width="4"/>
<rect x="24.0156" y="24.8994" width="50.9151" height="9.80226" rx="3" fill="#676464"/>
<path d="M38.9571 52.6725C39.6974 61.3613 40.4112 69.6363 38.9571 69.767C37.5029 69.8976 37.016 62.9951 36.2757 54.3063C35.5353 45.6175 34.8219 38.4327 36.2761 38.3021C37.7302 38.1715 38.2167 43.9837 38.9571 52.6725Z" fill="#423D3D"/>
<path d="M60.3755 53.5497C59.6352 62.2385 58.911 69.4244 60.3652 69.5551C61.8193 69.6857 62.3062 62.7832 63.0466 54.0944C63.7869 45.4056 64.5004 38.2208 63.0462 38.0902C61.592 37.9595 61.1159 44.8609 60.3755 53.5497Z" fill="#423D3D"/>
<path d="M51.1217 53.9145C51.1217 45.1926 51.2331 37.9691 49.7734 37.9691C48.3137 37.9691 48.4146 44.8889 48.4146 53.6109C48.4146 62.3329 48.3137 69.5542 49.7734 69.5542C51.2331 69.5542 51.1217 62.6365 51.1217 53.9145Z" fill="#423D3D"/>
</svg>
