<svg width="371" height="440" viewBox="0 0 371 440" fill="none" xmlns="http://www.w3.org/2000/svg">
<path d="M47.0986 1.00434C58.5147 13.3009 75.9929 8.43793 78.4593 22.3008C78.6994 23.6501 78.0382 24.9849 76.9255 25.7851L38.2423 53.6023C36.1707 55.0919 33.2315 54.2922 32.3165 51.9104C27.3315 38.9335 27.4316 28.4049 45.4626 1.12874C45.8304 0.57241 46.6448 0.515594 47.0986 1.00434Z" fill="#343333"/>
<path d="M90.9361 2C86.3445 8.06948 84.8439 11.6791 83.9018 18.5C60.982 22.0786 50.3289 28.2179 38.1788 52C27.7359 60.769 21.369 61.998 9.5392 59.5C3.32483 70.884 4.74751 76.5172 15.5686 85.5C3.1681 103.242 8.08574 116.964 30.1397 117.5C21.1252 120.22 17.9381 123.37 14.5637 131C20.2657 126.913 23.5675 125.323 30.1397 126.5C26.7495 127.432 25.0358 128.382 23.1054 132.5C28.0737 129.349 30.8205 128.076 35.6666 126.5C23.4333 134.295 23.2561 142.775 23.1054 158C-5.75777 184.128 6.70714 199.771 15.5686 215C4.28121 225.299 3.03147 233.173 1.5 247.5C7.9176 236.85 12.1464 232.442 19.5882 226.5C7.41086 248.681 6.36831 258.333 12.0515 272C14.1499 260.784 16.0148 258.271 19.5882 255C13.3048 273.926 17.648 280.873 28.1299 292C5.83329 357.073 32.4417 374.812 126.61 384L286.389 332.5C315.384 265.959 297.76 243.22 251.218 221C262.642 208.675 256.112 190.067 243.178 183C247.505 167.787 241.828 166.267 228.105 160C228.663 138.455 228.31 122.646 217.051 137.5C217.915 123.851 205.369 122.325 188.914 119.5C204.425 111.915 206.571 109.429 187.909 106C202.632 95.9414 195.863 94.0219 181.377 90.5C197.527 80.9202 190.339 75.1616 179.87 68.5C163.568 27.3236 146.051 17.6865 103.497 18.5C104.312 10.0567 106.917 7.83098 112.541 5C105.607 5.35681 101.616 4.66358 95.4582 12C89.5833 8.66943 90.061 6.27787 90.9361 2Z" fill="#FFA36E"/>
<path d="M243.178 183C247.505 167.787 241.828 166.267 228.105 160C228.663 138.455 228.31 122.646 217.051 137.5C217.915 123.851 205.369 122.325 188.914 119.5C204.425 111.915 206.571 109.429 187.909 106C202.632 95.9414 195.863 94.0219 181.377 90.5C197.527 80.9202 190.339 75.1616 179.87 68.5C163.568 27.3236 146.051 17.6865 103.497 18.5C104.312 10.0567 106.917 7.83098 112.541 5C105.607 5.35681 101.616 4.66358 95.4582 12C89.5833 8.66943 90.061 6.27787 90.9361 2C86.3445 8.06948 84.8439 11.6791 83.9018 18.5C60.982 22.0786 50.3289 28.2179 38.1788 52C27.7359 60.769 21.369 61.998 9.5392 59.5C3.32483 70.884 4.74751 76.5172 15.5686 85.5C3.1681 103.242 8.08574 116.964 30.1397 117.5C21.1252 120.22 17.9381 123.37 14.5637 131C20.2657 126.913 23.5675 125.323 30.1397 126.5C26.7495 127.432 25.0358 128.382 23.1054 132.5C28.0737 129.349 30.8205 128.076 35.6666 126.5C23.4332 134.295 23.2561 142.775 23.1054 158C-5.75777 184.128 6.70714 199.771 15.5686 215C4.28121 225.299 3.03147 233.173 1.5 247.5C7.9176 236.85 12.1464 232.442 19.5882 226.5C7.41086 248.681 6.36831 258.333 12.0515 272C14.1499 260.784 16.0148 258.271 19.5882 255C13.3048 273.926 17.648 280.873 28.1299 292C5.83329 357.073 32.4417 374.812 126.61 384L286.389 332.5C315.384 265.959 297.76 243.22 251.218 221C262.642 208.675 256.112 190.067 243.178 183ZM243.178 183H225.593" stroke="#FFA36E"/>
<path d="M43.5 341C29.1921 333.051 28.0546 318.9 26.5 293H73.5C76.584 326.369 82.4964 348.273 80 376C85.2657 380.347 72.5 406.5 52 402.5C31.5 398.5 27.3401 380.682 46.3 369C45.9732 359.382 45.3037 353.19 43.5 341Z" fill="#343333"/>
<path d="M98 376L86.5 300.5L136 298L138.5 361L168 370L152 393.5C133.51 405.149 87.5815 412.993 98 376Z" fill="#343333"/>
<path d="M18.5 255.712C12.2472 274.637 16.5693 281.585 27 292.712L32.5 303.212C32.8416 299.182 33.3904 297.565 35.5 296.712L38.5 303.212C39.6352 297.321 41.0081 295.354 42.5 292.712C42.9957 301.207 44.4253 304.13 48 307.712C48 307.712 51 305.711 52 307.712C52.9332 309.579 54.9901 316.37 60.3067 319.986C60.8732 320.372 61.6182 320.006 61.7391 319.331C63.3375 310.42 65.1106 306.767 68.5 301.212C74.5754 318.769 77.7349 312.563 83.5 309.712C89.8308 320.046 92.7054 320.711 96.5 309.712C105.296 324.007 108.673 322.573 113 309.712C128.449 322.787 135.586 321.685 146 307.712C150.222 299.868 148.69 297.014 144 292.712C146.867 292.74 148.211 291.902 149 285.712C159.914 281.036 158.445 276.516 149 266.712C172.754 267.641 180.163 260.706 167.5 215.712C183.724 179.816 179.222 170.49 167 157.212C159.903 150.177 158.546 145.761 165 136.212L160.5 131.212C162.294 130.974 163.818 130.193 167.5 127.212C152.25 117.025 150.012 109.702 160.5 92.7116C116.011 88.2899 112.531 69.1909 72 69.2116C50 66.7116 34.5 87.2116 14.5 86.2116C2.15996 103.953 7.05363 117.676 29 118.212C20.0295 120.932 16.8579 124.082 13.5 131.712C19.1742 127.625 22.4599 126.035 29 127.212C25.6264 128.144 23.9211 129.093 22 133.212C26.9441 130.061 29.6775 128.788 34.5 127.212C22.3263 135.007 22.15 143.486 22 158.712C-6.72238 184.84 5.68175 200.482 14.5 215.712C3.40309 225.886 2.54346 233.976 1.05481 247.984L1 248.5C9.0484 240.837 11.625 234.404 18.5 227.212C6.38204 249.392 6.34457 259.833 12 273.5C14.7623 262.665 15.6787 259.399 18.5 255.712Z" fill="#FAFAFA" stroke="#FAFAFA"/>
<path d="M365 352.5C381.178 307.507 347.865 291.832 300 282.5C302.067 297.431 298.791 304.804 312 320.5C253.65 281.577 223.395 276.451 178 325.5C128.242 331.455 114.984 344.167 120.5 385.5C113.392 387.346 108.64 390.665 100.5 402C108.368 413.882 113.675 417.471 125 417C132.85 425.815 138.54 428.262 144.378 430.958C146.096 431.752 147.93 430.006 147.014 428.349C145.322 425.291 144.37 424.103 145 421.5C148.761 429.493 153.522 431.291 160.609 433.323C162.592 433.891 163.744 431.81 161.994 430.718C160.436 429.744 159.658 429.157 160 427.5C178.713 438.773 189.235 438.326 208 429.5C209.255 440.455 216.294 438.875 236 427.5C225.719 439.99 229.423 439.657 252.5 427.5C239.239 446.467 248.499 440.506 274 423.5C311.691 430.095 337.254 428.343 338.5 385.5C338.5 385.5 344.5 404.5 342.5 405C340.5 405.5 362.626 411.385 350 376C355.547 380.883 358.645 383.622 361 391.5C364.84 375.57 369.4 367.95 365 352.5Z" fill="#FAFAFA" stroke="#FAFAFA"/>
<path d="M299.5 282C347.365 291.332 381.678 307.507 365.5 352.5C369.9 367.95 364.84 375.57 361 391.5C358.645 383.622 356.047 380.883 350.5 376C363.126 411.385 341 405.5 343 405C345 404.5 339 385.5 339 385.5C337.754 428.343 312.191 430.095 274.5 423.5C248.999 440.506 239.739 446.467 253 427.5C229.923 439.657 226.219 439.99 236.5 427.5C216.794 438.875 209.755 440.455 208.5 429.5C212.704 427.993 214.537 426.731 216.5 423.5C213.399 424.294 211.269 424.36 206.5 423.5C206.303 402.493 215.415 397.241 237.5 392C202.56 368.246 191.288 355.769 216.5 338C197.24 339.62 187.727 338.627 178.5 325.5C222.919 277.506 241.352 270.85 296.79 307.05C293.04 303.415 300.12 300.813 299.5 282Z" fill="#F49A65" stroke="#F49A65"/>
<path d="M125.265 21.7935C143.768 10.4301 172.047 34.2563 191.268 18.718C199.828 45.3374 193.196 55.9866 169.785 66.9232C165.931 68.7237 161.367 67.6865 158.516 64.5294L124.756 27.1448C123.281 25.5118 123.39 22.9449 125.265 21.7935Z" fill="#FAFAFA"/>
<path d="M176.045 38.127C175.622 56.6365 162.251 60.6759 149.141 49.2186L176.045 38.127Z" fill="#FEC4C0"/>
<path d="M125.274 21.7631C143.688 10.5236 171.797 34.1235 190.915 18.7079C181.973 40.1518 170.791 45.7335 146.895 51.5614L124.763 27.1183C123.283 25.4841 123.392 22.9116 125.274 21.7631Z" fill="#343333"/>
<path d="M225.496 235.499C194.885 237.797 177.493 255.751 184.556 292.999M234 224.504C221.32 221.43 207.383 219.312 192.5 235.498" stroke="#33363F" stroke-opacity="0.39" stroke-width="2"/>
<path d="M71.4636 64.8222C70.5487 65.0066 67.4922 65.6129 63.1621 70.9045C63.111 77.6164 63.6979 81.0487 67.8792 85.4884C72.0108 87.9436 74.6351 85.4922 76.3791 83.6599C79.3804 86.9553 85.4508 87.2332 88.4649 82.8949" stroke="black"/>
<ellipse cx="4.48283" cy="2.83619" rx="4.48283" ry="2.83619" transform="matrix(0.989951 -0.142502 0.128523 0.991566 67.8047 70.9307)" fill="#111111"/>
<path d="M96.5 58.5003C108.1 56.5003 111.667 56.6667 113 56" stroke="#111111" stroke-width="3"/>
<path d="M64 58.5C52.4 56.5 51.3333 56.1667 50 55.5" stroke="#111111" stroke-width="3"/>
</svg>
