<svg width="1080" height="857" viewBox="0 0 1080 857" fill="none" xmlns="http://www.w3.org/2000/svg">
<path d="M115.669 236.484L50.1006 372.609C45.8274 381.481 46.18 391.884 51.0439 400.446L90.8101 470.446C94.9901 477.804 95.8681 486.585 93.2276 494.625L58.4815 600.422C56.5418 606.328 56.4847 612.69 58.3179 618.63L77.8434 681.892C79.5762 687.507 79.6222 693.507 77.9755 699.147L45.701 809.698C44.1174 815.122 41.0342 819.989 36.8063 823.738L8.27582 849.035C-11.2936 866.387 -42.1475 852.133 -41.6213 825.985L-25.5915 29.3964C-25.2629 13.0664 -11.9309 0 4.40237 0H1071.04C1087.2 0 1100.45 12.7966 1101.02 28.9442L1128.51 809.681C1129.51 837.95 1094.41 851.763 1075.87 830.4L1000.31 743.323C993.404 735.367 991.179 724.373 994.445 714.358L1009.5 668.189C1011.45 662.214 1011.47 655.778 1009.57 649.79L991.676 593.559C990.042 588.427 989.825 582.932 991.039 577.684L1022.35 442.307C1025.15 430.217 1020.22 417.637 1009.94 410.683L969.806 383.529C961.559 377.949 956.618 368.64 956.618 358.682V247.544C956.618 234.379 948.035 222.753 935.455 218.875L865.639 197.355C860.633 195.812 856.12 192.986 852.546 189.157L797.971 130.693C792.297 124.615 784.355 121.165 776.041 121.165H280.696C271.705 121.165 263.188 125.197 257.49 132.152L211.271 188.566C207.822 192.776 203.293 195.968 198.168 197.801L132.594 221.255C125.17 223.91 119.09 229.38 115.669 236.484Z" fill="#A05A2C"/>
<path d="M416.746 111.494L400.03 78L543.791 82.2941L687.552 78L652.03 111.494H680.866V123.518L695.075 138.547C689.085 142.126 691.313 145.418 675.851 154.435C661.894 162.575 648.826 162.737 652.03 167.747H695.075L675.851 187.929L698 204.247L641.582 224L549.642 212.835L460.627 221.423L428.866 213.694L390 212.835L421.761 193.941L411.313 179.341L426.358 157.441L402.537 137.259L416.746 111.494Z" fill="#C6855A"/>
</svg>
