<svg width="550" height="544" viewBox="0 0 550 544" fill="none" xmlns="http://www.w3.org/2000/svg">
<path d="M104.765 515.258C102.53 501.843 98.6089 494.393 99.0787 481.151C100.651 495.085 102.497 502.753 113.611 515.258C106.903 492.296 117.082 488.862 123.721 467.636C119.792 492.579 112.646 497.825 123.721 515.258L133.83 476.002L131.935 515.258C137.926 499.409 145.709 493.262 156.577 481.151C148.115 494.834 138.391 500.05 138.885 515.258H131.935H123.721H113.611H104.765Z" fill="#34B41E"/>
<path d="M76.9257 291.95C64.3044 319.76 52.6635 332.047 28.2736 347.938M15.6367 292.593C38.2584 285.156 50.6347 283.701 70.6073 285.514" stroke="#664733"/>
<path d="M490.785 243.684C513.417 235.207 522.502 212.298 537.541 194.775M500.262 131.708C485.642 154.333 478.097 169.444 483.202 201.854M110.414 241.11C90.2361 220.517 80.5927 200.448 73.1348 165.172" stroke="#664733"/>
<path d="M25.5276 336.483C33.2402 327.21 38.4107 325.482 49.995 332.089C41.4792 341.342 36.233 343.124 25.5276 336.483Z" fill="#34B41E"/>
<path d="M57.992 322.494C67.7341 329.512 69.8748 334.607 64.4223 346.937C54.6302 339.103 52.4302 333.935 57.992 322.494Z" fill="#34B41E"/>
<path d="M57.992 285.169C67.7341 292.186 69.8748 297.282 64.4223 309.611C54.6302 301.777 52.4302 296.61 57.992 285.169Z" fill="#34B41E"/>
<path d="M30.2945 275.181C41.5261 271.078 46.8521 272.215 53.641 283.836C41.7238 287.513 36.3058 286.384 30.2945 275.181Z" fill="#34B41E"/>
<path d="M29.8158 346.658C29.7598 358.811 26.8895 363.52 13.8458 366.043C14.5299 353.379 17.4242 348.58 29.8158 346.658Z" fill="#34B41E"/>
<path d="M69.4766 141.781C78.5812 149.637 80.2777 154.903 73.7909 166.702C64.7064 158.028 62.957 152.685 69.4766 141.781Z" fill="#34B41E"/>
<path d="M94.264 166.467C94.2081 178.62 91.3378 183.328 78.2941 185.851C78.9781 173.188 81.8724 168.389 94.264 166.467Z" fill="#34B41E"/>
<g filter="url(#filter0_gn_335_106)">
<path d="M190.026 541L120.523 515.902L132.528 497.883L119.26 441.895V382.689L102.832 317.048L44.7018 261.06L38.3833 206.359L3 185.122V169.033L44.7018 194.132L81.9807 248.189H108.518V206.359L119.26 174.182L108.518 125.916L120.523 83.4426V25.5239H140.11L166.016 17.8014H192.554L229.201 3L239.31 11.366L261.425 17.8014V39.0383L276.589 51.9091L281.012 39.0383L274.694 25.5239V3L303.758 11.366H330.928V39.0383L349.251 70.5718L363.784 57.0574V25.5239L414.963 39.0383L452.242 25.5239L460.456 39.0383L452.242 96.3134L468.67 154.232V226.952L487.625 194.132L494.576 169.033L509.108 185.122L460.456 343.433L481.307 430.955V515.902H414.963L387.162 530.703L303.758 515.902L266.48 541L246.892 530.703H229.201L215.932 515.902L190.026 541Z" fill="#A96F4A"/>
</g>
<path d="M209.62 119.04C210.835 118.736 211.939 118.472 212.902 118.259C215.336 117.41 218.089 116.199 219.523 116.411C221.697 116.733 223.537 117.357 224.93 117.83C229.111 118.928 231.51 120.942 234.681 122.718C238.086 124.624 243.156 126.573 245.513 129.819C247.692 132.819 251.186 136.115 254.344 140.711C257.596 145.442 260.481 148.303 265.186 150.954C269.376 153.315 273.041 157.479 276.953 159.309C278.964 160.251 285.652 157.348 291.367 161.046C296.003 164.046 300.871 166.135 303.427 170.04C304.662 171.928 304.764 178.359 305.433 187.262C306.204 197.524 305.531 208.228 309.307 218.153C311.166 223.035 313.466 226.545 314.259 232.181C314.882 236.605 318.296 240.559 319.996 244.804C321.385 248.272 323.103 268.143 323.55 285.394C323.857 297.212 323.515 305.676 323.081 308.038C322.296 312.305 322.3 317.919 319.662 322.085C315.476 328.694 311.496 332.74 307.895 337.372C304.328 341.961 298.251 346.813 296.129 353.945C293.495 362.798 291.581 370.401 290.252 378.865C289.165 385.792 288.818 392.431 283.577 396.04C278.314 399.664 275.335 403.085 271.346 405.658C264.973 409.77 257.531 412.079 252.458 413.219C248.268 414.161 243.227 414.146 225.334 416.214C218.538 416.999 212.518 418.981 206.776 420.004C197.077 421.731 183.104 422.279 178.287 419.672C173.311 416.98 167.775 413.823 163.57 411.151C157.852 407.518 152.802 402.307 149.648 396.958C147.316 393.002 141.433 390.092 140.98 385.598C139.902 374.91 139.775 366.055 140.98 360.81C142.067 356.079 130.305 343.906 131.248 337.693C131.871 333.591 143.421 308.038 130.616 308.038C124.29 308.038 131.834 284.114 125.646 273.939C122.863 269.364 118.227 266.38 117.596 261.155C115.747 245.859 118.291 225.487 119.156 217.935C120.095 209.75 120.374 203.317 124.276 196.975C126.896 192.717 128.87 189.633 130.616 186.098C132.488 182.308 135.387 178.424 138.211 173.631C141.463 168.114 144.4 162.966 148.896 156.125C151.999 151.404 154.389 147.556 159.896 140.985C164.392 135.62 168.295 130.857 172.433 129.649C181.744 126.931 199.53 121.569 209.62 119.04Z" fill="#DEA885"/>
<path d="M214.524 127.163C228.581 125.583 232.901 124.334 241.253 126.226L246.26 128.49L260.161 147.153L277.221 159.38L286.698 158.093L296.808 163.242L304.39 170.964L309.445 211.507L313.236 226.952L322.082 243.041L323.345 282.297L324.203 294.524L324.609 300.316L322.082 319.622L298.072 348.581L289.226 392.342L265.216 411.005L239.395 414.835C238.131 414.835 236.905 414.835 235.818 414.513C233.811 413.567 231.646 411.041 228.074 408.524L218.79 412.178C217.671 412.736 216.497 413.24 215.225 413.581C210.557 414.835 204.507 415.101 200.973 412.455L186.578 404.261C182.072 402.534 174.762 400.811 170.942 396.53C167.838 393.052 165.931 388.92 163.825 383.907C161.967 379.483 161.917 373.681 160.42 368.449C159.06 363.697 160.028 358.339 160.618 350.184L160.796 333.78C160.522 332.053 160.191 330.24 159.793 328.333C156.708 313.548 153.683 308.978 152.829 304.894C151.134 296.78 152.788 286.185 153.15 281.394C153.921 271.193 155.471 256.075 152.518 250.64C150.205 246.382 147.612 241.926 148.505 235.339C149.276 229.652 151.447 224.893 152.068 220.838C152.992 214.796 152.499 206.024 152.839 199.822C153.624 185.5 154.17 179.24 157.805 172.725C161.056 166.896 163.268 159.863 168.647 153.966C170.654 151.766 173.042 151.536 176.256 150.186C186.791 145.757 191.577 140.329 195.896 138.045C199.78 135.992 203.316 128.423 214.524 127.163Z" fill="#35230D"/>
<path d="M163.825 383.907C161.967 379.483 161.917 373.681 160.42 368.449C159.06 363.697 160.028 358.339 160.618 350.184L160.796 333.78C224.651 309.847 324.609 294.524 324.609 297.098L324.609 297.344C324.61 300.827 324.618 321.689 323.345 320.909C314.043 333.129 308.107 338.811 298.703 349.225L289.226 392.342L265.216 411.005L251.947 413.581L239.395 414.835C238.131 414.835 236.905 414.835 235.818 414.513C233.811 413.567 231.646 411.041 228.074 408.524L218.79 412.178C217.671 412.736 216.497 413.24 215.225 413.581C210.557 414.835 204.507 415.101 200.973 412.455L186.578 404.261C182.072 402.534 174.762 400.811 170.942 396.53C167.838 393.052 165.931 388.92 163.825 383.907Z" fill="#96603C"/>
<path d="M119.26 441.895V433.529L149.588 455.409L207.718 476.002L278.485 448.974L322.714 433.529L366.943 448.974L414.963 411.648L427.6 335.711L486.362 258.486L460.456 344.077L484.466 439.964L480.044 476.646L481.307 515.902H414.332L387.162 530.703L303.759 515.902L266.48 541L246.893 530.703H229.201L215.932 515.902L190.026 541L120.523 515.902L132.529 497.883L119.26 441.895Z" fill="#9C6644"/>
<path d="M494.509 111.115C504.21 122.049 505.193 128.467 494.509 140.718C485.011 128.846 483.978 122.328 494.509 111.115Z" fill="#34B41E"/>
<path d="M472.66 160.957C483.289 166.629 485.839 171.325 480.872 183.937C470.141 177.478 467.524 172.718 472.66 160.957Z" fill="#34B41E"/>
<path d="M487.284 153.711C498.873 139.894 506.633 137.311 523.996 147.118C511.202 160.907 503.329 163.57 487.284 153.711Z" fill="#34B41E"/>
<path d="M545.401 185.773C545.345 197.926 542.475 202.635 529.431 205.157C530.115 192.494 533.009 187.695 545.401 185.773Z" fill="#34B41E"/>
<path d="M518.915 220.916C526.628 211.643 531.798 209.915 543.383 216.522C534.867 225.775 529.621 227.557 518.915 220.916Z" fill="#34B41E"/>
<path d="M73.319 193.495C73.3749 205.648 76.2452 210.357 89.289 212.88C88.6049 200.217 85.7106 195.417 73.319 193.495Z" fill="#34B41E"/>
<path d="M10.1108 295.42C16.1252 284.923 20.9225 282.307 33.4573 286.765C26.6484 297.383 21.7857 300.066 10.1108 295.42Z" fill="#34B41E"/>
<path d="M456.665 515.902C454.431 502.486 450.509 495.037 450.979 481.794C452.552 495.729 454.397 503.396 465.512 515.902C458.804 492.939 468.983 489.505 475.621 468.28C471.693 493.222 464.546 498.469 475.621 515.902L485.731 476.646L483.835 515.902C489.826 500.052 497.609 493.906 508.477 481.794C500.015 495.478 490.291 500.693 490.786 515.902H483.835H475.621H465.512H456.665Z" fill="#34B41E"/>
<defs>
<filter id="filter0_gn_335_106" x="0" y="0" width="512.108" height="544" filterUnits="userSpaceOnUse" color-interpolation-filters="sRGB">
<feFlood flood-opacity="0" result="BackgroundImageFix"/>
<feBlend mode="normal" in="SourceGraphic" in2="BackgroundImageFix" result="shape"/>
<feTurbulence type="fractalNoise" baseFrequency="0.039999999105930328 0.039999999105930328" numOctaves="3" seed="4807" />
<feDisplacementMap in="shape" scale="6" xChannelSelector="R" yChannelSelector="G" result="displacedImage" width="100%" height="100%" />
<feMerge result="effect1_texture_335_106">
<feMergeNode in="displacedImage"/>
</feMerge>
<feTurbulence type="fractalNoise" baseFrequency="2 2" stitchTiles="stitch" numOctaves="3" result="noise" seed="3278" />
<feColorMatrix in="noise" type="luminanceToAlpha" result="alphaNoise" />
<feComponentTransfer in="alphaNoise" result="coloredNoise1">
<feFuncA type="discrete" tableValues="0 0 0 0 0 0 0 0 0 0 0 0 0 0 1 1 1 1 1 1 1 1 1 1 1 1 1 1 1 1 1 1 1 1 1 0 0 0 0 0 0 0 0 0 0 0 0 0 0 0 0 0 0 0 0 0 0 0 0 0 0 0 0 0 0 0 0 0 0 0 0 0 0 0 0 0 0 0 0 0 0 0 0 0 0 0 0 0 0 0 0 0 0 0 0 0 0 0 0 0 "/>
</feComponentTransfer>
<feComposite operator="in" in2="effect1_texture_335_106" in="coloredNoise1" result="noise1Clipped" />
<feFlood flood-color="rgba(0, 0, 0, 0.25)" result="color1Flood" />
<feComposite operator="in" in2="noise1Clipped" in="color1Flood" result="color1" />
<feMerge result="effect2_noise_335_106">
<feMergeNode in="effect1_texture_335_106" />
<feMergeNode in="color1" />
</feMerge>
</filter>
</defs>
</svg>
