<svg width="99" height="91" viewBox="0 0 99 91" fill="none" xmlns="http://www.w3.org/2000/svg">
<rect x="0.5" y="0.5" width="98" height="90" rx="19.5" fill="white" stroke="#212121"/>
<rect x="27.9785" y="41.9287" width="42.3521" height="29.0714" rx="2" fill="#C60909"/>
<rect x="21.292" y="31.7139" width="56.4695" height="11.7857" rx="2" fill="#F03A3A"/>
<rect x="45.0674" y="31.7139" width="8.17322" height="39.2857" fill="#F5B719"/>
<path d="M49.1553 31.7304C74.7763 14.3697 72.4149 26.9647 52.6013 32.2859L49.1553 31.7304Z" stroke="#F5B719"/>
<path d="M59.1869 16.2747C53.8173 19.6514 51.4516 23.7101 48.4131 31.7304C60.628 25.3645 65.113 22.2672 68.1031 23.0875C64.8424 17.7736 62.902 15.0961 59.1869 16.2747Z" fill="#F5B719"/>
<path d="M49.1543 31.7465C23.5333 14.3858 25.8947 26.9808 45.7083 32.302L49.1543 31.7465Z" stroke="#F5B719"/>
<path d="M39.1256 16.2908C44.4952 19.6675 46.8609 23.7262 49.8994 31.7465C37.6845 25.3806 33.1995 22.2833 30.2094 23.1037C33.4701 17.7897 35.4105 15.1122 39.1256 16.2908Z" fill="#F5B719"/>
</svg>
