<svg width="100" height="100" viewBox="0 0 100 100" fill="none" xmlns="http://www.w3.org/2000/svg">
<circle cx="50" cy="50" r="49.5" fill="white" stroke="#212121"/>
<path d="M21.3331 24.7943C21.1394 23.0609 23.1026 21.9275 24.5069 22.9619L40.1134 34.458C41.2746 35.3133 41.1763 37.0792 39.9273 37.8003L26.4734 45.5679C25.2244 46.289 23.6459 45.4913 23.4857 44.058L21.3331 24.7943Z" fill="#D9D9D9"/>
<path d="M77.8173 26.7943C78.011 25.0609 76.0478 23.9275 74.6435 24.9619L59.037 36.458C57.8758 37.3133 57.9741 39.0792 59.2231 39.8003L72.677 47.5679C73.926 48.289 75.5045 47.4913 75.6646 46.058L77.8173 26.7943Z" fill="#D9D9D9"/>
<path d="M27.0521 56C11.8565 24.5846 86.5122 26.0913 72.1559 56C57.7996 85.9087 42.2476 87.4154 27.0521 56Z" fill="#D9D9D9"/>
</svg>
