<svg width="100" height="100" viewBox="0 0 100 100" fill="none" xmlns="http://www.w3.org/2000/svg">
<circle cx="50" cy="50" r="49.5" fill="white" stroke="#212121"/>
<path d="M25.587 29.0665C25.2965 26.4664 28.2412 24.7662 30.3477 26.3179L42.8825 35.5513C44.6243 36.8343 44.4767 39.4831 42.6032 40.5648L31.7974 46.8035C29.9239 47.8852 27.5562 46.6885 27.316 44.5386L25.587 29.0665Z" fill="#D9D9D9"/>
<path d="M73.5634 28.0665C73.8539 25.4664 70.9092 23.7662 68.8027 25.3179L56.2679 34.5513C54.5261 35.8343 54.6737 38.4831 56.5472 39.5648L67.353 45.8035C69.2265 46.8852 71.5942 45.6885 71.8344 43.5386L73.5634 28.0665Z" fill="#D9D9D9"/>
<path d="M26 52.5C26 39.5213 36.5213 29 49.5 29C62.4787 29 73 39.5213 73 52.5V53.3099C73 62.8797 67.5271 72.2062 58.1535 74.1341C52.3287 75.3321 46.9906 75.2697 41.1853 74.0545C31.6932 72.0677 26 62.718 26 53.0201V52.5Z" fill="#D9D9D9"/>
</svg>
