<svg width="99" height="91" viewBox="0 0 99 91" fill="none" xmlns="http://www.w3.org/2000/svg">
<rect x="0.5" y="0.5" width="98" height="90" rx="19.5" fill="white" stroke="#212121"/>
<rect x="33.5156" y="19.9785" width="5.18073" height="15.5435" fill="#5C4033"/>
<path d="M49.7919 21L30.5225 38.8105V68H68.4774V38.8105L49.7919 21Z" fill="#D8C3A5"/>
<path d="M49.8907 16L21.2656 45.8904L23.987 47.6837L49.8907 21.3794L75.1467 47.6837L77.7351 45.8913L49.8907 16Z" fill="#A05A2C"/>
<path d="M58.0576 34.1851V44.4458H41.7207V34.1851H58.0576Z" fill="#AECEEE" fill-opacity="0.56" stroke="white" stroke-width="0.5"/>
<rect x="32.374" y="19" width="7.7711" height="3.58696" rx="1.79348" fill="#A05A2C"/>
<rect x="41.4707" y="50.6738" width="18.1326" height="16.7391" rx="1" fill="#8B3E2F"/>
<rect x="42.7646" y="57.8477" width="1.29518" height="3.58696" fill="#5C4033"/>
<rect x="40.1738" y="66.2173" width="20.7229" height="2.3913" fill="#5C4033"/>
<rect x="38.8799" y="68.6089" width="23.3133" height="2.3913" fill="#423027"/>
</svg>
