<svg width="344" height="461" viewBox="0 0 344 461" fill="none" xmlns="http://www.w3.org/2000/svg">
<path d="M300.934 450.16L138.385 456.791L101.251 456.142L64.1165 455.494L33.229 385.527L133.303 387.274L243.345 106.433L319.271 373.478L300.934 450.16Z" fill="#C5D4DE"/>
<path d="M138.385 456.791L300.934 450.16L319.271 373.478L243.345 106.433L133.303 387.274M138.385 456.791L133.303 387.274M138.385 456.791L101.251 456.142L64.1165 455.494L33.229 385.527L133.303 387.274" stroke="#C8D5DE"/>
<path d="M139.003 457.432L134.561 387.296L33.2285 385.527L48.3576 420.505L63.4757 456.114L103.127 456.806L139.003 457.432Z" fill="#A5B8C6"/>
<g filter="url(#filter0_d_396_54)">
<path d="M135.754 391.104L4.21084 388.807L127.924 118.304L253.139 86.4068L135.754 391.104Z" fill="url(#paint0_linear_396_54)"/>
</g>
<path d="M337.557 371.904L251.902 85.1229L242.65 110.208L318.675 371.575L337.557 371.904Z" fill="#E58B4B"/>
<path d="M243.235 112.743L252.509 86.3958L126.676 117.651L122.525 139.038L243.235 112.743Z" fill="#BE7643"/>
<path d="M110.065 23.3177L110.373 5.65045L141.28 2.40294L141.015 17.5463L110.065 23.3177Z" fill="#FFB176" stroke="#FFB176"/>
<path d="M109.424 23.9376L109.754 5.00849L93.9645 7.8887L93.6341 26.8179L109.424 23.9376Z" fill="#C16320"/>
<g filter="url(#filter1_d_396_54)">
<path d="M245.246 448.716L239.88 373.553L290.918 372.658L283.525 448.044L245.246 448.716Z" fill="#D4AD74"/>
</g>
<path d="M236.535 448.28L236.627 453.57L295.785 452.533L295.642 444.304L236.535 448.28Z" fill="#D4AD74"/>
<path d="M238.144 373.98L234.999 359.925C261.972 354.712 275.547 356.003 298.278 362.342L294.982 372.983L238.144 373.98Z" fill="#D4AD74"/>
<path d="M235.929 359.566L229.671 366.731L232.786 379.024L239.674 374.787L235.929 359.566Z" fill="#64452F"/>
<path d="M238.729 374.161L230.691 379.005L291.558 376.174L295.567 373.164L238.729 374.161Z" fill="#8A5E3F" fill-opacity="0.7"/>
<g filter="url(#filter2_d_396_54)">
<ellipse cx="2.90034" cy="2.93925" rx="2.90034" ry="2.93925" transform="matrix(0.999846 -0.0175398 0.0173652 0.999849 279.908 406.951)" fill="#64452F"/>
</g>
<path d="M90.5317 276.705L94.9041 26.2089L136.609 17.4694L123.89 277.287C110.463 299.564 103.117 302.955 90.5317 276.705Z" fill="#EA9457"/>
<path d="M90.5264 277.02L94.8988 26.5243L115.751 22.1546L107.203 295.48C102.006 296.092 96.9479 290.415 90.5264 277.02Z" fill="#E58B4B"/>
<path d="M189.711 365.774C206.232 366.063 219.442 380.002 219.146 396.977C218.849 413.953 205.161 427.422 188.64 427.134C172.12 426.846 158.909 412.907 159.206 395.931C159.502 378.955 173.191 365.486 189.711 365.774Z" fill="#668891" stroke="white" stroke-width="3"/>
<ellipse cx="187.287" cy="396.421" rx="25.8091" ry="28.3981" transform="rotate(1 187.287 396.421)" fill="#284148"/>
<path d="M160.19 397.842L218.812 393.816" stroke="white" stroke-width="3"/>
<path d="M192.211 366.842L191.187 425.523" stroke="white" stroke-width="3"/>
<path d="M290.728 325.09L185.844 323.259L241.098 162.997L290.728 325.09Z" fill="#668891" stroke="white" stroke-width="3"/>
<path d="M240.963 170.77L281.195 318.534L190.563 316.952L240.963 170.77Z" fill="#284148"/>
<path d="M241.014 167.877L238.304 323.097" stroke="white" stroke-width="3"/>
<path d="M237.756 173.761L235.225 319.521" stroke="#668891" stroke-width="3"/>
<path d="M205.214 271.132L272.062 264.725" stroke="white" stroke-width="3"/>
<rect width="3.0153" height="11.3559" transform="matrix(-0.933291 -0.35912 0.357617 -0.933868 236.187 182.525)" fill="white"/>
<defs>
<filter id="filter0_d_396_54" x="0.210938" y="86.4068" width="256.928" height="312.697" filterUnits="userSpaceOnUse" color-interpolation-filters="sRGB">
<feFlood flood-opacity="0" result="BackgroundImageFix"/>
<feColorMatrix in="SourceAlpha" type="matrix" values="0 0 0 0 0 0 0 0 0 0 0 0 0 0 0 0 0 0 127 0" result="hardAlpha"/>
<feOffset dy="4"/>
<feGaussianBlur stdDeviation="2"/>
<feComposite in2="hardAlpha" operator="out"/>
<feColorMatrix type="matrix" values="0 0 0 0 0 0 0 0 0 0 0 0 0 0 0 0 0 0 0.25 0"/>
<feBlend mode="normal" in2="BackgroundImageFix" result="effect1_dropShadow_396_54"/>
<feBlend mode="normal" in="SourceGraphic" in2="effect1_dropShadow_396_54" result="shape"/>
</filter>
<filter id="filter1_d_396_54" x="237.88" y="368.658" width="59.0381" height="84.0576" filterUnits="userSpaceOnUse" color-interpolation-filters="sRGB">
<feFlood flood-opacity="0" result="BackgroundImageFix"/>
<feColorMatrix in="SourceAlpha" type="matrix" values="0 0 0 0 0 0 0 0 0 0 0 0 0 0 0 0 0 0 127 0" result="hardAlpha"/>
<feOffset dx="2"/>
<feGaussianBlur stdDeviation="2"/>
<feComposite in2="hardAlpha" operator="out"/>
<feColorMatrix type="matrix" values="0 0 0 0 0 0 0 0 0 0 0 0 0 0 0 0 0 0 0.25 0"/>
<feBlend mode="normal" in2="BackgroundImageFix" result="effect1_dropShadow_396_54"/>
<feBlend mode="normal" in="SourceGraphic" in2="effect1_dropShadow_396_54" result="shape"/>
</filter>
<filter id="filter2_d_396_54" x="275.959" y="403.4" width="13.8008" height="13.8785" filterUnits="userSpaceOnUse" color-interpolation-filters="sRGB">
<feFlood flood-opacity="0" result="BackgroundImageFix"/>
<feColorMatrix in="SourceAlpha" type="matrix" values="0 0 0 0 0 0 0 0 0 0 0 0 0 0 0 0 0 0 127 0" result="hardAlpha"/>
<feOffset dy="0.5"/>
<feGaussianBlur stdDeviation="2"/>
<feComposite in2="hardAlpha" operator="out"/>
<feColorMatrix type="matrix" values="0 0 0 0 0 0 0 0 0 0 0 0 0 0 0 0 0 0 0.25 0"/>
<feBlend mode="normal" in2="BackgroundImageFix" result="effect1_dropShadow_396_54"/>
<feBlend mode="normal" in="SourceGraphic" in2="effect1_dropShadow_396_54" result="shape"/>
</filter>
<linearGradient id="paint0_linear_396_54" x1="157.654" y1="218.547" x2="-161.974" y2="369.496" gradientUnits="userSpaceOnUse">
<stop stop-color="#F29655"/>
<stop offset="1" stop-color="#8C5731"/>
</linearGradient>
</defs>
</svg>
