<svg width="89" height="123" viewBox="0 0 89 123" fill="none" xmlns="http://www.w3.org/2000/svg">
<path d="M44.3359 4.17676V67.1523" stroke="#AA6645" stroke-width="8" stroke-linecap="round"/>
<path d="M14.8906 110.267V81.9649C14.8906 76.1089 19.1131 71.0651 24.9157 70.2763C39.2087 68.3334 50.1932 68.1909 64.8814 70.2282C70.6349 71.0262 74.7936 76.0491 74.7936 81.8577V110.267C74.7936 116.894 69.421 122.267 62.7936 122.267H26.8906C20.2632 122.267 14.8906 116.894 14.8906 110.267Z" fill="#D25E59"/>
<rect x="27.752" y="65.5459" width="33.8435" height="5.78347" rx="2.89174" fill="#3E692D"/>
<path d="M59.903 0H26.7364L7.23059 37.2713L0 51.0873C4.09297 57.0971 6.55516 57.2812 11.0837 51.0873C14.7455 56.5717 17.1589 56.9714 22.1675 51.0873C26.4943 56.0517 28.9211 55.7721 33.2512 51.0873C36.8869 56.2808 39.3754 56.3919 44.335 51.0873C48.7382 57.2446 51.0529 57.1388 55.4187 51.0873C59.037 56.1811 61.5338 55.6811 66.5024 51.0873C70.5796 55.6657 73.0518 54.9751 77.5862 51.0873C81.1768 54.1548 83.7313 54.2422 88.6699 51.0873L77.8145 31.8091L59.903 0Z" fill="#F7CA76"/>
</svg>
