<svg width="331" height="305" viewBox="0 0 331 305" fill="none" xmlns="http://www.w3.org/2000/svg">
<rect y="28.7383" width="331" height="261.429" fill="#5C4033"/>
<path d="M42.5055 0H289.399L331 28.7386H0L42.5055 0Z" fill="#5C4033"/>
<rect x="54.2637" y="289.24" width="19.8962" height="15.7599" fill="#5C4033"/>
<rect x="258.648" y="289.24" width="19.8962" height="15.7599" fill="#5C4033"/>
<rect x="30.75" y="42.6445" width="271.311" height="40.7903" fill="#B7410E"/>
<rect x="30.75" y="104.757" width="271.311" height="40.7903" fill="#B7410E"/>
<rect x="30.75" y="167.796" width="271.311" height="40.7903" fill="#B7410E"/>
<rect x="30.75" y="229.908" width="271.311" height="40.7903" fill="#B7410E"/>
<ellipse cx="169.119" cy="63.0399" rx="17.1831" ry="2.78116" fill="#F5DEB3"/>
<ellipse cx="169.119" cy="125.152" rx="17.1831" ry="2.78116" fill="#F5DEB3"/>
<ellipse cx="169.119" cy="188.191" rx="17.1831" ry="2.78116" fill="#F5DEB3"/>
<path d="M169.118 248.022C173.845 248.022 178.114 248.333 181.189 248.831C182.731 249.081 183.95 249.374 184.772 249.688C185.186 249.847 185.471 250 185.643 250.136C185.756 250.226 185.789 250.283 185.798 250.304C185.789 250.325 185.756 250.382 185.643 250.472C185.471 250.607 185.186 250.761 184.772 250.919C183.95 251.234 182.731 251.527 181.189 251.776C178.114 252.274 173.845 252.585 169.118 252.585C164.392 252.585 160.124 252.274 157.048 251.776C155.506 251.527 154.287 251.234 153.465 250.919C153.051 250.761 152.766 250.607 152.595 250.472C152.481 250.381 152.448 250.325 152.438 250.304C152.447 250.283 152.48 250.226 152.595 250.136C152.766 250 153.051 249.847 153.465 249.688C154.287 249.374 155.506 249.081 157.048 248.831C160.124 248.333 164.392 248.022 169.118 248.022Z" stroke="black"/>
<ellipse cx="169.119" cy="250.304" rx="17.1831" ry="2.78116" fill="#F5DEB3"/>
<path d="M68.7324 296.657V303.147" stroke="#111111"/>
<path d="M321.957 278.115V284.605" stroke="#111111"/>
<path d="M321.957 155.744V162.234" stroke="#111111"/>
<path d="M321.957 38.9355V45.4249" stroke="#111111"/>
<path d="M291.207 53.7686V60.2579" stroke="#111111"/>
<path d="M39.793 113.1V119.589" stroke="#111111"/>
<path d="M291.207 199.78V203.952" stroke="#111111"/>
<path d="M246.894 73.2378C243.615 74.9831 241.599 75.7395 236.949 76.4824" stroke="#111111"/>
<path d="M253.226 74.6267C250.909 75.9163 249.35 76.4712 245.993 77.0856" stroke="#111111"/>
<path d="M68.7324 78.7998H81.3936" stroke="#111111"/>
<path d="M39.793 48.207V54.6964" stroke="#111111"/>
<path d="M293.018 259.574V266.064" stroke="#111111"/>
<path d="M38.8887 48.207H45.2193" stroke="#111111"/>
<path d="M287.592 266.064H293.922" stroke="#111111"/>
<path d="M283.973 2.78125L290.303 7.41651" stroke="#111111"/>
<path d="M12.6621 276.262V284.605" stroke="#111111"/>
<path d="M19.8965 279.97V284.605" stroke="#111111"/>
<path d="M314.723 280.897V284.606" stroke="#111111"/>
<path d="M273.121 296.657V303.147" stroke="#111111"/>
<path d="M281.26 135.35L277.643 137.667" stroke="#111111"/>
<path d="M56.9756 197.462C53.0203 200.097 50.4357 201.098 45.2188 202.097" stroke="#111111"/>
<path d="M62.4008 198.389C61.9267 199.796 61.1298 200.379 57.8789 200.706" stroke="#111111"/>
</svg>
