<svg width="406" height="236" viewBox="0 0 406 236" fill="none" xmlns="http://www.w3.org/2000/svg">
<path d="M246.893 19.4036L284.259 23.2381C284.75 23.2885 285.245 23.2933 285.738 23.2524L307.644 21.4321C308.581 21.3542 309.525 21.4435 310.433 21.6897C316.524 23.3424 320.338 24.1619 326.816 24.7582C330.563 24.5552 332.868 24.0319 335.663 23.125C337.505 22.5273 339.462 22.3591 341.363 22.7201L365.715 27.3445L369.816 29.7836L378.555 27.5449L402.452 23.7775C403.995 23.5343 405.206 25.073 404.608 26.5161L396.031 47.2145C401.793 72.7437 400.523 99.1415 394.92 111.721L394.661 126.76L396.833 135.682C396.932 136.087 396.945 136.509 396.871 136.919L394.232 151.692L398.636 167.941C398.973 169.185 398.062 170.42 396.773 170.466L376.081 171.201L361.857 168.327C361.442 168.244 361.011 168.294 360.626 168.47L356.189 170.504C355.669 170.742 355.073 170.747 354.551 170.518L345.646 166.606C345.285 166.448 344.886 166.4 344.497 166.468L328.471 169.271C299.947 165.659 283.277 171.337 259.771 165.032L245.975 166.347C244.323 166.505 243.214 164.696 244.059 163.266C246.591 158.978 248.124 155.48 249.475 149.433C239.521 94.5684 249.228 86.0571 251.134 53.0683L248.573 51.2852C246.803 50.0535 246.047 47.8294 246.572 45.7357C247.309 42.7933 247.745 40.1775 248.318 36.2006L244.745 21.8801C244.409 20.5344 245.513 19.262 246.893 19.4036Z" fill="#DC9909"/>
<path d="M146.433 38.1552L113.38 55.1229C112.935 55.3513 112.468 55.5379 111.985 55.6801L91.0244 61.8547C90.1057 62.1253 89.2478 62.557 88.4895 63.1227C83.5183 66.8313 80.3124 68.9589 74.5597 71.8348C71.0346 72.9853 68.7005 73.3326 65.7813 73.4987C63.7994 73.6115 61.8788 74.1709 60.2268 75.2103L39.5653 88.2113L36.7351 91.944L27.7553 93.0119L4.1461 98.1099C2.61305 98.441 2.08202 100.288 3.19981 101.401L19.3732 117.507C24.162 143.218 35.8067 167.206 45.9833 176.841L52.1869 190.673L53.7163 199.73C53.7841 200.131 53.9356 200.517 54.1613 200.863L62.4718 213.606L64.8416 230.264C65.021 231.525 66.3525 232.324 67.569 231.902L87.0159 225.147L99.0366 217.381C99.3946 217.149 99.8223 217.038 100.256 217.064L105.142 217.351C105.728 217.385 106.294 217.171 106.694 216.763L113.369 209.961C113.645 209.68 114.003 209.487 114.398 209.409L130.337 206.247C155.318 192.65 173.005 191.916 192.271 177.629L205.565 173.888C207.165 173.438 207.495 171.384 206.154 170.371C202.09 167.3 199.279 164.612 195.619 159.483C183.079 105.102 170.715 100.709 155.867 70.8471L157.55 68.2482C158.692 66.4838 158.521 64.1912 157.225 62.4709C155.356 59.9904 153.909 57.7172 151.786 54.2152L149.411 39.644C149.19 38.2886 147.661 37.5245 146.433 38.1552Z" fill="#DC9909"/>
<path d="M300.873 105.066C300.957 107.89 296.639 111.062 296.235 116.344" stroke="#405832" stroke-width="0.4"/>
<path d="M120.068 72.0703L127.616 74.9216L135.031 86.7906" stroke="#405832" stroke-width="0.4"/>
<path d="M96.5758 61.3331L114.903 55.4777C161.912 76.492 174.769 102.132 151.4 192.616L139.844 200.809L126.97 206.839L115.867 208.395C122.252 201.899 124.311 198.415 124.767 192.594C125.171 141.488 106.581 118.644 108.957 68.0483L96.5758 61.3331Z" fill="#895F04" fill-opacity="0.5"/>
<path d="M299.544 22.4966L280.244 23.5363C244.787 59.662 242.846 88.0133 299.826 163.774L313.751 167.298L328.056 168.347L338.973 165.869C330.511 162.094 327.24 159.586 324.548 154.341C304.246 107.03 312.601 79.2483 290.666 33.1074L299.544 22.4966Z" fill="#895F04" fill-opacity="0.5"/>
<path d="M106.317 34.6559L150.975 30.2649C151.468 30.2165 151.954 30.1228 152.428 29.9849L177.559 22.6715C178.46 22.4092 179.405 22.3086 180.348 22.3693C187.937 22.8578 192.559 22.9178 200.259 22.0794C204.734 20.916 207.29 19.7189 210.479 17.8817C212.146 16.9211 214.03 16.3736 215.972 16.3482L245.733 15.9595L251.084 17.8008L260.575 13.1896L287.72 3.06431C289.178 2.52038 290.701 3.78169 290.431 5.30925L285.761 31.682C298.959 59.6364 304.28 90.2307 301.059 105.978L304.626 123.299L309.47 133.132C309.655 133.508 309.76 133.916 309.778 134.332L310.538 152.014L319.994 170.029C320.597 171.177 319.974 172.563 318.721 172.864L294.644 178.646L277.404 178.671C276.98 178.672 276.569 178.806 276.23 179.055L271.423 182.586C270.966 182.922 270.384 183.045 269.822 182.925L258.298 180.461C257.91 180.378 257.508 180.41 257.143 180.554L239.303 187.554C205.517 190.073 187.774 200.484 159.076 198.74L142.84 203.68C141.255 204.162 139.773 202.616 140.299 201.056C142.267 195.218 143.205 190.791 143.207 183.242C117.642 122.598 126.636 110.561 120.354 72.2538L116.355 70.5552C114.352 69.7045 113.121 67.6834 113.195 65.5362C113.327 61.7148 113.158 58.5273 112.775 53.5523L104.754 37.5002C104.131 36.2533 104.934 34.7918 106.317 34.6559Z" fill="#769465"/>
<path d="M219.086 54.3068C213.399 64.463 215.906 78.6878 225.131 75.8228C234.084 73.0426 225.816 64.0646 222.895 55.0416C222.355 53.3721 219.957 52.7526 219.086 54.3068Z" fill="#33363F"/>
<path d="M237.63 67.8847C227.471 65.827 232.614 46.3191 243.893 41.2725C240.589 51.6906 247.789 69.9423 237.63 67.8847Z" fill="#33363F"/>
<path d="M222.099 51.8699C220.028 51.4476 221.379 47.7941 223.787 46.8833C222.95 48.8325 224.171 52.2922 222.099 51.8699Z" fill="#33363F"/>
<path d="M243.867 39.9451C241.795 39.5228 243.147 35.8693 245.555 34.9585C244.718 36.9077 245.939 40.3674 243.867 39.9451Z" fill="#33363F"/>
<path d="M257.269 42.5244C259.351 42.901 259.595 39.0346 257.748 37.3051C257.724 39.4108 255.188 42.1477 257.269 42.5244Z" fill="#33363F"/>
<path d="M271.771 63.3203C273.853 63.6969 274.097 59.8305 272.25 58.101C272.226 60.2067 269.69 62.9436 271.771 63.3203Z" fill="#33363F"/>
<path d="M251.726 70.5571C262.112 72.6182 264.964 52.6903 256.325 43.6651C255.327 54.524 241.339 68.496 251.726 70.5571Z" fill="#33363F"/>
<path d="M272.099 66.1452C274.292 78.5372 268.386 90.5769 261.07 83.3202C254.247 76.5519 262.692 72.2051 267.777 65.6292C268.93 64.1373 271.773 64.3036 272.099 66.1452Z" fill="#33363F"/>
<path d="M243.627 73.0052C245.826 73.4281 247.492 74.9097 248.508 76.8286C249.526 78.7519 249.865 81.0741 249.437 83.0914C249.014 85.0831 247.93 86.3768 246.421 87.0869C244.889 87.808 242.863 87.9514 240.549 87.5063C238.256 87.0651 236.474 86.0803 235.374 84.7399C234.283 83.41 233.833 81.6935 234.257 79.6967C235.119 75.6318 239.202 72.1541 243.627 73.0052Z" fill="#33363F" stroke="#33363F"/>
<path d="M234.139 80.1838C236.413 80.6211 238.17 81.7078 239.252 83.1599C240.331 84.608 240.76 86.4467 240.335 88.4481C239.914 90.4344 238.862 91.6066 237.393 92.2062C235.886 92.8211 233.879 92.8576 231.545 92.4085C229.212 91.9598 227.122 91.1361 225.735 89.9456C224.372 88.7751 223.691 87.2592 224.102 85.3251C224.526 83.3255 225.923 81.8059 227.821 80.9041C229.644 80.0383 231.911 79.7551 234.139 80.1838Z" fill="#33363F" stroke="#33363F"/>
<path d="M248.868 83.4914C253.43 84.369 256.457 87.6522 256.014 91.9703C255.581 93.9759 254.571 95.4005 253.154 96.2315C251.722 97.0714 249.807 97.3435 247.515 96.9025C245.237 96.4643 243.226 95.3261 241.9 93.8059C240.577 92.2896 239.946 90.4121 240.362 88.454C240.791 86.4325 241.804 84.9974 243.228 84.1623C244.661 83.3222 246.576 83.0504 248.868 83.4914Z" fill="#33363F" stroke="#33363F"/>
<path d="M247.923 78.2409C247.914 78.0372 247.921 77.8385 247.978 77.7163C248.002 77.6646 248.083 77.6881 248.125 77.7274C248.331 77.9209 248.402 78.2225 248.491 78.4295C248.576 78.629 248.658 78.8095 248.68 79.0267C248.688 79.1104 248.713 79.1905 248.744 79.2693C248.916 79.4953 248.984 79.6009 248.828 79.4395C248.823 79.4343 248.818 79.4287 248.812 79.4229C248.848 79.4999 248.884 79.5769 248.911 79.656C248.981 79.8639 249.027 80.0494 249.099 80.2533C249.172 80.4574 249.223 80.6874 249.32 80.8963C249.406 81.0835 249.544 81.2867 249.633 81.4937C249.719 81.6932 249.807 81.8437 249.871 82.053C249.936 82.2629 249.96 82.4571 250.063 82.6746C250.163 82.8855 250.248 83.1047 250.331 83.367C250.332 83.3722 250.334 83.3775 250.336 83.3828C250.424 83.6673 250.534 83.895 250.583 84.0943C250.596 84.1451 250.619 84.1959 250.624 84.2523C250.629 84.3087 250.617 84.3688 250.569 84.3997C250.458 84.4714 250.272 84.4302 250.096 84.4043C249.884 84.3732 249.569 84.0754 249.188 83.6867C248.874 83.3668 248.706 82.9768 248.449 82.628C248.179 82.2614 247.889 81.8245 247.573 81.401C247.074 80.7328 246.75 80.0732 246.44 79.6174C246.115 79.1411 246.008 78.8705 245.884 78.5544C245.664 77.9923 245.443 77.624 245.112 76.9214C244.938 76.5542 244.737 76.413 244.502 76.1939C244.378 76.0789 244.259 75.9641 244.152 75.841C244.094 75.7734 244.04 75.7033 243.99 75.6293C243.956 75.578 243.894 75.5396 243.896 75.5239C243.905 75.4621 244.166 75.5753 244.564 75.7225C244.885 75.8413 245.188 75.9833 245.482 76.1528C245.634 76.2044 245.74 76.2533 245.839 76.3087C246.181 76.501 246.834 77.0691 247.38 77.609C247.463 77.691 247.679 77.9444 247.923 78.2409Z" fill="#33363F"/>
<path d="M228.909 90.6869C228.959 90.7596 229.188 90.9292 229.383 91.0701C229.601 91.2277 229.819 91.3199 230.084 91.4026C230.343 91.4836 230.603 91.6131 230.908 91.7034C231.191 91.7873 231.483 91.9246 232.067 92.0608C232.244 92.1021 232.901 92.2607 233.859 92.4372C234.363 92.5301 234.606 92.4627 234.963 92.4996C235.24 92.5283 235.506 92.4462 235.71 92.4223C235.926 92.397 236.188 92.4353 236.6 92.4118C236.973 92.3904 237.21 92.3948 237.421 92.3798C237.673 92.362 238.85 92.5993 239.67 92.8437C239.914 92.9163 240.156 93.1341 240.397 93.2917C240.638 93.4488 240.89 93.5919 241.076 93.6911C241.304 93.8121 241.59 93.8851 241.789 94.0491C241.96 94.1903 242.123 94.3507 242.292 94.4937C242.468 94.6422 242.661 94.786 242.894 94.902C243.098 95.0032 243.314 95.1487 243.573 95.2225C243.791 95.2844 244.019 95.4265 244.302 95.5365C244.899 95.768 245.144 95.754 245.36 95.8348C245.619 95.9318 245.836 96.0132 246.079 96.0839C246.293 96.1461 246.598 96.2545 247.828 96.4681C248.258 96.5429 248.541 96.3287 248.78 96.3035C249.018 96.2784 249.462 96.0489 250.233 95.7074C250.447 95.6126 250.728 95.4866 251.252 95.1234C252.049 94.5705 252.523 93.9985 252.714 93.7203C252.819 93.5683 252.918 93.382 253.082 92.8472C253.246 92.3125 253.466 91.4317 253.593 90.9495C253.737 90.4069 253.909 89.735 254.147 88.8089C254.262 88.3628 254.59 88.1702 254.725 87.8875C254.833 87.6594 254.539 87.4795 254.387 87.2927C254.221 87.0878 254.084 86.8079 253.932 86.6205C253.78 86.4322 253.622 86.2451 253.445 86.0998C253.275 85.9604 253.198 85.7369 253.052 85.5661C252.906 85.3952 252.772 85.2434 252.557 85.1231C252.332 84.9973 252.224 84.7749 252.049 84.6224C251.867 84.4635 251.629 84.3759 251.437 84.2596C251.259 84.1513 251.09 84.0191 250.875 83.8594C250.629 83.6769 250.456 83.4866 250.29 83.3281C250.118 83.1633 249.963 82.9962 249.794 82.8533C249.604 82.6925 249.444 82.4698 249.346 82.3011C249.243 82.1235 249.12 81.8868 249.006 81.6356C248.862 81.3167 248.789 81.0174 248.686 80.7599C248.601 80.5493 248.463 80.2908 248.322 80.0106C248.2 79.7662 248.116 79.4969 248 79.1432C247.887 78.7987 247.939 78.5308 247.925 78.2828C247.913 78.0647 247.918 77.8469 247.978 77.7163C248.002 77.6646 248.083 77.6881 248.125 77.7274C248.331 77.9209 248.402 78.2225 248.491 78.4295C248.576 78.629 248.658 78.8095 248.68 79.0267C248.701 79.2479 248.839 79.4445 248.911 79.656C248.981 79.8639 249.027 80.0494 249.099 80.2533C249.172 80.4574 249.223 80.6874 249.32 80.8963C249.406 81.0835 249.544 81.2867 249.633 81.4937C249.719 81.6932 249.807 81.8437 249.871 82.053C249.936 82.2629 249.96 82.4571 250.063 82.6746C250.165 82.8898 250.252 83.1134 250.336 83.3828C250.424 83.6673 250.534 83.895 250.583 84.0943C250.596 84.1451 250.619 84.1959 250.624 84.2523C250.629 84.3087 250.617 84.3688 250.569 84.3997C250.458 84.4714 250.272 84.4302 250.096 84.4043C249.884 84.3732 249.569 84.0754 249.188 83.6867C248.874 83.3668 248.706 82.9768 248.449 82.628C248.179 82.2614 247.889 81.8245 247.573 81.401C247.074 80.7328 246.75 80.0732 246.44 79.6174C246.115 79.1411 246.008 78.8705 245.884 78.5544C245.664 77.9923 245.443 77.624 245.112 76.9214C244.938 76.5542 244.737 76.413 244.502 76.1939C244.31 76.0158 244.129 75.838 243.99 75.6293C243.956 75.578 243.894 75.5396 243.896 75.5239C243.905 75.4621 244.166 75.5753 244.564 75.7225C245.212 75.9624 245.788 76.2974 246.358 76.7606C246.744 77.0734 247.257 77.6154 247.742 78.1611C248.228 78.7067 248.653 79.2579 248.828 79.4395C249.31 79.9397 247.649 77.8748 247.38 77.609C246.834 77.0691 246.181 76.501 245.839 76.3087C245.649 76.2019 245.43 76.1192 244.905 75.9943C244.489 75.8956 243.76 75.7661 243.129 75.668C241.986 75.4908 241.363 75.4941 241.071 75.5482C240.174 75.7141 239.88 75.6823 239.657 75.7507C239.454 75.813 239.26 75.9423 239.053 76.0138C238.851 76.0838 238.624 76.1207 238.305 76.296C237.876 76.5315 237.117 76.7315 236.833 76.8583C236.76 76.891 236.705 76.9518 236.696 76.9511C236.426 76.9282 237.144 76.5167 237.397 76.2657C237.756 75.9085 238.403 75.4333 238.61 75.2028C238.756 75.0409 238.814 74.8311 238.849 74.7429C238.899 74.6194 238.538 74.8875 238.347 75.0007C238.102 75.1464 237.784 75.2318 237.506 75.3681C237.29 75.4737 237.094 75.5892 236.619 75.8761C236.306 76.0651 236.189 76.2524 236.061 76.4254C235.908 76.6321 235.779 76.8523 235.647 77.0489C235.526 77.2284 235.418 77.4626 235.294 77.692C235.16 77.942 234.934 78.0969 234.768 78.2941C234.594 78.5011 234.385 78.6548 234.185 78.8141C234.006 78.9569 233.879 79.0791 233.705 79.1962C233.533 79.3122 233.299 79.5515 233.039 79.6372C232.913 79.6789 232.771 79.6884 232.678 79.7334C232.632 79.7557 232.668 79.8567 232.65 79.9015C232.588 80.0649 232.27 80.0182 232.024 80.0818C231.639 80.1815 231.249 80.1385 230.974 80.1799C230.663 80.2266 230.397 80.2428 230.176 80.2636C229.955 80.2844 229.72 80.3022 229.46 80.3548C229.19 80.4093 228.185 80.7323 228.022 80.867C227.709 81.1271 227.867 81.1007 227.695 81.2415C227.505 81.3975 227.336 81.6462 227.109 81.8552C226.831 82.111 226.971 82.0643 226.811 82.3099C226.638 82.5766 226.488 82.9346 226.35 83.31C225.97 84.3426 226.123 84.7284 226.089 85.0468C226.047 85.4398 226.102 86.0024 226.157 86.5602C226.242 87.4124 226.231 87.8933 226.372 88.3247C226.519 88.7761 226.634 89.0469 226.789 89.33C226.936 89.5968 227.097 89.8321 227.263 89.9905C227.421 90.1416 227.672 90.2244 228.225 90.3479C228.271 90.3583 228.318 90.3665 228.366 90.3658C228.449 90.3645 228.494 90.3468 228.545 90.3251C228.609 90.2978 228.682 90.2648 228.757 90.2309" stroke="#33363F" stroke-width="2" stroke-linecap="round"/>
<path d="M240.439 91.9226C240.541 91.9615 240.625 91.9885 240.689 91.9979C240.725 91.9982 240.7 91.9813 240.439 91.9226Z" fill="#33363F"/>
<path d="M238.538 91.0704C238.776 91.1949 239.133 91.3896 239.804 91.661C240.206 91.8235 240.52 91.9731 240.689 91.9979C240.732 91.9983 240.688 91.9742 240.262 91.8843C239.837 91.7944 239.032 91.6395 238.192 91.5254" stroke="#33363F" stroke-width="2" stroke-linecap="round"/>
<path d="M224.929 83.2223C224.916 83.2199 224.902 83.1924 224.893 83.1406C224.878 83.0491 224.959 82.9838 224.991 82.9114C225.03 82.8223 225.095 82.7463 225.136 82.6475C225.171 82.5629 225.243 82.4863 225.296 82.4082C225.341 82.3417 225.38 82.2739 225.456 82.213C225.53 82.1532 225.586 82.0811 225.66 82.0107C225.729 81.9463 225.793 81.8825 225.856 81.8192C225.915 81.7602 225.972 81.691 226.051 81.6307C226.119 81.5789 226.185 81.4936 226.263 81.4236C226.354 81.3419 226.452 81.2624 226.532 81.2116C226.589 81.1758 226.634 81.1215 226.706 81.0756C226.786 81.0246 226.847 80.9554 226.922 80.8945C226.995 80.8359 227.07 80.7723 227.146 80.7115C227.222 80.6506 227.275 80.5857 227.343 80.5266C227.422 80.4592 227.53 80.4088 227.608 80.3828C227.703 80.3512 227.815 80.3066 227.936 80.2983C228.032 80.2916 228.243 80.2759 228.412 80.2612C228.544 80.2498 228.623 80.2609 228.709 80.2431C228.733 80.2383 228.76 80.2371 228.786 80.236C228.813 80.2348 228.839 80.2336 228.886 80.2361" stroke="#33363F" stroke-width="0.5" stroke-linecap="round"/>
<path d="M226.006 81.7907C226.035 81.7777 226.078 81.6984 226.139 81.6283C226.201 81.5572 226.265 81.502 226.328 81.4542C226.393 81.4043 226.434 81.3273 226.503 81.2808C226.569 81.2362 226.613 81.167 226.671 81.1122C226.734 81.0524 226.8 81.0022 226.86 80.9353C226.928 80.8594 226.998 80.8143 227.06 80.751C227.131 80.6797 227.213 80.6363 227.287 80.5842C227.361 80.5317 227.422 80.4628 227.506 80.4067C227.579 80.358 227.647 80.2991 227.739 80.2569C227.843 80.2088 227.93 80.1776 228.029 80.162C228.117 80.1482 228.234 80.1419 228.336 80.1456C228.445 80.1495 228.599 80.1617 228.755 80.1603C228.843 80.1596 228.912 80.1528 229.185 80.1867C229.432 80.2277 229.896 80.317 230.145 80.3618C230.394 80.4066 230.414 80.4042 230.454 80.4055" stroke="#33363F" stroke-width="0.5" stroke-linecap="round"/>
<path d="M230.094 79.6771C230.134 79.6412 230.213 79.5809 230.302 79.5479C230.405 79.5098 230.494 79.4656 230.579 79.4379C230.651 79.4146 230.728 79.3911 230.807 79.3907C230.902 79.3901 230.972 79.3565 231.075 79.3417C231.187 79.3255 231.307 79.3331 231.417 79.3261C231.558 79.3171 231.696 79.2701 231.816 79.2178C231.94 79.1638 232.043 79.1609 232.148 79.1279C232.266 79.0912 232.377 79.0433 232.493 78.9964C232.626 78.9424 232.807 78.8813 232.906 78.8373C233.024 78.7845 233.11 78.7323 233.207 78.6756C233.289 78.6279 233.404 78.5568 233.498 78.4867C233.602 78.4091 233.695 78.3364 233.77 78.2755C233.846 78.2145 233.934 78.169 234.026 78.0644C234.124 77.953 234.205 77.9197 234.299 77.85C234.405 77.7713 234.496 77.6683 234.577 77.5833C234.656 77.4996 234.728 77.443 234.763 77.3742C234.789 77.3417 234.822 77.3103 234.849 77.2778C234.859 77.2609 234.863 77.243 234.867 77.2245" stroke="#33363F" stroke-width="0.5" stroke-linecap="round"/>
<path d="M249.619 79.0703C249.623 79.121 249.661 79.2284 249.701 79.3222C249.744 79.4215 249.777 79.5303 249.818 79.6242C249.858 79.7181 249.898 79.8116 249.941 79.9274C249.99 80.0591 250.065 80.1589 250.136 80.3018C250.206 80.4405 250.27 80.5067 250.292 80.5971C250.316 80.694 250.355 80.7811 250.399 80.8934C250.436 80.988 250.472 81.083 250.504 81.1789C250.558 81.3401 250.624 81.5707 250.686 81.6691C250.744 81.7609 250.732 81.8783 250.777 82.0018C250.822 82.1254 250.891 82.2247 250.941 82.3308C250.988 82.4319 251.034 82.5101 251.102 82.6163C251.159 82.7057 251.222 82.7969 251.296 82.8724C251.365 82.9424 251.448 83.0057 251.529 83.089C251.623 83.1877 251.731 83.2321 251.838 83.2991C251.945 83.3665 252.066 83.3966 252.173 83.439C252.302 83.4897 252.382 83.5723 252.47 83.6214C252.56 83.6717 252.648 83.7379 252.74 83.8381C252.828 83.9342 252.941 84.0235 253.06 84.1218C253.167 84.2111 253.23 84.2945 253.317 84.3648C253.467 84.4867 253.568 84.6175 253.642 84.6961C253.71 84.769 253.828 84.882 253.94 84.9757C254.033 85.0535 254.121 85.1681 254.185 85.2592C254.257 85.3628 254.316 85.4563 254.393 85.5359C254.483 85.6284 254.562 85.7186 254.721 85.9245C254.827 86.0618 254.918 86.1312 254.987 86.2306C255.054 86.3261 255.102 86.403 255.137 86.4996C255.183 86.6223 255.24 86.7091 255.287 86.8044C255.334 86.8981 255.388 87.003 255.421 87.0988C255.447 87.1772 255.526 87.273 255.566 87.3705C255.603 87.4609 255.665 87.5435 255.72 87.6579C255.768 87.7585 255.822 87.8674 255.839 87.9641C255.856 88.0584 255.883 88.1802 255.925 88.3031C255.965 88.4182 256.012 88.5344 256.025 88.6663C256.036 88.7761 256.047 88.8641 256.046 88.9961C256.009 89.2225 256.02 89.3104 256.018 89.4104C256.024 89.4333 256.043 89.4511 256.062 89.4694" stroke="#33363F" stroke-width="0.5" stroke-linecap="round"/>
<path d="M224.141 85.8103C224.111 85.8898 223.993 86.0864 223.864 86.599C223.81 86.8143 223.881 86.9705 223.938 87.1283C223.994 87.2862 224.058 87.4689 224.136 87.6435C224.208 87.8014 224.168 87.9796 224.242 88.1468C224.314 88.312 224.317 88.4854 224.319 88.663C224.32 88.8349 224.418 88.9817 224.497 89.1804C224.575 89.374 224.663 89.5183 224.727 89.6712C224.821 89.893 224.956 90.0758 225.098 90.2257C225.262 90.3993 225.377 90.5121 225.508 90.6227C225.639 90.7335 225.777 90.809 225.915 90.8846C226.053 90.9602 226.215 91.0402 226.434 91.1008C226.647 91.1597 226.918 91.298 227.089 91.3735C227.299 91.466 227.509 91.5459 227.683 91.6039C227.854 91.6611 228.024 91.7793 228.253 91.8788C228.627 92.041 228.789 92.0491 228.978 92.1283C229.222 92.2308 229.467 92.302 229.946 92.4551C230.822 92.7348 231.504 92.7552 231.609 92.7449C231.826 92.7236 232.025 92.7208 232.232 92.7179C232.449 92.7149 232.726 92.6846 232.966 92.6758C233.178 92.6681 233.426 92.6599 233.637 92.6336C233.842 92.6082 234.045 92.6449 234.273 92.5727C234.572 92.526 234.824 92.4891 234.924 92.4411C234.98 92.421 235.046 92.4095 235.114 92.3977" stroke="#33363F" stroke-width="0.5" stroke-linecap="round"/>
<path d="M225.494 83.2464C225.311 83.5043 225.193 83.7006 225.043 83.8924C224.82 84.1772 224.766 84.3773 224.672 84.5795C224.596 84.7426 224.466 85.0035 224.353 85.2032C224.243 85.3994 224.164 85.5823 223.979 86.4188C223.902 86.7702 223.958 86.9736 223.961 87.1702C223.964 87.3512 223.986 87.5052 224.035 87.8807C224.064 88.1041 224.071 88.2554 224.09 88.4365C224.11 88.6208 224.242 88.7778 224.314 88.9869C224.376 89.1675 224.486 89.3258 224.579 89.5212C224.657 89.6843 224.742 89.8154 224.847 89.9218C224.977 90.0526 225.077 90.1734 225.226 90.288C225.377 90.4044 225.486 90.5455 225.606 90.7036C225.729 90.8634 226.055 90.8877 226.234 90.9836C226.389 91.0665 226.549 91.1661 226.715 91.2596C226.79 91.2985 226.874 91.3271 226.966 91.3507C227.008 91.3649 227.042 91.3836 227.07 91.4381" stroke="#33363F" stroke-width="0.5" stroke-linecap="round"/>
<path d="M224.751 84.021C224.702 84.1333 224.568 84.2786 224.44 84.4008C224.303 84.53 224.199 84.6846 224.105 84.856C223.987 85.0714 223.924 85.2554 223.814 85.5629C223.504 86.4267 223.61 86.6743 223.633 86.8688C223.66 87.1042 223.655 87.3068 223.666 87.4989C223.68 87.7492 223.678 87.9233 223.697 88.1103C223.716 88.3058 223.808 88.4619 223.852 88.6174C223.9 88.7829 223.977 88.9957 224.056 89.1702C224.147 89.373 224.248 89.5372 224.347 89.6729C224.433 89.789 224.489 89.9138 224.619 90.0249C224.753 90.1388 224.905 90.3116 225.076 90.4735C225.24 90.6284 225.364 90.755 225.53 90.8789C225.689 90.9971 225.835 91.0782 226.039 91.1726C226.237 91.2637 226.397 91.3332 226.548 91.4111C226.752 91.5168 226.923 91.581 227.374 91.6865C227.511 91.7184 227.873 91.813 228.396 91.9197C228.921 92.0268 229.48 92.183 229.913 92.3093C230.743 92.4753 231.351 92.568 231.464 92.5168C231.524 92.4795 231.588 92.4191 231.653 92.3568" stroke="#33363F" stroke-width="0.5" stroke-linecap="round"/>
<path d="M224.787 84.3938C224.721 84.4661 224.533 84.6252 224.375 84.7967C224.156 85.033 224.038 85.3246 223.911 85.6482C223.697 86.1945 223.783 86.5826 223.764 86.8503C223.749 87.074 223.815 87.2757 223.789 87.491C223.769 87.6551 223.851 87.8329 223.866 88.0073C223.884 88.2307 223.936 88.4606 223.956 88.6727C223.975 88.8769 224.049 89.0817 224.127 89.2562C224.207 89.4339 224.275 89.6513 224.361 89.7904C224.512 90.0362 224.732 90.3997 224.913 90.545C225.103 90.6972 225.254 90.8429 225.452 91.0033C225.602 91.1253 225.809 91.2556 226.033 91.3537C226.215 91.4339 226.411 91.5667 226.595 91.6699C226.792 91.7806 227.043 91.8599 227.232 91.9392C227.418 92.0175 227.659 92.101 227.876 92.1731C228.055 92.2329 228.244 92.3112 228.758 92.4285C229.022 92.4889 229.219 92.6212 229.649 92.7344C230.496 92.9575 231.14 93.0154 231.251 93.0063C231.533 92.9831 231.814 92.9862 232.041 93.0053C232.228 93.021 232.429 92.9944 232.636 92.9853C232.847 92.9762 233.058 92.9321 233.342 92.9256C233.649 92.9186 233.873 92.9054 234.055 92.867C234.286 92.8185 234.553 92.8527 234.757 92.8308C235.031 92.8013 235.254 92.755 235.59 92.7465C235.865 92.7396 236.278 92.7083 236.626 92.7072C236.935 92.7062 237.662 92.5842 238.177 92.5714C238.552 92.5337 238.836 92.4658 239.052 92.4708C239.154 92.4779 239.24 92.4944 239.328 92.5113" stroke="#33363F" stroke-width="0.5" stroke-linecap="round"/>
<path d="M160.71 158.643C163.334 165.064 170.068 169.675 172.796 164.926C175.393 160.407 169.159 159.171 163.883 156.628C162.22 155.826 160.029 156.977 160.71 158.643Z" fill="#33363F"/>
<path d="M174.951 155.976C169.299 159.125 162.74 147.564 165.654 140.513C168.898 146.914 180.602 152.827 174.951 155.976Z" fill="#33363F"/>
<path d="M160.411 154.548C159.257 155.189 158.209 152.865 158.907 151.44C159.413 152.727 161.564 153.907 160.411 154.548Z" fill="#33363F"/>
<path d="M165.032 139.879C163.878 140.52 162.83 138.196 163.528 136.771C164.034 138.058 166.186 139.238 165.032 139.879Z" fill="#33363F"/>
<path d="M172.425 135.658C173.562 134.991 171.903 133.016 170.254 132.932C171.208 133.962 171.288 136.325 172.425 135.658Z" fill="#33363F"/>
<path d="M188.681 139.823C189.818 139.156 188.159 137.181 186.51 137.097C187.464 138.128 187.544 140.49 188.681 139.823Z" fill="#33363F"/>
<path d="M182.707 151.516C188.465 148.275 180.651 137.447 172.51 136.596C177.026 142.27 176.948 154.756 182.707 151.516Z" fill="#33363F"/>
<path d="M191.776 142.453C197.234 147.538 199.022 154.377 192.888 153.89C187.465 153.46 188.176 149.239 188.038 144.697C187.98 142.814 190.356 141.13 191.776 142.453Z" fill="#33363F"/>
<path d="M187.667 158.376C189.206 160.819 188.1 163.082 185.478 164.579C182.855 166.076 180.073 165.679 178.534 163.236C176.995 160.792 177.282 157.228 179.904 155.731C182.527 154.234 186.128 155.932 187.667 158.376Z" fill="#33363F"/>
<path d="M185.905 164.689C187.444 167.132 186.174 169.135 183.551 170.632C180.929 172.129 177.947 172.554 176.408 170.11C175.622 168.862 175.578 167.447 176.073 166.161C176.547 164.93 177.515 163.817 178.798 163.085C181.42 161.588 184.366 162.245 185.905 164.689Z" fill="#33363F"/>
<path d="M194.772 159.979C196.311 162.422 195.632 164.795 193.01 166.292C190.387 167.789 186.914 167.433 185.375 164.99C183.836 162.546 184.514 160.173 187.137 158.676C189.759 157.179 192.869 157.527 194.772 159.979Z" fill="#33363F"/>
<path d="M181.362 170.594C181.418 170.609 181.602 170.598 181.757 170.587C181.93 170.574 182.074 170.53 182.234 170.462C182.391 170.395 182.572 170.352 182.754 170.271C182.924 170.196 183.122 170.143 183.455 169.971C183.556 169.919 183.933 169.728 184.458 169.422C184.734 169.262 184.816 169.13 184.998 169.002C185.14 168.903 185.225 168.754 185.309 168.659C185.398 168.559 185.537 168.47 185.717 168.291C185.88 168.128 185.992 168.034 186.082 167.941C186.191 167.829 186.845 167.464 187.338 167.247C187.484 167.183 187.696 167.19 187.88 167.168C188.063 167.146 188.246 167.112 188.378 167.084C188.539 167.05 188.705 166.968 188.872 166.967C189.016 166.966 189.165 166.977 189.309 166.977C189.458 166.977 189.614 166.968 189.775 166.929C189.916 166.895 190.083 166.878 190.237 166.808C190.366 166.749 190.537 166.725 190.719 166.662C191.101 166.531 191.209 166.424 191.346 166.375C191.51 166.317 191.648 166.267 191.793 166.202C191.921 166.145 192.112 166.073 192.78 165.675C193.013 165.535 193.046 165.316 193.145 165.207C193.244 165.097 193.345 164.805 193.545 164.324C193.601 164.191 193.674 164.015 193.75 163.625C193.866 163.032 193.823 162.561 193.784 162.348C193.763 162.231 193.724 162.1 193.555 161.774C193.385 161.448 193.084 160.931 192.922 160.645C192.739 160.323 192.511 159.927 192.197 159.381C192.046 159.118 192.11 158.89 192.042 158.698C191.988 158.543 191.769 158.576 191.613 158.548C191.442 158.516 191.25 158.436 191.094 158.407C190.937 158.378 190.779 158.352 190.63 158.354C190.487 158.355 190.349 158.278 190.203 158.255C190.057 158.232 189.925 158.213 189.771 158.242C189.609 158.273 189.457 158.209 189.306 158.207C189.148 158.204 188.998 158.259 188.856 158.281C188.723 158.301 188.585 158.306 188.412 158.316C188.214 158.328 188.047 158.306 187.897 158.297C187.742 158.287 187.593 158.27 187.449 158.27C187.288 158.269 187.112 158.226 186.989 158.184C186.86 158.14 186.694 158.076 186.526 158C186.313 157.905 186.142 157.789 185.976 157.707C185.841 157.639 185.658 157.57 185.464 157.492C185.295 157.423 185.133 157.327 184.917 157.202C184.707 157.082 184.608 156.93 184.488 156.816C184.383 156.715 184.285 156.607 184.253 156.519C184.241 156.485 184.289 156.463 184.326 156.465C184.51 156.475 184.681 156.592 184.818 156.656C184.949 156.718 185.069 156.772 185.179 156.869C185.29 156.967 185.444 157.006 185.575 157.079C185.703 157.151 185.809 157.223 185.936 157.292C186.063 157.361 186.192 157.452 186.333 157.514C186.459 157.569 186.615 157.612 186.752 157.676C186.883 157.738 186.993 157.774 187.118 157.85C187.244 157.925 187.345 158.01 187.492 158.073C187.638 158.136 187.781 158.209 187.943 158.305C188.115 158.407 188.27 158.473 188.384 158.549C188.413 158.569 188.447 158.584 188.476 158.609C188.504 158.634 188.525 158.669 188.518 158.703C188.499 158.783 188.394 158.839 188.3 158.898C188.188 158.97 187.906 158.954 187.551 158.921C187.258 158.894 187.002 158.773 186.723 158.709C186.43 158.642 186.095 158.548 185.754 158.472C185.217 158.351 184.764 158.164 184.412 158.069C184.043 157.971 183.869 157.883 183.667 157.781C183.307 157.598 183.036 157.509 182.56 157.304C182.312 157.197 182.154 157.21 181.944 157.2C181.774 157.192 181.608 157.18 181.448 157.135C181.409 157.124 181.362 157.131 181.356 157.122C181.332 157.089 181.505 157.037 181.757 156.946C182.167 156.798 182.587 156.725 183.064 156.717C183.386 156.712 183.872 156.765 184.348 156.831C184.823 156.898 185.272 156.992 185.437 157.008C185.89 157.054 184.173 156.731 183.927 156.712C183.426 156.673 182.863 156.664 182.616 156.71C182.479 156.736 182.34 156.785 182.039 156.939C181.801 157.061 181.404 157.295 181.067 157.506C180.456 157.886 180.169 158.142 180.058 158.287C179.719 158.734 179.568 158.839 179.496 158.963C179.43 159.076 179.4 159.218 179.337 159.337C179.275 159.453 179.187 159.564 179.119 159.779C179.028 160.068 178.768 160.475 178.695 160.653C178.676 160.699 178.678 160.75 178.674 160.754C178.538 160.853 178.682 160.36 178.684 160.135C178.687 159.815 178.769 159.321 178.76 159.124C178.753 158.986 178.684 158.861 178.659 158.804C178.626 158.724 178.581 159.001 178.545 159.134C178.498 159.305 178.39 159.476 178.323 159.655C178.272 159.795 178.234 159.931 178.145 160.264C178.087 160.483 178.119 160.622 178.139 160.758C178.162 160.921 178.204 161.08 178.232 161.23C178.258 161.366 178.316 161.524 178.364 161.685C178.416 161.862 178.383 162.029 178.396 162.192C178.41 162.364 178.384 162.524 178.364 162.682C178.346 162.825 178.344 162.936 178.317 163.063C178.29 163.19 178.292 163.402 178.211 163.549C178.171 163.621 178.11 163.684 178.087 163.743C178.076 163.773 178.139 163.807 178.151 163.836C178.197 163.941 178.029 164.048 177.944 164.179C177.811 164.385 177.611 164.523 177.502 164.656C177.379 164.805 177.263 164.922 177.171 165.022C177.078 165.122 176.977 165.227 176.88 165.359C176.781 165.495 176.463 166.062 176.449 166.194C176.423 166.448 176.484 166.371 176.469 166.509C176.453 166.662 176.488 166.852 176.479 167.046C176.467 167.283 176.511 167.203 176.549 167.388C176.591 167.588 176.686 167.823 176.794 168.061C177.092 168.717 177.339 168.842 177.469 169.01C177.63 169.218 177.913 169.468 178.195 169.716C178.625 170.095 178.84 170.332 179.103 170.484C179.378 170.643 179.555 170.728 179.757 170.801C179.948 170.871 180.13 170.919 180.28 170.928C180.418 170.937 180.567 170.878 180.862 170.724C180.906 170.7 180.952 170.675 180.984 170.638C181.006 170.613 181.016 170.592 181.027 170.567C181.044 170.528 181.063 170.482 181.082 170.435" stroke="#33363F" stroke-width="2" stroke-linecap="round"/>
<path d="M185.999 166.848C186.167 166.812 186.421 166.761 186.856 166.618C187.068 166.549 187.248 166.5 187.357 166.453C187.401 166.434 187.411 166.416 187.367 166.437C187.328 166.455 187.266 166.488 187.171 166.539C186.933 166.669 186.489 166.923 186.048 167.21" stroke="#33363F" stroke-width="2" stroke-linecap="round"/>
<path d="M176.095 168.597C176.088 168.601 176.069 168.593 176.041 168.572C175.992 168.534 176 168.469 175.982 168.42C175.959 168.361 175.954 168.298 175.928 168.233C175.905 168.178 175.903 168.111 175.892 168.052C175.882 168.002 175.87 167.952 175.877 167.892C175.884 167.833 175.876 167.775 175.879 167.711C175.881 167.651 175.881 167.594 175.882 167.538C175.882 167.485 175.877 167.428 175.886 167.367C175.893 167.314 175.885 167.245 175.889 167.18C175.893 167.103 175.903 167.024 175.916 166.967C175.926 166.927 175.922 166.882 175.935 166.83C175.949 166.773 175.945 166.714 175.952 166.654C175.959 166.596 175.964 166.534 175.972 166.474C175.979 166.414 175.974 166.36 175.978 166.304C175.984 166.239 176.011 166.17 176.035 166.126C176.064 166.072 176.096 166.004 176.148 165.951C176.19 165.909 176.28 165.815 176.352 165.739C176.408 165.679 176.449 165.653 176.481 165.609C176.49 165.597 176.502 165.585 176.514 165.574C176.526 165.562 176.537 165.551 176.56 165.533" stroke="#33363F" stroke-width="0.5" stroke-linecap="round"/>
<path d="M175.937 167.464C175.945 167.446 175.928 167.39 175.925 167.331C175.921 167.271 175.925 167.218 175.932 167.17C175.94 167.119 175.923 167.065 175.934 167.014C175.944 166.965 175.933 166.914 175.934 166.864C175.936 166.809 175.944 166.758 175.941 166.701C175.938 166.636 175.949 166.586 175.949 166.529C175.949 166.466 175.968 166.411 175.978 166.356C175.988 166.3 175.985 166.242 175.998 166.181C176.01 166.127 176.014 166.071 176.037 166.013C176.064 165.947 176.09 165.896 176.128 165.848C176.163 165.806 176.214 165.755 176.263 165.715C176.315 165.673 176.392 165.615 176.464 165.551C176.505 165.515 176.533 165.484 176.675 165.388C176.808 165.308 177.064 165.161 177.2 165.081C177.336 165.002 177.345 164.992 177.364 164.977" stroke="#33363F" stroke-width="0.5" stroke-linecap="round"/>
<path d="M176.863 164.77C176.866 164.736 176.874 164.675 176.901 164.622C176.931 164.562 176.952 164.504 176.979 164.456C177.001 164.415 177.026 164.373 177.063 164.34C177.106 164.301 177.124 164.256 177.164 164.207C177.209 164.153 177.268 164.108 177.316 164.06C177.377 163.998 177.419 163.919 177.451 163.844C177.484 163.768 177.53 163.724 177.564 163.665C177.601 163.599 177.631 163.531 177.663 163.461C177.7 163.38 177.756 163.277 177.782 163.215C177.812 163.141 177.828 163.081 177.847 163.014C177.863 162.957 177.884 162.876 177.895 162.803C177.908 162.723 177.918 162.65 177.925 162.59C177.932 162.529 177.952 162.471 177.946 162.383C177.94 162.289 177.963 162.24 177.975 162.168C177.988 162.086 177.982 161.999 177.981 161.925C177.979 161.852 177.987 161.795 177.971 161.747C177.969 161.721 177.97 161.692 177.967 161.665C177.964 161.653 177.958 161.643 177.951 161.632" stroke="#33363F" stroke-width="0.5" stroke-linecap="round"/>
<path d="M185.635 156.505C185.66 156.528 185.726 156.565 185.788 156.594C185.853 156.624 185.919 156.663 185.981 156.693C186.042 156.722 186.104 156.751 186.177 156.789C186.26 156.833 186.341 156.851 186.439 156.891C186.535 156.93 186.595 156.936 186.647 156.971C186.702 157.008 186.76 157.034 186.832 157.071C186.892 157.102 186.952 157.133 187.011 157.166C187.11 157.222 187.247 157.307 187.32 157.33C187.389 157.351 187.438 157.412 187.515 157.454C187.593 157.495 187.67 157.515 187.742 157.547C187.81 157.577 187.867 157.595 187.948 157.619C188.015 157.639 188.086 157.658 188.155 157.664C188.219 157.67 188.287 157.667 188.362 157.674C188.451 157.683 188.522 157.661 188.602 157.65C188.682 157.639 188.752 157.604 188.821 157.581C188.904 157.553 188.979 157.56 189.042 157.548C189.107 157.536 189.178 157.532 189.267 157.543C189.351 157.554 189.445 157.551 189.545 157.55C189.636 157.55 189.703 157.564 189.775 157.563C189.901 157.561 190.008 157.583 190.078 157.591C190.143 157.599 190.249 157.605 190.344 157.605C190.423 157.605 190.516 157.624 190.588 157.643C190.669 157.663 190.739 157.685 190.811 157.692C190.895 157.7 190.973 157.712 191.141 157.747C191.253 157.77 191.327 157.766 191.405 157.786C191.48 157.805 191.537 157.823 191.598 157.855C191.675 157.896 191.741 157.915 191.807 157.942C191.872 157.968 191.945 157.997 192.004 158.03C192.052 158.057 192.133 158.072 192.196 158.103C192.254 158.131 192.321 158.146 192.399 158.179C192.467 158.209 192.542 158.239 192.594 158.279C192.645 158.318 192.714 158.366 192.79 158.408C192.861 158.448 192.936 158.485 193.002 158.544C193.058 158.592 193.103 158.631 193.163 158.695C193.25 158.82 193.295 158.858 193.34 158.908C193.354 158.916 193.37 158.917 193.388 158.918" stroke="#33363F" stroke-width="0.5" stroke-linecap="round"/>
<path d="M176.918 170.175C176.94 170.225 176.975 170.369 177.151 170.67C177.225 170.797 177.329 170.843 177.428 170.897C177.526 170.95 177.639 171.013 177.756 171.066C177.861 171.113 177.925 171.216 178.035 171.267C178.145 171.317 178.226 171.4 178.308 171.486C178.387 171.569 178.5 171.6 178.628 171.664C178.752 171.726 178.859 171.76 178.959 171.808C179.104 171.877 179.251 171.911 179.385 171.925C179.541 171.943 179.646 171.95 179.757 171.95C179.869 171.951 179.967 171.931 180.066 171.911C180.165 171.892 180.277 171.864 180.406 171.804C180.531 171.746 180.721 171.702 180.834 171.669C180.974 171.628 181.108 171.582 181.215 171.539C181.321 171.496 181.454 171.484 181.605 171.439C181.853 171.365 181.932 171.303 182.056 171.264C182.216 171.214 182.362 171.149 182.654 171.027C183.188 170.806 183.514 170.537 183.558 170.489C183.648 170.39 183.739 170.308 183.834 170.222C183.933 170.132 184.047 170.004 184.155 169.902C184.249 169.812 184.36 169.706 184.446 169.607C184.53 169.511 184.641 169.446 184.713 169.318C184.83 169.174 184.93 169.053 184.955 168.989C184.971 168.956 184.996 168.924 185.023 168.89" stroke="#33363F" stroke-width="0.5" stroke-linecap="round"/>
<path d="M176.37 168.378C176.403 168.578 176.438 168.722 176.457 168.876C176.484 169.105 176.551 169.224 176.6 169.36C176.639 169.471 176.699 169.65 176.738 169.793C176.777 169.933 176.824 170.054 177.122 170.535C177.247 170.737 177.366 170.813 177.458 170.907C177.543 170.994 177.623 171.059 177.818 171.222C177.934 171.318 178.007 171.388 178.099 171.468C178.192 171.55 178.325 171.572 178.454 171.644C178.566 171.706 178.69 171.738 178.822 171.795C178.933 171.842 179.033 171.871 179.13 171.88C179.25 171.89 179.352 171.908 179.473 171.903C179.597 171.898 179.712 171.922 179.84 171.949C179.97 171.977 180.133 171.855 180.26 171.828C180.369 171.805 180.489 171.789 180.609 171.766C180.662 171.754 180.714 171.734 180.767 171.708C180.793 171.698 180.817 171.693 180.855 171.708" stroke="#33363F" stroke-width="0.5" stroke-linecap="round"/>
<path d="M176.38 169.057C176.409 169.131 176.413 169.256 176.41 169.368C176.406 169.486 176.428 169.604 176.463 169.725C176.507 169.878 176.562 169.993 176.652 170.187C176.905 170.733 177.067 170.81 177.167 170.895C177.288 170.998 177.378 171.098 177.471 171.187C177.592 171.302 177.672 171.387 177.766 171.471C177.864 171.558 177.978 171.596 178.07 171.653C178.168 171.714 178.302 171.785 178.418 171.838C178.553 171.899 178.675 171.938 178.784 171.963C178.877 171.984 178.96 172.022 179.071 172.022C179.185 172.023 179.335 172.045 179.489 172.053C179.636 172.062 179.751 172.073 179.885 172.065C180.012 172.057 180.117 172.037 180.255 171.999C180.389 171.963 180.495 171.931 180.6 171.908C180.743 171.875 180.852 171.837 181.11 171.704C181.188 171.663 181.398 171.561 181.69 171.4C181.982 171.237 182.313 171.085 182.571 170.969C183.032 170.711 183.357 170.508 183.386 170.437C183.396 170.394 183.398 170.339 183.4 170.282" stroke="#33363F" stroke-width="0.5" stroke-linecap="round"/>
<path d="M176.568 169.224C176.57 169.286 176.556 169.44 176.561 169.588C176.569 169.792 176.647 169.982 176.737 170.19C176.888 170.543 177.106 170.696 177.22 170.833C177.315 170.948 177.439 171.019 177.525 171.134C177.591 171.221 177.711 171.274 177.797 171.353C177.908 171.454 178.038 171.544 178.144 171.639C178.247 171.73 178.375 171.799 178.491 171.852C178.61 171.905 178.741 171.983 178.844 172.016C179.027 172.073 179.295 172.16 179.446 172.156C179.604 172.152 179.741 172.161 179.906 172.158C180.031 172.156 180.187 172.135 180.336 172.091C180.457 172.055 180.609 172.04 180.741 172.015C180.883 171.988 181.036 171.924 181.16 171.886C181.282 171.847 181.432 171.79 181.565 171.736C181.676 171.692 181.799 171.653 182.091 171.5C182.242 171.421 182.393 171.405 182.644 171.285C183.14 171.047 183.464 170.812 183.511 170.763C183.631 170.636 183.763 170.523 183.877 170.439C183.971 170.371 184.052 170.276 184.144 170.187C184.238 170.096 184.315 169.989 184.444 169.87C184.583 169.741 184.681 169.643 184.747 169.55C184.832 169.433 184.971 169.34 185.056 169.246C185.169 169.12 185.252 169.006 185.403 168.865C185.528 168.75 185.705 168.566 185.865 168.423C186.008 168.297 186.289 167.941 186.522 167.724C186.678 167.553 186.779 167.404 186.882 167.318C186.932 167.28 186.979 167.253 187.028 167.225" stroke="#33363F" stroke-width="0.5" stroke-linecap="round"/>
</svg>
