<svg width="220" height="220" viewBox="0 0 220 220" fill="none" xmlns="http://www.w3.org/2000/svg">
<path d="M77.3955 183.905C58.5598 175.134 43.4482 154.846 35.9479 139.989C26.5376 121.349 31.9966 105.064 39.2292 85.6694C46.4619 66.2748 56.5242 45.5051 75.0699 35.808C93.6156 26.1109 115.097 23.5285 135.326 28.5641C155.554 33.5997 162.147 47.1291 173.556 64.2827C184.964 81.4363 200.37 100.985 197.034 121.349C193.699 141.714 179.162 159.456 162.814 172.458C146.466 185.459 129.478 192.788 108.606 191.675L110.015 170.167L106.733 148.81L93.6075 167.381L77.3955 183.905Z" fill="url(#paint0_radial_791_305)"/>
<path d="M122.2 107.488C122.2 111.335 119.052 114.453 115.168 114.453C111.285 114.453 108.137 111.335 108.137 107.488C108.137 103.642 111.285 100.524 115.168 100.524C119.052 100.524 122.2 103.642 122.2 107.488Z" fill="#321B10"/>
<rect width="7.80611" height="21.3785" rx="3" transform="matrix(0.946479 -0.322765 0.32839 0.944542 115.639 116.044)" fill="white"/>
<path d="M71.9087 76.5514L70.7631 71.57L76.1273 71.5723L112.756 102.012L108.537 106.991L71.9087 76.5514Z" fill="#321B10"/>
<path d="M173.556 125.207L177.121 129.551L171.465 130.894L118.451 111.784L120.542 106.097L173.556 125.207Z" fill="#321B10"/>
<ellipse cx="115.639" cy="107.024" rx="5.62534" ry="5.57125" fill="white"/>
<line y1="-1" x2="95.543" y2="-1" transform="matrix(0.333639 0.942701 -0.944696 0.327947 93.1367 44.8125)" stroke="white" stroke-width="2"/>
<path d="M141.432 48.8995L150.631 37.1561L154.707 41.9665L141.432 48.8995Z" fill="#111111"/>
<path d="M131.642 48.5404L140.039 30.2951L143.398 32.2161L131.642 48.5404Z" fill="#111111"/>
<path d="M113.408 42.0273L111.784 26.7064H115.032L113.408 42.0273Z" fill="#111111"/>
<path d="M152.205 106.095L195.801 104.487V107.703L152.205 106.095Z" fill="#111111"/>
<path d="M69.9956 135.801L48.965 157.377L44.8894 152.566L69.9956 135.801Z" fill="#111111"/>
<path d="M48.7638 140.144L40.4712 146.475L38.3027 140.574L48.7638 140.144Z" fill="#111111"/>
<path d="M175.643 102.382L184.08 100.989L193.441 100.988" stroke="black" stroke-width="0.4"/>
<defs>
<radialGradient id="paint0_radial_791_305" cx="0" cy="0" r="1" gradientTransform="matrix(41.1877 70.6532 -68.8123 39.3468 110 110)" gradientUnits="userSpaceOnUse">
<stop stop-color="#A43B08"/>
<stop offset="0.836538" stop-color="#993708"/>
<stop offset="1" stop-color="#3E1603"/>
</radialGradient>
</defs>
</svg>
