<svg width="311" height="255" viewBox="0 0 311 255" fill="none" xmlns="http://www.w3.org/2000/svg">
<g filter="url(#filter0_d_0_1)">
<rect x="4" width="303" height="246" rx="30" fill="#D9D9D9" fill-opacity="0.46" shape-rendering="crispEdges"/>
</g>
<rect x="42" y="36" width="228" height="129" fill="white"/>
<rect x="78" y="188" width="156" height="31" rx="15.5" fill="#D9D9D9"/>
<path d="M149.354 93.0436C156.849 93.8074 161.939 100.977 160.358 108.373C157.292 122.716 152.918 132.899 144.685 143.205C139.388 149.836 129.364 148.843 124.394 141.974L106.798 117.656C101.689 110.596 104.141 100.464 112.328 97.5053C125.284 92.8236 136.04 91.6868 149.354 93.0436Z" fill="url(#paint0_radial_0_1)"/>
<path d="M159.841 91.897C159.331 99.6864 151.943 105.064 144.355 103.363C130.256 100.203 120.118 95.9358 110.024 87.8025C103.481 82.5297 104.534 72.5635 111.329 67.606L134.948 50.3762C142.223 45.0688 152.645 47.902 155.383 56.4921C159.408 69.1198 160.652 79.5178 159.841 91.897Z" fill="url(#paint1_radial_0_1)"/>
<path d="M165.194 105.156C157.601 105.559 151.414 99.1775 151.966 91.5627C153.04 76.7404 156.076 66.379 161.857 55.6868C166.002 48.0199 176.376 47.2087 182.52 53.3772L203.462 74.4043C209.524 80.491 208.821 90.7267 201.357 94.9601C189.686 101.579 179.164 104.415 165.194 105.156Z" fill="url(#paint2_radial_0_1)"/>
<path d="M146.285 107.187C146.111 99.8804 152.165 94.0084 159.443 94.1105C173.987 94.3147 185.152 96.2824 197.989 104.47C204.859 108.852 205.13 118.498 199.375 124.277L177.231 146.51C171.202 152.565 161.08 151.897 156.768 144.51C149.379 131.85 146.615 121.087 146.285 107.187Z" fill="url(#paint3_radial_0_1)"/>
<ellipse cx="156.606" cy="98.3916" rx="33.7171" ry="33.4536" fill="#A35F28"/>
<ellipse cx="155.433" cy="121.884" rx="1.82361" ry="1.83952" fill="#D8C3A5"/>
<ellipse cx="155.433" cy="76.5094" rx="1.82361" ry="1.83952" fill="#D8C3A5"/>
<ellipse cx="178.124" cy="100.218" rx="1.82361" ry="1.83952" fill="#D8C3A5"/>
<ellipse cx="133.142" cy="100.218" rx="1.82361" ry="1.83952" fill="#D8C3A5"/>
<ellipse cx="1.22511" cy="1.21698" rx="1.22511" ry="1.21698" transform="matrix(0.339404 -0.940641 0.938731 0.344651 173.463 112.464)" fill="#D8C3A5"/>
<ellipse cx="1.22511" cy="1.21698" rx="1.22511" ry="1.21698" transform="matrix(0.339404 -0.940641 0.938731 0.344651 142.262 80.2451)" fill="#D8C3A5"/>
<ellipse cx="1.22511" cy="1.21698" rx="1.22511" ry="1.21698" transform="matrix(0.339404 -0.940641 0.938731 0.344651 173.463 88.0112)" fill="#D8C3A5"/>
<ellipse cx="1.22511" cy="1.21698" rx="1.22511" ry="1.21698" transform="matrix(0.339404 -0.940641 0.938731 0.344651 164.549 120.231)" fill="#D8C3A5"/>
<ellipse cx="1.22511" cy="1.21698" rx="1.22511" ry="1.21698" transform="matrix(0.339404 -0.940641 0.938731 0.344651 134.154 88.0112)" fill="#D8C3A5"/>
<ellipse cx="1.22511" cy="1.21698" rx="1.22511" ry="1.21698" transform="matrix(0.339404 -0.940641 0.938731 0.344651 134.967 112.947)" fill="#D8C3A5"/>
<ellipse cx="1.22511" cy="1.21698" rx="1.22511" ry="1.21698" transform="matrix(0.339404 -0.940641 0.938731 0.344651 142.262 119.896)" fill="#D8C3A5"/>
<ellipse cx="1.22511" cy="1.21698" rx="1.22511" ry="1.21698" transform="matrix(0.339404 -0.940641 0.938731 0.344651 165.359 79.4268)" fill="#D8C3A5"/>
<path d="M185.215 99.0284L186.712 99.6706L177.348 98.6768L170.791 101.49L159.645 100.083L156.695 99.7317V97.9735H164.89L170.791 99.38L174.069 98.3251L177.02 96.5669L181.609 97.9735L185.215 99.0284Z" fill="#21281D"/>
<path d="M147.576 115.423L149.081 114.51L150.888 113.598L154.072 110.984V107.819L155.403 99.7317L154.5 99.304L152.761 106.061L151.778 110.984L150.139 112.391L147.877 113.902L145.877 117.314L147.576 115.423Z" fill="#21281D"/>
<ellipse cx="155.755" cy="99.0228" rx="1.67709" ry="1.68393" fill="#1E1E1E"/>
<rect x="127.148" y="189" width="7.69811" height="2.77931" rx="1.38966" fill="#5C4033"/>
<path d="M140.507 211.769C140.507 212.765 140.258 213.752 139.775 214.673C139.291 215.594 138.582 216.431 137.689 217.135C136.795 217.84 135.734 218.399 134.567 218.781C133.399 219.162 132.148 219.358 130.884 219.358C129.621 219.358 128.369 219.162 127.202 218.781C126.034 218.399 124.974 217.84 124.08 217.135C123.187 216.431 122.478 215.594 121.994 214.673C121.511 213.752 121.262 212.765 121.262 211.769L130.884 211.769H140.507Z" fill="#C48D27"/>
<path d="M131.679 219.359C131.679 219.443 131.658 219.526 131.618 219.604C131.579 219.682 131.52 219.753 131.447 219.812C131.373 219.872 131.286 219.919 131.189 219.951C131.093 219.983 130.99 220 130.886 220C130.782 220 130.679 219.983 130.583 219.951C130.487 219.919 130.399 219.872 130.326 219.812C130.252 219.753 130.194 219.682 130.154 219.604C130.114 219.526 130.094 219.443 130.094 219.359L130.886 219.359H131.679Z" fill="#5C4033"/>
<path d="M140.507 211.769H121.262V198.407H140.507V211.769Z" fill="#C48D27"/>
<path d="M143 200.224C143 198.947 142.69 197.682 142.087 196.502C141.483 195.321 140.6 194.249 139.485 193.346C138.371 192.442 137.048 191.726 135.592 191.237C134.136 190.748 132.576 190.497 131 190.497C129.424 190.497 127.864 190.748 126.408 191.237C124.952 191.726 123.629 192.442 122.515 193.346C121.4 194.249 120.517 195.321 119.913 196.502C119.31 197.682 119 198.947 119 200.224L131 200.224H143Z" fill="#7C462C"/>
<path d="M150.12 191.04C150.36 190.8 150.667 190.653 151.04 190.6C151.44 190.52 151.907 190.48 152.44 190.48H162.32C162.667 190.48 163.053 190.48 163.48 190.48C163.933 190.453 164.36 190.48 164.76 190.56C165.16 190.64 165.507 190.787 165.8 191C166.12 191.187 166.347 191.493 166.48 191.92C166.56 192.187 166.587 192.493 166.56 192.84C166.56 193.187 166.493 193.52 166.36 193.84C166.253 194.133 166.08 194.4 165.84 194.64C165.6 194.853 165.307 194.973 164.96 195C164.267 195.133 163.547 195.173 162.8 195.12C162.053 195.04 161.333 195 160.64 195C159.867 195 159.187 195.027 158.6 195.08C158.013 195.133 157.347 195.16 156.6 195.16C156.307 195.16 155.933 195.147 155.48 195.12C155.027 195.093 154.68 195.12 154.44 195.2C154.227 195.253 154.053 195.36 153.92 195.52C153.813 195.68 153.733 195.867 153.68 196.08C153.627 196.267 153.6 196.467 153.6 196.68C153.6 196.893 153.6 197.08 153.6 197.24C153.6 197.693 153.573 198.16 153.52 198.64C153.493 199.093 153.467 199.547 153.44 200C153.387 200.613 153.467 200.96 153.68 201.04C153.92 201.093 154.32 201.04 154.88 200.88C155.84 200.64 156.827 200.52 157.84 200.52C159.2 200.52 160.467 200.707 161.64 201.08C162.813 201.427 163.827 201.973 164.68 202.72C165.56 203.44 166.24 204.36 166.72 205.48C167.227 206.573 167.48 207.853 167.48 209.32C167.48 209.587 167.467 209.84 167.44 210.08C167.44 210.32 167.413 210.56 167.36 210.8C167.147 212.48 166.52 213.96 165.48 215.24C164.44 216.52 163.12 217.44 161.52 218C159.627 218.72 157.667 219.053 155.64 219C153.613 218.92 151.747 218.333 150.04 217.24C149.56 216.947 149.12 216.6 148.72 216.2C148.32 215.773 148.027 215.293 147.84 214.76C147.627 214.2 147.56 213.627 147.64 213.04C147.747 212.427 148.107 211.973 148.72 211.68C149.173 211.467 149.587 211.4 149.96 211.48C150.36 211.533 150.733 211.667 151.08 211.88C151.427 212.067 151.76 212.307 152.08 212.6C152.427 212.867 152.773 213.093 153.12 213.28C153.733 213.573 154.373 213.827 155.04 214.04C155.707 214.227 156.413 214.32 157.16 214.32C158.813 214.32 160.133 213.88 161.12 213C162.133 212.12 162.64 210.933 162.64 209.44C162.64 208 162.12 206.88 161.08 206.08C160.04 205.253 158.64 204.84 156.88 204.84C156.427 204.84 155.973 204.867 155.52 204.92C155.067 204.973 154.613 205.067 154.16 205.2C153.733 205.307 153.307 205.427 152.88 205.56C152.48 205.693 152.08 205.787 151.68 205.84C151.28 205.867 150.88 205.827 150.48 205.72C150.107 205.587 149.747 205.307 149.4 204.88C149.053 204.507 148.88 204.053 148.88 203.52C148.88 202.987 148.907 202.493 148.96 202.04C149.013 201.267 149.053 200.493 149.08 199.72C149.107 198.947 149.147 198.173 149.2 197.4C149.253 196.627 149.293 195.867 149.32 195.12C149.373 194.347 149.427 193.573 149.48 192.8C149.507 192.347 149.573 191.987 149.68 191.72C149.787 191.453 149.933 191.227 150.12 191.04ZM181.366 218.88C180.886 218.88 180.393 218.853 179.886 218.8C179.406 218.72 178.926 218.587 178.446 218.4C177.726 218.107 177.033 217.72 176.366 217.24C175.726 216.733 175.139 216.173 174.606 215.56C173.326 214.12 172.353 212.427 171.686 210.48C171.019 208.507 170.686 206.507 170.686 204.48C170.686 201.707 171.219 199.027 172.286 196.44C172.473 195.987 172.713 195.507 173.006 195C173.326 194.493 173.673 194.013 174.046 193.56C174.446 193.08 174.846 192.653 175.246 192.28C175.673 191.907 176.099 191.627 176.526 191.44C177.113 191.173 177.753 190.907 178.446 190.64C179.299 190.373 180.259 190.253 181.326 190.28C182.393 190.307 183.366 190.427 184.246 190.64C185.473 190.933 186.526 191.467 187.406 192.24C188.286 192.987 189.033 193.893 189.646 194.96C190.259 196 190.739 197.147 191.086 198.4C191.433 199.627 191.686 200.88 191.846 202.16C191.953 203.013 191.993 203.867 191.966 204.72C191.939 205.547 191.873 206.387 191.766 207.24C191.659 208.013 191.526 208.787 191.366 209.56C191.233 210.333 191.046 211.08 190.806 211.8C190.566 212.52 190.259 213.213 189.886 213.88C189.513 214.52 189.046 215.12 188.486 215.68C187.473 216.667 186.366 217.44 185.166 218C183.993 218.533 182.726 218.827 181.366 218.88ZM181.326 195.56C180.953 195.56 180.579 195.6 180.206 195.68C179.859 195.733 179.526 195.867 179.206 196.08C178.833 196.32 178.499 196.613 178.206 196.96C177.913 197.307 177.659 197.667 177.446 198.04C176.886 199 176.499 200.027 176.286 201.12C176.073 202.213 175.966 203.32 175.966 204.44C175.966 205.587 176.086 206.773 176.326 208C176.593 209.227 177.059 210.347 177.726 211.36C178.046 211.84 178.419 212.267 178.846 212.64C179.299 212.987 179.819 213.24 180.406 213.4C180.939 213.533 181.473 213.573 182.006 213.52C182.566 213.467 183.086 213.293 183.566 213C184.339 212.52 184.953 211.88 185.406 211.08C185.859 210.28 186.193 209.413 186.406 208.48C186.646 207.547 186.779 206.587 186.806 205.6C186.859 204.613 186.859 203.72 186.806 202.92C186.753 202.12 186.619 201.28 186.406 200.4C186.193 199.52 185.873 198.72 185.446 198C185.046 197.28 184.499 196.693 183.806 196.24C183.139 195.76 182.313 195.533 181.326 195.56Z" fill="black"/>
<defs>
<filter id="filter0_d_0_1" x="0" y="0" width="311" height="255" filterUnits="userSpaceOnUse" color-interpolation-filters="sRGB">
<feFlood flood-opacity="0" result="BackgroundImageFix"/>
<feColorMatrix in="SourceAlpha" type="matrix" values="0 0 0 0 0 0 0 0 0 0 0 0 0 0 0 0 0 0 127 0" result="hardAlpha"/>
<feOffset dy="5"/>
<feGaussianBlur stdDeviation="2"/>
<feComposite in2="hardAlpha" operator="out"/>
<feColorMatrix type="matrix" values="0 0 0 0 0 0 0 0 0 0 0 0 0 0 0 0 0 0 0.25 0"/>
<feBlend mode="normal" in2="BackgroundImageFix" result="effect1_dropShadow_0_1"/>
<feBlend mode="normal" in="SourceGraphic" in2="effect1_dropShadow_0_1" result="shape"/>
</filter>
<radialGradient id="paint0_radial_0_1" cx="0" cy="0" r="1" gradientTransform="matrix(19.1111 31.0472 -29.6788 18.0474 139.056 112.273)" gradientUnits="userSpaceOnUse">
<stop offset="0.754808" stop-color="#A35F28"/>
<stop offset="0.9375" stop-color="#683C1A"/>
<stop offset="0.9376" stop-color="#3D240F"/>
</radialGradient>
<radialGradient id="paint1_radial_0_1" cx="0" cy="0" r="1" gradientTransform="matrix(-30.921 19.1891 -17.9741 -29.7999 141.047 82.2274)" gradientUnits="userSpaceOnUse">
<stop offset="0.754808" stop-color="#A35F28"/>
<stop offset="0.9375" stop-color="#683C1A"/>
<stop offset="0.9376" stop-color="#3D240F"/>
</radialGradient>
<radialGradient id="paint2_radial_0_1" cx="0" cy="0" r="1" gradientTransform="matrix(-23.713 -27.6631 26.5017 -22.487 172.189 84.5359)" gradientUnits="userSpaceOnUse">
<stop offset="0.754808" stop-color="#A35F28"/>
<stop offset="0.9375" stop-color="#683C1A"/>
<stop offset="0.9376" stop-color="#3D240F"/>
</radialGradient>
<radialGradient id="paint3_radial_0_1" cx="0" cy="0" r="1" gradientTransform="matrix(27.5507 -23.8097 22.3956 26.6098 167.235 115.016)" gradientUnits="userSpaceOnUse">
<stop offset="0.754808" stop-color="#A35F28"/>
<stop offset="0.9375" stop-color="#683C1A"/>
<stop offset="0.9376" stop-color="#3D240F"/>
</radialGradient>
</defs>
</svg>
