<svg width="160" height="127" viewBox="0 0 160 127" fill="none" xmlns="http://www.w3.org/2000/svg">
<rect x="22.6348" y="29.9863" width="117.269" height="78.6761" fill="#B0C2DD"/>
<ellipse cx="108.755" cy="63.364" rx="15.8802" ry="15.4968" fill="#F7D275"/>
<path d="M139.599 108.662H23.2461C63.0833 75.2772 88.8199 65.703 139.599 61.874V108.662Z" fill="#758E67"/>
<path d="M22.4825 108.663L139.141 108.663C99.1989 72.513 73.3947 62.146 22.4825 58L22.4825 108.663Z" fill="#5B704F"/>
<ellipse cx="35.6271" cy="43.8755" rx="5.6623" ry="3.60405" fill="white"/>
<ellipse cx="38.5551" cy="40.2714" rx="5.07654" ry="3.45989" fill="white"/>
<ellipse cx="45.5844" cy="39.8387" rx="5.07654" ry="3.89238" fill="white"/>
<ellipse cx="47.5371" cy="43.8755" rx="6.24805" ry="3.60405" fill="white"/>
<ellipse cx="41.6801" cy="43.5867" rx="5.07654" ry="3.89238" fill="white"/>
<ellipse cx="63.782" cy="53.6883" rx="4.50075" ry="2.96366" fill="white"/>
<ellipse cx="73.2515" cy="53.6883" rx="4.96635" ry="2.96366" fill="white"/>
<ellipse cx="68.5938" cy="53.4517" rx="4.03516" ry="3.20075" fill="white"/>
<ellipse cx="128.524" cy="39.3836" rx="4.50075" ry="2.96366" fill="white"/>
<ellipse cx="133.334" cy="39.147" rx="4.03516" ry="3.20075" fill="white"/>
<rect x="22.6328" y="29.9863" width="117.269" height="78.6761" fill="#B0C2DD"/>
<ellipse cx="108.753" cy="63.364" rx="15.8802" ry="15.4968" fill="#F7D275"/>
<path d="M139.597 108.662H23.2441C63.0813 75.2772 88.8179 65.703 139.597 61.874V108.662Z" fill="#758E67"/>
<path d="M22.4806 108.663L139.139 108.663C99.1969 72.513 73.3928 62.146 22.4806 58L22.4806 108.663Z" fill="#5B704F"/>
<ellipse cx="35.6252" cy="43.8755" rx="5.6623" ry="3.60405" fill="white"/>
<ellipse cx="38.5531" cy="40.2714" rx="5.07654" ry="3.45989" fill="white"/>
<ellipse cx="45.5844" cy="39.8387" rx="5.07654" ry="3.89238" fill="white"/>
<ellipse cx="47.5352" cy="43.8755" rx="6.24805" ry="3.60405" fill="white"/>
<ellipse cx="41.6781" cy="43.5867" rx="5.07654" ry="3.89238" fill="white"/>
<ellipse cx="63.782" cy="53.6883" rx="4.50075" ry="2.96366" fill="white"/>
<ellipse cx="73.2495" cy="53.6883" rx="4.96635" ry="2.96366" fill="white"/>
<ellipse cx="68.5918" cy="53.4517" rx="4.03516" ry="3.20075" fill="white"/>
<ellipse cx="128.522" cy="39.3836" rx="4.50075" ry="2.96366" fill="white"/>
<ellipse cx="133.334" cy="39.147" rx="4.03516" ry="3.20075" fill="white"/>
<path d="M83.8516 6.54883L69.2688 20.746" stroke="#8A6A19" stroke-width="3"/>
<path d="M85.6738 6.54883L99.0414 20.746" stroke="#8A6A19" stroke-width="3"/>
<rect y="18.1553" width="159.803" height="11.831" fill="#A35F28"/>
<rect y="108.07" width="159.803" height="11.831" fill="#A35F28"/>
<rect x="139.145" y="127" width="114.761" height="12.7599" transform="rotate(-90 139.145 127)" fill="#A35F28"/>
<rect x="9.72266" y="127" width="114.761" height="12.7599" transform="rotate(-90 9.72266 127)" fill="#A35F28"/>
<path d="M151.904 18.1553L139.145 29.9863" stroke="black" stroke-width="2" stroke-linecap="round"/>
<path d="M139.752 18.1553L151.904 29.9863" stroke="black" stroke-width="2" stroke-linecap="round"/>
<path d="M139.145 31.1689H151.904" stroke="black" stroke-width="2"/>
<path d="M138.537 18.1553V29.9863" stroke="black" stroke-width="2"/>
<path d="M151.904 108.662L139.145 120.493" stroke="black" stroke-width="2" stroke-linecap="round"/>
<path d="M139.752 108.662L151.904 120.493" stroke="black" stroke-width="2" stroke-linecap="round"/>
<path d="M139.145 106.888H151.904" stroke="black" stroke-width="2"/>
<path d="M138.537 108.07V119.901" stroke="black" stroke-width="2"/>
<path d="M22.4826 108.07L9.72266 119.901" stroke="black" stroke-width="2" stroke-linecap="round"/>
<path d="M10.3301 108.07L22.4824 119.901" stroke="black" stroke-width="2" stroke-linecap="round"/>
<path d="M9.72266 106.888H22.4826" stroke="black" stroke-width="2"/>
<path d="M23.6973 108.07V119.901" stroke="black" stroke-width="2"/>
<path d="M22.4826 18.1553L9.72266 29.9863" stroke="black" stroke-width="2" stroke-linecap="round"/>
<path d="M10.3301 18.1553L22.4824 29.9863" stroke="black" stroke-width="2" stroke-linecap="round"/>
<path d="M9.72266 31.7607H22.4826" stroke="black" stroke-width="2"/>
<path d="M23.6973 18.1553V29.9863" stroke="black" stroke-width="2"/>
<g filter="url(#filter0_d_855_103)">
<ellipse cx="84.7616" cy="5.66197" rx="2.73427" ry="2.66197" fill="white"/>
<path d="M84.7617 3.2002C86.1664 3.20025 87.2959 4.30745 87.2959 5.66211C87.2958 7.0167 86.1663 8.12397 84.7617 8.12402C83.357 8.12402 82.2276 7.01674 82.2275 5.66211C82.2275 4.30742 83.357 3.2002 84.7617 3.2002Z" stroke="#B2BEB5" stroke-width="0.4"/>
</g>
<defs>
<filter id="filter0_d_855_103" x="78.0273" y="0" width="13.4688" height="13.3242" filterUnits="userSpaceOnUse" color-interpolation-filters="sRGB">
<feFlood flood-opacity="0" result="BackgroundImageFix"/>
<feColorMatrix in="SourceAlpha" type="matrix" values="0 0 0 0 0 0 0 0 0 0 0 0 0 0 0 0 0 0 127 0" result="hardAlpha"/>
<feOffset dy="1"/>
<feGaussianBlur stdDeviation="2"/>
<feComposite in2="hardAlpha" operator="out"/>
<feColorMatrix type="matrix" values="0 0 0 0 0 0 0 0 0 0 0 0 0 0 0 0 0 0 0.25 0"/>
<feBlend mode="normal" in2="BackgroundImageFix" result="effect1_dropShadow_855_103"/>
<feBlend mode="normal" in="SourceGraphic" in2="effect1_dropShadow_855_103" result="shape"/>
</filter>
</defs>
</svg>
