<svg width="97" height="138" viewBox="0 0 97 138" fill="none" xmlns="http://www.w3.org/2000/svg">
<path d="M96.5214 45.8519C91.4944 65.891 89.1223 61.9383 79.9783 82.3048C79.946 82.3767 79.8727 82.427 79.7939 82.427H47.0278H29.3147H18.5123C18.4175 82.427 18.3352 82.3577 18.3158 82.2649C14.1076 62.1221 6.39203 55.3577 7.74994 34.3815C7.76341 34.1734 8.05045 34.1209 8.13552 34.3113C16.9724 54.089 27.4038 60.9394 29.3147 82.427C26.9536 45.7044 25.5879 28.9422 31.6271 0.998773C31.6734 0.78453 31.984 0.793867 32.0219 1.00975C40.012 46.4828 47.7382 69.9246 47.0278 82.427C50.8579 49.7571 54.992 42.6594 62.7626 14.4864C62.8216 14.2724 63.1396 14.2999 63.1614 14.5208C66.0356 43.665 67.4393 51.3877 65.646 81.4065C65.6329 81.625 65.9398 81.7033 66.0375 81.5074C76.4298 60.6643 82.914 64.7446 96.1542 45.6866C96.2813 45.5035 96.5757 45.6357 96.5214 45.8519Z" fill="#3C4D32"/>
<rect y="73.8486" width="97" height="17.1568" rx="8" fill="#87AAA8"/>
<path d="M76.8602 138H21.7158L6.74805 88.0215H90.2524L76.8602 138Z" fill="#87AAA8"/>
<path d="M8.43359 94.7344H58.6205" stroke="#F4E8C1" stroke-opacity="0.5"/>
<path d="M10.9648 105.179H85.1909" stroke="#F4E8C1" stroke-opacity="0.5"/>
<path d="M14.3398 115.621H75.0703" stroke="#F4E8C1" stroke-opacity="0.5"/>
<path d="M16.8691 125.319H65.7909" stroke="#F4E8C1" stroke-opacity="0.5"/>
<path d="M22.7734 91.0059L23.6169 138" stroke="#F4E8C1" stroke-opacity="0.5"/>
<path d="M32.8945 91.0059L33.738 138" stroke="#F4E8C1" stroke-opacity="0.5"/>
<path d="M43.0176 91.0059L43.8611 138" stroke="#F4E8C1" stroke-opacity="0.5"/>
<path d="M53.1387 91.0059L53.9821 138" stroke="#F4E8C1" stroke-opacity="0.5"/>
</svg>
