<svg width="76" height="133" viewBox="0 0 76 133" fill="none" xmlns="http://www.w3.org/2000/svg">
<rect x="2.89258" y="116.545" width="70.8569" height="5.88772" rx="2" fill="#F4B42A"/>
<rect y="122.433" width="75.9181" height="9.56754" rx="4.78377" fill="#F4B42A"/>
<path d="M27.3918 107.714H46.9561L52.0599 112.13H23.1387L27.3918 107.714Z" fill="#6E6E6E"/>
<path d="M44.0908 106.291L46.1123 107.663H28.3398L30.0244 106.291H44.0908Z" fill="#6E6E6E" stroke="#2E2E2E" stroke-width="0.1"/>
<path d="M47.8217 48.1006H24.6848C16.8938 69.8015 12.8595 81.9673 21.4311 103.666C33.193 106.713 40.1831 106.6 53.2444 103.666C59.5823 80.1052 55.4522 68.5181 47.8217 48.1006Z" fill="url(#paint0_linear_856_307)"/>
<path d="M20.9688 104.177C20.9688 103.721 21.3875 103.379 21.8353 103.464C33.7205 105.709 40.7564 105.767 52.6428 103.467C53.0876 103.381 53.5051 103.72 53.5051 104.173C53.5051 104.519 53.2546 104.817 52.9145 104.879C40.8279 107.103 33.7706 107.309 21.5544 104.887C21.216 104.82 20.9688 104.522 20.9688 104.177Z" fill="#6E6E6E"/>
<rect x="23.8594" y="41.4766" width="25.306" height="6.62368" rx="2" fill="#6E6E6E"/>
<ellipse cx="36.5123" cy="43.6842" rx="16.2682" ry="0.735965" fill="#6E6E6E"/>
<ellipse cx="37.597" cy="34.8532" rx="10.1224" ry="0.735965" fill="#3C2A1E"/>
<rect x="36.1523" y="31.9092" width="2.89212" height="3.67982" rx="1" fill="#3C2A1E"/>
<path d="M37.5975 26.3819C40.6468 26.3512 42.6019 30.5559 46.9899 32.4536H28.2051C32.9389 30.7118 34.5482 26.4125 37.5975 26.3819Z" fill="#3C2A1E"/>
<path d="M20.5085 40.0061C6.58394 20.3405 17.217 7.32405 30.6746 4.13906C32.7442 3.64925 34.3322 2.00853 36.2816 1.15834C36.6267 1.00784 36.9642 0.965544 37.2971 1.02795C39.5328 1.44709 41.1725 3.56827 43.3812 4.11212C54.934 6.95684 63.4407 18.1966 54.048 40.0061" stroke="#6E6E6E"/>
<path d="M49.4558 40.7404H47.8073C47.2537 40.7404 46.735 40.4704 46.4174 40.017C45.6903 38.979 46.3162 37.5392 47.5712 37.3629L53.7247 36.4984C56.6363 36.0894 59.3552 38.041 59.8992 40.9305L71.1348 100.61C72.1726 106.123 68.474 111.41 62.9399 112.326L47.7496 114.84C46.9501 114.972 46.1811 114.475 45.9737 113.691C45.7472 112.836 46.2717 111.962 47.1333 111.759L54.9505 109.921L55.6129 109.779C60.8519 108.656 64.2747 103.603 63.3745 98.3212L54.2511 44.7876C53.8527 42.4501 51.827 40.7404 49.4558 40.7404Z" fill="#F4B42A"/>
<path d="M52.1977 39.6367H50.0584C49.624 39.6367 49.217 39.4248 48.9678 39.0691C48.3972 38.2546 48.8884 37.1248 49.8732 36.9865L55.3254 36.2209C57.8357 35.8683 60.1739 37.5681 60.6129 40.0647L71.3066 100.875C72.2585 106.289 68.6633 111.455 63.2567 112.444L50.4854 114.78C49.4013 114.978 48.4027 114.146 48.4027 113.044C48.4027 112.151 49.0686 111.399 49.9543 111.291L58.5878 110.239C64.2825 109.545 68.227 104.212 67.2238 98.5639L57.5561 44.1272C57.0947 41.5294 54.8363 39.6367 52.1977 39.6367Z" fill="#DC9909"/>
<path d="M23.5716 40.7404H25.22C25.7736 40.7404 26.2924 40.4704 26.61 40.017C27.3371 38.979 26.7111 37.5392 25.4561 37.3629L19.3026 36.4984C16.3911 36.0894 13.6721 38.041 13.1282 40.9305L1.89258 100.61C0.854759 106.123 4.55334 111.41 10.0875 112.326L25.2778 114.84C26.0772 114.972 26.8462 114.475 27.0536 113.691C27.2801 112.836 26.7557 111.962 25.894 111.759L18.0768 109.921L17.4145 109.779C12.1755 108.656 8.75264 103.603 9.65281 98.3212L18.7763 44.7876C19.1746 42.4501 21.2003 40.7404 23.5716 40.7404Z" fill="#F4B42A"/>
<path d="M20.8296 39.6367H22.969C23.4033 39.6367 23.8104 39.4248 24.0596 39.0691C24.6301 38.2546 24.1389 37.1248 23.1541 36.9865L17.7019 36.2209C15.1917 35.8683 12.8535 37.5681 12.4145 40.0647L1.72079 100.875C0.768867 106.289 4.36404 111.455 9.77061 112.444L22.542 114.78C23.626 114.978 24.6246 114.146 24.6246 113.044C24.6246 112.151 23.9588 111.399 23.0731 111.291L14.4395 110.239C8.74485 109.545 4.80037 104.212 5.8035 98.5639L15.4713 44.1272C15.9326 41.5294 18.1911 39.6367 20.8296 39.6367Z" fill="#DC9909"/>
<rect x="21.6914" y="34.8525" width="29.6442" height="8.83158" rx="2" fill="#F4B42A"/>
<path d="M21.6914 34.8525H25.3066C23.3067 37.7673 23.5027 39.7541 25.3066 43.6841H21.6914V34.8525Z" fill="#DC9909"/>
<path d="M51.3359 34.8525H47.7208C49.7207 37.7673 49.5247 39.7541 47.7208 43.6841H51.3359V34.8525Z" fill="#DC9909"/>
<path d="M23.7429 111.422C23.821 111.403 23.9011 111.394 23.9815 111.394H51.2221C51.2975 111.394 51.3726 111.402 51.4461 111.419L65.1586 114.571C66.3189 114.837 66.1252 116.545 64.9346 116.545H11.1537C9.97204 116.545 9.76757 114.856 10.9151 114.574L23.7429 111.422Z" fill="#F4B42A"/>
<path d="M21.6914 39.6366C33.4526 38.8176 39.908 38.881 51.3356 39.6366" stroke="#D9D9D9" stroke-width="0.2"/>
<path d="M21.3295 104.034L17.8021 97.8504C16.0883 94.8461 16.8256 91.0406 19.5374 88.8937L47.6816 66.6121C49.4536 65.2093 51.8986 65.0194 53.8659 66.1319V66.1319" stroke="#6E6E6E" stroke-linecap="round"/>
<path d="M53.1425 104.034V104.034C55.0863 102.954 55.3828 100.279 53.7225 98.8005L22.4137 70.9152L18.4371 67.2354" stroke="#6E6E6E" stroke-linecap="round"/>
<ellipse cx="0.724555" cy="4.77401" rx="0.724555" ry="4.77401" transform="matrix(0.937715 0.347406 -0.336696 0.941614 26.2344 49.6094)" fill="white" fill-opacity="0.49"/>
<ellipse cx="0.320371" cy="1.58182" rx="0.320371" ry="1.58182" transform="matrix(0.96476 0.263131 -0.254567 0.967055 27.6797 49.5576)" fill="white" fill-opacity="0.49"/>
<path d="M53.7706 72.3877C54.2269 72.3877 55.5777 84.8047 53.5039 92.9947" stroke="white" stroke-opacity="0.4" stroke-width="0.7" stroke-linecap="round"/>
<path d="M28.6745 107.714H27.6003C27.5199 107.714 27.4427 107.746 27.3863 107.804L24.3606 110.883C24.1742 111.073 24.3087 111.394 24.5747 111.394H32.8972C27.9376 110.747 26.6646 110.049 28.8623 108.288C29.0924 108.103 28.9694 107.714 28.6745 107.714Z" fill="#5E5858" fill-opacity="0.7"/>
<path d="M46.1595 107.714H46.8804C46.956 107.714 47.0287 107.742 47.0842 107.794L50.4125 110.874C50.6128 111.059 50.4816 111.394 50.2087 111.394H41.9367C46.8964 110.747 48.1694 110.049 45.9717 108.288C45.7416 108.103 45.8646 107.714 46.1595 107.714Z" fill="#5E5858" fill-opacity="0.7"/>
<path d="M30.0068 106.241L28.1992 107.713C35.1411 106.392 39.1032 106.32 46.275 107.713L44.1059 106.241H30.0068Z" fill="#5E5858" fill-opacity="0.7"/>
<path d="M23.8594 46.101V44.0527L24.9439 44.0532C24.8602 46.7057 25.3158 47.6812 27.4745 48.101H25.8594C24.7548 48.101 23.8594 47.2055 23.8594 46.101Z" fill="#5E5858" fill-opacity="0.7"/>
<path d="M49.166 46.101V44.0527H48.443C48.5533 47.2081 47.882 48.0754 45.7527 48.101H45.5509C45.6195 48.1017 45.6868 48.1018 45.7527 48.101H47.166C48.2706 48.101 49.166 47.2055 49.166 46.101Z" fill="#5E5858" fill-opacity="0.7"/>
<path d="M10.2575 114.572L23.861 111.394H31.809C10.2975 114.876 7.28924 116.423 24.8358 116.545H10.485C9.29649 116.545 9.10015 114.842 10.2575 114.572Z" fill="#DC9909"/>
<path d="M65.2953 114.572L51.6917 111.394H43.7437C65.2552 114.876 68.2635 116.423 50.717 116.545H65.0678C66.2562 116.545 66.4526 114.842 65.2953 114.572Z" fill="#DC9909"/>
<path d="M8.31549 122.433C3.0062 120.049 2.51937 118.746 8.31549 116.545H4.53125C3.42668 116.545 2.53125 117.44 2.53125 118.545V120.433C2.53125 121.537 3.42668 122.433 4.53125 122.433H8.31549Z" fill="#DC9909"/>
<path d="M10.1224 122.439C-0.307157 122.445 0.993946 131.957 11.049 132.001L11.207 132.001C11.1541 132.001 11.1014 132.001 11.049 132.001L4.78584 132.005C2.14311 132.006 0 129.864 0 127.221C0 124.58 2.13795 122.439 4.77906 122.438C10.1314 122.437 17.1885 122.435 10.1224 122.439Z" fill="#DC9909"/>
<path d="M65.8776 122.439C76.3072 122.445 75.0061 131.957 64.951 132.001L64.793 132.001C64.8459 132.001 64.8986 132.001 64.951 132.001L71.2142 132.005C73.8569 132.006 76 129.864 76 127.221C76 124.58 73.8621 122.439 71.2209 122.438C65.8686 122.437 58.8115 122.435 65.8776 122.439Z" fill="#DC9909"/>
<path d="M67.9658 122.433C73.275 120.049 73.7619 118.746 67.9658 116.545H71.75C72.8546 116.545 73.75 117.44 73.75 118.545V120.433C73.75 121.537 72.8546 122.433 71.75 122.433H67.9658Z" fill="#DC9909"/>
<path d="M7.95312 122.433H68.3261" stroke="#DC9909" stroke-width="0.5"/>
<path d="M69.7733 131.633H5.78516" stroke="#DC9909" stroke-width="0.8"/>
<defs>
<linearGradient id="paint0_linear_856_307" x1="36.1507" y1="34.8532" x2="36.5031" y2="105.909" gradientUnits="userSpaceOnUse">
<stop stop-color="#F07C2B"/>
<stop offset="0.682692" stop-color="#FCD77F"/>
</linearGradient>
</defs>
</svg>
