<svg width="311" height="255" viewBox="0 0 311 255" fill="none" xmlns="http://www.w3.org/2000/svg">
<g filter="url(#filter0_d_0_1)">
<rect x="4" width="303" height="246" rx="30" fill="#D9D9D9" fill-opacity="0.46" shape-rendering="crispEdges"/>
</g>
<rect x="42" y="31" width="228" height="129" fill="white"/>
<rect x="78" y="183" width="156" height="31" rx="15.5" fill="#D9D9D9"/>
<path d="M173.404 51.026L187.357 52.55C187.879 52.6071 188.406 52.6126 188.93 52.5662L196.949 51.8569C197.945 51.7689 198.947 51.8734 199.91 52.1407C202.046 52.7336 203.608 53.0541 206.065 53.2947C206.845 53.2498 207.479 53.1703 208.062 53.0531C210.075 52.6486 212.122 52.3292 214.135 52.7361L222.736 54.4745L224.493 55.5872L228.239 54.5659L236.516 53.177C238.047 52.9201 239.275 54.4294 238.712 55.8757L235.728 63.5386C238.198 75.1843 237.653 87.2263 235.252 92.9649L235.141 99.825L236.004 103.596C236.091 103.979 236.103 104.375 236.038 104.761L234.957 111.198L236.517 117.324C236.831 118.558 235.928 119.767 234.655 119.815L227.179 120.098L221.485 118.874C221.047 118.779 220.59 118.835 220.187 119.031L219.162 119.532C218.619 119.797 217.985 119.802 217.438 119.546L214.48 118.163C214.101 117.986 213.677 117.932 213.266 118.009L206.774 119.217C194.549 117.57 187.405 120.16 177.331 117.284L173.628 117.659C171.995 117.825 170.894 116.071 171.56 114.571C172.115 113.319 172.534 112 172.919 110.168C168.653 85.1402 172.813 81.2576 173.63 66.209C172.204 65.1525 171.614 63.3319 171.946 61.5888C172.117 60.6895 172.256 59.7448 172.423 58.5144L171.24 53.4698C170.926 52.1267 172.033 50.8762 173.404 51.026Z" fill="#DC9909"/>
<path d="M127.357 60.171L114.997 66.9245C114.537 67.1758 114.054 67.3812 113.555 67.5377L105.852 69.9532C104.903 70.2506 104.019 70.7279 103.232 71.3403C101.472 72.7096 100.143 73.605 97.9553 74.7692C97.2092 75.0284 96.5876 75.1983 95.9988 75.3129C93.995 75.7031 91.9921 76.1889 90.2896 77.3291L82.9577 82.2398L81.7448 83.9425L77.8963 84.4296L69.7098 86.3112C68.199 86.6585 67.6295 88.5289 68.6918 89.6549L74.3039 95.6037C76.3563 107.332 81.3469 118.275 85.7083 122.67L88.3669 128.98L88.9728 132.798C89.0346 133.188 89.1723 133.562 89.3778 133.897L92.7748 139.441L93.6116 145.703C93.7809 146.969 95.0683 147.747 96.2629 147.305L103.294 144.706L108.113 141.392C108.482 141.138 108.923 141.016 109.366 141.043L110.511 141.115C111.11 141.152 111.695 140.916 112.104 140.472L114.334 138.053C114.617 137.746 114.988 137.535 115.394 137.45L121.86 136.084C132.566 129.882 140.146 129.547 148.403 123.029L151.974 121.96C153.546 121.489 153.906 119.439 152.729 118.302C151.751 117.357 150.874 116.297 149.838 114.752C144.463 89.9446 139.165 87.9409 132.801 74.3187C133.728 72.7956 133.594 70.8803 132.636 69.3899C132.144 68.6243 131.663 67.8044 131.052 66.7317L130.269 61.6148C130.059 60.2477 128.569 59.5087 127.357 60.171Z" fill="#DC9909"/>
<path d="M194.947 89.9284C194.983 91.2167 193.132 92.6639 192.959 95.0734" stroke="#405832" stroke-width="0.4"/>
<path d="M117.459 74.8765L120.694 76.1772L123.872 81.5915" stroke="#405832" stroke-width="0.4"/>
<path d="M107.391 69.9787L115.245 67.3077C135.392 76.8938 140.902 88.5898 130.887 129.866L125.935 133.604L120.417 136.354L115.659 137.064C118.395 134.101 119.278 132.512 119.473 129.856C119.646 106.543 111.679 96.1223 112.697 73.042L107.391 69.9787Z" fill="#895F04" fill-opacity="0.5"/>
<path d="M194.376 52.2625L186.105 52.7368C170.909 69.2163 170.077 82.1493 194.497 116.709L200.465 118.317L206.596 118.795L211.274 117.665C207.648 115.943 206.246 114.799 205.092 112.406C196.391 90.8243 199.972 78.151 190.572 57.1028L194.376 52.2625Z" fill="#895F04" fill-opacity="0.5"/>
<path d="M113.158 57.6429L130.241 55.8551C130.761 55.8006 131.275 55.6952 131.775 55.5402L141.244 52.6072C142.195 52.3127 143.192 52.2022 144.183 52.2623C146.932 52.429 148.839 52.4187 151.828 52.0724C152.961 51.7589 153.806 51.4401 154.591 51.0588C156.432 50.1639 158.373 49.4606 160.416 49.4322L171.316 49.2807L173.61 50.1206L177.677 48.0171L187.458 44.1338C188.903 43.5602 190.413 44.7802 190.158 46.3146L188.471 56.4528C194.127 69.2048 196.408 83.1611 195.028 90.3445L196.556 98.2457L198.502 102.45C198.667 102.807 198.761 103.194 198.777 103.588L199.09 111.345L202.553 118.368C203.116 119.51 202.482 120.886 201.247 121.201L192.278 123.494L185.297 123.505C184.852 123.505 184.418 123.655 184.066 123.93L182.769 124.945C182.294 125.316 181.679 125.454 181.093 125.321L177.069 124.405C176.664 124.313 176.24 124.35 175.856 124.51L168.561 127.557C154.081 128.706 146.477 133.455 134.178 132.66L129.336 134.228C127.772 134.734 126.327 133.246 126.721 131.648C127.162 129.852 127.376 128.099 127.377 125.59C116.42 97.9261 120.275 92.4354 117.583 74.9605C115.691 74.1052 114.566 72.1581 114.527 70.0756C114.507 69.0012 114.439 67.8825 114.334 66.4294L111.547 60.4928C110.962 59.2452 111.786 57.7865 113.158 57.6429Z" fill="#769465"/>
<path d="M158.919 69.3857C157.935 73.4802 159.24 77.6601 162.486 76.5874C165.496 75.5921 163.963 72.8559 162.558 69.735C161.813 68.0812 159.343 67.6228 158.919 69.3857Z" fill="#33363F"/>
<path d="M167.844 72.9669C163.49 72.0283 165.694 63.1293 170.528 60.8272C169.112 65.5796 172.197 73.9055 167.844 72.9669Z" fill="#33363F"/>
<path d="M161.186 65.6613C160.298 65.4687 160.877 63.802 161.909 63.3866C161.551 64.2757 162.074 65.854 161.186 65.6613Z" fill="#33363F"/>
<path d="M170.516 60.2219C169.628 60.0292 170.207 58.3626 171.239 57.9471C170.881 58.8363 171.404 60.4145 170.516 60.2219Z" fill="#33363F"/>
<path d="M176.26 61.3979C177.152 61.5698 177.257 59.806 176.465 59.0171C176.455 59.9776 175.368 61.2261 176.26 61.3979Z" fill="#33363F"/>
<path d="M182.474 70.8843C183.366 71.0561 183.471 69.2923 182.68 68.5034C182.669 69.4639 181.582 70.7124 182.474 70.8843Z" fill="#33363F"/>
<path d="M173.885 74.1858C178.337 75.126 179.559 66.0355 175.856 61.9184C175.429 66.8719 169.434 73.2456 173.885 74.1858Z" fill="#33363F"/>
<path d="M182.786 75.4817C182.518 79.6734 180.397 82.6552 177.89 80.008C175.858 77.8631 176.985 76.2512 178.592 74.4612C179.872 73.0364 182.909 73.5627 182.786 75.4817Z" fill="#33363F"/>
<path d="M170.357 75.5696C171.186 75.7394 171.837 76.3379 172.246 77.1594C172.656 77.984 172.793 78.9836 172.621 79.846C172.454 80.6862 172.034 81.2024 171.472 81.4837C170.891 81.7747 170.095 81.8446 169.145 81.65C168.216 81.4599 167.521 81.0412 167.101 80.4958C166.687 79.9588 166.505 79.2563 166.674 78.4118C167.026 76.6437 168.672 75.2244 170.357 75.5696Z" fill="#33363F" stroke="#33363F"/>
<path d="M166.291 78.8441C167.199 79.0299 167.884 79.4877 168.301 80.0841C168.717 80.6783 168.89 81.4418 168.721 82.2902C168.554 83.1258 168.151 83.5794 167.617 83.8115C167.048 84.0583 166.258 84.0855 165.286 83.8864C164.315 83.6876 163.477 83.3282 162.936 82.8342C162.42 82.362 162.166 81.7651 162.322 80.9799C162.487 80.156 163.026 79.5261 163.774 79.148C164.495 78.7837 165.399 78.6614 166.291 78.8441Z" fill="#33363F" stroke="#33363F"/>
<path d="M172.604 80.3533C174.424 80.7262 175.603 82.0977 175.436 83.9068C175.26 84.7613 174.864 85.338 174.335 85.668C173.797 86.0036 173.057 86.1269 172.13 85.9371C170.265 85.5551 168.973 83.9975 169.29 82.4071C169.464 81.5393 169.865 80.9555 170.398 80.6224C170.936 80.2867 171.677 80.1635 172.604 80.3533Z" fill="#33363F" stroke="#33363F"/>
<path d="M172.253 77.6914C172.25 77.5984 172.253 77.5078 172.277 77.4521C172.287 77.4285 172.322 77.4392 172.34 77.4571C172.428 77.5454 172.459 77.683 172.497 77.7774C172.534 77.8684 172.569 77.9508 172.578 78.0498C172.581 78.088 172.592 78.1246 172.605 78.1605C172.679 78.2636 172.708 78.3117 172.641 78.2381C172.639 78.2357 172.637 78.2332 172.635 78.2306C172.65 78.2657 172.665 78.3008 172.677 78.3369C172.707 78.4318 172.727 78.5164 172.758 78.6094C172.789 78.7025 172.811 78.8074 172.852 78.9027C172.889 78.9881 172.948 79.0808 172.986 79.1752C173.023 79.2662 173.061 79.3349 173.088 79.4303C173.116 79.5261 173.126 79.6147 173.171 79.7139C173.213 79.8101 173.25 79.9101 173.285 80.0297C173.286 80.0321 173.287 80.0345 173.288 80.0369C173.326 80.1667 173.373 80.2706 173.394 80.3615C173.399 80.3847 173.409 80.4079 173.411 80.4336C173.413 80.4593 173.408 80.4868 173.388 80.5009C173.34 80.5336 173.26 80.5147 173.185 80.5029C173.094 80.4887 172.959 80.3529 172.796 80.1756C172.661 80.0296 172.589 79.8518 172.479 79.6926C172.363 79.5254 172.239 79.3261 172.103 79.1329C171.89 78.8281 171.751 78.5272 171.618 78.3193C171.479 78.102 171.433 77.9786 171.38 77.8344C171.285 77.578 171.191 77.41 171.049 77.0894C170.974 76.922 170.888 76.8575 170.787 76.7576C170.734 76.7052 170.683 76.6528 170.638 76.5966C170.613 76.5658 170.589 76.5338 170.568 76.5C170.553 76.4766 170.527 76.4591 170.528 76.452C170.532 76.4238 170.643 76.4754 170.814 76.5426C170.952 76.5967 171.081 76.6615 171.207 76.7388C171.273 76.7624 171.318 76.7847 171.36 76.8099C171.507 76.8977 171.787 77.1568 172.021 77.4031C172.056 77.4405 172.149 77.5561 172.253 77.6914Z" fill="#33363F"/>
<path d="M164.105 83.3689C164.126 83.402 164.224 83.4794 164.308 83.5437C164.401 83.6156 164.495 83.6577 164.608 83.6954C164.719 83.7323 164.831 83.7914 164.961 83.8326C165.082 83.8709 165.208 83.9335 165.458 83.9956C165.534 84.0144 165.815 84.0868 166.226 84.1673C166.442 84.2097 166.546 84.179 166.699 84.1958C166.818 84.2089 166.932 84.1714 167.02 84.1605C167.112 84.149 167.224 84.1664 167.401 84.1557C167.561 84.146 167.662 84.148 167.753 84.1412C167.861 84.133 168.365 84.2413 168.717 84.3528C168.821 84.3859 168.925 84.4852 169.028 84.5571C169.131 84.6288 169.239 84.6941 169.319 84.7393C169.417 84.7945 169.54 84.8278 169.625 84.9026C169.698 84.9671 169.768 85.0402 169.84 85.1054C169.916 85.1732 169.998 85.2388 170.098 85.2917C170.186 85.3379 170.278 85.4042 170.389 85.4379C170.482 85.4661 170.58 85.531 170.702 85.5811C170.957 85.6868 171.063 85.6804 171.155 85.7172C171.266 85.7615 171.359 85.7986 171.463 85.8308C171.555 85.8592 171.686 85.9087 172.213 86.0061C172.397 86.0402 172.518 85.9425 172.621 85.931C172.723 85.9196 172.913 85.8149 173.243 85.6591C173.335 85.6158 173.456 85.5583 173.68 85.3927C174.022 85.1405 174.225 84.8795 174.307 84.7526C174.352 84.6833 174.394 84.5983 174.465 84.3544C174.535 84.1104 174.629 83.7086 174.684 83.4887C174.745 83.2412 174.819 82.9347 174.921 82.5122C174.97 82.3087 175.111 82.2208 175.169 82.0919C175.215 81.9878 175.089 81.9058 175.024 81.8206C174.953 81.7271 174.894 81.5994 174.829 81.5139C174.764 81.428 174.696 81.3427 174.62 81.2764C174.547 81.2128 174.514 81.1108 174.452 81.0329C174.389 80.955 174.332 80.8857 174.24 80.8308C174.143 80.7735 174.097 80.672 174.022 80.6024C173.944 80.53 173.842 80.49 173.76 80.4369C173.683 80.3875 173.611 80.3272 173.519 80.2544C173.413 80.1711 173.339 80.0843 173.268 80.012C173.194 79.9368 173.128 79.8606 173.055 79.7954C172.974 79.7221 172.905 79.6205 172.863 79.5435C172.819 79.4625 172.766 79.3545 172.718 79.2399C172.656 79.0945 172.625 78.9579 172.58 78.8405C172.544 78.7444 172.485 78.6265 172.425 78.4987C172.372 78.3872 172.336 78.2643 172.287 78.103C172.238 77.9458 172.26 77.8236 172.254 77.7105C172.249 77.611 172.251 77.5116 172.277 77.4521C172.287 77.4285 172.322 77.4392 172.34 77.4571C172.428 77.5454 172.459 77.683 172.497 77.7774C172.534 77.8684 172.569 77.9508 172.578 78.0498C172.587 78.1507 172.646 78.2404 172.677 78.3369C172.707 78.4318 172.727 78.5164 172.758 78.6094C172.789 78.7025 172.811 78.8074 172.852 78.9027C172.889 78.9881 172.948 79.0808 172.986 79.1752C173.023 79.2662 173.061 79.3349 173.088 79.4303C173.116 79.5261 173.126 79.6147 173.171 79.7139C173.214 79.812 173.252 79.9141 173.288 80.0369C173.326 80.1667 173.373 80.2706 173.394 80.3615C173.399 80.3847 173.409 80.4079 173.411 80.4336C173.413 80.4593 173.408 80.4868 173.388 80.5009C173.34 80.5336 173.26 80.5147 173.185 80.5029C173.094 80.4887 172.959 80.3529 172.796 80.1756C172.661 80.0296 172.589 79.8518 172.479 79.6926C172.363 79.5254 172.239 79.3261 172.103 79.1329C171.89 78.8281 171.751 78.5272 171.618 78.3193C171.479 78.102 171.433 77.9786 171.38 77.8344C171.285 77.578 171.191 77.41 171.049 77.0894C170.974 76.922 170.888 76.8575 170.787 76.7576C170.705 76.6764 170.628 76.5953 170.568 76.5C170.553 76.4766 170.527 76.4591 170.528 76.452C170.532 76.4238 170.643 76.4754 170.814 76.5426C171.092 76.652 171.338 76.8048 171.583 77.0161C171.748 77.1588 171.968 77.406 172.176 77.655C172.384 77.9039 172.566 78.1553 172.641 78.2381C172.848 78.4663 172.136 77.5244 172.021 77.4031C171.787 77.1568 171.507 76.8977 171.36 76.8099C171.279 76.7612 171.185 76.7235 170.96 76.6666C170.782 76.6215 170.469 76.5624 170.199 76.5177C169.709 76.4368 169.442 76.4384 169.317 76.463C168.933 76.5387 168.806 76.5242 168.711 76.5554C168.624 76.5838 168.541 76.6428 168.452 76.6754C168.366 76.7074 168.268 76.7242 168.132 76.8042C167.948 76.9116 167.623 77.0028 167.501 77.0607C167.469 77.0756 167.446 77.1033 167.442 77.103C167.326 77.0925 167.634 76.9048 167.742 76.7903C167.896 76.6274 168.173 76.4106 168.262 76.3055C168.325 76.2316 168.35 76.1359 168.365 76.0957C168.386 76.0393 168.231 76.1616 168.15 76.2133C168.045 76.2798 167.908 76.3187 167.789 76.3809C167.697 76.429 167.613 76.4817 167.409 76.6126C167.275 76.6988 167.225 76.7843 167.17 76.8632C167.104 76.9575 167.049 77.058 166.992 77.1476C166.94 77.2295 166.894 77.3363 166.841 77.441C166.784 77.555 166.687 77.6257 166.616 77.7157C166.541 77.8101 166.451 77.8802 166.366 77.9528C166.289 78.018 166.235 78.0737 166.16 78.1271C166.086 78.1801 165.986 78.2892 165.875 78.3283C165.821 78.3474 165.76 78.3517 165.72 78.3722C165.7 78.3824 165.716 78.4285 165.708 78.4489C165.681 78.5234 165.545 78.5021 165.44 78.5312C165.275 78.5766 165.108 78.557 164.99 78.5759C164.856 78.5972 164.742 78.6046 164.648 78.6141C164.553 78.6236 164.452 78.6317 164.341 78.6557C164.225 78.6805 163.794 78.8279 163.725 78.8893C163.59 79.008 163.658 78.996 163.584 79.0602C163.503 79.1313 163.43 79.2448 163.333 79.3401C163.214 79.4568 163.274 79.4355 163.206 79.5475C163.131 79.6692 163.067 79.8325 163.008 80.0038C162.845 80.4748 162.911 80.6508 162.896 80.796C162.878 80.9753 162.902 81.232 162.925 81.4864C162.962 81.8751 162.957 82.0945 163.017 82.2913C163.08 82.4972 163.13 82.6208 163.196 82.7499C163.259 82.8716 163.328 82.9789 163.399 83.0512C163.463 83.1158 163.561 83.153 163.768 83.2037C163.817 83.2157 163.868 83.2301 163.916 83.2164C163.928 83.2131 163.938 83.2087 163.949 83.2038C163.976 83.1914 164.007 83.1764 164.039 83.1609" stroke="#33363F" stroke-width="2" stroke-linecap="round"/>
<path d="M169.084 83.9465C169.072 83.9422 169.06 83.9372 169.046 83.9317C169.066 83.9365 169.083 83.9407 169.097 83.9443C169.143 83.9563 169.129 83.9628 169.084 83.9465Z" fill="#33363F"/>
<path d="M168.231 83.543C168.333 83.5998 168.486 83.6886 168.774 83.8123C168.901 83.8672 169.008 83.9188 169.084 83.9465C169.129 83.9628 169.143 83.9563 169.097 83.9443C169.068 83.9368 169.027 83.927 168.97 83.9142C168.788 83.8732 168.443 83.8026 168.083 83.7505" stroke="#33363F" stroke-width="2" stroke-linecap="round"/>
<path d="M162.397 79.9626C162.392 79.9615 162.386 79.949 162.382 79.9253C162.376 79.8836 162.411 79.8538 162.424 79.8208C162.441 79.7801 162.469 79.7455 162.486 79.7004C162.501 79.6618 162.532 79.6269 162.555 79.5912C162.574 79.5609 162.591 79.53 162.623 79.5022C162.655 79.4749 162.679 79.442 162.711 79.4099C162.74 79.3805 162.768 79.3514 162.795 79.3225C162.82 79.2956 162.845 79.2641 162.878 79.2366C162.907 79.2129 162.936 79.174 162.969 79.1421C163.008 79.1048 163.05 79.0686 163.085 79.0454C163.109 79.029 163.128 79.0043 163.159 78.9833C163.194 78.9601 163.22 78.9285 163.252 78.9007C163.283 78.874 163.315 78.845 163.348 78.8172C163.38 78.7895 163.403 78.7599 163.432 78.7329C163.466 78.7022 163.512 78.6792 163.546 78.6673C163.586 78.6529 163.635 78.6326 163.686 78.6288C163.727 78.6257 163.818 78.6185 163.89 78.6119C163.947 78.6066 163.981 78.6117 164.018 78.6036C164.028 78.6014 164.039 78.6009 164.051 78.6003C164.062 78.5998 164.073 78.5993 164.093 78.6004" stroke="#33363F" stroke-width="0.5" stroke-linecap="round"/>
<path d="M162.859 79.3108C162.871 79.3048 162.89 79.2687 162.916 79.2367C162.942 79.2042 162.97 79.179 162.997 79.1573C163.025 79.1345 163.042 79.0994 163.072 79.0782C163.1 79.0578 163.119 79.0262 163.144 79.0013C163.171 78.974 163.199 78.9511 163.225 78.9205C163.254 78.8859 163.284 78.8654 163.311 78.8365C163.341 78.8039 163.376 78.7841 163.408 78.7604C163.44 78.7364 163.466 78.705 163.502 78.6794C163.533 78.6572 163.562 78.6303 163.602 78.6111C163.646 78.5891 163.684 78.5749 163.726 78.5678C163.763 78.5615 163.814 78.5586 163.857 78.5603C163.904 78.5621 163.97 78.5676 164.037 78.567C164.075 78.5667 164.104 78.5636 164.221 78.5791C164.327 78.5977 164.526 78.6385 164.633 78.6589C164.739 78.6794 164.748 78.6783 164.765 78.6788" stroke="#33363F" stroke-width="0.5" stroke-linecap="round"/>
<path d="M164.612 78.346C164.629 78.3296 164.663 78.3022 164.701 78.2871C164.745 78.2697 164.783 78.2496 164.82 78.2369C164.851 78.2263 164.883 78.2156 164.917 78.2154C164.958 78.2151 164.988 78.1998 165.032 78.193C165.08 78.1856 165.132 78.1891 165.179 78.1859C165.239 78.1818 165.298 78.1604 165.35 78.1365C165.403 78.1119 165.447 78.1105 165.492 78.0955C165.543 78.0787 165.59 78.0569 165.64 78.0355C165.697 78.0109 165.775 77.983 165.817 77.9629C165.868 77.9388 165.904 77.915 165.946 77.8892C165.981 77.8674 166.03 77.835 166.071 77.803C166.115 77.7676 166.155 77.7344 166.187 77.7066C166.22 77.6788 166.258 77.658 166.297 77.6104C166.339 77.5596 166.374 77.5443 166.414 77.5126C166.459 77.4767 166.498 77.4297 166.533 77.3909C166.567 77.3527 166.598 77.3269 166.613 77.2955C166.624 77.2807 166.638 77.2663 166.65 77.2515C166.654 77.2438 166.656 77.2356 166.657 77.2272" stroke="#33363F" stroke-width="0.5" stroke-linecap="round"/>
<path d="M172.98 78.0688C172.982 78.092 172.998 78.1409 173.016 78.1838C173.034 78.2291 173.048 78.2787 173.065 78.3215C173.083 78.3643 173.1 78.407 173.119 78.4598C173.14 78.5199 173.172 78.5655 173.202 78.6306C173.232 78.6939 173.259 78.7241 173.269 78.7653C173.279 78.8095 173.296 78.8492 173.315 78.9005C173.33 78.9436 173.346 78.987 173.36 79.0307C173.383 79.1043 173.411 79.2094 173.438 79.2543C173.462 79.2962 173.457 79.3498 173.477 79.4061C173.496 79.4625 173.526 79.5078 173.547 79.5562C173.567 79.6023 173.587 79.638 173.616 79.6864C173.641 79.7272 173.667 79.7688 173.699 79.8033C173.729 79.8352 173.764 79.864 173.799 79.9021C173.839 79.9471 173.886 79.9673 173.931 79.9979C173.977 80.0286 174.029 80.0424 174.075 80.0617C174.13 80.0849 174.165 80.1225 174.202 80.1449C174.241 80.1679 174.279 80.1981 174.318 80.2438C174.356 80.2876 174.404 80.3283 174.455 80.3732C174.501 80.4139 174.528 80.452 174.565 80.484C174.63 80.5396 174.673 80.5993 174.704 80.6352C174.734 80.6684 174.784 80.72 174.832 80.7627C174.872 80.7982 174.91 80.8505 174.937 80.892C174.968 80.9393 174.993 80.982 175.027 81.0183C175.065 81.0605 175.099 81.1016 175.167 81.1955C175.212 81.2581 175.251 81.2898 175.281 81.3352C175.31 81.3787 175.33 81.4138 175.345 81.4579C175.365 81.5138 175.389 81.5535 175.41 81.5969C175.43 81.6397 175.453 81.6875 175.467 81.7312C175.478 81.767 175.512 81.8107 175.529 81.8552C175.545 81.8964 175.571 81.9341 175.595 81.9863C175.616 82.0321 175.639 82.0818 175.646 82.126C175.653 82.1689 175.665 82.2245 175.683 82.2806C175.7 82.3331 175.72 82.3861 175.726 82.4463C175.731 82.4963 175.735 82.5365 175.735 82.5967C175.719 82.7 175.724 82.7401 175.723 82.7857C175.725 82.7962 175.733 82.8043 175.742 82.8126" stroke="#33363F" stroke-width="0.5" stroke-linecap="round"/>
<path d="M162.061 81.144C162.048 81.1803 161.997 81.2699 161.942 81.5038C161.919 81.602 161.95 81.6733 161.974 81.7452C161.998 81.8173 162.025 81.9006 162.059 81.9803C162.09 82.0523 162.073 82.1336 162.104 82.2099C162.135 82.2852 162.137 82.3643 162.137 82.4453C162.138 82.5238 162.18 82.5907 162.214 82.6814C162.247 82.7697 162.285 82.8355 162.312 82.9052C162.352 83.0064 162.41 83.0898 162.471 83.1582C162.541 83.2374 162.591 83.2888 162.647 83.3393C162.703 83.3898 162.762 83.4243 162.821 83.4588C162.881 83.4933 162.95 83.5298 163.044 83.5574C163.135 83.5843 163.251 83.6474 163.325 83.6818C163.414 83.724 163.504 83.7604 163.579 83.7869C163.652 83.813 163.725 83.8669 163.823 83.9123C163.983 83.9863 164.053 83.99 164.134 84.0261C164.239 84.0728 164.344 84.1053 164.549 84.1752C164.924 84.3028 165.217 84.3121 165.262 84.3074C165.354 84.2977 165.44 84.2964 165.528 84.2951C165.622 84.2937 165.74 84.2798 165.843 84.2759C165.934 84.2724 166.04 84.2686 166.131 84.2566C166.218 84.245 166.306 84.2618 166.403 84.2288C166.531 84.2075 166.639 84.1907 166.682 84.1688C166.706 84.1596 166.734 84.1544 166.764 84.149" stroke="#33363F" stroke-width="0.5" stroke-linecap="round"/>
<path d="M162.639 79.9743C162.561 80.0919 162.51 80.1815 162.446 80.269C162.351 80.3989 162.328 80.4902 162.287 80.5824C162.254 80.6568 162.199 80.7758 162.151 80.8669C162.103 80.9564 162.069 81.0398 161.99 81.4214C161.957 81.5817 161.981 81.6745 161.982 81.7642C161.984 81.8468 161.993 81.917 162.014 82.0883C162.026 82.1902 162.03 82.2592 162.038 82.3419C162.046 82.426 162.103 82.4975 162.134 82.593C162.16 82.6753 162.207 82.7476 162.247 82.8367C162.281 82.9111 162.317 82.9709 162.362 83.0194C162.418 83.0791 162.461 83.1342 162.524 83.1865C162.589 83.2396 162.636 83.304 162.688 83.3761C162.74 83.4489 162.88 83.46 162.957 83.5038C163.023 83.5416 163.091 83.587 163.163 83.6297C163.195 83.6474 163.231 83.6605 163.27 83.6713C163.288 83.6777 163.303 83.6862 163.315 83.7111" stroke="#33363F" stroke-width="0.5" stroke-linecap="round"/>
<path d="M162.322 80.3269C162.301 80.3782 162.243 80.4445 162.188 80.5002C162.13 80.5592 162.085 80.6297 162.045 80.7079C161.994 80.8061 161.967 80.8901 161.92 81.0303C161.787 81.4244 161.832 81.5373 161.842 81.626C161.854 81.7334 161.852 81.8258 161.857 81.9135C161.862 82.0277 161.862 82.1071 161.87 82.1923C161.878 82.2815 161.917 82.3527 161.936 82.4237C161.957 82.4992 161.99 82.5963 162.024 82.6759C162.063 82.7684 162.106 82.8433 162.149 82.9052C162.185 82.9581 162.209 83.0151 162.265 83.0658C162.322 83.1177 162.388 83.1965 162.461 83.2704C162.531 83.3411 162.584 83.3988 162.655 83.4553C162.723 83.5093 162.786 83.5462 162.874 83.5893C162.958 83.6309 163.027 83.6626 163.092 83.6981C163.179 83.7463 163.252 83.7756 163.446 83.8237C163.505 83.8383 163.659 83.8814 163.884 83.9301C164.109 83.979 164.348 84.0502 164.534 84.1078C164.89 84.1836 165.15 84.2258 165.199 84.2025C165.224 84.1855 165.252 84.1579 165.28 84.1295" stroke="#33363F" stroke-width="0.5" stroke-linecap="round"/>
<path d="M162.338 80.4978C162.31 80.5309 162.229 80.6034 162.161 80.6817C162.068 80.7895 162.017 80.9225 161.962 81.0701C161.871 81.3193 161.908 81.4963 161.9 81.6185C161.893 81.7205 161.921 81.8125 161.91 81.9107C161.902 81.9856 161.937 82.0667 161.943 82.1462C161.951 82.2481 161.973 82.353 161.982 82.4498C161.99 82.5429 162.021 82.6364 162.055 82.716C162.089 82.797 162.118 82.8962 162.155 82.9596C162.22 83.0718 162.314 83.2376 162.392 83.3039C162.473 83.3733 162.538 83.4398 162.623 83.5129C162.687 83.5686 162.776 83.628 162.872 83.6728C162.95 83.7094 163.034 83.7699 163.113 83.817C163.197 83.8675 163.305 83.9037 163.385 83.9398C163.466 83.9756 163.569 84.0137 163.662 84.0466C163.738 84.0738 163.819 84.1095 164.04 84.1631C164.153 84.1906 164.237 84.251 164.421 84.3026C164.785 84.4044 165.061 84.4308 165.108 84.4266C165.229 84.416 165.349 84.4174 165.447 84.4262C165.527 84.4334 165.613 84.4212 165.702 84.4171C165.792 84.4129 165.883 84.3928 166.004 84.3898C166.136 84.3866 166.232 84.3806 166.31 84.3631C166.409 84.341 166.523 84.3566 166.611 84.3466C166.728 84.3331 166.824 84.312 166.968 84.3081C167.086 84.305 167.262 84.2907 167.412 84.2902C167.544 84.2898 167.856 84.2341 168.076 84.2282C168.237 84.2111 168.359 84.1801 168.452 84.1824C168.495 84.1856 168.532 84.1931 168.57 84.2009" stroke="#33363F" stroke-width="0.5" stroke-linecap="round"/>
<path d="M136.355 116.783C137.649 118.199 139.255 118.718 140.056 117.235C140.74 115.967 139.994 115.266 138.792 114.644C137.177 113.808 135.115 115.427 136.355 116.783Z" fill="#33363F"/>
<path d="M140.979 113.151C138.557 114.588 135.746 109.314 136.995 106.098C138.385 109.018 143.401 111.715 140.979 113.151Z" fill="#33363F"/>
<path d="M134.748 112.5C134.254 112.792 133.804 111.732 134.104 111.083C134.32 111.67 135.242 112.208 134.748 112.5Z" fill="#33363F"/>
<path d="M136.729 105.809C136.234 106.101 135.785 105.042 136.084 104.392C136.301 104.979 137.223 105.517 136.729 105.809Z" fill="#33363F"/>
<path d="M139.896 103.883C140.384 103.579 139.673 102.678 138.966 102.639C139.375 103.11 139.409 104.187 139.896 103.883Z" fill="#33363F"/>
<path d="M146.863 105.783C147.351 105.479 146.64 104.578 145.933 104.539C146.342 105.01 146.376 106.087 146.863 105.783Z" fill="#33363F"/>
<path d="M144.303 111.117C146.771 109.639 143.422 104.699 139.933 104.311C141.868 106.9 141.835 112.595 144.303 111.117Z" fill="#33363F"/>
<path d="M150.075 109.748C150.621 111.191 150.296 112.338 148.666 112.2C147.797 112.127 147.295 111.811 147.005 111.336C145.987 109.672 149.384 107.917 150.075 109.748Z" fill="#33363F"/>
<path d="M146.427 114.246C147.086 115.361 146.612 116.393 145.488 117.076C144.364 117.759 143.172 117.578 142.513 116.463C141.853 115.349 141.976 113.723 143.1 113.04C144.224 112.357 145.767 113.131 146.427 114.246Z" fill="#33363F"/>
<path d="M145.672 117.126C146.331 118.24 145.787 119.154 144.663 119.837C143.539 120.52 142.261 120.714 141.602 119.599C141.265 119.03 141.246 118.384 141.458 117.798C141.661 117.236 142.076 116.728 142.626 116.394C143.75 115.711 145.012 116.011 145.672 117.126Z" fill="#33363F"/>
<path d="M149.474 114.977C150.133 116.092 149.842 117.174 148.718 117.857C147.595 118.54 146.106 118.378 145.446 117.263C144.787 116.149 145.078 115.066 146.201 114.383C147.325 113.7 148.658 113.859 149.474 114.977Z" fill="#33363F"/>
<path d="M143.726 119.82C143.751 119.827 143.829 119.821 143.896 119.816C143.97 119.811 144.032 119.79 144.1 119.759C144.168 119.729 144.245 119.709 144.323 119.673C144.396 119.638 144.481 119.614 144.624 119.536C144.667 119.512 144.828 119.425 145.053 119.285C145.172 119.212 145.207 119.152 145.285 119.094C145.346 119.048 145.382 118.981 145.418 118.937C145.456 118.891 145.516 118.851 145.593 118.769C145.663 118.695 145.711 118.652 145.75 118.609C145.796 118.558 146.077 118.392 146.288 118.293C146.35 118.264 146.441 118.267 146.52 118.257C146.599 118.247 146.677 118.232 146.733 118.219C146.802 118.203 146.873 118.166 146.945 118.165C147.007 118.165 147.071 118.17 147.132 118.17C147.196 118.17 147.263 118.166 147.332 118.148C147.393 118.133 147.464 118.124 147.53 118.093C147.585 118.066 147.659 118.055 147.737 118.026C147.901 117.966 147.947 117.918 148.005 117.895C148.076 117.869 148.135 117.846 148.197 117.816C148.252 117.79 148.334 117.758 148.62 117.576C148.72 117.512 148.734 117.412 148.777 117.362C148.819 117.312 148.862 117.179 148.948 116.96C148.972 116.899 149.003 116.819 149.036 116.641C149.085 116.37 149.067 116.155 149.05 116.058C149.041 116.005 149.025 115.945 148.952 115.796C148.879 115.648 148.75 115.412 148.681 115.281C148.603 115.135 148.505 114.954 148.37 114.705C148.305 114.585 148.333 114.481 148.304 114.393C148.281 114.323 148.187 114.338 148.12 114.325C148.047 114.31 147.964 114.274 147.897 114.26C147.83 114.247 147.762 114.235 147.698 114.236C147.637 114.237 147.578 114.202 147.516 114.191C147.453 114.181 147.397 114.172 147.33 114.185C147.261 114.199 147.196 114.17 147.131 114.169C147.063 114.168 146.999 114.193 146.938 114.203C146.881 114.212 146.822 114.214 146.748 114.219C146.663 114.224 146.591 114.214 146.527 114.21C146.461 114.206 146.397 114.198 146.335 114.198C146.266 114.198 146.191 114.178 146.138 114.159C146.083 114.139 146.012 114.109 145.94 114.075C145.849 114.031 145.775 113.979 145.704 113.941C145.646 113.91 145.568 113.879 145.485 113.843C145.412 113.812 145.343 113.768 145.25 113.711C145.16 113.656 145.118 113.587 145.066 113.535C145.021 113.489 144.979 113.439 144.966 113.399C144.96 113.383 144.981 113.374 144.997 113.374C145.076 113.379 145.149 113.432 145.207 113.462C145.264 113.49 145.315 113.515 145.362 113.559C145.41 113.604 145.476 113.621 145.532 113.655C145.587 113.688 145.632 113.72 145.687 113.752C145.741 113.783 145.797 113.825 145.857 113.853C145.911 113.878 145.978 113.898 146.036 113.927C146.093 113.955 146.14 113.972 146.194 114.006C146.248 114.041 146.291 114.079 146.354 114.108C146.416 114.137 146.477 114.17 146.547 114.214C146.621 114.26 146.687 114.29 146.736 114.325C146.749 114.334 146.763 114.341 146.775 114.353C146.787 114.364 146.797 114.38 146.793 114.395C146.785 114.432 146.74 114.457 146.7 114.485C146.652 114.517 146.531 114.51 146.379 114.495C146.254 114.483 146.144 114.428 146.024 114.398C145.898 114.367 145.755 114.325 145.609 114.29C145.379 114.235 145.185 114.149 145.034 114.106C144.876 114.061 144.801 114.021 144.714 113.975C144.56 113.891 144.444 113.851 144.24 113.757C144.134 113.708 144.066 113.715 143.976 113.71C143.903 113.706 143.832 113.701 143.764 113.68C143.747 113.675 143.727 113.678 143.724 113.674C143.714 113.659 143.788 113.636 143.896 113.594C144.072 113.526 144.252 113.493 144.456 113.49C144.594 113.487 144.802 113.511 145.006 113.542C145.21 113.572 145.402 113.615 145.473 113.622C145.667 113.643 144.931 113.496 144.826 113.487C144.611 113.469 144.37 113.465 144.264 113.486C144.205 113.498 144.146 113.52 144.017 113.591C143.915 113.646 143.745 113.753 143.6 113.849C143.338 114.023 143.215 114.14 143.168 114.206C143.022 114.41 142.958 114.457 142.927 114.514C142.899 114.566 142.886 114.63 142.859 114.685C142.832 114.738 142.794 114.788 142.765 114.886C142.726 115.018 142.615 115.204 142.583 115.285C142.575 115.306 142.576 115.329 142.575 115.331C142.516 115.376 142.578 115.151 142.579 115.049C142.58 114.903 142.615 114.677 142.611 114.588C142.608 114.525 142.579 114.468 142.568 114.441C142.554 114.405 142.535 114.531 142.519 114.592C142.499 114.67 142.453 114.748 142.424 114.83C142.402 114.893 142.386 114.956 142.348 115.108C142.323 115.208 142.337 115.271 142.345 115.333C142.355 115.407 142.373 115.48 142.385 115.548C142.396 115.61 142.421 115.682 142.442 115.756C142.464 115.836 142.45 115.912 142.455 115.987C142.462 116.065 142.45 116.138 142.442 116.211C142.434 116.276 142.433 116.326 142.422 116.385C142.41 116.442 142.411 116.539 142.376 116.606C142.359 116.639 142.333 116.667 142.323 116.695C142.318 116.708 142.345 116.724 142.351 116.737C142.37 116.785 142.298 116.834 142.262 116.894C142.205 116.987 142.119 117.05 142.072 117.111C142.02 117.179 141.97 117.232 141.93 117.278C141.891 117.324 141.847 117.371 141.806 117.432C141.763 117.494 141.627 117.752 141.621 117.812C141.61 117.928 141.636 117.893 141.63 117.956C141.623 118.026 141.638 118.113 141.634 118.201C141.629 118.309 141.648 118.273 141.664 118.357C141.682 118.449 141.723 118.556 141.769 118.664C141.896 118.963 142.003 119.02 142.058 119.097C142.127 119.192 142.249 119.306 142.369 119.419C142.553 119.592 142.646 119.7 142.758 119.77C142.876 119.842 142.952 119.881 143.039 119.914C143.12 119.946 143.199 119.968 143.263 119.972C143.317 119.976 143.375 119.954 143.48 119.897C143.521 119.875 143.565 119.851 143.583 119.808V119.808C143.59 119.79 143.598 119.769 143.607 119.747" stroke="#33363F" stroke-width="2" stroke-linecap="round"/>
<path d="M145.715 118.112C145.786 118.095 145.896 118.072 146.082 118.007C146.151 117.983 146.212 117.964 146.257 117.947C146.303 117.93 146.307 117.92 146.264 117.944C146.251 117.951 146.235 117.96 146.217 117.971C146.115 118.03 145.925 118.146 145.736 118.277" stroke="#33363F" stroke-width="2" stroke-linecap="round"/>
<path d="M141.47 118.909C141.467 118.911 141.459 118.908 141.447 118.898C141.426 118.88 141.429 118.851 141.422 118.829C141.412 118.802 141.41 118.773 141.398 118.743C141.389 118.718 141.388 118.688 141.383 118.661C141.379 118.638 141.374 118.615 141.377 118.588C141.38 118.561 141.376 118.534 141.377 118.505C141.378 118.478 141.379 118.452 141.379 118.426C141.379 118.402 141.377 118.376 141.38 118.348C141.384 118.324 141.38 118.293 141.382 118.263C141.384 118.228 141.388 118.192 141.394 118.166C141.398 118.147 141.396 118.127 141.401 118.103C141.407 118.077 141.406 118.05 141.409 118.023C141.412 117.996 141.414 117.968 141.417 117.941C141.42 117.913 141.418 117.889 141.42 117.863C141.422 117.834 141.434 117.802 141.444 117.782C141.457 117.757 141.471 117.727 141.493 117.702C141.511 117.683 141.549 117.64 141.58 117.606C141.604 117.578 141.622 117.566 141.636 117.546C141.64 117.541 141.645 117.535 141.65 117.53C141.655 117.525 141.66 117.52 141.669 117.512" stroke="#33363F" stroke-width="0.5" stroke-linecap="round"/>
<path d="M141.403 118.392C141.406 118.384 141.399 118.359 141.397 118.332C141.395 118.304 141.397 118.28 141.4 118.258C141.404 118.235 141.396 118.21 141.401 118.187C141.405 118.165 141.401 118.142 141.401 118.119C141.402 118.094 141.405 118.07 141.404 118.044C141.403 118.015 141.408 117.992 141.408 117.966C141.408 117.937 141.416 117.912 141.42 117.887C141.424 117.862 141.423 117.835 141.429 117.807C141.434 117.783 141.436 117.757 141.445 117.73C141.457 117.7 141.468 117.677 141.484 117.655C141.499 117.636 141.521 117.613 141.542 117.595C141.565 117.575 141.598 117.549 141.628 117.52C141.646 117.503 141.658 117.489 141.719 117.446C141.776 117.409 141.886 117.342 141.944 117.306C142.002 117.269 142.006 117.265 142.014 117.258" stroke="#33363F" stroke-width="0.5" stroke-linecap="round"/>
<path d="M141.799 117.163C141.8 117.148 141.803 117.12 141.815 117.096C141.828 117.068 141.837 117.042 141.848 117.02C141.858 117.001 141.868 116.982 141.884 116.967C141.903 116.949 141.91 116.929 141.927 116.907C141.947 116.882 141.972 116.861 141.992 116.839C142.019 116.811 142.037 116.775 142.05 116.741C142.064 116.706 142.084 116.686 142.099 116.659C142.115 116.629 142.128 116.598 142.141 116.566C142.157 116.529 142.181 116.482 142.192 116.454C142.205 116.42 142.212 116.393 142.22 116.362C142.227 116.336 142.236 116.299 142.241 116.266C142.246 116.229 142.25 116.196 142.253 116.169C142.256 116.141 142.265 116.115 142.263 116.074C142.26 116.032 142.27 116.009 142.275 115.976C142.28 115.939 142.278 115.899 142.278 115.865C142.277 115.832 142.28 115.806 142.273 115.784C142.272 115.772 142.273 115.759 142.272 115.747C142.27 115.741 142.268 115.737 142.265 115.732" stroke="#33363F" stroke-width="0.5" stroke-linecap="round"/>
<path d="M145.559 113.393C145.569 113.404 145.598 113.42 145.624 113.434C145.652 113.448 145.68 113.465 145.707 113.479C145.733 113.492 145.76 113.505 145.791 113.523C145.827 113.543 145.861 113.551 145.903 113.569C145.944 113.587 145.97 113.59 145.992 113.605C146.016 113.622 146.041 113.635 146.072 113.651C146.098 113.665 146.123 113.68 146.149 113.695C146.191 113.72 146.249 113.759 146.281 113.769C146.311 113.779 146.331 113.807 146.365 113.826C146.398 113.845 146.431 113.854 146.462 113.868C146.491 113.882 146.515 113.891 146.55 113.901C146.579 113.911 146.609 113.919 146.639 113.922C146.666 113.925 146.695 113.923 146.727 113.927C146.766 113.931 146.796 113.92 146.83 113.915C146.865 113.91 146.894 113.895 146.924 113.884C146.96 113.871 146.992 113.875 147.019 113.869C147.047 113.864 147.077 113.862 147.115 113.867C147.151 113.872 147.192 113.87 147.234 113.87C147.273 113.87 147.302 113.876 147.333 113.876C147.387 113.875 147.433 113.885 147.463 113.889C147.491 113.892 147.536 113.895 147.577 113.895C147.611 113.895 147.651 113.904 147.681 113.912C147.716 113.921 147.746 113.931 147.777 113.934C147.813 113.938 147.846 113.944 147.918 113.959C147.966 113.97 147.998 113.968 148.032 113.978C148.064 113.986 148.088 113.994 148.114 114.009C148.147 114.028 148.176 114.036 148.204 114.049C148.232 114.061 148.263 114.074 148.288 114.089C148.309 114.101 148.343 114.108 148.37 114.122C148.396 114.135 148.424 114.142 148.457 114.157C148.487 114.17 148.519 114.184 148.541 114.202C148.563 114.22 148.593 114.242 148.625 114.261C148.655 114.28 148.688 114.296 148.716 114.323C148.74 114.345 148.759 114.363 148.785 114.392C148.822 114.449 148.842 114.467 148.861 114.489C148.867 114.493 148.874 114.493 148.881 114.494" stroke="#33363F" stroke-width="0.5" stroke-linecap="round"/>
<path d="M141.822 119.628C141.832 119.651 141.847 119.717 141.922 119.854C141.953 119.912 141.998 119.933 142.04 119.958C142.083 119.982 142.131 120.011 142.181 120.035C142.226 120.056 142.253 120.103 142.301 120.126C142.348 120.149 142.382 120.187 142.418 120.226C142.452 120.264 142.5 120.278 142.555 120.308C142.608 120.336 142.654 120.351 142.697 120.373C142.759 120.405 142.822 120.42 142.879 120.427C142.946 120.435 142.991 120.438 143.039 120.438C143.087 120.439 143.129 120.43 143.171 120.421C143.213 120.412 143.261 120.399 143.317 120.372C143.37 120.345 143.452 120.325 143.5 120.31C143.56 120.291 143.618 120.27 143.664 120.251C143.709 120.231 143.766 120.226 143.831 120.205C143.937 120.171 143.971 120.143 144.024 120.125C144.092 120.103 144.155 120.073 144.28 120.017C144.509 119.916 144.649 119.794 144.668 119.772C144.706 119.727 144.745 119.689 144.786 119.65C144.829 119.609 144.877 119.551 144.924 119.504C144.964 119.463 145.012 119.415 145.048 119.37C145.084 119.326 145.132 119.296 145.163 119.238C145.213 119.172 145.256 119.117 145.266 119.087C145.273 119.073 145.284 119.058 145.295 119.042" stroke="#33363F" stroke-width="0.5" stroke-linecap="round"/>
<path d="M141.588 118.81C141.602 118.901 141.617 118.966 141.625 119.037C141.637 119.141 141.665 119.195 141.686 119.258C141.703 119.308 141.729 119.39 141.745 119.455C141.762 119.519 141.782 119.574 141.91 119.794C141.964 119.886 142.015 119.92 142.054 119.963C142.09 120.003 142.125 120.033 142.208 120.107C142.258 120.151 142.289 120.183 142.328 120.219C142.369 120.256 142.426 120.266 142.481 120.299C142.529 120.328 142.582 120.342 142.639 120.368C142.686 120.39 142.729 120.403 142.771 120.407C142.822 120.412 142.866 120.42 142.918 120.417C142.971 120.415 143.02 120.426 143.075 120.438C143.131 120.451 143.2 120.396 143.255 120.384C143.302 120.373 143.353 120.365 143.404 120.355C143.427 120.35 143.449 120.34 143.472 120.329C143.483 120.324 143.494 120.322 143.51 120.328" stroke="#33363F" stroke-width="0.5" stroke-linecap="round"/>
<path d="M141.591 119.119C141.603 119.153 141.605 119.21 141.604 119.261C141.602 119.315 141.612 119.369 141.627 119.424C141.645 119.494 141.669 119.546 141.708 119.635C141.816 119.884 141.885 119.919 141.928 119.957C141.98 120.004 142.019 120.05 142.059 120.091C142.11 120.143 142.144 120.182 142.185 120.22C142.227 120.26 142.276 120.277 142.315 120.303C142.357 120.331 142.414 120.364 142.464 120.388C142.522 120.416 142.575 120.433 142.621 120.445C142.661 120.455 142.697 120.472 142.744 120.472C142.793 120.472 142.857 120.482 142.923 120.486C142.986 120.49 143.035 120.495 143.093 120.491C143.148 120.488 143.192 120.479 143.252 120.461C143.309 120.445 143.354 120.43 143.4 120.42C143.461 120.405 143.507 120.387 143.618 120.327C143.651 120.308 143.742 120.262 143.866 120.188C143.992 120.114 144.133 120.044 144.244 119.992C144.442 119.874 144.581 119.781 144.593 119.749C144.598 119.729 144.599 119.704 144.599 119.678" stroke="#33363F" stroke-width="0.5" stroke-linecap="round"/>
<path d="M141.673 119.195C141.674 119.223 141.668 119.293 141.67 119.361C141.673 119.454 141.707 119.54 141.745 119.636C141.81 119.796 141.903 119.866 141.952 119.929C141.993 119.981 142.046 120.013 142.083 120.066C142.111 120.106 142.163 120.13 142.2 120.166C142.247 120.212 142.303 120.253 142.348 120.296C142.392 120.338 142.447 120.369 142.497 120.393C142.548 120.418 142.604 120.453 142.648 120.468C142.727 120.494 142.842 120.534 142.906 120.532C142.974 120.531 143.033 120.535 143.103 120.533C143.157 120.532 143.224 120.523 143.288 120.503C143.34 120.486 143.405 120.479 143.461 120.468C143.522 120.456 143.588 120.427 143.641 120.409C143.693 120.391 143.757 120.365 143.815 120.341C143.862 120.321 143.915 120.303 144.04 120.233C144.104 120.197 144.169 120.19 144.277 120.135C144.489 120.026 144.628 119.919 144.649 119.897C144.7 119.839 144.756 119.787 144.805 119.749C144.846 119.718 144.88 119.675 144.92 119.634C144.96 119.593 144.993 119.544 145.048 119.489C145.108 119.43 145.15 119.386 145.178 119.343C145.214 119.29 145.274 119.248 145.31 119.205C145.359 119.147 145.394 119.095 145.459 119.031C145.513 118.978 145.588 118.895 145.657 118.829C145.719 118.772 145.839 118.609 145.939 118.511C146.006 118.432 146.049 118.365 146.093 118.325C146.115 118.308 146.135 118.296 146.156 118.283" stroke="#33363F" stroke-width="0.5" stroke-linecap="round"/>
<rect x="129.148" y="184" width="7.69811" height="2.77931" rx="1.38966" fill="#5C4033"/>
<path d="M142.507 206.769C142.507 207.765 142.258 208.752 141.775 209.673C141.291 210.594 140.582 211.431 139.689 212.135C138.795 212.84 137.734 213.399 136.567 213.781C135.399 214.162 134.148 214.358 132.884 214.358C131.621 214.358 130.369 214.162 129.202 213.781C128.034 213.399 126.974 212.84 126.08 212.135C125.187 211.431 124.478 210.594 123.994 209.673C123.511 208.752 123.262 207.765 123.262 206.769L132.884 206.769H142.507Z" fill="#C48D27"/>
<path d="M133.679 214.359C133.679 214.443 133.658 214.526 133.618 214.604C133.579 214.682 133.52 214.753 133.447 214.812C133.373 214.872 133.286 214.919 133.189 214.951C133.093 214.983 132.99 215 132.886 215C132.782 215 132.679 214.983 132.583 214.951C132.487 214.919 132.399 214.872 132.326 214.812C132.252 214.753 132.194 214.682 132.154 214.604C132.114 214.526 132.094 214.443 132.094 214.359L132.886 214.359H133.679Z" fill="#5C4033"/>
<path d="M142.507 206.769H123.262V193.407H142.507V206.769Z" fill="#C48D27"/>
<path d="M145 195.224C145 193.947 144.69 192.682 144.087 191.502C143.483 190.321 142.6 189.249 141.485 188.346C140.371 187.442 139.048 186.726 137.592 186.237C136.136 185.748 134.576 185.497 133 185.497C131.424 185.497 129.864 185.748 128.408 186.237C126.952 186.726 125.629 187.442 124.515 188.346C123.4 189.249 122.517 190.321 121.913 191.502C121.31 192.682 121 193.947 121 195.224L133 195.224H145Z" fill="#7C462C"/>
<path d="M166.68 191.68C166.44 191.52 166.187 191.36 165.92 191.2C165.653 191.013 165.373 190.867 165.08 190.76C164.147 190.387 163.12 190.187 162 190.16C160.907 190.107 159.88 190.307 158.92 190.76C158.147 191.133 157.493 191.6 156.96 192.16C156.453 192.72 156.04 193.347 155.72 194.04C155.4 194.733 155.16 195.467 155 196.24C154.84 197.013 154.747 197.787 154.72 198.56C155.44 197.84 156.32 197.2 157.36 196.64C158.4 196.053 159.733 195.76 161.36 195.76C162.72 195.76 163.987 195.96 165.16 196.36C166.36 196.733 167.4 197.293 168.28 198.04C169.16 198.787 169.853 199.707 170.36 200.8C170.867 201.893 171.12 203.147 171.12 204.56C171.12 205.973 170.853 207.267 170.32 208.44C169.787 209.587 169.053 210.587 168.12 211.44C167.213 212.267 166.12 212.92 164.84 213.4C163.587 213.853 162.227 214.08 160.76 214.08C159.053 214.08 157.56 213.827 156.28 213.32C155.027 212.787 153.933 212.067 153 211.16C152.467 210.627 151.987 210.04 151.56 209.4C151.16 208.733 150.813 207.987 150.52 207.16C150.227 206.307 150 205.333 149.84 204.24C149.68 203.147 149.6 201.893 149.6 200.48C149.6 199.307 149.68 198.12 149.84 196.92C150 195.72 150.267 194.56 150.64 193.44C151.04 192.32 151.56 191.267 152.2 190.28C152.84 189.293 153.64 188.413 154.6 187.64C155.507 186.92 156.493 186.36 157.56 185.96C158.627 185.56 159.72 185.333 160.84 185.28C161.96 185.227 163.08 185.333 164.2 185.6C165.32 185.867 166.373 186.307 167.36 186.92C167.627 187.08 167.933 187.32 168.28 187.64C168.627 187.933 168.92 188.267 169.16 188.64C169.4 189.013 169.547 189.44 169.6 189.92C169.653 190.373 169.52 190.84 169.2 191.32C169.147 191.427 169.027 191.533 168.84 191.64C168.653 191.747 168.44 191.827 168.2 191.88C167.96 191.933 167.707 191.947 167.44 191.92C167.173 191.893 166.92 191.813 166.68 191.68ZM160.48 200.56C159.573 200.613 158.72 200.853 157.92 201.28C157.12 201.68 156.427 202.227 155.84 202.92C155.467 203.373 155.253 203.893 155.2 204.48C155.147 205.04 155.187 205.6 155.32 206.16C155.427 206.827 155.693 207.413 156.12 207.92C156.547 208.4 157.04 208.8 157.6 209.12C158.187 209.413 158.813 209.627 159.48 209.76C160.173 209.867 160.84 209.88 161.48 209.8C162.2 209.72 162.853 209.533 163.44 209.24C164.053 208.92 164.573 208.533 165 208.08C165.427 207.6 165.747 207.053 165.96 206.44C166.2 205.8 166.28 205.12 166.2 204.4C166.12 203.627 165.92 202.987 165.6 202.48C165.28 201.947 164.867 201.533 164.36 201.24C163.853 200.947 163.267 200.76 162.6 200.68C161.933 200.573 161.227 200.533 160.48 200.56ZM185.007 213.88C184.527 213.88 184.033 213.853 183.527 213.8C183.047 213.72 182.567 213.587 182.087 213.4C181.367 213.107 180.673 212.72 180.007 212.24C179.367 211.733 178.78 211.173 178.247 210.56C176.967 209.12 175.993 207.427 175.327 205.48C174.66 203.507 174.327 201.507 174.327 199.48C174.327 196.707 174.86 194.027 175.927 191.44C176.113 190.987 176.353 190.507 176.647 190C176.967 189.493 177.313 189.013 177.687 188.56C178.087 188.08 178.487 187.653 178.887 187.28C179.313 186.907 179.74 186.627 180.167 186.44C180.753 186.173 181.393 185.907 182.087 185.64C182.94 185.373 183.9 185.253 184.967 185.28C186.033 185.307 187.007 185.427 187.887 185.64C189.113 185.933 190.167 186.467 191.047 187.24C191.927 187.987 192.673 188.893 193.287 189.96C193.9 191 194.38 192.147 194.727 193.4C195.073 194.627 195.327 195.88 195.487 197.16C195.593 198.013 195.633 198.867 195.607 199.72C195.58 200.547 195.513 201.387 195.407 202.24C195.3 203.013 195.167 203.787 195.007 204.56C194.873 205.333 194.687 206.08 194.447 206.8C194.207 207.52 193.9 208.213 193.527 208.88C193.153 209.52 192.687 210.12 192.127 210.68C191.113 211.667 190.007 212.44 188.807 213C187.633 213.533 186.367 213.827 185.007 213.88ZM184.967 190.56C184.593 190.56 184.22 190.6 183.847 190.68C183.5 190.733 183.167 190.867 182.847 191.08C182.473 191.32 182.14 191.613 181.847 191.96C181.553 192.307 181.3 192.667 181.087 193.04C180.527 194 180.14 195.027 179.927 196.12C179.713 197.213 179.607 198.32 179.607 199.44C179.607 200.587 179.727 201.773 179.967 203C180.233 204.227 180.7 205.347 181.367 206.36C181.687 206.84 182.06 207.267 182.487 207.64C182.94 207.987 183.46 208.24 184.047 208.4C184.58 208.533 185.113 208.573 185.647 208.52C186.207 208.467 186.727 208.293 187.207 208C187.98 207.52 188.593 206.88 189.047 206.08C189.5 205.28 189.833 204.413 190.047 203.48C190.287 202.547 190.42 201.587 190.447 200.6C190.5 199.613 190.5 198.72 190.447 197.92C190.393 197.12 190.26 196.28 190.047 195.4C189.833 194.52 189.513 193.72 189.087 193C188.687 192.28 188.14 191.693 187.447 191.24C186.78 190.76 185.953 190.533 184.967 190.56Z" fill="black"/>
<defs>
<filter id="filter0_d_0_1" x="0" y="0" width="311" height="255" filterUnits="userSpaceOnUse" color-interpolation-filters="sRGB">
<feFlood flood-opacity="0" result="BackgroundImageFix"/>
<feColorMatrix in="SourceAlpha" type="matrix" values="0 0 0 0 0 0 0 0 0 0 0 0 0 0 0 0 0 0 127 0" result="hardAlpha"/>
<feOffset dy="5"/>
<feGaussianBlur stdDeviation="2"/>
<feComposite in2="hardAlpha" operator="out"/>
<feColorMatrix type="matrix" values="0 0 0 0 0 0 0 0 0 0 0 0 0 0 0 0 0 0 0.25 0"/>
<feBlend mode="normal" in2="BackgroundImageFix" result="effect1_dropShadow_0_1"/>
<feBlend mode="normal" in="SourceGraphic" in2="effect1_dropShadow_0_1" result="shape"/>
</filter>
</defs>
</svg>
