<svg width="311" height="255" viewBox="0 0 311 255" fill="none" xmlns="http://www.w3.org/2000/svg">
<g filter="url(#filter0_d_0_1)">
<rect x="4" width="303" height="246" rx="30" fill="#D9D9D9" fill-opacity="0.46" shape-rendering="crispEdges"/>
</g>
<rect x="42" y="31" width="228" height="129" fill="white"/>
<rect x="78" y="183" width="156" height="31" rx="15.5" fill="#D9D9D9"/>
<rect x="97" y="51.3003" width="116" height="93.699" fill="#5C4033"/>
<path d="M111.896 41H198.421L213 51.3002H97L111.896 41Z" fill="#5C4033"/>
<rect x="116.018" y="144.667" width="6.97268" height="5.64852" fill="#5C4033"/>
<rect x="187.645" y="144.667" width="6.97268" height="5.64852" fill="#5C4033"/>
<rect x="107.775" y="56.2842" width="95.082" height="14.6197" fill="#F5DEB3"/>
<rect x="107.775" y="78.5459" width="95.082" height="14.6197" fill="#F5DEB3"/>
<rect x="107.775" y="101.14" width="95.082" height="14.6197" fill="#F5DEB3"/>
<rect x="107.775" y="123.402" width="95.082" height="14.6197" fill="#F5DEB3"/>
<ellipse cx="156.268" cy="63.594" rx="6.02186" ry="0.996797" fill="#B7410E"/>
<ellipse cx="156.268" cy="85.8557" rx="6.02186" ry="0.996797" fill="#B7410E"/>
<ellipse cx="156.268" cy="108.45" rx="6.02186" ry="0.996797" fill="#B7410E"/>
<mask id="path-15-inside-1_0_1" fill="white">
<ellipse cx="156.268" cy="130.712" rx="6.02186" ry="0.996797"/>
</mask>
<path d="M162.29 130.712H161.29C161.29 130.341 161.518 130.152 161.539 130.135C161.573 130.107 161.562 130.125 161.452 130.168C161.243 130.25 160.881 130.344 160.363 130.43C159.342 130.599 157.894 130.708 156.268 130.708V131.708V132.708C157.968 132.708 159.531 132.595 160.689 132.403C161.261 132.308 161.781 132.187 162.181 132.031C162.376 131.955 162.602 131.847 162.796 131.69C162.978 131.543 163.29 131.22 163.29 130.712H162.29ZM156.268 131.708V130.708C154.642 130.708 153.194 130.599 152.173 130.43C151.655 130.344 151.293 130.25 151.084 130.168C150.974 130.125 150.963 130.107 150.997 130.135C151.018 130.152 151.246 130.341 151.246 130.712H150.246H149.246C149.246 131.22 149.558 131.543 149.74 131.69C149.934 131.847 150.16 131.955 150.355 132.031C150.755 132.187 151.275 132.308 151.847 132.403C153.005 132.595 154.568 132.708 156.268 132.708V131.708ZM150.246 130.712H151.246C151.246 131.082 151.018 131.271 150.997 131.288C150.963 131.316 150.974 131.298 151.084 131.255C151.293 131.173 151.655 131.079 152.173 130.993C153.194 130.824 154.642 130.715 156.268 130.715V129.715V128.715C154.568 128.715 153.005 128.828 151.847 129.02C151.275 129.115 150.755 129.236 150.355 129.392C150.16 129.469 149.934 129.576 149.74 129.733C149.558 129.88 149.246 130.203 149.246 130.712H150.246ZM156.268 129.715V130.715C157.894 130.715 159.342 130.824 160.363 130.993C160.881 131.079 161.243 131.173 161.452 131.255C161.562 131.298 161.573 131.316 161.539 131.288C161.518 131.271 161.29 131.082 161.29 130.712H162.29H163.29C163.29 130.203 162.978 129.88 162.796 129.733C162.602 129.576 162.376 129.469 162.181 129.392C161.781 129.236 161.261 129.115 160.689 129.02C159.531 128.828 157.968 128.715 156.268 128.715V129.715Z" fill="black" mask="url(#path-15-inside-1_0_1)"/>
<ellipse cx="156.268" cy="130.712" rx="6.02186" ry="0.996797" fill="#B7410E"/>
<path d="M121.086 147.325V149.651" stroke="#111111"/>
<path d="M209.83 140.68V143.006" stroke="#111111"/>
<path d="M209.83 96.8208V99.1467" stroke="#111111"/>
<path d="M209.83 54.9551V57.2809" stroke="#111111"/>
<path d="M199.053 60.2715V62.5973" stroke="#111111"/>
<path d="M110.947 81.5361V83.862" stroke="#111111"/>
<path d="M199.053 112.604V114.099" stroke="#111111"/>
<path d="M183.525 67.2494C182.376 67.875 181.67 68.146 180.04 68.4123" stroke="#111111"/>
<path d="M185.743 67.7475C184.931 68.2097 184.385 68.4086 183.208 68.6288" stroke="#111111"/>
<path d="M121.086 69.2427H125.523" stroke="#111111"/>
<path d="M110.947 58.2778V60.6037" stroke="#111111"/>
<path d="M199.689 134.034V136.36" stroke="#111111"/>
<path d="M110.629 58.2778H112.847" stroke="#111111"/>
<path d="M197.787 136.36H200.006" stroke="#111111"/>
<path d="M196.52 41.9966L198.738 43.6579" stroke="#111111"/>
<path d="M101.438 140.015V143.006" stroke="#111111"/>
<path d="M103.973 141.344V143.006" stroke="#111111"/>
<path d="M207.295 141.677V143.006" stroke="#111111"/>
<path d="M192.715 147.325V149.651" stroke="#111111"/>
<path d="M195.569 89.5107L194.301 90.3414" stroke="#111111"/>
<path d="M116.966 111.772C115.58 112.717 114.674 113.076 112.846 113.434" stroke="#111111"/>
<path d="M118.87 112.104C118.704 112.609 118.424 112.818 117.285 112.935" stroke="#111111"/>
<rect x="133.148" y="184" width="7.69811" height="2.77931" rx="1.38966" fill="#5C4033"/>
<path d="M146.507 206.769C146.507 207.765 146.258 208.752 145.775 209.673C145.291 210.594 144.582 211.431 143.689 212.135C142.795 212.84 141.734 213.399 140.567 213.781C139.399 214.162 138.148 214.358 136.884 214.358C135.621 214.358 134.369 214.162 133.202 213.781C132.034 213.399 130.974 212.84 130.08 212.135C129.187 211.431 128.478 210.594 127.994 209.673C127.511 208.752 127.262 207.765 127.262 206.769L136.884 206.769H146.507Z" fill="#C48D27"/>
<path d="M137.679 214.359C137.679 214.443 137.658 214.526 137.618 214.604C137.579 214.682 137.52 214.753 137.447 214.812C137.373 214.872 137.286 214.919 137.189 214.951C137.093 214.983 136.99 215 136.886 215C136.782 215 136.679 214.983 136.583 214.951C136.487 214.919 136.399 214.872 136.326 214.812C136.252 214.753 136.194 214.682 136.154 214.604C136.114 214.526 136.094 214.443 136.094 214.359L136.886 214.359H137.679Z" fill="#5C4033"/>
<path d="M146.507 206.769H127.262V193.407H146.507V206.769Z" fill="#C48D27"/>
<path d="M149 195.224C149 193.947 148.69 192.682 148.087 191.502C147.483 190.321 146.6 189.249 145.485 188.346C144.371 187.442 143.048 186.726 141.592 186.237C140.136 185.748 138.576 185.497 137 185.497C135.424 185.497 133.864 185.748 132.408 186.237C130.952 186.726 129.629 187.442 128.515 188.346C127.4 189.249 126.517 190.321 125.913 191.502C125.31 192.682 125 193.947 125 195.224L137 195.224H149Z" fill="#7C462C"/>
<path d="M163.72 213.96C162.92 213.96 162.093 213.92 161.24 213.84C160.413 213.76 159.6 213.6 158.8 213.36C158.027 213.093 157.293 212.733 156.6 212.28C155.933 211.827 155.373 211.24 154.92 210.52C154.413 209.747 154.053 208.92 153.84 208.04C153.653 207.133 153.587 206.213 153.64 205.28C153.773 203.84 154.253 202.613 155.08 201.6C155.933 200.587 157 199.813 158.28 199.28C158.173 199.28 158 199.213 157.76 199.08C157.547 198.947 157.32 198.787 157.08 198.6C156.84 198.413 156.613 198.24 156.4 198.08C156.213 197.893 156.08 197.773 156 197.72C155.68 197.373 155.413 196.973 155.2 196.52C155.013 196.067 154.853 195.613 154.72 195.16C154.373 193.96 154.333 192.707 154.6 191.4C154.867 190.067 155.413 188.907 156.24 187.92C156.587 187.493 157.027 187.12 157.56 186.8C158.093 186.453 158.667 186.173 159.28 185.96C159.893 185.72 160.507 185.533 161.12 185.4C161.76 185.267 162.333 185.2 162.84 185.2C163.533 185.2 164.213 185.187 164.88 185.16C165.547 185.133 166.213 185.173 166.88 185.28C167.707 185.413 168.467 185.68 169.16 186.08C169.88 186.48 170.507 186.973 171.04 187.56C172.107 188.733 172.787 190.053 173.08 191.52C173.4 192.96 173.36 194.44 172.96 195.96C172.827 196.387 172.627 196.787 172.36 197.16C172.093 197.507 171.787 197.84 171.44 198.16C171.36 198.213 171.227 198.307 171.04 198.44C170.853 198.573 170.64 198.72 170.4 198.88C170.187 199.013 169.973 199.133 169.76 199.24C169.547 199.32 169.387 199.347 169.28 199.32C169.92 199.72 170.533 200.12 171.12 200.52C171.707 200.893 172.187 201.427 172.56 202.12C172.933 202.813 173.2 203.547 173.36 204.32C173.547 205.093 173.613 205.867 173.56 206.64C173.533 207.413 173.387 208.173 173.12 208.92C172.853 209.64 172.467 210.293 171.96 210.88C171.453 211.467 170.867 211.96 170.2 212.36C169.56 212.733 168.88 213.04 168.16 213.28C167.44 213.52 166.693 213.693 165.92 213.8C165.173 213.907 164.44 213.96 163.72 213.96ZM163.8 202.28C163.213 202.307 162.613 202.387 162 202.52C161.413 202.653 160.867 202.867 160.36 203.16C159.88 203.427 159.467 203.8 159.12 204.28C158.773 204.733 158.56 205.307 158.48 206C158.427 206.533 158.493 207.013 158.68 207.44C158.893 207.84 159.16 208.2 159.48 208.52C159.827 208.813 160.227 209.053 160.68 209.24C161.133 209.4 161.587 209.507 162.04 209.56C163.107 209.72 164.133 209.707 165.12 209.52C165.493 209.44 165.84 209.373 166.16 209.32C166.507 209.24 166.813 209.133 167.08 209C167.373 208.867 167.627 208.693 167.84 208.48C168.08 208.24 168.28 207.92 168.44 207.52C168.68 206.96 168.773 206.333 168.72 205.64C168.693 204.92 168.48 204.333 168.08 203.88C167.493 203.187 166.84 202.733 166.12 202.52C165.427 202.307 164.653 202.227 163.8 202.28ZM163.84 189.6C163.227 189.653 162.64 189.747 162.08 189.88C161.52 190.013 161.027 190.227 160.6 190.52C160.173 190.813 159.84 191.2 159.6 191.68C159.387 192.16 159.293 192.76 159.32 193.48C159.347 193.987 159.427 194.467 159.56 194.92C159.693 195.347 159.947 195.747 160.32 196.12C160.773 196.653 161.32 196.973 161.96 197.08C162.6 197.16 163.24 197.187 163.88 197.16C164.867 197.16 165.72 197.013 166.44 196.72C167.187 196.427 167.787 195.8 168.24 194.84C168.587 194.067 168.68 193.347 168.52 192.68C168.36 192.013 168.053 191.453 167.6 191C167.147 190.52 166.573 190.16 165.88 189.92C165.213 189.653 164.533 189.547 163.84 189.6ZM187.522 213.88C187.042 213.88 186.549 213.853 186.042 213.8C185.562 213.72 185.082 213.587 184.602 213.4C183.882 213.107 183.189 212.72 182.522 212.24C181.882 211.733 181.296 211.173 180.762 210.56C179.482 209.12 178.509 207.427 177.842 205.48C177.176 203.507 176.842 201.507 176.842 199.48C176.842 196.707 177.376 194.027 178.442 191.44C178.629 190.987 178.869 190.507 179.162 190C179.482 189.493 179.829 189.013 180.202 188.56C180.602 188.08 181.002 187.653 181.402 187.28C181.829 186.907 182.256 186.627 182.682 186.44C183.269 186.173 183.909 185.907 184.602 185.64C185.456 185.373 186.416 185.253 187.482 185.28C188.549 185.307 189.522 185.427 190.402 185.64C191.629 185.933 192.682 186.467 193.562 187.24C194.442 187.987 195.189 188.893 195.802 189.96C196.416 191 196.896 192.147 197.242 193.4C197.589 194.627 197.842 195.88 198.002 197.16C198.109 198.013 198.149 198.867 198.122 199.72C198.096 200.547 198.029 201.387 197.922 202.24C197.816 203.013 197.682 203.787 197.522 204.56C197.389 205.333 197.202 206.08 196.962 206.8C196.722 207.52 196.416 208.213 196.042 208.88C195.669 209.52 195.202 210.12 194.642 210.68C193.629 211.667 192.522 212.44 191.322 213C190.149 213.533 188.882 213.827 187.522 213.88ZM187.482 190.56C187.109 190.56 186.736 190.6 186.362 190.68C186.016 190.733 185.682 190.867 185.362 191.08C184.989 191.32 184.656 191.613 184.362 191.96C184.069 192.307 183.816 192.667 183.602 193.04C183.042 194 182.656 195.027 182.442 196.12C182.229 197.213 182.122 198.32 182.122 199.44C182.122 200.587 182.242 201.773 182.482 203C182.749 204.227 183.216 205.347 183.882 206.36C184.202 206.84 184.576 207.267 185.002 207.64C185.456 207.987 185.976 208.24 186.562 208.4C187.096 208.533 187.629 208.573 188.162 208.52C188.722 208.467 189.242 208.293 189.722 208C190.496 207.52 191.109 206.88 191.562 206.08C192.016 205.28 192.349 204.413 192.562 203.48C192.802 202.547 192.936 201.587 192.962 200.6C193.016 199.613 193.016 198.72 192.962 197.92C192.909 197.12 192.776 196.28 192.562 195.4C192.349 194.52 192.029 193.72 191.602 193C191.202 192.28 190.656 191.693 189.962 191.24C189.296 190.76 188.469 190.533 187.482 190.56Z" fill="black"/>
<defs>
<filter id="filter0_d_0_1" x="0" y="0" width="311" height="255" filterUnits="userSpaceOnUse" color-interpolation-filters="sRGB">
<feFlood flood-opacity="0" result="BackgroundImageFix"/>
<feColorMatrix in="SourceAlpha" type="matrix" values="0 0 0 0 0 0 0 0 0 0 0 0 0 0 0 0 0 0 127 0" result="hardAlpha"/>
<feOffset dy="5"/>
<feGaussianBlur stdDeviation="2"/>
<feComposite in2="hardAlpha" operator="out"/>
<feColorMatrix type="matrix" values="0 0 0 0 0 0 0 0 0 0 0 0 0 0 0 0 0 0 0.25 0"/>
<feBlend mode="normal" in2="BackgroundImageFix" result="effect1_dropShadow_0_1"/>
<feBlend mode="normal" in="SourceGraphic" in2="effect1_dropShadow_0_1" result="shape"/>
</filter>
</defs>
</svg>
