<svg width="311" height="255" viewBox="0 0 311 255" fill="none" xmlns="http://www.w3.org/2000/svg">
<g filter="url(#filter0_d_0_1)">
<rect x="4" width="303" height="246" rx="30" fill="#D9D9D9" fill-opacity="0.46" shape-rendering="crispEdges"/>
</g>
<rect x="42" y="31" width="228" height="129" fill="white"/>
<rect x="78" y="183" width="156" height="31" rx="15.5" fill="#D9D9D9"/>
<path d="M155.5 38V89.8298" stroke="black" stroke-width="3"/>
<rect x="147.643" y="88.7129" width="15.717" height="5.80851" rx="2.90426" fill="#5C4033"/>
<path d="M174.914 136.298C174.914 138.381 174.405 140.444 173.418 142.368C172.431 144.292 170.984 146.041 169.159 147.514C167.335 148.987 165.169 150.155 162.786 150.952C160.402 151.749 157.847 152.16 155.267 152.16C152.687 152.16 150.133 151.749 147.749 150.952C145.365 150.155 143.2 148.987 141.375 147.514C139.551 146.041 138.104 144.292 137.117 142.368C136.129 140.444 135.621 138.381 135.621 136.298L155.267 136.298H174.914Z" fill="#C48D27"/>
<path d="M156.888 152.16C156.888 152.336 156.846 152.51 156.765 152.673C156.684 152.835 156.565 152.983 156.414 153.107C156.264 153.232 156.086 153.331 155.889 153.398C155.693 153.465 155.483 153.5 155.27 153.5C155.058 153.5 154.847 153.465 154.651 153.398C154.455 153.331 154.276 153.232 154.126 153.107C153.976 152.983 153.857 152.835 153.776 152.673C153.694 152.51 153.652 152.336 153.652 152.16L155.27 152.16H156.888Z" fill="#5C4033"/>
<path d="M174.914 136.298H135.621V108.372H174.914V136.298Z" fill="#C48D27"/>
<path d="M180 112.171C180 109.501 179.366 106.857 178.135 104.391C176.904 101.924 175.099 99.6831 172.824 97.7953C170.549 95.9075 167.848 94.41 164.876 93.3883C161.903 92.3667 158.717 91.8408 155.5 91.8408C152.283 91.8408 149.097 92.3667 146.124 93.3883C143.152 94.41 140.451 95.9075 138.176 97.7953C135.901 99.6831 134.096 101.924 132.865 104.391C131.634 106.857 131 109.501 131 112.171L155.5 112.171H180Z" fill="#7C462C"/>
<path d="M171.641 134.079C172.77 138.971 171.641 114.853 171.641 114.853C171.641 114.853 166.742 114.347 162.787 114.853C158.831 115.358 170.511 129.188 171.641 134.079Z" fill="#F5DEB3" fill-opacity="0.41"/>
<path d="M137.86 102.427C137.547 102.066 137.514 101.549 137.788 101.163C139.49 98.7654 140.896 97.4475 144.14 96.0156C144.573 95.8242 145.085 95.9451 145.393 96.2999C145.918 96.9042 145.593 97.8275 144.819 98.0664C142.306 98.8423 140.957 100.012 139.761 102.196C139.381 102.891 138.386 103.032 137.86 102.427Z" fill="#D9D9D9" fill-opacity="0.7"/>
<path d="M161.241 99.7317C158.157 96.5983 157.054 95.9699 163.059 91.6118C163.421 91.3484 163.865 91.1662 164.308 91.0957C178.526 88.8311 168.231 97.5933 171.589 98.4934C171.817 98.5544 172.057 98.5929 172.28 98.6708C176.541 100.162 175.67 100.663 174.013 104.015C173.729 104.59 173.671 105.253 173.765 105.888C174.853 113.231 168.394 109.785 167.033 107.982C165.74 106.267 160.362 108.427 161.91 102.911C162.224 101.793 162.056 100.559 161.241 99.7317Z" fill="#758E67"/>
<path d="M161.951 90.8859L162.71 91.4154C163.373 91.8775 164.282 91.4032 164.282 90.595V89.6772C164.282 88.9299 163.492 88.4467 162.827 88.7868L162.067 89.1751C161.395 89.5186 161.331 90.4543 161.951 90.8859Z" fill="#758E67"/>
<path d="M164.283 92.064C167.035 99.0011 168.69 102.917 172.604 109.489" stroke="#4F6D5D"/>
<rect x="126.148" y="184" width="7.69811" height="2.77931" rx="1.38966" fill="#5C4033"/>
<path d="M139.507 206.769C139.507 207.765 139.258 208.752 138.775 209.673C138.291 210.594 137.582 211.431 136.689 212.135C135.795 212.84 134.734 213.399 133.567 213.781C132.399 214.162 131.148 214.358 129.884 214.358C128.621 214.358 127.369 214.162 126.202 213.781C125.034 213.399 123.974 212.84 123.08 212.135C122.187 211.431 121.478 210.594 120.994 209.673C120.511 208.752 120.262 207.765 120.262 206.769L129.884 206.769H139.507Z" fill="#C48D27"/>
<path d="M130.679 214.359C130.679 214.443 130.658 214.526 130.618 214.604C130.579 214.682 130.52 214.753 130.447 214.812C130.373 214.872 130.286 214.919 130.189 214.951C130.093 214.983 129.99 215 129.886 215C129.782 215 129.679 214.983 129.583 214.951C129.487 214.919 129.399 214.872 129.326 214.812C129.252 214.753 129.194 214.682 129.154 214.604C129.114 214.526 129.094 214.443 129.094 214.359L129.886 214.359H130.679Z" fill="#5C4033"/>
<path d="M139.507 206.769H120.262V193.407H139.507V206.769Z" fill="#C48D27"/>
<path d="M142 195.224C142 193.947 141.69 192.682 141.087 191.502C140.483 190.321 139.6 189.249 138.485 188.346C137.371 187.442 136.048 186.726 134.592 186.237C133.136 185.748 131.576 185.497 130 185.497C128.424 185.497 126.864 185.748 125.408 186.237C123.952 186.726 122.629 187.442 121.515 188.346C120.4 189.249 119.517 190.321 118.913 191.502C118.31 192.682 118 193.947 118 195.224L130 195.224H142Z" fill="#7C462C"/>
<path d="M156.72 213.96C155.92 213.96 155.093 213.92 154.24 213.84C153.413 213.76 152.6 213.6 151.8 213.36C151.027 213.093 150.293 212.733 149.6 212.28C148.933 211.827 148.373 211.24 147.92 210.52C147.413 209.747 147.053 208.92 146.84 208.04C146.653 207.133 146.587 206.213 146.64 205.28C146.773 203.84 147.253 202.613 148.08 201.6C148.933 200.587 150 199.813 151.28 199.28C151.173 199.28 151 199.213 150.76 199.08C150.547 198.947 150.32 198.787 150.08 198.6C149.84 198.413 149.613 198.24 149.4 198.08C149.213 197.893 149.08 197.773 149 197.72C148.68 197.373 148.413 196.973 148.2 196.52C148.013 196.067 147.853 195.613 147.72 195.16C147.373 193.96 147.333 192.707 147.6 191.4C147.867 190.067 148.413 188.907 149.24 187.92C149.587 187.493 150.027 187.12 150.56 186.8C151.093 186.453 151.667 186.173 152.28 185.96C152.893 185.72 153.507 185.533 154.12 185.4C154.76 185.267 155.333 185.2 155.84 185.2C156.533 185.2 157.213 185.187 157.88 185.16C158.547 185.133 159.213 185.173 159.88 185.28C160.707 185.413 161.467 185.68 162.16 186.08C162.88 186.48 163.507 186.973 164.04 187.56C165.107 188.733 165.787 190.053 166.08 191.52C166.4 192.96 166.36 194.44 165.96 195.96C165.827 196.387 165.627 196.787 165.36 197.16C165.093 197.507 164.787 197.84 164.44 198.16C164.36 198.213 164.227 198.307 164.04 198.44C163.853 198.573 163.64 198.72 163.4 198.88C163.187 199.013 162.973 199.133 162.76 199.24C162.547 199.32 162.387 199.347 162.28 199.32C162.92 199.72 163.533 200.12 164.12 200.52C164.707 200.893 165.187 201.427 165.56 202.12C165.933 202.813 166.2 203.547 166.36 204.32C166.547 205.093 166.613 205.867 166.56 206.64C166.533 207.413 166.387 208.173 166.12 208.92C165.853 209.64 165.467 210.293 164.96 210.88C164.453 211.467 163.867 211.96 163.2 212.36C162.56 212.733 161.88 213.04 161.16 213.28C160.44 213.52 159.693 213.693 158.92 213.8C158.173 213.907 157.44 213.96 156.72 213.96ZM156.8 202.28C156.213 202.307 155.613 202.387 155 202.52C154.413 202.653 153.867 202.867 153.36 203.16C152.88 203.427 152.467 203.8 152.12 204.28C151.773 204.733 151.56 205.307 151.48 206C151.427 206.533 151.493 207.013 151.68 207.44C151.893 207.84 152.16 208.2 152.48 208.52C152.827 208.813 153.227 209.053 153.68 209.24C154.133 209.4 154.587 209.507 155.04 209.56C156.107 209.72 157.133 209.707 158.12 209.52C158.493 209.44 158.84 209.373 159.16 209.32C159.507 209.24 159.813 209.133 160.08 209C160.373 208.867 160.627 208.693 160.84 208.48C161.08 208.24 161.28 207.92 161.44 207.52C161.68 206.96 161.773 206.333 161.72 205.64C161.693 204.92 161.48 204.333 161.08 203.88C160.493 203.187 159.84 202.733 159.12 202.52C158.427 202.307 157.653 202.227 156.8 202.28ZM156.84 189.6C156.227 189.653 155.64 189.747 155.08 189.88C154.52 190.013 154.027 190.227 153.6 190.52C153.173 190.813 152.84 191.2 152.6 191.68C152.387 192.16 152.293 192.76 152.32 193.48C152.347 193.987 152.427 194.467 152.56 194.92C152.693 195.347 152.947 195.747 153.32 196.12C153.773 196.653 154.32 196.973 154.96 197.08C155.6 197.16 156.24 197.187 156.88 197.16C157.867 197.16 158.72 197.013 159.44 196.72C160.187 196.427 160.787 195.8 161.24 194.84C161.587 194.067 161.68 193.347 161.52 192.68C161.36 192.013 161.053 191.453 160.6 191C160.147 190.52 159.573 190.16 158.88 189.92C158.213 189.653 157.533 189.547 156.84 189.6ZM180.522 213.88C180.042 213.88 179.549 213.853 179.042 213.8C178.562 213.72 178.082 213.587 177.602 213.4C176.882 213.107 176.189 212.72 175.522 212.24C174.882 211.733 174.296 211.173 173.762 210.56C172.482 209.12 171.509 207.427 170.842 205.48C170.176 203.507 169.842 201.507 169.842 199.48C169.842 196.707 170.376 194.027 171.442 191.44C171.629 190.987 171.869 190.507 172.162 190C172.482 189.493 172.829 189.013 173.202 188.56C173.602 188.08 174.002 187.653 174.402 187.28C174.829 186.907 175.256 186.627 175.682 186.44C176.269 186.173 176.909 185.907 177.602 185.64C178.456 185.373 179.416 185.253 180.482 185.28C181.549 185.307 182.522 185.427 183.402 185.64C184.629 185.933 185.682 186.467 186.562 187.24C187.442 187.987 188.189 188.893 188.802 189.96C189.416 191 189.896 192.147 190.242 193.4C190.589 194.627 190.842 195.88 191.002 197.16C191.109 198.013 191.149 198.867 191.122 199.72C191.096 200.547 191.029 201.387 190.922 202.24C190.816 203.013 190.682 203.787 190.522 204.56C190.389 205.333 190.202 206.08 189.962 206.8C189.722 207.52 189.416 208.213 189.042 208.88C188.669 209.52 188.202 210.12 187.642 210.68C186.629 211.667 185.522 212.44 184.322 213C183.149 213.533 181.882 213.827 180.522 213.88ZM180.482 190.56C180.109 190.56 179.736 190.6 179.362 190.68C179.016 190.733 178.682 190.867 178.362 191.08C177.989 191.32 177.656 191.613 177.362 191.96C177.069 192.307 176.816 192.667 176.602 193.04C176.042 194 175.656 195.027 175.442 196.12C175.229 197.213 175.122 198.32 175.122 199.44C175.122 200.587 175.242 201.773 175.482 203C175.749 204.227 176.216 205.347 176.882 206.36C177.202 206.84 177.576 207.267 178.002 207.64C178.456 207.987 178.976 208.24 179.562 208.4C180.096 208.533 180.629 208.573 181.162 208.52C181.722 208.467 182.242 208.293 182.722 208C183.496 207.52 184.109 206.88 184.562 206.08C185.016 205.28 185.349 204.413 185.562 203.48C185.802 202.547 185.936 201.587 185.962 200.6C186.016 199.613 186.016 198.72 185.962 197.92C185.909 197.12 185.776 196.28 185.562 195.4C185.349 194.52 185.029 193.72 184.602 193C184.202 192.28 183.656 191.693 182.962 191.24C182.296 190.76 181.469 190.533 180.482 190.56Z" fill="black"/>
<defs>
<filter id="filter0_d_0_1" x="0" y="0" width="311" height="255" filterUnits="userSpaceOnUse" color-interpolation-filters="sRGB">
<feFlood flood-opacity="0" result="BackgroundImageFix"/>
<feColorMatrix in="SourceAlpha" type="matrix" values="0 0 0 0 0 0 0 0 0 0 0 0 0 0 0 0 0 0 127 0" result="hardAlpha"/>
<feOffset dy="5"/>
<feGaussianBlur stdDeviation="2"/>
<feComposite in2="hardAlpha" operator="out"/>
<feColorMatrix type="matrix" values="0 0 0 0 0 0 0 0 0 0 0 0 0 0 0 0 0 0 0.25 0"/>
<feBlend mode="normal" in2="BackgroundImageFix" result="effect1_dropShadow_0_1"/>
<feBlend mode="normal" in="SourceGraphic" in2="effect1_dropShadow_0_1" result="shape"/>
</filter>
</defs>
</svg>
