<svg width="99" height="130" viewBox="0 0 99 130" fill="none" xmlns="http://www.w3.org/2000/svg">
<rect x="15.9102" y="15.5488" width="65.8384" height="93.8284" fill="#0A1F3F"/>
<path d="M81.8873 109.377H16.0488V72.0151C42.1707 65.8442 56.5557 66.3011 81.8873 72.0151V109.377Z" fill="#908985"/>
<path d="M42.9328 67.5566L16.0488 109.377V71.592C30.6825 68.3605 35.572 67.7496 42.9328 67.5566Z" fill="#4A5644"/>
<path d="M55.0027 67.5566L81.8867 109.377V71.592C67.253 68.3605 62.3635 67.7496 55.0027 67.5566Z" fill="#4A5644"/>
<path d="M75.1649 33.1356C74.9727 35.168 74.1922 37.1049 72.9146 38.7197C71.637 40.3344 69.9153 41.5602 67.9509 42.2537C65.9865 42.9471 63.8606 43.0794 61.822 42.6352C59.7834 42.191 57.9164 41.1886 56.4395 39.7453C54.9626 38.3021 53.9369 36.4776 53.4823 34.4854C53.0278 32.4932 53.1632 30.4157 53.8728 28.496C54.5823 26.5763 55.8367 24.8938 57.4891 23.6453C59.1414 22.3969 61.1235 21.6341 63.2033 21.4463C61.9856 23.0561 61.3997 25.0396 61.552 27.0359C61.7043 29.0322 62.5848 30.9088 64.0334 32.3244C65.4819 33.7399 67.4022 34.6004 69.445 34.7492C71.4879 34.8981 73.5175 34.3255 75.1649 33.1356Z" fill="#EAA906"/>
<path d="M20.9089 62.2164C21.2599 62.1725 21.39 61.9392 21.4076 61.6582C21.3912 61.9481 21.4434 62.2054 21.9085 62.2211C21.921 62.2212 21.9338 62.2214 21.9469 62.2219C21.9338 62.2218 21.921 62.2215 21.9085 62.2211C21.5006 62.2193 21.4089 62.4195 21.4053 62.6453C21.4074 62.6727 21.4082 62.7011 21.4076 62.7305C21.4057 62.702 21.4048 62.6735 21.4053 62.6453C21.3829 62.3672 21.2135 62.1993 20.9089 62.2164C20.8898 62.2188 20.87 62.2206 20.8496 62.2219C20.8699 62.2193 20.8897 62.2175 20.9089 62.2164Z" fill="white"/>
<path d="M64.7699 64.0828C64.9454 64.0608 65.0104 63.9442 65.0192 63.8037C65.011 63.9486 65.0371 64.0773 65.2697 64.0852C65.2759 64.0852 65.2823 64.0853 65.2889 64.0855C65.2823 64.0855 65.2759 64.0854 65.2697 64.0852C65.0657 64.0843 65.0199 64.1844 65.0181 64.2973C65.0192 64.311 65.0195 64.3252 65.0192 64.3399C65.0183 64.3256 65.0178 64.3113 65.0181 64.2973C65.0069 64.1582 64.9222 64.0743 64.7699 64.0828C64.7603 64.084 64.7504 64.0849 64.7402 64.0855C64.7504 64.0843 64.7603 64.0833 64.7699 64.0828Z" fill="white"/>
<path d="M25.3864 44.8242C26.264 44.7144 26.5892 44.1311 26.6332 43.4287C26.5921 44.1534 26.7228 44.7967 27.8854 44.836C27.9167 44.8361 27.9488 44.8368 27.9815 44.8379C27.9488 44.8377 27.9167 44.8371 27.8854 44.836C26.8657 44.8315 26.6364 45.332 26.6274 45.8966C26.6329 45.9649 26.6348 46.036 26.6332 46.1095C26.6286 46.0381 26.6263 45.9668 26.6274 45.8966C26.5716 45.2013 26.148 44.7814 25.3864 44.8242C25.3387 44.8302 25.2893 44.8347 25.2383 44.8379C25.289 44.8314 25.3384 44.8269 25.3864 44.8242Z" fill="white"/>
<path d="M35.6769 22.6581C35.7647 22.6471 35.7972 22.5888 35.8016 22.5186C35.7975 22.591 35.8106 22.6554 35.9268 22.6593C35.93 22.6593 35.9332 22.6594 35.9364 22.6595C35.9332 22.6595 35.93 22.6594 35.9268 22.6593C35.8249 22.6588 35.8019 22.7089 35.801 22.7653C35.8016 22.7722 35.8018 22.7793 35.8016 22.7866C35.8011 22.7795 35.8009 22.7724 35.801 22.7653C35.7954 22.6958 35.7531 22.6538 35.6769 22.6581C35.6722 22.6587 35.6672 22.6592 35.6621 22.6595C35.6672 22.6588 35.6721 22.6584 35.6769 22.6581Z" fill="white"/>
<path d="M74.6764 22.0045C75.0275 21.9606 75.1575 21.7272 75.1751 21.4463C75.1587 21.7362 75.211 21.9935 75.676 22.0092C75.6886 22.0093 75.7014 22.0095 75.7145 22.0099C75.7014 22.0099 75.6886 22.0096 75.676 22.0092C75.2682 22.0074 75.1764 22.2076 75.1728 22.4334C75.175 22.4608 75.1758 22.4892 75.1751 22.5186C75.1733 22.49 75.1724 22.4615 75.1728 22.4334C75.1505 22.1553 74.9811 21.9874 74.6764 22.0045C74.6574 22.0069 74.6376 22.0087 74.6172 22.0099C74.6375 22.0074 74.6572 22.0056 74.6764 22.0045Z" fill="white"/>
<path d="M77.9971 20.6752C78.5236 20.6093 78.7187 20.2593 78.7451 19.8379C78.7205 20.2727 78.7989 20.6587 79.4965 20.6823C79.5153 20.6823 79.5345 20.6827 79.5542 20.6834C79.5345 20.6833 79.5153 20.6829 79.4965 20.6823C78.8847 20.6796 78.7471 20.9798 78.7417 21.3186C78.745 21.3596 78.7461 21.4023 78.7451 21.4464C78.7424 21.4035 78.741 21.3608 78.7417 21.3186C78.7082 20.9014 78.454 20.6495 77.9971 20.6752C77.9685 20.6788 77.9388 20.6815 77.9082 20.6834C77.9386 20.6795 77.9683 20.6768 77.9971 20.6752Z" fill="white"/>
<path d="M17.6159 43.4508C17.9669 43.4068 18.097 43.1735 18.1146 42.8926C18.0982 43.1824 18.1504 43.4398 18.6155 43.4555C18.628 43.4556 18.6408 43.4558 18.6539 43.4562C18.6408 43.4562 18.628 43.4559 18.6155 43.4555C18.2076 43.4537 18.1159 43.6539 18.1123 43.8797C18.1145 43.9071 18.1153 43.9355 18.1146 43.9649C18.1128 43.9363 18.1118 43.9078 18.1123 43.8797C18.0899 43.6016 17.9205 43.4337 17.6159 43.4508C17.5968 43.4532 17.5771 43.455 17.5566 43.4562C17.5769 43.4537 17.5967 43.4518 17.6159 43.4508Z" fill="white"/>
<path d="M54.9245 19.3238C55.2755 19.2799 55.4056 19.0466 55.4232 18.7656C55.4068 19.0555 55.459 19.3128 55.9241 19.3285C55.9366 19.3286 55.9494 19.3288 55.9625 19.3293C55.9494 19.3292 55.9366 19.329 55.9241 19.3285C55.5162 19.3268 55.4245 19.5269 55.4209 19.7528C55.4231 19.7801 55.4238 19.8085 55.4232 19.8379C55.4213 19.8094 55.4204 19.7809 55.4209 19.7528C55.3985 19.4746 55.2291 19.3067 54.9245 19.3238C54.9054 19.3262 54.8857 19.328 54.8652 19.3293C54.8855 19.3267 54.9053 19.3249 54.9245 19.3238Z" fill="white"/>
<path d="M21.4577 18.2516C21.8087 18.2076 21.9388 17.9743 21.9564 17.6934C21.94 17.9832 21.9922 18.2406 22.4573 18.2563C22.4698 18.2563 22.4826 18.2566 22.4957 18.257C22.4826 18.2569 22.4698 18.2567 22.4573 18.2563C22.0494 18.2545 21.9577 18.4547 21.9541 18.6805C21.9563 18.7079 21.9571 18.7363 21.9564 18.7657C21.9545 18.7371 21.9536 18.7086 21.9541 18.6805C21.9317 18.4024 21.7623 18.2344 21.4577 18.2516C21.4386 18.2539 21.4189 18.2558 21.3984 18.257C21.4187 18.2544 21.4385 18.2526 21.4577 18.2516Z" fill="white"/>
<path d="M77.389 48.534C77.5645 48.512 77.6296 48.3954 77.6384 48.2549C77.6301 48.3998 77.6563 48.5285 77.8888 48.5363C77.8951 48.5364 77.9015 48.5365 77.908 48.5367C77.9015 48.5367 77.8951 48.5366 77.8888 48.5363C77.6849 48.5354 77.639 48.6355 77.6372 48.7485C77.6383 48.7621 77.6387 48.7763 77.6384 48.791C77.6374 48.7768 77.637 48.7625 77.6372 48.7485C77.626 48.6094 77.5413 48.5254 77.389 48.534C77.3795 48.5352 77.3696 48.5361 77.3594 48.5367C77.3695 48.5354 77.3794 48.5345 77.389 48.534Z" fill="white"/>
<path d="M29.1078 40.491C29.2833 40.469 29.3483 40.3524 29.3571 40.2119C29.3489 40.3568 29.375 40.4855 29.6076 40.4934C29.6138 40.4934 29.6202 40.4935 29.6268 40.4937C29.6202 40.4937 29.6138 40.4936 29.6076 40.4934C29.4036 40.4925 29.3577 40.5926 29.3559 40.7055C29.357 40.7192 29.3574 40.7334 29.3571 40.7481C29.3562 40.7338 29.3557 40.7195 29.3559 40.7055C29.3448 40.5664 29.2601 40.4825 29.1078 40.491C29.0982 40.4922 29.0883 40.4931 29.0781 40.4937C29.0883 40.4925 29.0981 40.4915 29.1078 40.491Z" fill="white"/>
<path d="M20.3304 24.9422C20.5059 24.9202 20.571 24.8036 20.5798 24.6631C20.5716 24.808 20.5977 24.9367 20.8302 24.9445C20.8365 24.9446 20.8429 24.9447 20.8494 24.9449C20.8429 24.9449 20.8365 24.9448 20.8302 24.9445C20.6263 24.9437 20.5804 25.0437 20.5786 25.1567C20.5797 25.1703 20.5801 25.1845 20.5798 25.1992C20.5788 25.185 20.5784 25.1707 20.5786 25.1567C20.5674 25.0176 20.4827 24.9336 20.3304 24.9422C20.3209 24.9434 20.311 24.9443 20.3008 24.9449C20.3109 24.9436 20.3208 24.9427 20.3304 24.9422Z" fill="white"/>
<path d="M78.4867 28.16C78.6622 28.138 78.7272 28.0213 78.736 27.8809C78.7278 28.0258 78.7539 28.1545 78.9865 28.1623C78.9927 28.1623 78.9991 28.1625 79.0057 28.1627C78.9991 28.1627 78.9927 28.1625 78.9865 28.1623C78.7825 28.1614 78.7367 28.2615 78.7349 28.3744C78.736 28.3881 78.7363 28.4023 78.736 28.417C78.7351 28.4027 78.7346 28.3885 78.7349 28.3744C78.7237 28.2354 78.639 28.1514 78.4867 28.16C78.4771 28.1612 78.4672 28.1621 78.457 28.1627C78.4672 28.1614 78.4771 28.1605 78.4867 28.16Z" fill="white"/>
<path d="M76.8698 65.9703C77.2208 65.9264 77.3509 65.6931 77.3685 65.4121C77.3521 65.702 77.4044 65.9593 77.8694 65.975C77.8819 65.9751 77.8947 65.9753 77.9079 65.9758C77.8947 65.9757 77.8819 65.9754 77.8694 65.975C77.4615 65.9732 77.3698 66.1734 77.3662 66.3993C77.3684 66.4266 77.3692 66.455 77.3685 66.4844C77.3667 66.4559 77.3657 66.4274 77.3662 66.3993C77.3439 66.1211 77.1744 65.9532 76.8698 65.9703C76.8507 65.9727 76.831 65.9745 76.8105 65.9758C76.8308 65.9732 76.8506 65.9714 76.8698 65.9703Z" fill="white"/>
<path d="M37.9463 21.7474C38.4728 21.6816 38.668 21.3316 38.6944 20.9102C38.6697 21.345 38.7481 21.731 39.4457 21.7545C39.4645 21.7546 39.4837 21.755 39.5034 21.7556C39.4837 21.7555 39.4645 21.7552 39.4457 21.7545C38.8339 21.7519 38.6963 22.0521 38.6909 22.3909C38.6942 22.4319 38.6953 22.4745 38.6944 22.5186C38.6916 22.4758 38.6902 22.433 38.6909 22.3909C38.6574 21.9737 38.4032 21.7218 37.9463 21.7474C37.9177 21.751 37.888 21.7538 37.8574 21.7556C37.8879 21.7518 37.9175 21.7491 37.9463 21.7474Z" fill="white"/>
<path d="M42.3646 53.1242C43.0666 53.0363 43.3268 52.5697 43.362 52.0078C43.3292 52.5876 43.4337 53.1022 44.3638 53.1336C44.3888 53.1338 44.4145 53.1342 44.4407 53.1351C44.4145 53.135 44.3888 53.1345 44.3638 53.1336C43.548 53.1301 43.3646 53.5304 43.3574 53.9821C43.3618 54.0368 43.3633 54.0936 43.362 54.1525C43.3583 54.0953 43.3565 54.0383 43.3574 53.9821C43.3127 53.4258 42.9738 53.09 42.3646 53.1242C42.3264 53.129 42.2869 53.1326 42.2461 53.1351C42.2867 53.13 42.3262 53.1264 42.3646 53.1242Z" fill="white"/>
<path d="M54.88 43.0321C54.9678 43.0211 55.0003 42.9628 55.0047 42.8926C55.0006 42.965 55.0137 43.0294 55.1299 43.0333C55.1331 43.0333 55.1363 43.0334 55.1396 43.0335C55.1363 43.0335 55.1331 43.0334 55.1299 43.0333C55.028 43.0329 55.005 43.0829 55.0041 43.1394C55.0047 43.1462 55.0049 43.1533 55.0047 43.1607C55.0043 43.1535 55.004 43.1464 55.0041 43.1394C54.9986 43.0698 54.9562 43.0279 54.88 43.0321C54.8753 43.0327 54.8703 43.0332 54.8652 43.0335C54.8703 43.0328 54.8752 43.0324 54.88 43.0321Z" fill="white"/>
<path d="M56.0222 49.3492C56.3732 49.3053 56.5032 49.072 56.5208 48.791C56.5044 49.0809 56.5567 49.3382 57.0218 49.3539C57.0343 49.354 57.0471 49.3542 57.0602 49.3547C57.0471 49.3546 57.0343 49.3544 57.0218 49.3539C56.6139 49.3521 56.5221 49.5523 56.5185 49.7782C56.5207 49.8055 56.5215 49.8339 56.5208 49.8633C56.519 49.8348 56.5181 49.8063 56.5185 49.7782C56.4962 49.5 56.3268 49.3321 56.0222 49.3492C56.0031 49.3516 55.9833 49.3534 55.9629 49.3547C55.9832 49.3521 56.0029 49.3503 56.0222 49.3492Z" fill="white"/>
<path d="M35.8399 63.8689C36.8929 63.7371 37.2832 63.0372 37.336 62.1943C37.2867 63.0639 37.4435 63.8359 38.8387 63.8831C38.8762 63.8833 38.9147 63.884 38.954 63.8853C38.9147 63.8851 38.8762 63.8844 38.8387 63.8831C37.615 63.8777 37.3399 64.4782 37.329 65.1558C37.3356 65.2378 37.3379 65.3231 37.336 65.4113C37.3304 65.3256 37.3277 65.2401 37.329 65.1558C37.262 64.3214 36.7537 63.8176 35.8399 63.8689C35.7826 63.8761 35.7234 63.8816 35.6621 63.8853C35.723 63.8776 35.7822 63.8722 35.8399 63.8689Z" fill="white"/>
<path d="M74.6764 54.7105C75.0275 54.6666 75.1575 54.4333 75.1751 54.1523C75.1587 54.4422 75.211 54.6995 75.676 54.7153C75.6886 54.7153 75.7014 54.7156 75.7145 54.716C75.7014 54.7159 75.6886 54.7157 75.676 54.7153C75.2682 54.7135 75.1764 54.9136 75.1728 55.1395C75.175 55.1668 75.1758 55.1953 75.1751 55.2247C75.1733 55.1961 75.1724 55.1676 75.1728 55.1395C75.1505 54.8614 74.9811 54.6934 74.6764 54.7105C74.6574 54.7129 74.6376 54.7148 74.6172 54.716C74.6375 54.7134 74.6572 54.7116 74.6764 54.7105Z" fill="white"/>
<path d="M79.0651 45.5963C79.4161 45.5523 79.5462 45.319 79.5638 45.0381C79.5474 45.328 79.5997 45.5853 80.0647 45.601C80.0772 45.6011 80.09 45.6013 80.1032 45.6017C80.09 45.6017 80.0772 45.6014 80.0647 45.601C79.6568 45.5992 79.5651 45.7994 79.5615 46.0252C79.5637 46.0526 79.5645 46.081 79.5638 46.1104C79.562 46.0818 79.5611 46.0533 79.5615 46.0252C79.5392 45.7471 79.3697 45.5792 79.0651 45.5963C79.046 45.5987 79.0263 45.6005 79.0059 45.6017C79.0261 45.5992 79.0459 45.5974 79.0651 45.5963Z" fill="white"/>
<path d="M40.11 25.7574C40.4611 25.7135 40.5911 25.4802 40.6087 25.1992C40.5923 25.4891 40.6446 25.7464 41.1096 25.7621C41.1222 25.7622 41.135 25.7624 41.1481 25.7629C41.135 25.7628 41.1222 25.7626 41.1096 25.7621C40.7017 25.7604 40.61 25.9605 40.6064 26.1864C40.6086 26.2137 40.6094 26.2421 40.6087 26.2715C40.6069 26.243 40.606 26.2145 40.6064 26.1864C40.5841 25.9082 40.4147 25.7403 40.11 25.7574C40.0909 25.7598 40.0712 25.7616 40.0508 25.7629C40.0711 25.7603 40.0908 25.7585 40.11 25.7574Z" fill="white"/>
<path d="M61.5677 48.299C62.2698 48.2111 62.5299 47.7445 62.5651 47.1826C62.5323 47.7624 62.6368 48.277 63.5669 48.3085C63.592 48.3086 63.6176 48.3091 63.6438 48.3099C63.6176 48.3098 63.592 48.3093 63.5669 48.3085C62.7511 48.3049 62.5677 48.7052 62.5605 49.1569C62.5649 49.2116 62.5664 49.2684 62.5651 49.3273C62.5614 49.2701 62.5596 49.2131 62.5605 49.1569C62.5158 48.6007 62.177 48.2648 61.5677 48.299C61.5296 48.3038 61.4901 48.3074 61.4492 48.3099C61.4898 48.3048 61.5293 48.3012 61.5677 48.299Z" fill="white"/>
<path d="M55.9925 63.5467C56.168 63.5247 56.2331 63.4081 56.2419 63.2676C56.2337 63.4125 56.2598 63.5412 56.4923 63.549C56.4986 63.5491 56.505 63.5492 56.5115 63.5494C56.505 63.5494 56.4986 63.5492 56.4923 63.549C56.2884 63.5481 56.2425 63.6482 56.2407 63.7611C56.2418 63.7748 56.2422 63.789 56.2419 63.8037C56.2409 63.7895 56.2405 63.7752 56.2407 63.7611C56.2295 63.6221 56.1448 63.5381 55.9925 63.5467C55.983 63.5479 55.9731 63.5488 55.9629 63.5494C55.973 63.5481 55.9829 63.5472 55.9925 63.5467Z" fill="white"/>
<path d="M21.4281 32.9852C21.6036 32.9632 21.6686 32.8465 21.6774 32.7061C21.6692 32.851 21.6953 32.9797 21.9279 32.9875C21.9341 32.9875 21.9405 32.9877 21.9471 32.9879C21.9405 32.9878 21.9341 32.9877 21.9279 32.9875C21.7239 32.9866 21.6781 33.0867 21.6763 33.1996C21.6774 33.2133 21.6777 33.2275 21.6774 33.2422C21.6765 33.2279 21.676 33.2137 21.6763 33.1996C21.6651 33.0606 21.5804 32.9766 21.4281 32.9852C21.4185 32.9863 21.4086 32.9873 21.3984 32.9879C21.4086 32.9866 21.4185 32.9857 21.4281 32.9852Z" fill="white"/>
<path d="M79.0947 52.309C79.6213 52.2431 79.8164 51.8931 79.8428 51.4717C79.8182 51.9065 79.8966 52.2925 80.5941 52.3161C80.6129 52.3161 80.6321 52.3165 80.6518 52.3172C80.6321 52.3171 80.6129 52.3167 80.5941 52.3161C79.9823 52.3134 79.8447 52.6136 79.8393 52.9524C79.8426 52.9934 79.8438 53.036 79.8428 53.0802C79.84 53.0373 79.8387 52.9946 79.8393 52.9524C79.8058 52.5352 79.5517 52.2833 79.0947 52.309C79.0661 52.3126 79.0365 52.3153 79.0059 52.3172C79.0363 52.3133 79.0659 52.3106 79.0947 52.309Z" fill="white"/>
<path d="M64.7995 49.8853C65.1505 49.8414 65.2806 49.6081 65.2982 49.3271C65.2818 49.617 65.334 49.8743 65.7991 49.8901C65.8116 49.8901 65.8244 49.8904 65.8375 49.8908C65.8244 49.8907 65.8116 49.8905 65.7991 49.8901C65.3912 49.8883 65.2995 50.0885 65.2959 50.3143C65.2981 50.3416 65.2988 50.3701 65.2982 50.3995C65.2963 50.3709 65.2954 50.3424 65.2959 50.3143C65.2735 50.0362 65.1041 49.8682 64.7995 49.8853C64.7804 49.8877 64.7607 49.8896 64.7402 49.8908C64.7605 49.8882 64.7803 49.8864 64.7995 49.8853Z" fill="white"/>
<path d="M46.6644 60.3289C46.8399 60.3069 46.9049 60.1903 46.9137 60.0498C46.9055 60.1947 46.9317 60.3234 47.1642 60.3313C47.1705 60.3313 47.1769 60.3314 47.1834 60.3316C47.1769 60.3316 47.1705 60.3315 47.1642 60.3313C46.9602 60.3304 46.9144 60.4305 46.9126 60.5434C46.9137 60.5571 46.9141 60.5713 46.9137 60.586C46.9128 60.5717 46.9124 60.5574 46.9126 60.5434C46.9014 60.4043 46.8167 60.3203 46.6644 60.3289C46.6548 60.3301 46.645 60.331 46.6348 60.3316C46.6449 60.3303 46.6548 60.3294 46.6644 60.3289Z" fill="white"/>
<path d="M45.5687 47.9978C45.7442 47.9759 45.8092 47.8592 45.818 47.7188C45.8098 47.8637 45.836 47.9924 46.0685 48.0002C46.0748 48.0002 46.0812 48.0004 46.0877 48.0006C46.0812 48.0005 46.0747 48.0004 46.0685 48.0002C45.8645 47.9993 45.8187 48.0994 45.8169 48.2123C45.818 48.226 45.8184 48.2402 45.818 48.2549C45.8171 48.2406 45.8167 48.2264 45.8169 48.2123C45.8057 48.0733 45.721 47.9893 45.5687 47.9978C45.5591 47.999 45.5493 48 45.5391 48.0006C45.5492 47.9993 45.5591 47.9984 45.5687 47.9978Z" fill="white"/>
<path d="M48.2961 44.6405C48.3838 44.6295 48.4163 44.5712 48.4207 44.501C48.4166 44.5734 48.4297 44.6378 48.546 44.6417C48.5491 44.6417 48.5523 44.6418 48.5556 44.6419C48.5523 44.6419 48.5491 44.6418 48.546 44.6417C48.444 44.6413 48.4211 44.6913 48.4202 44.7478C48.4207 44.7546 48.4209 44.7617 48.4207 44.7691C48.4203 44.7619 48.42 44.7548 48.4202 44.7478C48.4146 44.6782 48.3722 44.6362 48.2961 44.6405C48.2913 44.6411 48.2864 44.6416 48.2812 44.6419C48.2863 44.6412 48.2913 44.6408 48.2961 44.6405Z" fill="white"/>
<path d="M37.3679 40.234C37.7189 40.19 37.849 39.9567 37.8665 39.6758C37.8501 39.9657 37.9024 40.223 38.3675 40.2387C38.38 40.2388 38.3928 40.239 38.4059 40.2394C38.3928 40.2394 38.38 40.2391 38.3675 40.2387C37.9596 40.2369 37.8678 40.4371 37.8642 40.6629C37.8664 40.6903 37.8672 40.7187 37.8665 40.7481C37.8647 40.7195 37.8638 40.691 37.8642 40.6629C37.8419 40.3848 37.6725 40.2169 37.3679 40.234C37.3488 40.2364 37.329 40.2382 37.3086 40.2394C37.3289 40.2369 37.3486 40.2351 37.3679 40.234Z" fill="white"/>
<path d="M45.0791 31.9349C45.6056 31.8691 45.8008 31.5191 45.8272 31.0977C45.8026 31.5325 45.8809 31.9185 46.5785 31.942C46.5973 31.9421 46.6165 31.9425 46.6362 31.9431C46.6165 31.943 46.5973 31.9427 46.5785 31.942C45.9667 31.9394 45.8291 32.2396 45.8237 32.5784C45.827 32.6194 45.8282 32.662 45.8272 32.7061C45.8244 32.6633 45.823 32.6205 45.8237 32.5784C45.7902 32.1612 45.536 31.9093 45.0791 31.9349C45.0505 31.9385 45.0209 31.9413 44.9902 31.9431C45.0207 31.9393 45.0503 31.9366 45.0791 31.9349Z" fill="white"/>
<path d="M22.5534 52.566C22.9044 52.5221 23.0345 52.2888 23.0521 52.0078C23.0357 52.2977 23.0879 52.555 23.553 52.5707C23.5655 52.5708 23.5783 52.571 23.5914 52.5715C23.5783 52.5714 23.5655 52.5712 23.553 52.5707C23.1451 52.5689 23.0534 52.7691 23.0498 52.995C23.052 53.0223 23.0528 53.0507 23.0521 53.0801C23.0503 53.0516 23.0493 53.0231 23.0498 52.995C23.0274 52.7168 22.858 52.5489 22.5534 52.566C22.5343 52.5684 22.5146 52.5702 22.4941 52.5715C22.5144 52.5689 22.5342 52.5671 22.5534 52.566Z" fill="white"/>
<path d="M26.3952 28.4391C26.7462 28.3951 26.8763 28.1618 26.8939 27.8809C26.8775 28.1707 26.9297 28.4281 27.3948 28.4438C27.4073 28.4438 27.4201 28.4441 27.4332 28.4445C27.4201 28.4444 27.4073 28.4442 27.3948 28.4438C26.9869 28.442 26.8952 28.6422 26.8916 28.868C26.8938 28.8954 26.8946 28.9238 26.8939 28.9532C26.892 28.9246 26.8911 28.8961 26.8916 28.868C26.8692 28.5899 26.6998 28.4219 26.3952 28.4391C26.3761 28.4414 26.3564 28.4433 26.3359 28.4445C26.3562 28.4419 26.376 28.4401 26.3952 28.4391Z" fill="white"/>
<path d="M72.5404 60.0939C73.2424 60.0061 73.5026 59.5394 73.5378 58.9775C73.505 59.5573 73.6095 60.0719 74.5396 60.1034C74.5646 60.1035 74.5903 60.104 74.6165 60.1049C74.5903 60.1047 74.5646 60.1042 74.5396 60.1034C73.7238 60.0998 73.5404 60.5001 73.5332 60.9518C73.5376 61.0065 73.5391 61.0634 73.5378 61.1222C73.5341 61.0651 73.5323 61.008 73.5332 60.9518C73.4885 60.3956 73.1496 60.0597 72.5404 60.0939C72.5022 60.0987 72.4627 60.1024 72.4219 60.1049C72.4625 60.0997 72.502 60.0961 72.5404 60.0939Z" fill="white"/>
<path d="M59.8324 56.0398C60.0079 56.0179 60.0729 55.9012 60.0817 55.7607C60.0735 55.9057 60.0996 56.0343 60.3322 56.0422C60.3384 56.0422 60.3448 56.0424 60.3514 56.0426C60.3448 56.0425 60.3384 56.0424 60.3322 56.0422C60.1282 56.0413 60.0824 56.1414 60.0806 56.2543C60.0817 56.268 60.082 56.2822 60.0817 56.2969C60.0808 56.2826 60.0803 56.2684 60.0806 56.2543C60.0694 56.1153 59.9847 56.0313 59.8324 56.0398C59.8228 56.041 59.8129 56.0419 59.8027 56.0426C59.8129 56.0413 59.8228 56.0404 59.8324 56.0398Z" fill="white"/>
<path d="M31.3031 57.1121C31.4786 57.0901 31.5436 56.9735 31.5524 56.833C31.5442 56.9779 31.5703 57.1066 31.8029 57.1145C31.8091 57.1145 31.8155 57.1146 31.8221 57.1148C31.8155 57.1148 31.8091 57.1147 31.8029 57.1145C31.5989 57.1136 31.5531 57.2137 31.5513 57.3266C31.5524 57.3403 31.5527 57.3545 31.5524 57.3692C31.5515 57.3549 31.551 57.3406 31.5513 57.3266C31.5401 57.1875 31.4554 57.1036 31.3031 57.1121C31.2935 57.1133 31.2836 57.1142 31.2734 57.1148C31.2836 57.1136 31.2935 57.1126 31.3031 57.1121Z" fill="white"/>
<path d="M35.2318 33.2863C35.9338 33.1984 36.194 32.7318 36.2292 32.1699C36.1964 32.7497 36.3009 33.2643 37.231 33.2958C37.256 33.2959 37.2817 33.2964 37.3079 33.2972C37.2817 33.2971 37.256 33.2966 37.231 33.2958C36.4152 33.2922 36.2318 33.6925 36.2246 34.1442C36.229 34.1989 36.2305 34.2557 36.2292 34.3146C36.2255 34.2574 36.2237 34.2004 36.2246 34.1442C36.1799 33.588 35.841 33.2521 35.2318 33.2863C35.1936 33.2911 35.1541 33.2947 35.1133 33.2972C35.1539 33.2921 35.1934 33.2885 35.2318 33.2863Z" fill="white"/>
<path d="M44.471 41.0271C44.6465 41.0052 44.7116 40.8885 44.7204 40.748C44.7122 40.893 44.7383 41.0216 44.9708 41.0295C44.9771 41.0295 44.9835 41.0297 44.9901 41.0299C44.9835 41.0298 44.9771 41.0297 44.9708 41.0295C44.7669 41.0286 44.721 41.1287 44.7192 41.2416C44.7203 41.2553 44.7207 41.2695 44.7204 41.2842C44.7195 41.2699 44.719 41.2557 44.7192 41.2416C44.7081 41.1026 44.6233 41.0186 44.471 41.0271C44.4615 41.0283 44.4516 41.0293 44.4414 41.0299C44.4516 41.0286 44.4614 41.0277 44.471 41.0271Z" fill="white"/>
<rect x="5" y="5" width="88.209" height="115.462" stroke="#7C462C" stroke-width="10"/>
<g filter="url(#filter0_d_855_164)">
<rect x="11.4375" y="11.3252" width="74.7846" height="102.275" stroke="#A5673F" stroke-width="13" shape-rendering="crispEdges"/>
</g>
<defs>
<filter id="filter0_d_855_164" x="0.9375" y="4.8252" width="95.7852" height="124.274" filterUnits="userSpaceOnUse" color-interpolation-filters="sRGB">
<feFlood flood-opacity="0" result="BackgroundImageFix"/>
<feColorMatrix in="SourceAlpha" type="matrix" values="0 0 0 0 0 0 0 0 0 0 0 0 0 0 0 0 0 0 127 0" result="hardAlpha"/>
<feOffset dy="5"/>
<feGaussianBlur stdDeviation="2"/>
<feComposite in2="hardAlpha" operator="out"/>
<feColorMatrix type="matrix" values="0 0 0 0 0 0 0 0 0 0 0 0 0 0 0 0 0 0 0.25 0"/>
<feBlend mode="normal" in2="BackgroundImageFix" result="effect1_dropShadow_855_164"/>
<feBlend mode="normal" in="SourceGraphic" in2="effect1_dropShadow_855_164" result="shape"/>
</filter>
</defs>
</svg>
