<svg width="311" height="255" viewBox="0 0 311 255" fill="none" xmlns="http://www.w3.org/2000/svg">
<g filter="url(#filter0_d_0_1)">
<rect x="4" width="303" height="246" rx="30" fill="#D9D9D9" fill-opacity="0.46" shape-rendering="crispEdges"/>
</g>
<rect x="42" y="36" width="228" height="129" fill="white"/>
<rect x="78" y="188" width="156" height="31" rx="15.5" fill="#D9D9D9"/>
<path d="M135.196 148.645C123.467 142.986 114.056 129.897 109.386 120.313C103.526 108.287 106.925 97.781 111.429 85.2688C115.933 72.7566 122.199 59.3572 133.748 53.1012C145.297 46.8452 158.674 45.1792 171.271 48.4279C183.868 51.6765 187.974 60.4049 195.078 71.4714C202.182 82.5378 211.776 95.1492 209.699 108.287C207.621 121.425 198.569 132.872 188.389 141.259C178.208 149.647 167.629 154.375 154.632 153.657L155.509 139.781L153.466 126.003L145.292 137.984L135.196 148.645Z" fill="url(#paint0_radial_0_1)"/>
<path d="M163.097 99.3463C163.097 101.828 161.137 103.839 158.719 103.839C156.3 103.839 154.34 101.828 154.34 99.3463C154.34 96.865 156.3 94.8535 158.719 94.8535C161.137 94.8535 163.097 96.865 163.097 99.3463Z" fill="#321B10"/>
<rect width="4.8796" height="13.7413" rx="2.4398" transform="matrix(0.942887 -0.333113 0.318155 0.948039 159.012 104.865)" fill="white"/>
<path d="M131.779 79.3865L131.066 76.1728L134.406 76.1743L157.216 95.8121L154.589 99.0243L131.779 79.3865Z" fill="#321B10"/>
<path d="M195.078 110.776L197.298 113.579L193.776 114.445L160.763 102.117L162.065 98.4474L195.078 110.776Z" fill="#321B10"/>
<ellipse cx="159.011" cy="99.0464" rx="3.50305" ry="3.59423" fill="white"/>
<line y1="-1" x2="61.404" y2="-1" transform="matrix(0.323279 0.946304 -0.940996 0.338419 144.998 58.9116)" stroke="white" stroke-width="2"/>
<path d="M175.074 61.5471L180.802 53.971L183.34 57.0744L175.074 61.5471Z" fill="#111111"/>
<path d="M168.978 61.3162L174.206 49.5455L176.298 50.7848L168.978 61.3162Z" fill="#111111"/>
<path d="M157.621 57.1143L156.61 47.2301H158.633L157.621 57.1143Z" fill="#111111"/>
<path d="M181.781 98.4474L208.93 97.4099V99.485L181.781 98.4474Z" fill="#111111"/>
<path d="M130.588 117.612L117.492 131.531L114.954 128.428L130.588 117.612Z" fill="#111111"/>
<path d="M117.366 120.414L112.202 124.498L110.851 120.691L117.366 120.414Z" fill="#111111"/>
<path d="M196.378 96.0515L201.632 95.153L207.461 95.1524" stroke="black" stroke-width="0.4"/>
<rect x="133.148" y="189" width="7.69811" height="2.77931" rx="1.38966" fill="#5C4033"/>
<path d="M146.507 211.769C146.507 212.765 146.258 213.752 145.775 214.673C145.291 215.594 144.582 216.431 143.689 217.135C142.795 217.84 141.734 218.399 140.567 218.781C139.399 219.162 138.148 219.358 136.884 219.358C135.621 219.358 134.369 219.162 133.202 218.781C132.034 218.399 130.974 217.84 130.08 217.135C129.187 216.431 128.478 215.594 127.994 214.673C127.511 213.752 127.262 212.765 127.262 211.769L136.884 211.769H146.507Z" fill="#C48D27"/>
<path d="M137.679 219.359C137.679 219.443 137.658 219.526 137.618 219.604C137.579 219.682 137.52 219.753 137.447 219.812C137.373 219.872 137.286 219.919 137.189 219.951C137.093 219.983 136.99 220 136.886 220C136.782 220 136.679 219.983 136.583 219.951C136.487 219.919 136.399 219.872 136.326 219.812C136.252 219.753 136.194 219.682 136.154 219.604C136.114 219.526 136.094 219.443 136.094 219.359L136.886 219.359H137.679Z" fill="#5C4033"/>
<path d="M146.507 211.769H127.262V198.407H146.507V211.769Z" fill="#C48D27"/>
<path d="M149 200.224C149 198.947 148.69 197.682 148.087 196.502C147.483 195.321 146.6 194.249 145.485 193.346C144.371 192.442 143.048 191.726 141.592 191.237C140.136 190.748 138.576 190.497 137 190.497C135.424 190.497 133.864 190.748 132.408 191.237C130.952 191.726 129.629 192.442 128.515 193.346C127.4 194.249 126.517 195.321 125.913 196.502C125.31 197.682 125 198.947 125 200.224L137 200.224H149Z" fill="#7C462C"/>
<path d="M156.12 191.04C156.36 190.8 156.667 190.653 157.04 190.6C157.44 190.52 157.907 190.48 158.44 190.48H168.32C168.667 190.48 169.053 190.48 169.48 190.48C169.933 190.453 170.36 190.48 170.76 190.56C171.16 190.64 171.507 190.787 171.8 191C172.12 191.187 172.347 191.493 172.48 191.92C172.56 192.187 172.587 192.493 172.56 192.84C172.56 193.187 172.493 193.52 172.36 193.84C172.253 194.133 172.08 194.4 171.84 194.64C171.6 194.853 171.307 194.973 170.96 195C170.267 195.133 169.547 195.173 168.8 195.12C168.053 195.04 167.333 195 166.64 195C165.867 195 165.187 195.027 164.6 195.08C164.013 195.133 163.347 195.16 162.6 195.16C162.307 195.16 161.933 195.147 161.48 195.12C161.027 195.093 160.68 195.12 160.44 195.2C160.227 195.253 160.053 195.36 159.92 195.52C159.813 195.68 159.733 195.867 159.68 196.08C159.627 196.267 159.6 196.467 159.6 196.68C159.6 196.893 159.6 197.08 159.6 197.24C159.6 197.693 159.573 198.16 159.52 198.64C159.493 199.093 159.467 199.547 159.44 200C159.387 200.613 159.467 200.96 159.68 201.04C159.92 201.093 160.32 201.04 160.88 200.88C161.84 200.64 162.827 200.52 163.84 200.52C165.2 200.52 166.467 200.707 167.64 201.08C168.813 201.427 169.827 201.973 170.68 202.72C171.56 203.44 172.24 204.36 172.72 205.48C173.227 206.573 173.48 207.853 173.48 209.32C173.48 209.587 173.467 209.84 173.44 210.08C173.44 210.32 173.413 210.56 173.36 210.8C173.147 212.48 172.52 213.96 171.48 215.24C170.44 216.52 169.12 217.44 167.52 218C165.627 218.72 163.667 219.053 161.64 219C159.613 218.92 157.747 218.333 156.04 217.24C155.56 216.947 155.12 216.6 154.72 216.2C154.32 215.773 154.027 215.293 153.84 214.76C153.627 214.2 153.56 213.627 153.64 213.04C153.747 212.427 154.107 211.973 154.72 211.68C155.173 211.467 155.587 211.4 155.96 211.48C156.36 211.533 156.733 211.667 157.08 211.88C157.427 212.067 157.76 212.307 158.08 212.6C158.427 212.867 158.773 213.093 159.12 213.28C159.733 213.573 160.373 213.827 161.04 214.04C161.707 214.227 162.413 214.32 163.16 214.32C164.813 214.32 166.133 213.88 167.12 213C168.133 212.12 168.64 210.933 168.64 209.44C168.64 208 168.12 206.88 167.08 206.08C166.04 205.253 164.64 204.84 162.88 204.84C162.427 204.84 161.973 204.867 161.52 204.92C161.067 204.973 160.613 205.067 160.16 205.2C159.733 205.307 159.307 205.427 158.88 205.56C158.48 205.693 158.08 205.787 157.68 205.84C157.28 205.867 156.88 205.827 156.48 205.72C156.107 205.587 155.747 205.307 155.4 204.88C155.053 204.507 154.88 204.053 154.88 203.52C154.88 202.987 154.907 202.493 154.96 202.04C155.013 201.267 155.053 200.493 155.08 199.72C155.107 198.947 155.147 198.173 155.2 197.4C155.253 196.627 155.293 195.867 155.32 195.12C155.373 194.347 155.427 193.573 155.48 192.8C155.507 192.347 155.573 191.987 155.68 191.72C155.787 191.453 155.933 191.227 156.12 191.04ZM187.366 218.88C186.886 218.88 186.393 218.853 185.886 218.8C185.406 218.72 184.926 218.587 184.446 218.4C183.726 218.107 183.033 217.72 182.366 217.24C181.726 216.733 181.139 216.173 180.606 215.56C179.326 214.12 178.353 212.427 177.686 210.48C177.019 208.507 176.686 206.507 176.686 204.48C176.686 201.707 177.219 199.027 178.286 196.44C178.473 195.987 178.713 195.507 179.006 195C179.326 194.493 179.673 194.013 180.046 193.56C180.446 193.08 180.846 192.653 181.246 192.28C181.673 191.907 182.099 191.627 182.526 191.44C183.113 191.173 183.753 190.907 184.446 190.64C185.299 190.373 186.259 190.253 187.326 190.28C188.393 190.307 189.366 190.427 190.246 190.64C191.473 190.933 192.526 191.467 193.406 192.24C194.286 192.987 195.033 193.893 195.646 194.96C196.259 196 196.739 197.147 197.086 198.4C197.433 199.627 197.686 200.88 197.846 202.16C197.953 203.013 197.993 203.867 197.966 204.72C197.939 205.547 197.873 206.387 197.766 207.24C197.659 208.013 197.526 208.787 197.366 209.56C197.233 210.333 197.046 211.08 196.806 211.8C196.566 212.52 196.259 213.213 195.886 213.88C195.513 214.52 195.046 215.12 194.486 215.68C193.473 216.667 192.366 217.44 191.166 218C189.993 218.533 188.726 218.827 187.366 218.88ZM187.326 195.56C186.953 195.56 186.579 195.6 186.206 195.68C185.859 195.733 185.526 195.867 185.206 196.08C184.833 196.32 184.499 196.613 184.206 196.96C183.913 197.307 183.659 197.667 183.446 198.04C182.886 199 182.499 200.027 182.286 201.12C182.073 202.213 181.966 203.32 181.966 204.44C181.966 205.587 182.086 206.773 182.326 208C182.593 209.227 183.059 210.347 183.726 211.36C184.046 211.84 184.419 212.267 184.846 212.64C185.299 212.987 185.819 213.24 186.406 213.4C186.939 213.533 187.473 213.573 188.006 213.52C188.566 213.467 189.086 213.293 189.566 213C190.339 212.52 190.953 211.88 191.406 211.08C191.859 210.28 192.193 209.413 192.406 208.48C192.646 207.547 192.779 206.587 192.806 205.6C192.859 204.613 192.859 203.72 192.806 202.92C192.753 202.12 192.619 201.28 192.406 200.4C192.193 199.52 191.873 198.72 191.446 198C191.046 197.28 190.499 196.693 189.806 196.24C189.139 195.76 188.313 195.533 187.326 195.56Z" fill="black"/>
<defs>
<filter id="filter0_d_0_1" x="0" y="0" width="311" height="255" filterUnits="userSpaceOnUse" color-interpolation-filters="sRGB">
<feFlood flood-opacity="0" result="BackgroundImageFix"/>
<feColorMatrix in="SourceAlpha" type="matrix" values="0 0 0 0 0 0 0 0 0 0 0 0 0 0 0 0 0 0 127 0" result="hardAlpha"/>
<feOffset dy="5"/>
<feGaussianBlur stdDeviation="2"/>
<feComposite in2="hardAlpha" operator="out"/>
<feColorMatrix type="matrix" values="0 0 0 0 0 0 0 0 0 0 0 0 0 0 0 0 0 0 0.25 0"/>
<feBlend mode="normal" in2="BackgroundImageFix" result="effect1_dropShadow_0_1"/>
<feBlend mode="normal" in="SourceGraphic" in2="effect1_dropShadow_0_1" result="shape"/>
</filter>
<radialGradient id="paint0_radial_0_1" cx="0" cy="0" r="1" gradientTransform="matrix(25.6487 45.5812 -42.8513 25.3842 155.5 100.966)" gradientUnits="userSpaceOnUse">
<stop stop-color="#A43B08"/>
<stop offset="0.836538" stop-color="#993708"/>
<stop offset="1" stop-color="#3E1603"/>
</radialGradient>
</defs>
</svg>

