<svg width="311" height="255" viewBox="0 0 311 255" fill="none" xmlns="http://www.w3.org/2000/svg">
<g filter="url(#filter0_d_0_1)">
<rect x="4" width="303" height="246" rx="30" fill="#D9D9D9" fill-opacity="0.46" shape-rendering="crispEdges"/>
</g>
<rect x="42" y="31" width="228" height="129" fill="white"/>
<rect x="78" y="183" width="156" height="31" rx="15.5" fill="#D9D9D9"/>
<rect x="124.816" y="54.5811" width="61.308" height="81.9546" fill="#0A1F3F"/>
<path d="M186.251 136.536H124.943V103.902C149.268 98.5116 162.663 98.9107 186.251 103.902V136.536Z" fill="#908985"/>
<path d="M149.977 100.007L124.943 136.536V103.532C138.57 100.709 143.123 100.176 149.977 100.007Z" fill="#4A5644"/>
<path d="M161.218 100.007L186.252 136.536V103.532C172.625 100.709 168.072 100.176 161.218 100.007Z" fill="#4A5644"/>
<path d="M179.993 69.9425C179.814 71.7177 179.087 73.4095 177.897 74.8199C176.708 76.2303 175.104 77.301 173.275 77.9067C171.446 78.5123 169.466 78.6279 167.568 78.2399C165.67 77.8519 163.931 76.9764 162.556 75.7158C161.181 74.4551 160.225 72.8615 159.802 71.1215C159.379 69.3814 159.505 67.5668 160.166 65.89C160.826 64.2133 161.994 62.7437 163.533 61.6532C165.072 60.5627 166.917 59.8965 168.854 59.7324C167.72 61.1385 167.175 62.871 167.316 64.6147C167.458 66.3584 168.278 67.9975 169.627 69.2339C170.976 70.4703 172.764 71.2219 174.666 71.3519C176.569 71.4819 178.459 70.9818 179.993 69.9425Z" fill="#EAA906"/>
<path d="M129.467 95.3435C129.794 95.3051 129.915 95.1014 129.932 94.856C129.916 95.1091 129.965 95.3339 130.398 95.3476C130.41 95.3477 130.422 95.3479 130.434 95.3483C130.422 95.3482 130.41 95.348 130.398 95.3476C130.018 95.3461 129.933 95.5209 129.93 95.7182C129.932 95.7421 129.932 95.7669 129.932 95.7926C129.93 95.7676 129.929 95.7427 129.93 95.7182C129.909 95.4752 129.751 95.3286 129.467 95.3435C129.45 95.3456 129.431 95.3472 129.412 95.3483C129.431 95.346 129.449 95.3445 129.467 95.3435Z" fill="white"/>
<path d="M170.315 96.9728C170.478 96.9536 170.539 96.8517 170.547 96.729C170.539 96.8556 170.564 96.968 170.78 96.9748C170.786 96.9749 170.792 96.975 170.798 96.9752C170.792 96.9751 170.786 96.975 170.78 96.9748C170.59 96.9741 170.547 97.0615 170.546 97.1601C170.547 97.1721 170.547 97.1845 170.547 97.1973C170.546 97.1848 170.546 97.1724 170.546 97.1601C170.535 97.0387 170.457 96.9653 170.315 96.9728C170.306 96.9738 170.297 96.9746 170.287 96.9752C170.297 96.974 170.306 96.9733 170.315 96.9728Z" fill="white"/>
<path d="M133.64 80.152C134.457 80.0561 134.76 79.5466 134.801 78.9331C134.763 79.5661 134.884 80.128 135.967 80.1623C135.996 80.1624 136.026 80.163 136.056 80.1639C136.026 80.1638 135.996 80.1632 135.967 80.1623C135.017 80.1584 134.804 80.5955 134.795 81.0887C134.801 81.1484 134.802 81.2104 134.801 81.2747C134.797 81.2123 134.794 81.15 134.795 81.0887C134.743 80.4813 134.349 80.1146 133.64 80.152C133.595 80.1572 133.549 80.1612 133.502 80.1639C133.549 80.1583 133.595 80.1543 133.64 80.152Z" fill="white"/>
<path d="M143.223 60.7908C143.304 60.7812 143.335 60.7303 143.339 60.6689C143.335 60.7322 143.347 60.7884 143.455 60.7919C143.458 60.7919 143.461 60.7919 143.464 60.792C143.461 60.792 143.458 60.792 143.455 60.7919C143.361 60.7915 143.339 60.8352 143.338 60.8845C143.339 60.8905 143.339 60.8967 143.339 60.9031C143.338 60.8969 143.338 60.8906 143.338 60.8845C143.333 60.8238 143.294 60.7871 143.223 60.7908C143.218 60.7914 143.214 60.7918 143.209 60.792C143.214 60.7915 143.218 60.7911 143.223 60.7908Z" fill="white"/>
<path d="M179.538 60.22C179.864 60.1816 179.986 59.9778 180.002 59.7324C179.987 59.9856 180.035 60.2104 180.468 60.2241C180.48 60.2242 180.492 60.2244 180.504 60.2247C180.492 60.2247 180.48 60.2245 180.468 60.2241C180.089 60.2225 180.003 60.3974 180 60.5946C180.002 60.6185 180.003 60.6434 180.002 60.669C180 60.6441 179.999 60.6192 180 60.5946C179.979 60.3517 179.821 60.205 179.538 60.22C179.52 60.2221 179.501 60.2237 179.482 60.2247C179.501 60.2225 179.52 60.2209 179.538 60.22Z" fill="white"/>
<path d="M182.632 59.059C183.122 59.0014 183.304 58.6957 183.328 58.3276C183.305 58.7074 183.378 59.0446 184.028 59.0652C184.045 59.0652 184.063 59.0656 184.082 59.0661C184.063 59.066 184.045 59.0657 184.028 59.0652C183.458 59.0628 183.33 59.3251 183.325 59.621C183.328 59.6568 183.329 59.694 183.328 59.7326C183.326 59.6951 183.324 59.6578 183.325 59.621C183.294 59.2566 183.057 59.0366 182.632 59.059C182.605 59.0621 182.577 59.0645 182.549 59.0661C182.577 59.0628 182.605 59.0604 182.632 59.059Z" fill="white"/>
<path d="M126.403 78.9524C126.73 78.914 126.851 78.7102 126.867 78.4648C126.852 78.718 126.901 78.9428 127.334 78.9565C127.345 78.9566 127.357 78.9568 127.369 78.9572C127.357 78.9571 127.345 78.9569 127.334 78.9565C126.954 78.955 126.868 79.1298 126.865 79.3271C126.867 79.351 126.868 79.3758 126.867 79.4015C126.866 79.3765 126.865 79.3516 126.865 79.3271C126.844 79.0841 126.686 78.9375 126.403 78.9524C126.385 78.9545 126.367 78.9561 126.348 78.9572C126.367 78.9549 126.385 78.9533 126.403 78.9524Z" fill="white"/>
<path d="M161.145 57.8787C161.472 57.8403 161.593 57.6365 161.609 57.3911C161.594 57.6443 161.643 57.8691 162.076 57.8828C162.087 57.8828 162.099 57.8831 162.112 57.8834C162.099 57.8834 162.087 57.8832 162.076 57.8828C161.696 57.8812 161.611 58.0561 161.607 58.2533C161.609 58.2772 161.61 58.302 161.609 58.3277C161.608 58.3028 161.607 58.2779 161.607 58.2533C161.586 58.0104 161.429 57.8637 161.145 57.8787C161.127 57.8808 161.109 57.8824 161.09 57.8834C161.109 57.8812 161.127 57.8796 161.145 57.8787Z" fill="white"/>
<path d="M129.981 56.9417C130.308 56.9033 130.429 56.6995 130.445 56.4541C130.43 56.7073 130.479 56.9321 130.912 56.9458C130.923 56.9458 130.935 56.946 130.948 56.9464C130.935 56.9464 130.923 56.9462 130.912 56.9458C130.532 56.9442 130.447 57.1191 130.443 57.3163C130.445 57.3402 130.446 57.365 130.445 57.3907C130.444 57.3658 130.443 57.3409 130.443 57.3163C130.422 57.0734 130.265 56.9267 129.981 56.9417C129.963 56.9437 129.945 56.9453 129.926 56.9464C129.945 56.9442 129.963 56.9426 129.981 56.9417Z" fill="white"/>
<path d="M182.067 83.3922C182.23 83.373 182.291 83.2711 182.299 83.1484C182.291 83.275 182.316 83.3874 182.532 83.3943C182.538 83.3943 182.544 83.3944 182.55 83.3946C182.544 83.3946 182.538 83.3945 182.532 83.3943C182.342 83.3935 182.299 83.4809 182.298 83.5795C182.299 83.5915 182.299 83.6039 182.299 83.6167C182.298 83.6043 182.298 83.5918 182.298 83.5795C182.287 83.4581 182.208 83.3847 182.067 83.3922C182.058 83.3933 182.049 83.3941 182.039 83.3946C182.049 83.3935 182.058 83.3927 182.067 83.3922Z" fill="white"/>
<path d="M137.106 76.3673C137.269 76.3481 137.33 76.2462 137.338 76.1235C137.33 76.2501 137.355 76.3625 137.571 76.3694C137.577 76.3694 137.583 76.3695 137.589 76.3697C137.583 76.3697 137.577 76.3696 137.571 76.3694C137.381 76.3686 137.339 76.456 137.337 76.5546C137.338 76.5666 137.338 76.579 137.338 76.5918C137.337 76.5794 137.337 76.5669 137.337 76.5546C137.326 76.4332 137.248 76.3598 137.106 76.3673C137.097 76.3684 137.088 76.3692 137.078 76.3697C137.088 76.3686 137.097 76.3678 137.106 76.3673Z" fill="white"/>
<path d="M128.93 62.7858C129.093 62.7666 129.154 62.6647 129.162 62.542C129.154 62.6686 129.179 62.781 129.395 62.7878C129.401 62.7879 129.407 62.788 129.413 62.7882C129.407 62.7881 129.401 62.788 129.395 62.7878C129.205 62.7871 129.163 62.8745 129.161 62.9731C129.162 62.985 129.162 62.9975 129.162 63.0103C129.161 62.9978 129.161 62.9854 129.161 62.9731C129.151 62.8516 129.072 62.7783 128.93 62.7858C128.921 62.7868 128.912 62.7876 128.902 62.7882C128.912 62.787 128.921 62.7862 128.93 62.7858Z" fill="white"/>
<path d="M183.086 65.5963C183.25 65.5771 183.31 65.4752 183.318 65.3525C183.311 65.4791 183.335 65.5915 183.552 65.5984C183.557 65.5984 183.563 65.5985 183.569 65.5987C183.563 65.5987 183.557 65.5986 183.552 65.5984C183.362 65.5976 183.319 65.685 183.317 65.7836C183.318 65.7956 183.319 65.808 183.318 65.8209C183.318 65.8084 183.317 65.7959 183.317 65.7836C183.307 65.6622 183.228 65.5888 183.086 65.5963C183.077 65.5974 183.068 65.5982 183.059 65.5987C183.068 65.5976 183.077 65.5968 183.086 65.5963Z" fill="white"/>
<path d="M181.581 98.6218C181.907 98.5835 182.029 98.3797 182.045 98.1343C182.03 98.3875 182.078 98.6122 182.511 98.626C182.523 98.626 182.535 98.6262 182.547 98.6266C182.535 98.6265 182.523 98.6263 182.511 98.626C182.132 98.6244 182.046 98.7992 182.043 98.9965C182.045 99.0204 182.046 99.0452 182.045 99.0709C182.043 99.046 182.042 99.0211 182.043 98.9965C182.022 98.7536 181.864 98.6069 181.581 98.6218C181.563 98.6239 181.544 98.6255 181.525 98.6266C181.544 98.6244 181.563 98.6228 181.581 98.6218Z" fill="white"/>
<path d="M145.337 59.996C145.827 59.9384 146.009 59.6327 146.033 59.2646C146.01 59.6444 146.083 59.9816 146.733 60.0022C146.75 60.0022 146.768 60.0026 146.787 60.0031C146.768 60.003 146.75 60.0027 146.733 60.0022C146.163 59.9998 146.035 60.2621 146.03 60.558C146.033 60.5938 146.034 60.631 146.033 60.6696C146.031 60.6322 146.029 60.5948 146.03 60.558C145.999 60.1936 145.762 59.9736 145.337 59.996C145.31 59.9991 145.282 60.0015 145.254 60.0031C145.282 59.9998 145.31 59.9974 145.337 59.996Z" fill="white"/>
<path d="M149.448 87.4014C150.102 87.3246 150.344 86.9171 150.377 86.4263C150.346 86.9326 150.444 87.3822 151.31 87.4096C151.333 87.4097 151.357 87.4102 151.381 87.4109C151.357 87.4108 151.333 87.4104 151.31 87.4096C150.55 87.4065 150.379 87.7562 150.373 88.1507C150.377 88.1985 150.378 88.2481 150.377 88.2995C150.374 88.2496 150.372 88.1998 150.373 88.1507C150.331 87.6649 150.016 87.3715 149.448 87.4014C149.413 87.4056 149.376 87.4087 149.338 87.4109C149.376 87.4064 149.412 87.4033 149.448 87.4014Z" fill="white"/>
<path d="M161.104 78.5867C161.185 78.5771 161.216 78.5262 161.22 78.4648C161.216 78.5281 161.228 78.5843 161.336 78.5878C161.339 78.5878 161.342 78.5878 161.345 78.5879C161.342 78.5879 161.339 78.5879 161.336 78.5878C161.241 78.5874 161.22 78.6311 161.219 78.6804C161.22 78.6864 161.22 78.6926 161.22 78.699C161.219 78.6928 161.219 78.6865 161.219 78.6804C161.214 78.6197 161.175 78.583 161.104 78.5867C161.099 78.5873 161.095 78.5877 161.09 78.5879C161.095 78.5874 161.099 78.587 161.104 78.5867Z" fill="white"/>
<path d="M162.168 84.1038C162.495 84.0654 162.616 83.8616 162.633 83.6162C162.618 83.8694 162.666 84.0942 163.099 84.1079C163.111 84.1079 163.123 84.1082 163.135 84.1085C163.123 84.1085 163.111 84.1083 163.099 84.1079C162.719 84.1063 162.634 84.2812 162.631 84.4784C162.633 84.5023 162.633 84.5271 162.633 84.5528C162.631 84.5279 162.63 84.503 162.631 84.4784C162.61 84.2355 162.452 84.0888 162.168 84.1038C162.151 84.1059 162.132 84.1075 162.113 84.1085C162.132 84.1063 162.151 84.1047 162.168 84.1038Z" fill="white"/>
<path d="M143.375 96.7864C144.355 96.6713 144.719 96.0599 144.768 95.3237C144.722 96.0833 144.868 96.7576 146.167 96.7988C146.202 96.7989 146.238 96.7996 146.274 96.8007C146.238 96.8005 146.202 96.7999 146.167 96.7988C145.028 96.7941 144.771 97.3186 144.761 97.9104C144.767 97.9821 144.77 98.0565 144.768 98.1336C144.763 98.0588 144.76 97.9841 144.761 97.9104C144.699 97.1816 144.225 96.7416 143.375 96.7864C143.321 96.7927 143.266 96.7974 143.209 96.8007C143.266 96.794 143.321 96.7892 143.375 96.7864Z" fill="white"/>
<path d="M179.538 88.7869C179.864 88.7485 179.986 88.5447 180.002 88.2993C179.987 88.5525 180.035 88.7773 180.468 88.791C180.48 88.791 180.492 88.7913 180.504 88.7916C180.492 88.7916 180.48 88.7914 180.468 88.791C180.089 88.7894 180.003 88.9643 180 89.1615C180.002 89.1854 180.003 89.2102 180.002 89.2359C180 89.211 179.999 89.1861 180 89.1615C179.979 88.9186 179.821 88.7719 179.538 88.7869C179.52 88.789 179.501 88.7906 179.482 88.7916C179.501 88.7894 179.52 88.7878 179.538 88.7869Z" fill="white"/>
<path d="M183.625 80.8259C183.952 80.7876 184.073 80.5838 184.09 80.3384C184.075 80.5916 184.123 80.8163 184.556 80.8301C184.568 80.8301 184.58 80.8303 184.592 80.8307C184.58 80.8306 184.568 80.8304 184.556 80.8301C184.176 80.8285 184.091 81.0033 184.088 81.2006C184.09 81.2245 184.09 81.2493 184.09 81.275C184.088 81.2501 184.087 81.2252 184.088 81.2006C184.067 80.9577 183.909 80.811 183.625 80.8259C183.608 80.828 183.589 80.8296 183.57 80.8307C183.589 80.8285 183.608 80.8269 183.625 80.8259Z" fill="white"/>
<path d="M147.352 63.4983C147.679 63.4599 147.8 63.2561 147.816 63.0107C147.801 63.2639 147.85 63.4887 148.283 63.5024C148.295 63.5025 148.306 63.5027 148.319 63.5031C148.306 63.503 148.295 63.5028 148.283 63.5024C147.903 63.5009 147.818 63.6757 147.814 63.873C147.816 63.8969 147.817 63.9217 147.816 63.9474C147.815 63.9224 147.814 63.8975 147.814 63.873C147.793 63.63 147.636 63.4834 147.352 63.4983C147.334 63.5004 147.316 63.502 147.297 63.5031C147.316 63.5008 147.334 63.4992 147.352 63.4983Z" fill="white"/>
<path d="M167.331 83.1865C167.985 83.1098 168.227 82.7022 168.26 82.2114C168.229 82.7178 168.327 83.1673 169.193 83.1948C169.216 83.1949 169.24 83.1953 169.264 83.1961C169.24 83.196 169.216 83.1955 169.193 83.1948C168.433 83.1917 168.262 83.5413 168.256 83.9359C168.26 83.9837 168.261 84.0333 168.26 84.0847C168.256 84.0348 168.255 83.985 168.256 83.9359C168.214 83.45 167.898 83.1567 167.331 83.1865C167.296 83.1907 167.259 83.1939 167.221 83.1961C167.258 83.1916 167.295 83.1884 167.331 83.1865Z" fill="white"/>
<path d="M162.141 96.505C162.304 96.4858 162.365 96.3839 162.373 96.2612C162.365 96.3878 162.39 96.5002 162.606 96.5071C162.612 96.5071 162.618 96.5072 162.624 96.5074C162.618 96.5074 162.612 96.5073 162.606 96.5071C162.416 96.5063 162.374 96.5937 162.372 96.6923C162.373 96.7043 162.373 96.7167 162.373 96.7295C162.372 96.7171 162.372 96.7046 162.372 96.6923C162.362 96.5709 162.283 96.4975 162.141 96.505C162.132 96.5061 162.123 96.5069 162.113 96.5074C162.123 96.5063 162.132 96.5055 162.141 96.505Z" fill="white"/>
<path d="M129.953 69.8107C130.117 69.7915 130.177 69.6896 130.186 69.5669C130.178 69.6935 130.202 69.8059 130.419 69.8127C130.425 69.8128 130.431 69.8129 130.437 69.8131C130.431 69.813 130.425 69.8129 130.419 69.8127C130.229 69.812 130.186 69.8994 130.184 69.998C130.186 70.01 130.186 70.0224 130.186 70.0352C130.185 70.0227 130.184 70.0103 130.184 69.998C130.174 69.8765 130.095 69.8032 129.953 69.8107C129.944 69.8117 129.935 69.8125 129.926 69.8131C129.935 69.8119 129.944 69.8111 129.953 69.8107Z" fill="white"/>
<path d="M183.653 86.6893C184.143 86.6318 184.325 86.3261 184.35 85.958C184.327 86.3378 184.4 86.6749 185.049 86.6955C185.067 86.6956 185.085 86.6959 185.103 86.6965C185.085 86.6964 185.067 86.6961 185.049 86.6955C184.48 86.6932 184.351 86.9554 184.346 87.2513C184.349 87.2872 184.351 87.3244 184.35 87.3629C184.347 87.3255 184.346 87.2882 184.346 87.2513C184.315 86.8869 184.079 86.6669 183.653 86.6893C183.626 86.6925 183.599 86.6949 183.57 86.6965C183.599 86.6931 183.626 86.6908 183.653 86.6893Z" fill="white"/>
<path d="M170.342 84.5725C170.669 84.5341 170.79 84.3304 170.807 84.085C170.791 84.3381 170.84 84.5629 171.273 84.5766C171.285 84.5767 171.297 84.5769 171.309 84.5773C171.297 84.5772 171.285 84.577 171.273 84.5766C170.893 84.5751 170.808 84.7499 170.805 84.9472C170.807 84.9711 170.807 84.9959 170.807 85.0216C170.805 84.9966 170.804 84.9717 170.805 84.9472C170.784 84.7043 170.626 84.5576 170.342 84.5725C170.325 84.5746 170.306 84.5762 170.287 84.5773C170.306 84.575 170.324 84.5735 170.342 84.5725Z" fill="white"/>
<path d="M153.453 93.6945C153.617 93.6753 153.677 93.5734 153.686 93.4507C153.678 93.5773 153.702 93.6897 153.919 93.6965C153.925 93.6965 153.931 93.6967 153.937 93.6968C153.931 93.6968 153.925 93.6967 153.919 93.6965C153.729 93.6957 153.686 93.7832 153.684 93.8818C153.686 93.8937 153.686 93.9062 153.686 93.919C153.685 93.9065 153.684 93.8941 153.684 93.8818C153.674 93.7603 153.595 93.687 153.453 93.6945C153.444 93.6955 153.435 93.6963 153.426 93.6968C153.435 93.6957 153.444 93.6949 153.453 93.6945Z" fill="white"/>
<path d="M152.432 82.9235C152.595 82.9043 152.656 82.8024 152.664 82.6797C152.656 82.8063 152.681 82.9187 152.897 82.9255C152.903 82.9256 152.909 82.9257 152.915 82.9259C152.909 82.9258 152.903 82.9257 152.897 82.9255C152.707 82.9247 152.665 83.0122 152.663 83.1108C152.664 83.1227 152.664 83.1352 152.664 83.148C152.663 83.1355 152.663 83.1231 152.663 83.1108C152.653 82.9893 152.574 82.916 152.432 82.9235C152.423 82.9245 152.414 82.9253 152.404 82.9259C152.414 82.9247 152.423 82.9239 152.432 82.9235Z" fill="white"/>
<path d="M154.973 79.9915C155.054 79.9819 155.085 79.931 155.089 79.8696C155.085 79.9329 155.097 79.9891 155.205 79.9925C155.208 79.9926 155.211 79.9926 155.214 79.9927C155.211 79.9927 155.208 79.9926 155.205 79.9925C155.111 79.9922 155.089 80.0359 155.088 80.0852C155.089 80.0912 155.089 80.0974 155.089 80.1038C155.088 80.0975 155.088 80.0913 155.088 80.0852C155.083 80.0245 155.044 79.9878 154.973 79.9915C154.968 79.992 154.964 79.9924 154.959 79.9927C154.964 79.9921 154.968 79.9918 154.973 79.9915Z" fill="white"/>
<path d="M144.797 76.1423C145.124 76.104 145.245 75.9002 145.262 75.6548C145.246 75.908 145.295 76.1327 145.728 76.1465C145.74 76.1465 145.752 76.1467 145.764 76.1471C145.752 76.1471 145.74 76.1468 145.728 76.1465C145.348 76.1449 145.263 76.3197 145.26 76.517C145.262 76.5409 145.262 76.5657 145.262 76.5914C145.26 76.5665 145.259 76.5416 145.26 76.517C145.239 76.2741 145.081 76.1274 144.797 76.1423C144.78 76.1444 144.761 76.146 144.742 76.1471C144.761 76.1449 144.779 76.1433 144.797 76.1423Z" fill="white"/>
<path d="M151.977 68.8934C152.468 68.8359 152.649 68.5302 152.674 68.1621C152.651 68.5419 152.724 68.879 153.374 68.8996C153.391 68.8997 153.409 68.9 153.427 68.9006C153.409 68.9005 153.391 68.9002 153.374 68.8996C152.804 68.8973 152.676 69.1596 152.671 69.4554C152.674 69.4913 152.675 69.5285 152.674 69.567C152.671 69.5296 152.67 69.4923 152.671 69.4554C152.639 69.091 152.403 68.871 151.977 68.8934C151.951 68.8966 151.923 68.899 151.895 68.9006C151.923 68.8972 151.95 68.8949 151.977 68.8934Z" fill="white"/>
<path d="M131.002 86.9138C131.329 86.8755 131.45 86.6717 131.467 86.4263C131.452 86.6795 131.5 86.9042 131.933 86.918C131.945 86.918 131.957 86.9182 131.969 86.9186C131.957 86.9185 131.945 86.9183 131.933 86.918C131.553 86.9164 131.468 87.0912 131.465 87.2885C131.467 87.3124 131.467 87.3372 131.467 87.3629C131.465 87.3379 131.464 87.313 131.465 87.2885C131.444 87.0456 131.286 86.8989 131.002 86.9138C130.985 86.9159 130.966 86.9175 130.947 86.9186C130.966 86.9164 130.985 86.9148 131.002 86.9138Z" fill="white"/>
<path d="M134.579 65.8401C134.905 65.8017 135.027 65.5979 135.043 65.3525C135.028 65.6057 135.076 65.8305 135.509 65.8442C135.521 65.8443 135.533 65.8445 135.545 65.8449C135.533 65.8448 135.521 65.8446 135.509 65.8442C135.13 65.8427 135.044 66.0175 135.041 66.2148C135.043 66.2387 135.044 66.2635 135.043 66.2892C135.041 66.2642 135.04 66.2393 135.041 66.2148C135.02 65.9718 134.862 65.8252 134.579 65.8401C134.561 65.8422 134.542 65.8438 134.523 65.8449C134.542 65.8426 134.561 65.841 134.579 65.8401Z" fill="white"/>
<path d="M177.548 93.4893C178.202 93.4125 178.444 93.005 178.477 92.5142C178.446 93.0205 178.543 93.4701 179.409 93.4975C179.433 93.4976 179.457 93.498 179.481 93.4988C179.457 93.4987 179.433 93.4983 179.409 93.4975C178.65 93.4944 178.479 93.8441 178.472 94.2386C178.476 94.2864 178.478 94.336 178.477 94.3874C178.473 94.3375 178.471 94.2877 178.472 94.2386C178.431 93.7527 178.115 93.4594 177.548 93.4893C177.512 93.4934 177.476 93.4966 177.438 93.4988C177.475 93.4943 177.512 93.4912 177.548 93.4893Z" fill="white"/>
<path d="M165.715 89.9479C165.879 89.9287 165.939 89.8268 165.947 89.7041C165.94 89.8307 165.964 89.9431 166.18 89.9499C166.186 89.95 166.192 89.9501 166.198 89.9503C166.192 89.9502 166.186 89.9501 166.18 89.9499C165.991 89.9492 165.948 90.0366 165.946 90.1352C165.947 90.1472 165.948 90.1596 165.947 90.1724C165.946 90.1599 165.946 90.1475 165.946 90.1352C165.936 90.0137 165.857 89.9404 165.715 89.9479C165.706 89.9489 165.697 89.9497 165.688 89.9503C165.697 89.9491 165.706 89.9483 165.715 89.9479Z" fill="white"/>
<path d="M139.149 90.8844C139.312 90.8652 139.373 90.7633 139.381 90.6406C139.373 90.7672 139.398 90.8796 139.614 90.8865C139.62 90.8865 139.626 90.8866 139.632 90.8868C139.626 90.8868 139.62 90.8867 139.614 90.8865C139.424 90.8857 139.381 90.9731 139.38 91.0717C139.381 91.0837 139.381 91.0961 139.381 91.1089C139.38 91.0965 139.38 91.084 139.38 91.0717C139.369 90.9503 139.291 90.8769 139.149 90.8844C139.14 90.8854 139.131 90.8862 139.121 90.8868C139.131 90.8857 139.14 90.8849 139.149 90.8844Z" fill="white"/>
<path d="M142.808 70.0737C143.461 69.997 143.704 69.5894 143.736 69.0986C143.706 69.605 143.803 70.0545 144.669 70.082C144.693 70.0821 144.716 70.0825 144.741 70.0833C144.716 70.0832 144.693 70.0827 144.669 70.082C143.91 70.0789 143.739 70.4286 143.732 70.8231C143.736 70.8709 143.738 70.9205 143.736 70.9719C143.733 70.922 143.731 70.8722 143.732 70.8231C143.69 70.3372 143.375 70.0439 142.808 70.0737C142.772 70.0779 142.735 70.0811 142.697 70.0833C142.735 70.0788 142.772 70.0756 142.808 70.0737Z" fill="white"/>
<path d="M151.41 76.8351C151.574 76.8159 151.634 76.714 151.643 76.5913C151.635 76.7179 151.659 76.8303 151.876 76.8371C151.882 76.8372 151.888 76.8373 151.894 76.8375C151.888 76.8374 151.882 76.8373 151.876 76.8371C151.686 76.8364 151.643 76.9238 151.642 77.0224C151.643 77.0344 151.643 77.0468 151.643 77.0596C151.642 77.0471 151.641 77.0347 151.642 77.0224C151.631 76.901 151.552 76.8276 151.41 76.8351C151.402 76.8361 151.392 76.8369 151.383 76.8375C151.392 76.8363 151.401 76.8356 151.41 76.8351Z" fill="white"/>
<rect x="115" y="46" width="81.4512" height="99.585" stroke="#7C462C" stroke-width="10"/>
<g filter="url(#filter1_d_0_1)">
<rect x="120.098" y="50.7148" width="70.7441" height="89.687" stroke="#A5673F" stroke-width="11" shape-rendering="crispEdges"/>
</g>
<rect x="127.148" y="183" width="7.69811" height="2.77931" rx="1.38966" fill="#5C4033"/>
<path d="M140.507 205.769C140.507 206.765 140.258 207.752 139.775 208.673C139.291 209.594 138.582 210.431 137.689 211.135C136.795 211.84 135.734 212.399 134.567 212.781C133.399 213.162 132.148 213.358 130.884 213.358C129.621 213.358 128.369 213.162 127.202 212.781C126.034 212.399 124.974 211.84 124.08 211.135C123.187 210.431 122.478 209.594 121.994 208.673C121.511 207.752 121.262 206.765 121.262 205.769L130.884 205.769H140.507Z" fill="#C48D27"/>
<path d="M131.679 213.359C131.679 213.443 131.658 213.526 131.618 213.604C131.579 213.682 131.52 213.753 131.447 213.812C131.373 213.872 131.286 213.919 131.189 213.951C131.093 213.983 130.99 214 130.886 214C130.782 214 130.679 213.983 130.583 213.951C130.487 213.919 130.399 213.872 130.326 213.812C130.252 213.753 130.194 213.682 130.154 213.604C130.114 213.526 130.094 213.443 130.094 213.359L130.886 213.359H131.679Z" fill="#5C4033"/>
<path d="M140.507 205.769H121.262V192.407H140.507V205.769Z" fill="#C48D27"/>
<path d="M143 194.224C143 192.947 142.69 191.682 142.087 190.502C141.483 189.321 140.6 188.249 139.485 187.346C138.371 186.442 137.048 185.726 135.592 185.237C134.136 184.748 132.576 184.497 131 184.497C129.424 184.497 127.864 184.748 126.408 185.237C124.952 185.726 123.629 186.442 122.515 187.346C121.4 188.249 120.517 189.321 119.913 190.502C119.31 191.682 119 192.947 119 194.224L131 194.224H143Z" fill="#7C462C"/>
<path d="M150.12 185.04C150.36 184.8 150.667 184.653 151.04 184.6C151.44 184.52 151.907 184.48 152.44 184.48H162.32C162.667 184.48 163.053 184.48 163.48 184.48C163.933 184.453 164.36 184.48 164.76 184.56C165.16 184.64 165.507 184.787 165.8 185C166.12 185.187 166.347 185.493 166.48 185.92C166.56 186.187 166.587 186.493 166.56 186.84C166.56 187.187 166.493 187.52 166.36 187.84C166.253 188.133 166.08 188.4 165.84 188.64C165.6 188.853 165.307 188.973 164.96 189C164.267 189.133 163.547 189.173 162.8 189.12C162.053 189.04 161.333 189 160.64 189C159.867 189 159.187 189.027 158.6 189.08C158.013 189.133 157.347 189.16 156.6 189.16C156.307 189.16 155.933 189.147 155.48 189.12C155.027 189.093 154.68 189.12 154.44 189.2C154.227 189.253 154.053 189.36 153.92 189.52C153.813 189.68 153.733 189.867 153.68 190.08C153.627 190.267 153.6 190.467 153.6 190.68C153.6 190.893 153.6 191.08 153.6 191.24C153.6 191.693 153.573 192.16 153.52 192.64C153.493 193.093 153.467 193.547 153.44 194C153.387 194.613 153.467 194.96 153.68 195.04C153.92 195.093 154.32 195.04 154.88 194.88C155.84 194.64 156.827 194.52 157.84 194.52C159.2 194.52 160.467 194.707 161.64 195.08C162.813 195.427 163.827 195.973 164.68 196.72C165.56 197.44 166.24 198.36 166.72 199.48C167.227 200.573 167.48 201.853 167.48 203.32C167.48 203.587 167.467 203.84 167.44 204.08C167.44 204.32 167.413 204.56 167.36 204.8C167.147 206.48 166.52 207.96 165.48 209.24C164.44 210.52 163.12 211.44 161.52 212C159.627 212.72 157.667 213.053 155.64 213C153.613 212.92 151.747 212.333 150.04 211.24C149.56 210.947 149.12 210.6 148.72 210.2C148.32 209.773 148.027 209.293 147.84 208.76C147.627 208.2 147.56 207.627 147.64 207.04C147.747 206.427 148.107 205.973 148.72 205.68C149.173 205.467 149.587 205.4 149.96 205.48C150.36 205.533 150.733 205.667 151.08 205.88C151.427 206.067 151.76 206.307 152.08 206.6C152.427 206.867 152.773 207.093 153.12 207.28C153.733 207.573 154.373 207.827 155.04 208.04C155.707 208.227 156.413 208.32 157.16 208.32C158.813 208.32 160.133 207.88 161.12 207C162.133 206.12 162.64 204.933 162.64 203.44C162.64 202 162.12 200.88 161.08 200.08C160.04 199.253 158.64 198.84 156.88 198.84C156.427 198.84 155.973 198.867 155.52 198.92C155.067 198.973 154.613 199.067 154.16 199.2C153.733 199.307 153.307 199.427 152.88 199.56C152.48 199.693 152.08 199.787 151.68 199.84C151.28 199.867 150.88 199.827 150.48 199.72C150.107 199.587 149.747 199.307 149.4 198.88C149.053 198.507 148.88 198.053 148.88 197.52C148.88 196.987 148.907 196.493 148.96 196.04C149.013 195.267 149.053 194.493 149.08 193.72C149.107 192.947 149.147 192.173 149.2 191.4C149.253 190.627 149.293 189.867 149.32 189.12C149.373 188.347 149.427 187.573 149.48 186.8C149.507 186.347 149.573 185.987 149.68 185.72C149.787 185.453 149.933 185.227 150.12 185.04ZM181.366 212.88C180.886 212.88 180.393 212.853 179.886 212.8C179.406 212.72 178.926 212.587 178.446 212.4C177.726 212.107 177.033 211.72 176.366 211.24C175.726 210.733 175.139 210.173 174.606 209.56C173.326 208.12 172.353 206.427 171.686 204.48C171.019 202.507 170.686 200.507 170.686 198.48C170.686 195.707 171.219 193.027 172.286 190.44C172.473 189.987 172.713 189.507 173.006 189C173.326 188.493 173.673 188.013 174.046 187.56C174.446 187.08 174.846 186.653 175.246 186.28C175.673 185.907 176.099 185.627 176.526 185.44C177.113 185.173 177.753 184.907 178.446 184.64C179.299 184.373 180.259 184.253 181.326 184.28C182.393 184.307 183.366 184.427 184.246 184.64C185.473 184.933 186.526 185.467 187.406 186.24C188.286 186.987 189.033 187.893 189.646 188.96C190.259 190 190.739 191.147 191.086 192.4C191.433 193.627 191.686 194.88 191.846 196.16C191.953 197.013 191.993 197.867 191.966 198.72C191.939 199.547 191.873 200.387 191.766 201.24C191.659 202.013 191.526 202.787 191.366 203.56C191.233 204.333 191.046 205.08 190.806 205.8C190.566 206.52 190.259 207.213 189.886 207.88C189.513 208.52 189.046 209.12 188.486 209.68C187.473 210.667 186.366 211.44 185.166 212C183.993 212.533 182.726 212.827 181.366 212.88ZM181.326 189.56C180.953 189.56 180.579 189.6 180.206 189.68C179.859 189.733 179.526 189.867 179.206 190.08C178.833 190.32 178.499 190.613 178.206 190.96C177.913 191.307 177.659 191.667 177.446 192.04C176.886 193 176.499 194.027 176.286 195.12C176.073 196.213 175.966 197.32 175.966 198.44C175.966 199.587 176.086 200.773 176.326 202C176.593 203.227 177.059 204.347 177.726 205.36C178.046 205.84 178.419 206.267 178.846 206.64C179.299 206.987 179.819 207.24 180.406 207.4C180.939 207.533 181.473 207.573 182.006 207.52C182.566 207.467 183.086 207.293 183.566 207C184.339 206.52 184.953 205.88 185.406 205.08C185.859 204.28 186.193 203.413 186.406 202.48C186.646 201.547 186.779 200.587 186.806 199.6C186.859 198.613 186.859 197.72 186.806 196.92C186.753 196.12 186.619 195.28 186.406 194.4C186.193 193.52 185.873 192.72 185.446 192C185.046 191.28 184.499 190.693 183.806 190.24C183.139 189.76 182.313 189.533 181.326 189.56Z" fill="black"/>
<defs>
<filter id="filter0_d_0_1" x="0" y="0" width="311" height="255" filterUnits="userSpaceOnUse" color-interpolation-filters="sRGB">
<feFlood flood-opacity="0" result="BackgroundImageFix"/>
<feColorMatrix in="SourceAlpha" type="matrix" values="0 0 0 0 0 0 0 0 0 0 0 0 0 0 0 0 0 0 127 0" result="hardAlpha"/>
<feOffset dy="5"/>
<feGaussianBlur stdDeviation="2"/>
<feComposite in2="hardAlpha" operator="out"/>
<feColorMatrix type="matrix" values="0 0 0 0 0 0 0 0 0 0 0 0 0 0 0 0 0 0 0.25 0"/>
<feBlend mode="normal" in2="BackgroundImageFix" result="effect1_dropShadow_0_1"/>
<feBlend mode="normal" in="SourceGraphic" in2="effect1_dropShadow_0_1" result="shape"/>
</filter>
<filter id="filter1_d_0_1" x="110.598" y="45.2148" width="89.7441" height="109.687" filterUnits="userSpaceOnUse" color-interpolation-filters="sRGB">
<feFlood flood-opacity="0" result="BackgroundImageFix"/>
<feColorMatrix in="SourceAlpha" type="matrix" values="0 0 0 0 0 0 0 0 0 0 0 0 0 0 0 0 0 0 127 0" result="hardAlpha"/>
<feOffset dy="5"/>
<feGaussianBlur stdDeviation="2"/>
<feComposite in2="hardAlpha" operator="out"/>
<feColorMatrix type="matrix" values="0 0 0 0 0 0 0 0 0 0 0 0 0 0 0 0 0 0 0.25 0"/>
<feBlend mode="normal" in2="BackgroundImageFix" result="effect1_dropShadow_0_1"/>
<feBlend mode="normal" in="SourceGraphic" in2="effect1_dropShadow_0_1" result="shape"/>
</filter>
</defs>
</svg>
