<svg width="311" height="255" viewBox="0 0 311 255" fill="none" xmlns="http://www.w3.org/2000/svg">
<g filter="url(#filter0_d_0_1)">
<rect x="4" width="303" height="246" rx="30" fill="#D9D9D9" fill-opacity="0.46" shape-rendering="crispEdges"/>
</g>
<rect x="42" y="31" width="228" height="129" fill="white"/>
<rect x="78" y="183" width="156" height="31" rx="15.5" fill="#D9D9D9"/>
<path d="M154.916 54.3803C154.916 53.2039 155.597 52.1197 156.684 51.6691C157.597 51.2903 158.462 50.989 159.434 50.7771C161.086 50.4166 162.499 51.8264 162.499 53.5179V78.8568C162.499 80.5136 161.156 81.8568 159.499 81.8568H157.916C156.259 81.8568 154.916 80.5136 154.916 78.8568V54.3803Z" fill="white"/>
<path d="M160.75 54.1464C160.75 53.8621 160.901 53.4234 161.013 53.1618C161.435 52.1714 161.917 52.561 161.917 53.6376V80.5534C161.917 80.8252 161.729 81.061 161.464 81.1219C161.099 81.2059 160.75 80.9283 160.75 80.5534V54.1464Z" fill="#D9D9D9" fill-opacity="0.25"/>
<path d="M156.22 53.3084C158.86 53.7878 159.88 53.3654 161.298 51.5719" stroke="#D9D9D9" stroke-width="0.2"/>
<path d="M159 49.8574C159.576 51.095 159.23 51.5851 159 53.0003" stroke="#54565F" stroke-width="0.2"/>
<path d="M158.118 44.8929C158.138 44.723 158.13 44.1465 158.126 43.6693C158.123 43.397 158.203 43.4748 158.224 43.7462C158.239 43.933 158.327 44.0041 158.405 44.1746C158.428 44.2255 158.446 44.2778 158.459 44.331C158.516 44.5041 158.619 44.7206 158.618 44.9735C158.618 45.4961 158.53 45.6262 158.533 45.8539C158.539 46.2988 158.579 46.473 158.71 46.6332C158.846 46.8004 158.873 46.9403 159.005 47.2852C159.074 47.4635 159.137 48.0401 159.233 48.1846C159.431 48.4837 159.717 48.8264 159.617 49.3214C159.496 49.9147 159.305 49.7853 159.005 50.1423C158.934 50.2272 158.377 50.3138 158.049 50.1215C158.013 50.1007 157.971 50.0584 157.952 49.9984C157.879 49.7643 157.864 49.7813 157.838 49.5709C157.812 49.3548 157.912 48.9396 157.97 48.7666C158.039 48.5586 158.199 48.3462 158.243 48.1423C158.277 47.986 158.264 47.8421 158.243 47.4949C158.219 47.1108 158.219 46.8841 158.049 46.5646C157.924 46.3302 157.843 45.8976 157.947 45.5727C158.015 45.3603 158.095 45.0782 158.118 44.8929Z" fill="#A74115"/>
<path d="M158.6 47.7547C158.613 47.6861 158.608 47.4512 158.605 47.2595C158.603 47.1342 158.651 47.1588 158.667 47.2832C158.677 47.3668 158.726 47.3934 158.778 47.4593C158.797 47.4824 158.811 47.5063 158.82 47.5307C158.857 47.5997 158.924 47.686 158.923 47.7868C158.923 47.9952 158.866 48.0471 158.868 48.1379C158.872 48.3152 158.898 48.3847 158.983 48.4486C159.071 48.5152 159.088 48.571 159.174 48.7085C159.218 48.7796 159.259 49.0095 159.321 49.0671C159.449 49.1864 159.634 49.323 159.569 49.5204C159.491 49.7569 159.478 49.8659 159.174 49.8477C158.977 49.8359 158.655 49.8804 158.555 49.8394C158.533 49.8303 158.505 49.8142 158.492 49.7903C158.445 49.697 158.436 49.7037 158.419 49.6199C158.402 49.5337 158.467 49.3681 158.504 49.2992C158.549 49.2162 158.652 49.1315 158.681 49.0503C158.703 48.9879 158.694 48.9306 158.681 48.7921C158.665 48.639 158.665 48.5486 158.555 48.4212C158.474 48.3278 158.422 48.1553 158.489 48.0257C158.533 47.9411 158.585 47.8286 158.6 47.7547Z" fill="#DD7447"/>
<path d="M158.709 49.8574H159.292C159.425 49.6475 159.463 49.527 159.292 49.286C159.095 49.0874 159.001 48.7151 159.001 49.0003V49.286C159.001 49.5711 158.72 49.5793 158.709 49.8574Z" fill="#FAD484"/>
<path d="M158.417 92.1426H159.225C159.225 92.1426 160.866 97.7149 161.917 101.285C161.041 104.856 159.674 110.428 159.674 110.428H158.417C158.417 110.428 157.135 104.856 156.084 101.285C157.048 97.7149 158.417 92.1426 158.417 92.1426Z" fill="#9F784D"/>
<path d="M159.001 115H159.404C159.404 115 160.225 116.219 160.751 117C160.313 117.781 159.629 119 159.629 119H159.001C159.001 119 158.36 117.781 157.834 117C158.316 116.219 159.001 115 159.001 115Z" fill="#9F784D"/>
<ellipse cx="158.708" cy="92.1432" rx="2.04167" ry="0.571429" fill="#5C4033"/>
<path d="M147.334 78.4282H169.501C166.573 80.6981 165.348 82.9241 164.971 87.3202C164.787 89.4667 163.468 91.4628 161.352 91.8685C159.441 92.235 157.771 92.2372 155.865 91.855C153.847 91.4503 152.606 89.5676 152.405 87.5195C152.111 84.512 151.194 82.0709 147.334 78.4282Z" fill="#9F784D"/>
<path d="M147.771 79H157.98H168.771C168.393 79.3027 168.113 79.5331 167.905 79.7087C167.198 80.3032 166.25 80.3336 165.336 80.208C163.095 79.9003 160.515 79.7518 157.98 79.7485C155.999 79.7459 153.038 80.1021 151.017 80.3826C150.254 80.4885 148.446 79.3722 147.771 79Z" fill="#70593F" fill-opacity="0.7"/>
<rect x="145.584" y="76.1426" width="25.6667" height="2.85714" rx="1.42857" fill="#9F784D"/>
<ellipse cx="159.292" cy="114.429" rx="2.04167" ry="1.14286" fill="#9F784D"/>
<path d="M160.166 113.285C160.166 106.428 158.112 106.428 158.454 113.285L158.93 114.08C159.034 114.253 159.276 114.276 159.411 114.126L160.166 113.285Z" fill="#552E1C"/>
<path d="M161.012 111.524C160.806 106.894 159.637 107.119 159.584 111.584C159.57 112.79 160.365 113.846 161.499 114.256L161.88 114.393C162.093 114.47 162.261 114.203 162.099 114.044C161.424 113.382 161.054 112.47 161.012 111.524Z" fill="#552E1C"/>
<path d="M157.281 111.524C157.487 106.894 158.656 107.119 158.709 111.584C158.723 112.79 157.928 113.846 156.794 114.256L156.413 114.393C156.2 114.47 156.031 114.203 156.194 114.044C156.869 113.382 157.239 112.47 157.281 111.524Z" fill="#552E1C"/>
<path d="M159.503 136.072C161.994 136.072 163.999 137.569 165.988 139.585C166.986 140.597 167.93 141.684 168.942 142.764C169.941 143.829 170.984 144.862 172.119 145.685C172.495 145.958 172.911 146.229 173.366 146.5H146.991C148.024 145.871 148.841 145.207 149.469 144.47C150.257 143.546 151.008 142.539 151.75 141.572C152.497 140.598 153.238 139.66 154.025 138.837C155.599 137.194 157.303 136.072 159.503 136.072Z" fill="#9F784D" stroke="#9F784D"/>
<path d="M159.582 119H159C158.629 125.981 159 132.143 155.208 136.714C151.417 141.286 167.749 140.714 163.666 136.714C159.582 132.714 160.162 125.622 159.582 119Z" fill="#9F784D"/>
<path d="M182.625 135.428C184.575 135.428 186 136.854 186 138.428C186 140.003 184.575 141.428 182.625 141.428C180.675 141.428 179.25 140.003 179.25 138.428C179.25 136.854 180.675 135.428 182.625 135.428Z" stroke="#9F784D" stroke-width="2"/>
<path d="M170.375 146.144C180.875 148.139 172.125 141.286 182.333 141.857" stroke="#9F784D" stroke-width="2" stroke-linecap="round"/>
<path d="M162.208 135C159.46 134.278 158.544 133.165 158.416 129.285M160.166 125.857L158.708 122.428" stroke="#415635" stroke-width="0.5" stroke-linecap="round"/>
<path d="M153.749 137.949C158.708 137.092 161.624 142.521 168.916 141.949M149.666 143.378C151.148 139.855 154.916 145.664 160.749 146.807" stroke="#415635" stroke-linecap="round"/>
<path d="M156.959 103.857C159.592 102.83 160.153 101.727 161.042 98.4282" stroke="#415635" stroke-linecap="round"/>
<path d="M162.309 102.663C162.122 101.167 162.005 100.344 160.319 100.713C159.749 102.292 160.699 102.407 162.309 102.663Z" fill="#415635"/>
<path d="M163.416 99.8494C161.739 99.5784 160.81 99.4427 160.464 101.167C161.897 102.187 162.436 101.312 163.416 99.8494Z" fill="#3D4D34"/>
<path d="M156.659 100.869C157.319 102.404 157.697 103.246 159.372 102.614C159.488 100.882 158.445 100.902 156.659 100.869Z" fill="#3D4D34"/>
<path d="M158.965 105.226C158.841 103.963 158.761 103.269 157.311 103.649C156.786 105.012 157.596 105.072 158.965 105.226Z" fill="#3D4D34"/>
<path d="M160.274 121.696C159.158 122.099 158.544 122.33 158.86 123.484C160.056 123.613 160.119 122.906 160.274 121.696Z" fill="#3D4D34"/>
<path d="M158.201 124.64C158.734 125.681 159.037 126.253 160.172 125.816C160.17 124.638 159.445 124.655 158.201 124.64Z" fill="#3D4D34"/>
<path d="M156.451 129.782C156.984 130.824 157.287 131.395 158.422 130.959C158.42 129.78 157.695 129.798 156.451 129.782Z" fill="#3D4D34"/>
<path d="M160.51 131.307C159.509 131.936 158.961 132.292 159.524 133.352C160.72 133.225 160.626 132.52 160.51 131.307Z" fill="#3D4D34"/>
<path d="M159.173 134.453C160.044 135.245 160.534 135.676 161.44 134.878C161.016 133.775 160.344 134.04 159.173 134.453Z" fill="#3D4D34"/>
<path d="M154.157 136.607C154.598 137.688 154.852 138.283 156.02 137.942C156.119 136.767 155.395 136.725 154.157 136.607Z" fill="#3D4D34"/>
<path d="M155.057 139.179C156.214 139.452 156.856 139.593 157.247 138.462C156.326 137.704 155.872 138.258 155.057 139.179Z" fill="#3D4D34"/>
<path d="M150.391 143.751C151.548 144.024 152.19 144.165 152.581 143.034C151.66 142.276 151.206 142.829 150.391 143.751Z" fill="#3D4D34"/>
<path d="M150.204 139.074C149.261 140.575 148.756 141.411 150.679 142.188C152.422 141.111 151.581 140.377 150.204 139.074Z" fill="#3D4D34"/>
<path d="M159.557 138.111C159.509 139.275 159.493 139.92 160.702 140.075C161.281 139.042 160.638 138.714 159.557 138.111Z" fill="#3D4D34"/>
<path d="M151.973 140.968C151.925 142.133 151.909 142.777 153.118 142.932C153.697 141.899 153.054 141.571 151.973 140.968Z" fill="#3D4D34"/>
<path d="M160.755 141.537C161.816 142.064 162.407 142.347 163.054 141.335C162.337 140.389 161.765 140.825 160.755 141.537Z" fill="#3D4D34"/>
<path d="M153.171 144.966C154.232 145.493 154.823 145.776 155.47 144.764C154.753 143.818 154.181 144.254 153.171 144.966Z" fill="#3D4D34"/>
<path d="M166.511 140.482C166.65 141.639 166.736 142.278 167.955 142.247C168.363 141.138 167.675 140.912 166.511 140.482Z" fill="#3D4D34"/>
<path d="M158.345 144.482C158.484 145.639 158.57 146.278 159.789 146.247C160.197 145.138 159.509 144.912 158.345 144.482Z" fill="#3D4D34"/>
<path d="M165.528 142.514C166.67 142.839 167.305 143.009 167.749 141.897C166.865 141.097 166.385 141.63 165.528 142.514Z" fill="#3D4D34"/>
<rect x="129.148" y="184" width="7.69811" height="2.77931" rx="1.38966" fill="#5C4033"/>
<path d="M142.507 206.769C142.507 207.765 142.258 208.752 141.775 209.673C141.291 210.594 140.582 211.431 139.689 212.135C138.795 212.84 137.734 213.399 136.567 213.781C135.399 214.162 134.148 214.358 132.884 214.358C131.621 214.358 130.369 214.162 129.202 213.781C128.034 213.399 126.974 212.84 126.08 212.135C125.187 211.431 124.478 210.594 123.994 209.673C123.511 208.752 123.262 207.765 123.262 206.769L132.884 206.769H142.507Z" fill="#C48D27"/>
<path d="M133.679 214.359C133.679 214.443 133.658 214.526 133.618 214.604C133.579 214.682 133.52 214.753 133.447 214.812C133.373 214.872 133.286 214.919 133.189 214.951C133.093 214.983 132.99 215 132.886 215C132.782 215 132.679 214.983 132.583 214.951C132.487 214.919 132.399 214.872 132.326 214.812C132.252 214.753 132.194 214.682 132.154 214.604C132.114 214.526 132.094 214.443 132.094 214.359L132.886 214.359H133.679Z" fill="#5C4033"/>
<path d="M142.507 206.769H123.262V193.407H142.507V206.769Z" fill="#C48D27"/>
<path d="M145 195.224C145 193.947 144.69 192.682 144.087 191.502C143.483 190.321 142.6 189.249 141.485 188.346C140.371 187.442 139.048 186.726 137.592 186.237C136.136 185.748 134.576 185.497 133 185.497C131.424 185.497 129.864 185.748 128.408 186.237C126.952 186.726 125.629 187.442 124.515 188.346C123.4 189.249 122.517 190.321 121.913 191.502C121.31 192.682 121 193.947 121 195.224L133 195.224H145Z" fill="#7C462C"/>
<path d="M166.68 191.68C166.44 191.52 166.187 191.36 165.92 191.2C165.653 191.013 165.373 190.867 165.08 190.76C164.147 190.387 163.12 190.187 162 190.16C160.907 190.107 159.88 190.307 158.92 190.76C158.147 191.133 157.493 191.6 156.96 192.16C156.453 192.72 156.04 193.347 155.72 194.04C155.4 194.733 155.16 195.467 155 196.24C154.84 197.013 154.747 197.787 154.72 198.56C155.44 197.84 156.32 197.2 157.36 196.64C158.4 196.053 159.733 195.76 161.36 195.76C162.72 195.76 163.987 195.96 165.16 196.36C166.36 196.733 167.4 197.293 168.28 198.04C169.16 198.787 169.853 199.707 170.36 200.8C170.867 201.893 171.12 203.147 171.12 204.56C171.12 205.973 170.853 207.267 170.32 208.44C169.787 209.587 169.053 210.587 168.12 211.44C167.213 212.267 166.12 212.92 164.84 213.4C163.587 213.853 162.227 214.08 160.76 214.08C159.053 214.08 157.56 213.827 156.28 213.32C155.027 212.787 153.933 212.067 153 211.16C152.467 210.627 151.987 210.04 151.56 209.4C151.16 208.733 150.813 207.987 150.52 207.16C150.227 206.307 150 205.333 149.84 204.24C149.68 203.147 149.6 201.893 149.6 200.48C149.6 199.307 149.68 198.12 149.84 196.92C150 195.72 150.267 194.56 150.64 193.44C151.04 192.32 151.56 191.267 152.2 190.28C152.84 189.293 153.64 188.413 154.6 187.64C155.507 186.92 156.493 186.36 157.56 185.96C158.627 185.56 159.72 185.333 160.84 185.28C161.96 185.227 163.08 185.333 164.2 185.6C165.32 185.867 166.373 186.307 167.36 186.92C167.627 187.08 167.933 187.32 168.28 187.64C168.627 187.933 168.92 188.267 169.16 188.64C169.4 189.013 169.547 189.44 169.6 189.92C169.653 190.373 169.52 190.84 169.2 191.32C169.147 191.427 169.027 191.533 168.84 191.64C168.653 191.747 168.44 191.827 168.2 191.88C167.96 191.933 167.707 191.947 167.44 191.92C167.173 191.893 166.92 191.813 166.68 191.68ZM160.48 200.56C159.573 200.613 158.72 200.853 157.92 201.28C157.12 201.68 156.427 202.227 155.84 202.92C155.467 203.373 155.253 203.893 155.2 204.48C155.147 205.04 155.187 205.6 155.32 206.16C155.427 206.827 155.693 207.413 156.12 207.92C156.547 208.4 157.04 208.8 157.6 209.12C158.187 209.413 158.813 209.627 159.48 209.76C160.173 209.867 160.84 209.88 161.48 209.8C162.2 209.72 162.853 209.533 163.44 209.24C164.053 208.92 164.573 208.533 165 208.08C165.427 207.6 165.747 207.053 165.96 206.44C166.2 205.8 166.28 205.12 166.2 204.4C166.12 203.627 165.92 202.987 165.6 202.48C165.28 201.947 164.867 201.533 164.36 201.24C163.853 200.947 163.267 200.76 162.6 200.68C161.933 200.573 161.227 200.533 160.48 200.56ZM185.007 213.88C184.527 213.88 184.033 213.853 183.527 213.8C183.047 213.72 182.567 213.587 182.087 213.4C181.367 213.107 180.673 212.72 180.007 212.24C179.367 211.733 178.78 211.173 178.247 210.56C176.967 209.12 175.993 207.427 175.327 205.48C174.66 203.507 174.327 201.507 174.327 199.48C174.327 196.707 174.86 194.027 175.927 191.44C176.113 190.987 176.353 190.507 176.647 190C176.967 189.493 177.313 189.013 177.687 188.56C178.087 188.08 178.487 187.653 178.887 187.28C179.313 186.907 179.74 186.627 180.167 186.44C180.753 186.173 181.393 185.907 182.087 185.64C182.94 185.373 183.9 185.253 184.967 185.28C186.033 185.307 187.007 185.427 187.887 185.64C189.113 185.933 190.167 186.467 191.047 187.24C191.927 187.987 192.673 188.893 193.287 189.96C193.9 191 194.38 192.147 194.727 193.4C195.073 194.627 195.327 195.88 195.487 197.16C195.593 198.013 195.633 198.867 195.607 199.72C195.58 200.547 195.513 201.387 195.407 202.24C195.3 203.013 195.167 203.787 195.007 204.56C194.873 205.333 194.687 206.08 194.447 206.8C194.207 207.52 193.9 208.213 193.527 208.88C193.153 209.52 192.687 210.12 192.127 210.68C191.113 211.667 190.007 212.44 188.807 213C187.633 213.533 186.367 213.827 185.007 213.88ZM184.967 190.56C184.593 190.56 184.22 190.6 183.847 190.68C183.5 190.733 183.167 190.867 182.847 191.08C182.473 191.32 182.14 191.613 181.847 191.96C181.553 192.307 181.3 192.667 181.087 193.04C180.527 194 180.14 195.027 179.927 196.12C179.713 197.213 179.607 198.32 179.607 199.44C179.607 200.587 179.727 201.773 179.967 203C180.233 204.227 180.7 205.347 181.367 206.36C181.687 206.84 182.06 207.267 182.487 207.64C182.94 207.987 183.46 208.24 184.047 208.4C184.58 208.533 185.113 208.573 185.647 208.52C186.207 208.467 186.727 208.293 187.207 208C187.98 207.52 188.593 206.88 189.047 206.08C189.5 205.28 189.833 204.413 190.047 203.48C190.287 202.547 190.42 201.587 190.447 200.6C190.5 199.613 190.5 198.72 190.447 197.92C190.393 197.12 190.26 196.28 190.047 195.4C189.833 194.52 189.513 193.72 189.087 193C188.687 192.28 188.14 191.693 187.447 191.24C186.78 190.76 185.953 190.533 184.967 190.56Z" fill="black"/>
<defs>
<filter id="filter0_d_0_1" x="0" y="0" width="311" height="255" filterUnits="userSpaceOnUse" color-interpolation-filters="sRGB">
<feFlood flood-opacity="0" result="BackgroundImageFix"/>
<feColorMatrix in="SourceAlpha" type="matrix" values="0 0 0 0 0 0 0 0 0 0 0 0 0 0 0 0 0 0 127 0" result="hardAlpha"/>
<feOffset dy="5"/>
<feGaussianBlur stdDeviation="2"/>
<feComposite in2="hardAlpha" operator="out"/>
<feColorMatrix type="matrix" values="0 0 0 0 0 0 0 0 0 0 0 0 0 0 0 0 0 0 0.25 0"/>
<feBlend mode="normal" in2="BackgroundImageFix" result="effect1_dropShadow_0_1"/>
<feBlend mode="normal" in="SourceGraphic" in2="effect1_dropShadow_0_1" result="shape"/>
</filter>
</defs>
</svg>

