<svg width="311" height="255" viewBox="0 0 311 255" fill="none" xmlns="http://www.w3.org/2000/svg">
<g filter="url(#filter0_d_0_1)">
<rect x="4" width="303" height="246" rx="30" fill="#D9D9D9" fill-opacity="0.46" shape-rendering="crispEdges"/>
</g>
<rect x="42" y="31" width="228" height="129" fill="white"/>
<rect x="78" y="183" width="156" height="31" rx="15.5" fill="#D9D9D9"/>
<path d="M196.548 72.3745C192.277 88.4494 190.235 85.3261 182.444 101.779C182.411 101.849 182.339 101.897 182.261 101.897H154.24H139.084H129.862C129.768 101.897 129.686 101.829 129.666 101.737C126.072 85.4476 119.499 79.9425 120.624 63.0164C120.637 62.8108 120.919 62.7572 121.007 62.9434C128.559 78.9207 137.452 84.4931 139.084 101.897C137.067 72.152 135.899 58.5429 141.032 35.9443C141.08 35.7328 141.386 35.7423 141.425 35.9556C148.253 72.772 154.847 91.7629 154.24 101.897C157.511 75.4369 161.041 69.6458 167.663 46.8974C167.725 46.6864 168.038 46.7148 168.061 46.9334C170.505 70.4177 171.698 76.7318 170.18 100.924C170.167 101.14 170.468 101.223 170.57 101.031C179.401 84.2958 184.944 87.4922 196.185 72.2037C196.316 72.0252 196.605 72.1604 196.548 72.3745Z" fill="#3C4D32"/>
<rect x="114" y="94.9346" width="83" height="13.9243" rx="6.96216" fill="#87AAA8"/>
<path d="M179.766 147H132.581L119.773 106.438H191.226L179.766 147Z" fill="#87AAA8"/>
<path d="M121.217 111.886H164.16" stroke="#F4E8C1" stroke-opacity="0.5"/>
<path d="M123.383 120.362H186.896" stroke="#F4E8C1" stroke-opacity="0.5"/>
<path d="M126.27 128.837H178.235" stroke="#F4E8C1" stroke-opacity="0.5"/>
<path d="M128.434 136.708H170.294" stroke="#F4E8C1" stroke-opacity="0.5"/>
<path d="M133.486 108.859L134.208 146.999" stroke="#F4E8C1" stroke-opacity="0.5"/>
<path d="M142.146 108.859L142.868 146.999" stroke="#F4E8C1" stroke-opacity="0.5"/>
<path d="M150.809 108.859L151.53 146.999" stroke="#F4E8C1" stroke-opacity="0.5"/>
<path d="M159.469 108.859L160.19 146.999" stroke="#F4E8C1" stroke-opacity="0.5"/>
<rect x="129.148" y="185" width="7.69811" height="2.77931" rx="1.38966" fill="#5C4033"/>
<path d="M142.507 207.769C142.507 208.765 142.258 209.752 141.775 210.673C141.291 211.594 140.582 212.431 139.689 213.135C138.795 213.84 137.734 214.399 136.567 214.781C135.399 215.162 134.148 215.358 132.884 215.358C131.621 215.358 130.369 215.162 129.202 214.781C128.034 214.399 126.974 213.84 126.08 213.135C125.187 212.431 124.478 211.594 123.994 210.673C123.511 209.752 123.262 208.765 123.262 207.769L132.884 207.769H142.507Z" fill="#C48D27"/>
<path d="M133.679 215.359C133.679 215.443 133.658 215.526 133.618 215.604C133.579 215.682 133.52 215.753 133.447 215.812C133.373 215.872 133.286 215.919 133.189 215.951C133.093 215.983 132.99 216 132.886 216C132.782 216 132.679 215.983 132.583 215.951C132.487 215.919 132.399 215.872 132.326 215.812C132.252 215.753 132.194 215.682 132.154 215.604C132.114 215.526 132.094 215.443 132.094 215.359L132.886 215.359H133.679Z" fill="#5C4033"/>
<path d="M142.507 207.769H123.262V194.407H142.507V207.769Z" fill="#C48D27"/>
<path d="M145 196.224C145 194.947 144.69 193.682 144.087 192.502C143.483 191.321 142.6 190.249 141.485 189.346C140.371 188.442 139.048 187.726 137.592 187.237C136.136 186.748 134.576 186.497 133 186.497C131.424 186.497 129.864 186.748 128.408 187.237C126.952 187.726 125.629 188.442 124.515 189.346C123.4 190.249 122.517 191.321 121.913 192.502C121.31 193.682 121 194.947 121 196.224L133 196.224H145Z" fill="#7C462C"/>
<path d="M150.28 190.56C149.933 190.24 149.76 189.76 149.76 189.12C149.787 188.827 149.84 188.547 149.92 188.28C150 187.987 150.147 187.733 150.36 187.52C150.947 186.987 151.573 186.68 152.24 186.6C152.907 186.52 153.627 186.453 154.4 186.4C155.013 186.373 155.56 186.373 156.04 186.4C156.52 186.4 157.067 186.4 157.68 186.4C158.613 186.4 159.627 186.413 160.72 186.44C161.84 186.467 162.893 186.507 163.88 186.56C164.28 186.587 164.68 186.64 165.08 186.72C165.48 186.8 165.84 186.947 166.16 187.16C166.48 187.347 166.733 187.6 166.92 187.92C167.133 188.213 167.253 188.587 167.28 189.04C167.307 189.573 167.227 190.08 167.04 190.56C166.88 191.04 166.653 191.507 166.36 191.96C166.067 192.387 165.733 192.8 165.36 193.2C165.013 193.573 164.68 193.92 164.36 194.24C163.773 194.853 163.107 195.507 162.36 196.2C161.613 196.893 160.947 197.547 160.36 198.16C161.4 198.293 162.4 198.533 163.36 198.88C164.347 199.227 165.213 199.707 165.96 200.32C166.707 200.933 167.293 201.707 167.72 202.64C168.173 203.547 168.4 204.64 168.4 205.92C168.4 207.2 168.147 208.387 167.64 209.48C167.16 210.573 166.48 211.533 165.6 212.36C164.72 213.16 163.68 213.787 162.48 214.24C161.28 214.693 159.96 214.92 158.52 214.92C157.907 214.92 157.24 214.867 156.52 214.76C155.827 214.653 155.133 214.493 154.44 214.28C153.747 214.067 153.08 213.8 152.44 213.48C151.827 213.133 151.293 212.72 150.84 212.24C150.52 211.92 150.24 211.547 150 211.12C149.787 210.667 149.653 210.213 149.6 209.76C149.573 209.28 149.667 208.853 149.88 208.48C150.093 208.08 150.467 207.787 151 207.6C151.4 207.467 151.787 207.413 152.16 207.44C152.533 207.467 152.893 207.56 153.24 207.72C153.587 207.853 153.92 208.013 154.24 208.2C154.587 208.387 154.92 208.573 155.24 208.76C156.227 209.373 157.253 209.733 158.32 209.84C159.413 209.947 160.48 209.693 161.52 209.08C162.107 208.733 162.533 208.307 162.8 207.8C163.067 207.267 163.173 206.733 163.12 206.2C163.093 205.667 162.92 205.16 162.6 204.68C162.307 204.2 161.893 203.8 161.36 203.48C160.853 203.187 160.293 202.987 159.68 202.88C159.067 202.773 158.453 202.667 157.84 202.56C157.227 202.453 156.64 202.307 156.08 202.12C155.52 201.933 155.04 201.613 154.64 201.16C154.187 200.653 154.04 200.107 154.2 199.52C154.36 198.933 154.653 198.36 155.08 197.8C155.533 197.24 156.027 196.707 156.56 196.2C157.12 195.693 157.56 195.267 157.88 194.92C158.067 194.733 158.28 194.507 158.52 194.24C158.787 193.973 159.027 193.707 159.24 193.44C159.48 193.173 159.68 192.92 159.84 192.68C160.027 192.413 160.147 192.173 160.2 191.96C160.28 191.747 160.24 191.6 160.08 191.52C159.92 191.413 159.72 191.36 159.48 191.36C159.24 191.333 158.973 191.333 158.68 191.36C158.413 191.36 158.2 191.36 158.04 191.36H155.36C154.987 191.36 154.573 191.373 154.12 191.4C153.667 191.4 153.2 191.387 152.72 191.36C152.267 191.307 151.813 191.227 151.36 191.12C150.933 191.013 150.573 190.827 150.28 190.56ZM182.272 214.88C181.792 214.88 181.299 214.853 180.792 214.8C180.312 214.72 179.832 214.587 179.352 214.4C178.632 214.107 177.939 213.72 177.272 213.24C176.632 212.733 176.046 212.173 175.512 211.56C174.232 210.12 173.259 208.427 172.592 206.48C171.926 204.507 171.592 202.507 171.592 200.48C171.592 197.707 172.126 195.027 173.192 192.44C173.379 191.987 173.619 191.507 173.912 191C174.232 190.493 174.579 190.013 174.952 189.56C175.352 189.08 175.752 188.653 176.152 188.28C176.579 187.907 177.006 187.627 177.432 187.44C178.019 187.173 178.659 186.907 179.352 186.64C180.206 186.373 181.166 186.253 182.232 186.28C183.299 186.307 184.272 186.427 185.152 186.64C186.379 186.933 187.432 187.467 188.312 188.24C189.192 188.987 189.939 189.893 190.552 190.96C191.166 192 191.646 193.147 191.992 194.4C192.339 195.627 192.592 196.88 192.752 198.16C192.859 199.013 192.899 199.867 192.872 200.72C192.846 201.547 192.779 202.387 192.672 203.24C192.566 204.013 192.432 204.787 192.272 205.56C192.139 206.333 191.952 207.08 191.712 207.8C191.472 208.52 191.166 209.213 190.792 209.88C190.419 210.52 189.952 211.12 189.392 211.68C188.379 212.667 187.272 213.44 186.072 214C184.899 214.533 183.632 214.827 182.272 214.88ZM182.232 191.56C181.859 191.56 181.486 191.6 181.112 191.68C180.766 191.733 180.432 191.867 180.112 192.08C179.739 192.32 179.406 192.613 179.112 192.96C178.819 193.307 178.566 193.667 178.352 194.04C177.792 195 177.406 196.027 177.192 197.12C176.979 198.213 176.872 199.32 176.872 200.44C176.872 201.587 176.992 202.773 177.232 204C177.499 205.227 177.966 206.347 178.632 207.36C178.952 207.84 179.326 208.267 179.752 208.64C180.206 208.987 180.726 209.24 181.312 209.4C181.846 209.533 182.379 209.573 182.912 209.52C183.472 209.467 183.992 209.293 184.472 209C185.246 208.52 185.859 207.88 186.312 207.08C186.766 206.28 187.099 205.413 187.312 204.48C187.552 203.547 187.686 202.587 187.712 201.6C187.766 200.613 187.766 199.72 187.712 198.92C187.659 198.12 187.526 197.28 187.312 196.4C187.099 195.52 186.779 194.72 186.352 194C185.952 193.28 185.406 192.693 184.712 192.24C184.046 191.76 183.219 191.533 182.232 191.56Z" fill="black"/>
<defs>
<filter id="filter0_d_0_1" x="0" y="0" width="311" height="255" filterUnits="userSpaceOnUse" color-interpolation-filters="sRGB">
<feFlood flood-opacity="0" result="BackgroundImageFix"/>
<feColorMatrix in="SourceAlpha" type="matrix" values="0 0 0 0 0 0 0 0 0 0 0 0 0 0 0 0 0 0 127 0" result="hardAlpha"/>
<feOffset dy="5"/>
<feGaussianBlur stdDeviation="2"/>
<feComposite in2="hardAlpha" operator="out"/>
<feColorMatrix type="matrix" values="0 0 0 0 0 0 0 0 0 0 0 0 0 0 0 0 0 0 0.25 0"/>
<feBlend mode="normal" in2="BackgroundImageFix" result="effect1_dropShadow_0_1"/>
<feBlend mode="normal" in="SourceGraphic" in2="effect1_dropShadow_0_1" result="shape"/>
</filter>
</defs>
</svg>
