<svg width="106" height="152" viewBox="0 0 106 152" fill="none" xmlns="http://www.w3.org/2000/svg">
<path d="M58.5159 59.7655C34.8235 70.956 26.113 61.4516 24.935 59.956C24.8336 59.8273 24.731 59.7103 24.6116 59.5981C21.8942 57.0415 20.3639 53.3506 19.9973 49.0451C19.849 47.3043 21.8782 45.6091 23.624 45.6771C29.0946 45.8903 38.6996 45.261 41.2748 45.1549C45.1219 44.9965 21.6095 38.0216 22.2047 35.2217C22.2273 35.1154 22.284 35.0163 22.3229 34.9148C24.2175 29.9695 27.2218 24.9282 31.3134 20.2894C32.1079 19.3887 33.5083 19.4526 34.3136 20.3436C38.9064 25.425 43.1528 27.3071 51.6216 28.8057C49.2746 28.2606 46.7928 25.6825 39.5579 15.0461C38.9683 14.1793 39.1468 12.9955 39.9923 12.3757C44.4286 9.124 49.5875 6.34756 55.4567 4.32172C56.6404 3.91319 57.8669 4.73374 58.0991 5.96416C59.0312 10.9036 61.077 14.1694 64.4555 17.6771C65.8566 19.1319 68.217 17.6569 67.7945 15.6819C66.9126 11.5594 66.6858 7.91405 67.167 2.98785C67.2549 2.08773 67.9545 1.37052 68.8547 1.28367C73.9912 0.788106 81.8077 1.01462 87.2766 1.40818C87.7615 1.44308 88.2167 1.65605 88.5483 2.01152C94.1077 7.97045 95.5197 13.6155 98.075 19.4455C98.5578 20.5471 98.0164 21.8507 96.8807 22.2468C84.5799 26.5364 80.5343 28.2158 79.2866 29.1433C78.6684 29.6029 79.3162 30.2783 80.077 30.3994C87.7863 31.6266 92.6719 31.9104 100.143 29.4746C101.208 29.1273 102.376 29.6757 102.702 30.7478C103.962 34.8964 104.675 38.9375 104.922 42.815C104.983 43.7695 104.323 44.6162 103.386 44.812C96.2294 46.3088 91.508 46.3377 86.8472 45.2141C84.793 44.7188 83.3082 46.9602 85.0817 48.1088C89.1769 50.7612 94.2656 52.0705 102.314 52.3955C103.513 52.444 104.433 53.5086 104.209 54.6878C103.46 58.624 102.225 62.2711 100.625 65.547C100.274 66.2657 99.509 66.6809 98.7124 66.6076C90.0628 65.8116 84.6829 64.4435 79.4902 62.0463C77.5448 61.1482 75.4985 63.3697 76.8492 65.0329C80.1276 69.0698 83.6378 72.2638 89.1359 75.9101C90.2744 76.6652 90.3773 78.3122 89.1948 78.9962C83.541 82.2666 76.3235 82.1807 70.7823 80.2889C70.7823 80.2889 51.7194 74.7227 58.5159 59.7655Z" fill="#35632D"/>
<path d="M58.5159 59.7655C34.8235 70.956 26.113 61.4516 24.935 59.956C24.8336 59.8273 24.731 59.7103 24.6116 59.5981C21.8942 57.0415 20.3639 53.3506 19.9973 49.0451C19.849 47.3043 21.8782 45.6091 23.624 45.6771C29.0946 45.8903 38.6996 45.261 41.2748 45.1549C45.1219 44.9965 21.6095 38.0216 22.2047 35.2217C22.2273 35.1154 22.284 35.0163 22.3229 34.9148C24.2175 29.9695 27.2218 24.9282 31.3134 20.2894C32.1079 19.3887 33.5083 19.4526 34.3136 20.3436C38.9064 25.425 43.1528 27.3071 51.6216 28.8057C49.2746 28.2606 46.7928 25.6825 39.5579 15.0461C38.9683 14.1793 39.1468 12.9955 39.9923 12.3757C44.4286 9.124 49.5875 6.34756 55.4567 4.32172C56.6404 3.91319 57.8669 4.73374 58.0991 5.96416C59.0312 10.9036 61.077 14.1694 64.4555 17.6771C65.8566 19.1319 68.217 17.6569 67.7945 15.6819C66.9126 11.5594 66.6858 7.91405 67.167 2.98785C67.2549 2.08773 67.9545 1.37052 68.8547 1.28367C73.9912 0.788106 81.8077 1.01462 87.2766 1.40818C87.7615 1.44308 88.2167 1.65605 88.5483 2.01152C94.1077 7.97045 95.5197 13.6155 98.075 19.4455C98.5578 20.5471 98.0164 21.8507 96.8807 22.2468C84.5799 26.5364 80.5343 28.2158 79.2866 29.1433C78.6684 29.6029 79.3162 30.2783 80.077 30.3994C87.7863 31.6266 92.6719 31.9104 100.143 29.4746C101.208 29.1273 102.376 29.6757 102.702 30.7478C103.962 34.8964 104.675 38.9375 104.922 42.815C104.983 43.7695 104.323 44.6162 103.386 44.812C96.2294 46.3088 91.508 46.3377 86.8472 45.2141C84.793 44.7188 83.3082 46.9602 85.0817 48.1088C89.1769 50.7612 94.2656 52.0705 102.314 52.3955C103.513 52.444 104.433 53.5086 104.209 54.6878C103.46 58.624 102.225 62.2711 100.625 65.547C100.274 66.2657 99.509 66.6809 98.7124 66.6076C90.0628 65.8116 84.6829 64.4435 79.4902 62.0463C77.5448 61.1482 75.4985 63.3697 76.8492 65.0329C80.1276 69.0698 83.6378 72.2638 89.1359 75.9101C90.2744 76.6652 90.3773 78.3122 89.1948 78.9962C83.541 82.2666 76.3235 82.1807 70.7823 80.2889C70.7823 80.2889 51.7194 74.7227 58.5159 59.7655ZM58.5159 59.7655C46.7349 71.6548 45.5294 87.5939 43.2105 90.7246" stroke="#35632D" stroke-width="2"/>
<path d="M84.5958 8.97852C75.9905 19.1004 70.243 26.6283 65.9182 36.1113M59.6869 54.8956C60.8873 49.9242 62.1751 45.5999 63.6278 41.6771M54.7051 20.4578C56.1175 27.4126 59.0593 30.6993 65.9182 36.1113M65.9182 36.1113C65.108 37.888 64.3476 39.7333 63.6278 41.6771M63.6278 41.6771C72.0146 42.2608 76.9085 41.4944 85.7455 38.5463" stroke="white"/>
<rect y="86.959" width="97.3783" height="17.3946" rx="8" fill="#8B3E2F"/>
<path d="M77.159 152H21.7996L6.77344 101.329H90.6035L77.159 152Z" fill="#8B3E2F"/>
<path d="M8.46875 108.136H58.8515" stroke="#F4E8C1" stroke-opacity="0.5"/>
<path d="M11.0078 118.723H85.5234" stroke="#F4E8C1" stroke-opacity="0.5"/>
<path d="M14.3945 129.312H75.3618" stroke="#F4E8C1" stroke-opacity="0.5"/>
<path d="M16.9336 139.144H66.0461" stroke="#F4E8C1" stroke-opacity="0.5"/>
<path d="M22.8633 104.353L23.7101 151.999" stroke="#F4E8C1" stroke-opacity="0.5"/>
<path d="M33.0234 104.353L33.8702 151.999" stroke="#F4E8C1" stroke-opacity="0.5"/>
<path d="M43.1836 104.353L44.0304 151.999" stroke="#F4E8C1" stroke-opacity="0.5"/>
<path d="M53.3457 104.353L54.1925 151.999" stroke="#F4E8C1" stroke-opacity="0.5"/>
</svg>
