<svg width="106" height="275" viewBox="0 0 106 275" fill="none" xmlns="http://www.w3.org/2000/svg">
<path d="M53 0V132.5" stroke="black" stroke-width="7"/>
<rect x="36" y="130" width="34" height="13" rx="6.5" fill="#5C4033"/>
<path d="M95 236.5C95 241.162 93.9007 245.778 91.7649 250.085C89.6291 254.392 86.4985 258.306 82.552 261.602C78.6055 264.899 73.9204 267.514 68.764 269.298C63.6077 271.082 58.0812 272 52.5 272C46.9188 272 41.3923 271.082 36.236 269.298C31.0796 267.514 26.3944 264.899 22.448 261.602C18.5015 258.306 15.3709 254.392 13.2351 250.085C11.0993 245.778 10 241.162 10 236.5L52.5 236.5H95Z" fill="#C48D27"/>
<path d="M56 272C56 272.394 55.9095 272.784 55.7336 273.148C55.5577 273.512 55.2999 273.843 54.9749 274.121C54.6499 274.4 54.264 274.621 53.8394 274.772C53.4148 274.922 52.9596 275 52.5 275C52.0404 275 51.5852 274.922 51.1606 274.772C50.736 274.621 50.3501 274.4 50.0251 274.121C49.7001 273.843 49.4423 273.512 49.2664 273.148C49.0905 272.784 49 272.394 49 272L52.5 272H56Z" fill="#5C4033"/>
<path d="M95 236.5H10V174H95V236.5Z" fill="#C48D27"/>
<path d="M106 182.5C106 176.525 104.629 170.608 101.966 165.088C99.3021 159.568 95.3982 154.552 90.4767 150.327C85.5552 146.102 79.7125 142.75 73.2822 140.463C66.852 138.177 59.9601 137 53 137C46.0399 137 39.148 138.177 32.7178 140.463C26.2875 142.75 20.4448 146.102 15.5233 150.327C10.6018 154.552 6.69788 159.568 4.03438 165.088C1.37088 170.608 -6.08468e-07 176.525 0 182.5L53 182.5H106Z" fill="#7C462C"/>
<path d="M87.9145 231.534C90.3573 242.482 87.9145 188.503 87.9145 188.503C87.9145 188.503 77.3183 187.372 68.7615 188.503C60.2048 189.634 85.4716 220.586 87.9145 231.534Z" fill="#F5DEB3" fill-opacity="0.41"/>
<path d="M14.8371 160.688C14.1621 159.883 14.0932 158.727 14.6874 157.861C18.3678 152.497 21.4082 149.549 28.4215 146.345C29.362 145.916 30.4688 146.184 31.1335 146.976C32.2684 148.328 31.5536 150.402 29.8721 150.941C24.4582 152.675 21.5453 155.287 18.9648 160.155C18.1363 161.718 15.9741 162.043 14.8371 160.688Z" fill="#D9D9D9" fill-opacity="0.7"/>
<path d="M67.021 156.378C59.0874 147.689 55.2537 146.967 69.9809 136.018C70.3492 135.744 70.8209 135.544 71.2731 135.466C103.696 129.849 79.7346 150.506 88.18 151.974C88.4197 152.016 88.6896 152.069 88.9188 152.151C99.0251 155.759 96.4758 156.739 92.5189 165.377C92.2601 165.942 92.2014 166.596 92.3111 167.208C95.5454 185.249 80.9623 177.259 77.9489 173.127C74.99 169.07 62.1585 174.704 67.5923 159.486C67.9724 158.422 67.783 157.212 67.021 156.378Z" fill="#758E67"/>
<path d="M65.3064 133.673L70.4151 137.357C71.0765 137.834 72 137.361 72 136.546V130.16C72 129.407 71.1985 128.924 70.5325 129.276L65.4238 131.978C64.7682 132.324 64.7049 133.239 65.3064 133.673Z" fill="#758E67"/>
<path d="M72 137.5C77.9531 153.026 81.5336 161.791 90 176.5" stroke="#4F6D5D"/>
</svg>
