<svg width="185" height="185" viewBox="0 0 185 185" fill="none" xmlns="http://www.w3.org/2000/svg">
<path d="M89.6891 84.0812C97.152 85.1127 102.198 92.2044 100.83 99.6428C95.3149 129.637 87.2699 148.29 68.8678 168.738C63.192 175.045 53.2519 174.115 48.2818 167.246L9.79764 114.061C4.68914 107.002 7.17317 96.9522 15.2087 93.6002C42.2066 82.3379 62.065 80.263 89.6891 84.0812Z" fill="url(#paint0_radial_791_321)"/>
<path d="M97.8382 89.3928C97.0306 97.1571 89.7235 102.472 82.0918 100.981C52.4052 95.1782 33.6517 87.4162 13.6195 69.0903C7.41772 63.4168 8.40907 53.5365 15.2048 48.579L67.5732 10.3761C74.8485 5.06869 85.196 7.92761 88.2899 16.3947C98.2014 43.5195 100.569 63.1349 97.8382 89.3928Z" fill="url(#paint1_radial_791_321)"/>
<path d="M99.1563 102.426C91.5538 102.571 85.4202 96.2571 85.7379 88.6288C87.0513 57.0868 93.11 38.1329 106.428 16.3818C110.979 8.95033 121.25 8.08963 127.394 14.2582L173.463 60.5158C179.526 66.6026 178.775 76.7531 171.543 81.3757C147.72 96.6029 128.36 101.869 99.1563 102.426Z" fill="url(#paint2_radial_791_321)"/>
<path d="M77.2307 97.9924C77.3183 90.6846 83.3052 84.8709 90.5836 84.8162C119.842 84.596 139.995 87.4042 165.403 105.911C171.991 110.71 172.317 120.268 166.562 126.046L119.29 173.51C113.26 179.565 103.225 178.862 98.5572 171.696C81.8226 146.003 76.8898 126.431 77.2307 97.9924Z" fill="url(#paint3_radial_791_321)"/>
<ellipse cx="93.4518" cy="91.5453" rx="52.8619" ry="52.4487" fill="#A35F28"/>
<ellipse cx="91.6091" cy="128.378" rx="2.85907" ry="2.884" fill="#D8C3A5"/>
<ellipse cx="91.6091" cy="57.2385" rx="2.85907" ry="2.884" fill="#D8C3A5"/>
<ellipse cx="127.187" cy="94.4104" rx="2.85907" ry="2.884" fill="#D8C3A5"/>
<ellipse cx="56.6638" cy="94.4104" rx="2.85907" ry="2.884" fill="#D8C3A5"/>
<ellipse cx="1.92073" cy="1.908" rx="1.92073" ry="1.908" transform="matrix(0.339406 -0.94064 0.938732 0.344649 119.881 113.608)" fill="#D8C3A5"/>
<ellipse cx="1.92073" cy="1.908" rx="1.92073" ry="1.908" transform="matrix(0.339406 -0.94064 0.938732 0.344649 70.959 63.0957)" fill="#D8C3A5"/>
<ellipse cx="1.92073" cy="1.908" rx="1.92073" ry="1.908" transform="matrix(0.339406 -0.94064 0.938732 0.344649 119.881 75.2734)" fill="#D8C3A5"/>
<ellipse cx="1.92073" cy="1.908" rx="1.92073" ry="1.908" transform="matrix(0.339406 -0.94064 0.938732 0.344649 105.904 125.787)" fill="#D8C3A5"/>
<ellipse cx="1.92073" cy="1.908" rx="1.92073" ry="1.908" transform="matrix(0.339406 -0.94064 0.938732 0.344649 58.252 75.2734)" fill="#D8C3A5"/>
<ellipse cx="1.92073" cy="1.908" rx="1.92073" ry="1.908" transform="matrix(0.339406 -0.94064 0.938732 0.344649 59.5234 114.366)" fill="#D8C3A5"/>
<ellipse cx="1.92073" cy="1.908" rx="1.92073" ry="1.908" transform="matrix(0.339406 -0.94064 0.938732 0.344649 70.959 125.262)" fill="#D8C3A5"/>
<ellipse cx="1.92073" cy="1.908" rx="1.92073" ry="1.908" transform="matrix(0.339406 -0.94064 0.938732 0.344649 107.174 61.8135)" fill="#D8C3A5"/>
<path d="M138.302 92.5437L140.649 93.5506L125.967 91.9924L115.688 96.4029L98.2132 94.1976L93.5876 93.6463V90.8898H106.437L115.688 93.095L120.827 91.4411L125.453 88.6846L132.648 90.8898L138.302 92.5437Z" fill="#21281D"/>
<path d="M79.2911 118.247L81.651 116.816L84.4827 115.386L89.4759 111.288V106.326L91.5625 93.6463L90.1465 92.9758L87.4201 103.57L85.8782 111.288L83.3084 113.493L79.7629 115.863L76.627 121.212L79.2911 118.247Z" fill="#21281D"/>
<ellipse cx="92.1176" cy="92.5365" rx="2.62935" ry="2.64006" fill="#1E1E1E"/>
<defs>
<radialGradient id="paint0_radial_791_321" cx="0" cy="0" r="1" gradientTransform="matrix(29.9626 48.6758 -46.5308 28.2948 65.935 113.311)" gradientUnits="userSpaceOnUse">
<stop offset="0.754808" stop-color="#A35F28"/>
<stop offset="0.9375" stop-color="#683C1A"/>
<stop offset="0.9376" stop-color="#3D240F"/>
</radialGradient>
<radialGradient id="paint1_radial_791_321" cx="0" cy="0" r="1" gradientTransform="matrix(-48.4783 30.0847 -28.18 -46.7203 69.0584 66.2041)" gradientUnits="userSpaceOnUse">
<stop offset="0.754808" stop-color="#A35F28"/>
<stop offset="0.9375" stop-color="#683C1A"/>
<stop offset="0.9376" stop-color="#3D240F"/>
</radialGradient>
<radialGradient id="paint2_radial_791_321" cx="0" cy="0" r="1" gradientTransform="matrix(-37.1774 -43.3703 41.5496 -35.2551 117.883 69.823)" gradientUnits="userSpaceOnUse">
<stop offset="0.754808" stop-color="#A35F28"/>
<stop offset="0.9375" stop-color="#683C1A"/>
<stop offset="0.9376" stop-color="#3D240F"/>
</radialGradient>
<radialGradient id="paint3_radial_791_321" cx="0" cy="0" r="1" gradientTransform="matrix(43.1943 -37.3289 35.112 41.7189 110.114 117.61)" gradientUnits="userSpaceOnUse">
<stop offset="0.754808" stop-color="#A35F28"/>
<stop offset="0.9375" stop-color="#683C1A"/>
<stop offset="0.9376" stop-color="#3D240F"/>
</radialGradient>
</defs>
</svg>
