<svg width="311" height="255" viewBox="0 0 311 255" fill="none" xmlns="http://www.w3.org/2000/svg">
<g filter="url(#filter0_d_0_1)">
<rect x="4" width="303" height="246" rx="30" fill="#D9D9D9" fill-opacity="0.46" shape-rendering="crispEdges"/>
</g>
<rect x="42" y="36" width="228" height="129" fill="white"/>
<rect x="78" y="188" width="156" height="31" rx="15.5" fill="#D9D9D9"/>
<rect x="127.322" y="135.968" width="56.872" height="4.5844" rx="2" fill="#F4B42A"/>
<rect x="125" y="140.552" width="60.9343" height="7.44965" rx="3.72482" fill="#F4B42A"/>
<path d="M146.986 129.091H162.689L166.785 132.53H143.572L146.986 129.091Z" fill="#6E6E6E"/>
<path d="M160.384 127.995L161.974 129.041H147.777L149.101 127.995H160.384Z" fill="#6E6E6E" stroke="#2E2E2E" stroke-width="0.1"/>
<path d="M163.384 82.6738H144.814C138.56 99.5709 135.322 109.044 142.202 125.939C151.642 128.312 157.253 128.224 167.736 125.939C172.823 107.594 169.508 98.5716 163.384 82.6738Z" fill="url(#paint0_linear_0_1)"/>
<path d="M141.83 126.334C141.83 125.98 142.154 125.713 142.503 125.777C152.064 127.531 157.714 127.577 167.276 125.78C167.621 125.715 167.945 125.979 167.945 126.331C167.945 126.602 167.748 126.834 167.481 126.882C157.77 128.616 152.105 128.776 142.29 126.888C142.025 126.837 141.83 126.604 141.83 126.334Z" fill="#6E6E6E"/>
<rect x="144.15" y="77.5171" width="20.3114" height="5.15745" rx="2" fill="#6E6E6E"/>
<ellipse cx="154.305" cy="79.2356" rx="13.0573" ry="0.57305" fill="#6E6E6E"/>
<ellipse cx="155.177" cy="72.3592" rx="8.12457" ry="0.57305" fill="#3C2A1E"/>
<rect x="154.018" y="70.0669" width="2.32131" height="2.86525" rx="1" fill="#3C2A1E"/>
<path d="M155.177 65.7637C157.625 65.7398 159.194 69.0138 162.716 70.4913H147.639C151.438 69.1352 152.73 65.7876 155.177 65.7637Z" fill="#3C2A1E"/>
<path d="M141.461 76.3716C130.406 61.2258 138.636 51.1453 149.269 48.5278C151.149 48.065 152.7 46.0944 154.634 46.0016V46.0016C156.704 45.9023 158.194 47.9962 160.2 48.5183C169.277 50.8804 175.816 59.6233 168.381 76.3716" stroke="#6E6E6E"/>
<path d="M164.679 76.9433H163.337C162.914 76.9433 162.516 76.7398 162.268 76.3963C161.685 75.5888 162.172 74.4511 163.159 74.3166L168.201 73.6294C170.5 73.3162 172.642 74.852 173.084 77.129L181.645 121.242C182.722 126.788 178.992 132.125 173.413 133.02L163.279 134.647C162.662 134.746 162.069 134.364 161.904 133.761C161.721 133.089 162.134 132.4 162.813 132.245L169.105 130.81C173.593 129.877 176.529 125.548 175.736 121.033L168.563 80.2042C168.232 78.3185 166.594 76.9433 164.679 76.9433Z" fill="#F4B42A"/>
<path d="M166.879 76.0844H165.152C164.82 76.0844 164.508 75.9247 164.313 75.6552C163.855 75.0215 164.238 74.1288 165.012 74.0233L169.475 73.4154C171.457 73.1454 173.3 74.4837 173.657 76.4519L181.978 122.359C182.881 127.338 179.566 132.102 174.584 132.986L165.467 134.603C164.624 134.753 163.85 134.104 163.85 133.248C163.85 132.55 164.372 131.963 165.065 131.881L171.394 131.133C176.294 130.553 179.687 125.958 178.799 121.105L171.219 79.702C170.835 77.6065 169.009 76.0844 166.879 76.0844Z" fill="#DC9909"/>
<path d="M143.934 76.9433H145.276C145.7 76.9433 146.097 76.7398 146.346 76.3963C146.929 75.5888 146.441 74.4511 145.454 74.3166L140.412 73.6294C138.114 73.3162 135.971 74.852 135.529 77.129L126.968 121.242C125.892 126.788 129.621 132.125 135.2 133.02L145.334 134.647C145.952 134.746 146.545 134.364 146.709 133.761C146.892 133.089 146.479 132.4 145.801 132.245L139.508 130.81C135.02 129.877 132.085 125.548 132.878 121.033L140.05 80.2042C140.382 78.3185 142.02 76.9433 143.934 76.9433Z" fill="#F4B42A"/>
<path d="M141.736 76.0844H143.463C143.795 76.0844 144.108 75.9247 144.302 75.6552C144.76 75.0215 144.377 74.1288 143.603 74.0233L139.14 73.4154C137.159 73.1454 135.315 74.4837 134.959 76.4519L126.637 122.359C125.734 127.338 129.05 132.102 134.032 132.986L143.148 134.603C143.991 134.753 144.765 134.104 144.765 133.248C144.765 132.55 144.243 131.963 143.55 131.881L137.221 131.133C132.321 130.553 128.928 125.958 129.817 121.105L137.396 79.702C137.78 77.6065 139.606 76.0844 141.736 76.0844Z" fill="#DC9909"/>
<rect x="142.41" y="72.3589" width="23.7934" height="6.8766" rx="2" fill="#F4B42A"/>
<path d="M142.41 72.3589H145.312C143.707 74.6285 143.864 76.1754 145.312 79.2355H142.41V72.3589Z" fill="#DC9909"/>
<path d="M166.203 72.3589H163.301C164.907 74.6285 164.749 76.1754 163.301 79.2355H166.203V72.3589Z" fill="#DC9909"/>
<path d="M144.037 131.983C144.113 131.965 144.191 131.956 144.269 131.956H166.094C166.167 131.956 166.24 131.964 166.312 131.98L175.332 133.991C176.498 134.251 176.309 135.967 175.114 135.967H135.831C134.645 135.967 134.445 134.27 135.599 133.995L144.037 131.983Z" fill="#F4B42A"/>
<path d="M142.41 76.0845C151.85 75.4467 157.031 75.4961 166.204 76.0845" stroke="#D9D9D9" stroke-width="0.2"/>
<path d="M142.119 126.226L140.032 122.676C138.241 119.63 139 115.728 141.802 113.576L163.26 97.0956C164.696 95.9931 166.647 95.8433 168.234 96.7139V96.7139" stroke="#6E6E6E" stroke-linecap="round"/>
<path d="M167.654 126.226V126.226C169.194 125.396 169.427 123.28 168.103 122.136L142.99 100.438L139.798 97.5732" stroke="#6E6E6E" stroke-linecap="round"/>
<ellipse cx="0.57948" cy="3.73039" rx="0.57948" ry="3.73039" transform="matrix(0.941065 0.338225 -0.345847 0.938291 146.057 83.8496)" fill="white" fill-opacity="0.49"/>
<ellipse cx="0.256615" cy="1.23416" rx="0.256615" ry="1.23416" transform="matrix(0.966733 0.255787 -0.261881 0.9651 147.217 83.8091)" fill="white" fill-opacity="0.49"/>
<path d="M168.157 101.585C168.524 101.585 169.608 111.253 167.943 117.63" stroke="white" stroke-opacity="0.4" stroke-width="0.7" stroke-linecap="round"/>
<path d="M147.799 129.091H147.175C147.096 129.091 147.021 129.122 146.964 129.178L144.67 131.443C144.48 131.632 144.613 131.957 144.881 131.957H151.404C147.563 131.47 146.477 130.947 147.991 129.678C148.219 129.488 148.096 129.091 147.799 129.091Z" fill="#5E5858" fill-opacity="0.7"/>
<path d="M162.265 129.091H162.607C162.681 129.091 162.753 129.119 162.808 129.168L165.331 131.433C165.536 131.617 165.406 131.957 165.131 131.957H158.66C162.502 131.47 163.588 130.947 162.073 129.678C161.845 129.488 161.968 129.091 162.265 129.091Z" fill="#5E5858" fill-opacity="0.7"/>
<path d="M149.084 127.945L147.633 129.091C153.205 128.062 156.385 128.006 162.141 129.091L160.4 127.945H149.084Z" fill="#5E5858" fill-opacity="0.7"/>
<path d="M144.15 80.6746V79.5225L145.021 79.5228C144.954 81.5882 145.319 82.3477 147.052 82.6746H146.15C145.046 82.6746 144.15 81.7791 144.15 80.6746Z" fill="#5E5858" fill-opacity="0.7"/>
<path d="M164.463 80.6746V79.5225H163.883C163.971 81.9794 163.432 82.6547 161.723 82.6746H161.561C161.616 82.6752 161.67 82.6752 161.723 82.6746H162.463C163.567 82.6746 164.463 81.7791 164.463 80.6746Z" fill="#5E5858" fill-opacity="0.7"/>
<path d="M135.167 133.992L144.151 131.956H150.53C133.265 134.668 130.85 135.872 144.934 135.967H135.388C134.196 135.967 134.004 134.256 135.167 133.992Z" fill="#DC9909"/>
<path d="M175.474 133.992L166.49 131.956H160.11C177.376 134.668 179.791 135.872 165.707 135.967H175.253C176.445 135.967 176.637 134.256 175.474 133.992Z" fill="#DC9909"/>
<path d="M131.674 140.552C127.412 138.696 127.022 137.682 131.674 135.968H129.031C127.927 135.968 127.031 136.863 127.031 137.968V138.552C127.031 139.657 127.927 140.552 129.031 140.552H131.674Z" fill="#DC9909"/>
<path d="M133.125 140.557C124.753 140.562 125.798 147.968 133.868 148.002L133.995 148.002C133.953 148.002 133.91 148.002 133.868 148.002L128.726 148.005C126.669 148.006 125 146.338 125 144.28C125 142.224 126.665 140.557 128.722 140.556C133.03 140.555 138.846 140.553 133.125 140.557Z" fill="#DC9909"/>
<path d="M177.875 140.557C186.247 140.562 185.202 147.968 177.132 148.002L177.005 148.002C177.047 148.002 177.09 148.002 177.132 148.002L182.274 148.005C184.331 148.006 186 146.338 186 144.28C186 142.224 184.335 140.557 182.278 140.556C177.97 140.555 172.154 140.553 177.875 140.557Z" fill="#DC9909"/>
<path d="M179.551 140.552C183.812 138.696 184.203 137.682 179.551 135.968H182.193C183.298 135.968 184.193 136.863 184.193 137.968V138.552C184.193 139.657 183.298 140.552 182.193 140.552H179.551Z" fill="#DC9909"/>
<path d="M131.383 140.552H179.84" stroke="#DC9909" stroke-width="0.5"/>
<path d="M181.001 147.715H129.643" stroke="#DC9909" stroke-width="0.8"/>
<rect x="126.148" y="189" width="7.69811" height="2.77931" rx="1.38966" fill="#5C4033"/>
<path d="M139.507 211.769C139.507 212.765 139.258 213.752 138.775 214.673C138.291 215.594 137.582 216.431 136.689 217.135C135.795 217.84 134.734 218.399 133.567 218.781C132.399 219.162 131.148 219.358 129.884 219.358C128.621 219.358 127.369 219.162 126.202 218.781C125.034 218.399 123.974 217.84 123.08 217.135C122.187 216.431 121.478 215.594 120.994 214.673C120.511 213.752 120.262 212.765 120.262 211.769L129.884 211.769H139.507Z" fill="#C48D27"/>
<path d="M130.679 219.359C130.679 219.443 130.658 219.526 130.618 219.604C130.579 219.682 130.52 219.753 130.447 219.812C130.373 219.872 130.286 219.919 130.189 219.951C130.093 219.983 129.99 220 129.886 220C129.782 220 129.679 219.983 129.583 219.951C129.487 219.919 129.399 219.872 129.326 219.812C129.252 219.753 129.194 219.682 129.154 219.604C129.114 219.526 129.094 219.443 129.094 219.359L129.886 219.359H130.679Z" fill="#5C4033"/>
<path d="M139.507 211.769H120.262V198.407H139.507V211.769Z" fill="#C48D27"/>
<path d="M142 200.224C142 198.947 141.69 197.682 141.087 196.502C140.483 195.321 139.6 194.249 138.485 193.346C137.371 192.442 136.048 191.726 134.592 191.237C133.136 190.748 131.576 190.497 130 190.497C128.424 190.497 126.864 190.748 125.408 191.237C123.952 191.726 122.629 192.442 121.515 193.346C120.4 194.249 119.517 195.321 118.913 196.502C118.31 197.682 118 198.947 118 200.224L130 200.224H142Z" fill="#7C462C"/>
<path d="M147.28 194.56C146.933 194.24 146.76 193.76 146.76 193.12C146.787 192.827 146.84 192.547 146.92 192.28C147 191.987 147.147 191.733 147.36 191.52C147.947 190.987 148.573 190.68 149.24 190.6C149.907 190.52 150.627 190.453 151.4 190.4C152.013 190.373 152.56 190.373 153.04 190.4C153.52 190.4 154.067 190.4 154.68 190.4C155.613 190.4 156.627 190.413 157.72 190.44C158.84 190.467 159.893 190.507 160.88 190.56C161.28 190.587 161.68 190.64 162.08 190.72C162.48 190.8 162.84 190.947 163.16 191.16C163.48 191.347 163.733 191.6 163.92 191.92C164.133 192.213 164.253 192.587 164.28 193.04C164.307 193.573 164.227 194.08 164.04 194.56C163.88 195.04 163.653 195.507 163.36 195.96C163.067 196.387 162.733 196.8 162.36 197.2C162.013 197.573 161.68 197.92 161.36 198.24C160.773 198.853 160.107 199.507 159.36 200.2C158.613 200.893 157.947 201.547 157.36 202.16C158.4 202.293 159.4 202.533 160.36 202.88C161.347 203.227 162.213 203.707 162.96 204.32C163.707 204.933 164.293 205.707 164.72 206.64C165.173 207.547 165.4 208.64 165.4 209.92C165.4 211.2 165.147 212.387 164.64 213.48C164.16 214.573 163.48 215.533 162.6 216.36C161.72 217.16 160.68 217.787 159.48 218.24C158.28 218.693 156.96 218.92 155.52 218.92C154.907 218.92 154.24 218.867 153.52 218.76C152.827 218.653 152.133 218.493 151.44 218.28C150.747 218.067 150.08 217.8 149.44 217.48C148.827 217.133 148.293 216.72 147.84 216.24C147.52 215.92 147.24 215.547 147 215.12C146.787 214.667 146.653 214.213 146.6 213.76C146.573 213.28 146.667 212.853 146.88 212.48C147.093 212.08 147.467 211.787 148 211.6C148.4 211.467 148.787 211.413 149.16 211.44C149.533 211.467 149.893 211.56 150.24 211.72C150.587 211.853 150.92 212.013 151.24 212.2C151.587 212.387 151.92 212.573 152.24 212.76C153.227 213.373 154.253 213.733 155.32 213.84C156.413 213.947 157.48 213.693 158.52 213.08C159.107 212.733 159.533 212.307 159.8 211.8C160.067 211.267 160.173 210.733 160.12 210.2C160.093 209.667 159.92 209.16 159.6 208.68C159.307 208.2 158.893 207.8 158.36 207.48C157.853 207.187 157.293 206.987 156.68 206.88C156.067 206.773 155.453 206.667 154.84 206.56C154.227 206.453 153.64 206.307 153.08 206.12C152.52 205.933 152.04 205.613 151.64 205.16C151.187 204.653 151.04 204.107 151.2 203.52C151.36 202.933 151.653 202.36 152.08 201.8C152.533 201.24 153.027 200.707 153.56 200.2C154.12 199.693 154.56 199.267 154.88 198.92C155.067 198.733 155.28 198.507 155.52 198.24C155.787 197.973 156.027 197.707 156.24 197.44C156.48 197.173 156.68 196.92 156.84 196.68C157.027 196.413 157.147 196.173 157.2 195.96C157.28 195.747 157.24 195.6 157.08 195.52C156.92 195.413 156.72 195.36 156.48 195.36C156.24 195.333 155.973 195.333 155.68 195.36C155.413 195.36 155.2 195.36 155.04 195.36H152.36C151.987 195.36 151.573 195.373 151.12 195.4C150.667 195.4 150.2 195.387 149.72 195.36C149.267 195.307 148.813 195.227 148.36 195.12C147.933 195.013 147.573 194.827 147.28 194.56ZM179.272 218.88C178.792 218.88 178.299 218.853 177.792 218.8C177.312 218.72 176.832 218.587 176.352 218.4C175.632 218.107 174.939 217.72 174.272 217.24C173.632 216.733 173.046 216.173 172.512 215.56C171.232 214.12 170.259 212.427 169.592 210.48C168.926 208.507 168.592 206.507 168.592 204.48C168.592 201.707 169.126 199.027 170.192 196.44C170.379 195.987 170.619 195.507 170.912 195C171.232 194.493 171.579 194.013 171.952 193.56C172.352 193.08 172.752 192.653 173.152 192.28C173.579 191.907 174.006 191.627 174.432 191.44C175.019 191.173 175.659 190.907 176.352 190.64C177.206 190.373 178.166 190.253 179.232 190.28C180.299 190.307 181.272 190.427 182.152 190.64C183.379 190.933 184.432 191.467 185.312 192.24C186.192 192.987 186.939 193.893 187.552 194.96C188.166 196 188.646 197.147 188.992 198.4C189.339 199.627 189.592 200.88 189.752 202.16C189.859 203.013 189.899 203.867 189.872 204.72C189.846 205.547 189.779 206.387 189.672 207.24C189.566 208.013 189.432 208.787 189.272 209.56C189.139 210.333 188.952 211.08 188.712 211.8C188.472 212.52 188.166 213.213 187.792 213.88C187.419 214.52 186.952 215.12 186.392 215.68C185.379 216.667 184.272 217.44 183.072 218C181.899 218.533 180.632 218.827 179.272 218.88ZM179.232 195.56C178.859 195.56 178.486 195.6 178.112 195.68C177.766 195.733 177.432 195.867 177.112 196.08C176.739 196.32 176.406 196.613 176.112 196.96C175.819 197.307 175.566 197.667 175.352 198.04C174.792 199 174.406 200.027 174.192 201.12C173.979 202.213 173.872 203.32 173.872 204.44C173.872 205.587 173.992 206.773 174.232 208C174.499 209.227 174.966 210.347 175.632 211.36C175.952 211.84 176.326 212.267 176.752 212.64C177.206 212.987 177.726 213.24 178.312 213.4C178.846 213.533 179.379 213.573 179.912 213.52C180.472 213.467 180.992 213.293 181.472 213C182.246 212.52 182.859 211.88 183.312 211.08C183.766 210.28 184.099 209.413 184.312 208.48C184.552 207.547 184.686 206.587 184.712 205.6C184.766 204.613 184.766 203.72 184.712 202.92C184.659 202.12 184.526 201.28 184.312 200.4C184.099 199.52 183.779 198.72 183.352 198C182.952 197.28 182.406 196.693 181.712 196.24C181.046 195.76 180.219 195.533 179.232 195.56Z" fill="black"/>
<defs>
<filter id="filter0_d_0_1" x="0" y="0" width="311" height="255" filterUnits="userSpaceOnUse" color-interpolation-filters="sRGB">
<feFlood flood-opacity="0" result="BackgroundImageFix"/>
<feColorMatrix in="SourceAlpha" type="matrix" values="0 0 0 0 0 0 0 0 0 0 0 0 0 0 0 0 0 0 127 0" result="hardAlpha"/>
<feOffset dy="5"/>
<feGaussianBlur stdDeviation="2"/>
<feComposite in2="hardAlpha" operator="out"/>
<feColorMatrix type="matrix" values="0 0 0 0 0 0 0 0 0 0 0 0 0 0 0 0 0 0 0.25 0"/>
<feBlend mode="normal" in2="BackgroundImageFix" result="effect1_dropShadow_0_1"/>
<feBlend mode="normal" in="SourceGraphic" in2="effect1_dropShadow_0_1" result="shape"/>
</filter>
<linearGradient id="paint0_linear_0_1" x1="154.016" y1="72.3589" x2="154.283" y2="127.686" gradientUnits="userSpaceOnUse">
<stop stop-color="#F07C2B"/>
<stop offset="0.682692" stop-color="#FCD77F"/>
</linearGradient>
</defs>
</svg>
