<svg width="311" height="255" viewBox="0 0 311 255" fill="none" xmlns="http://www.w3.org/2000/svg">
<g filter="url(#filter0_d_0_1)">
<rect x="4" width="303" height="246" rx="30" fill="#D9D9D9" fill-opacity="0.46" shape-rendering="crispEdges"/>
</g>
<rect x="42" y="31" width="228" height="129" fill="white"/>
<rect x="78" y="183" width="156" height="31" rx="15.5" fill="#D9D9D9"/>
<rect x="102.346" y="61.272" width="110.59" height="74.0238" fill="#B0C2DD"/>
<ellipse cx="183.562" cy="92.6761" rx="14.9757" ry="14.5804" fill="#F7D275"/>
<path d="M212.648 135.296H102.922C140.49 103.885 164.761 94.8765 212.648 91.2739V135.296Z" fill="#758E67"/>
<path d="M102.203 135.295L212.217 135.295C174.55 101.283 150.215 91.5293 102.203 87.6284L102.203 135.295Z" fill="#5B704F"/>
<ellipse cx="114.598" cy="74.3392" rx="5.3398" ry="3.39094" fill="white"/>
<ellipse cx="117.36" cy="70.9487" rx="4.78741" ry="3.2553" fill="white"/>
<ellipse cx="123.989" cy="70.5416" rx="4.78741" ry="3.66221" fill="white"/>
<ellipse cx="125.83" cy="74.3392" rx="5.8922" ry="3.39094" fill="white"/>
<ellipse cx="120.305" cy="74.0685" rx="4.78741" ry="3.66221" fill="white"/>
<ellipse cx="141.151" cy="83.5726" rx="4.24441" ry="2.78841" fill="white"/>
<ellipse cx="150.078" cy="83.5726" rx="4.68349" ry="2.78841" fill="white"/>
<ellipse cx="145.686" cy="83.3504" rx="3.80533" ry="3.01149" fill="white"/>
<ellipse cx="202.203" cy="70.1136" rx="4.24441" ry="2.78841" fill="white"/>
<ellipse cx="206.741" cy="69.8909" rx="3.80533" ry="3.01149" fill="white"/>
<rect x="102.346" y="61.272" width="110.59" height="74.0238" fill="#B0C2DD"/>
<ellipse cx="183.562" cy="92.6761" rx="14.9757" ry="14.5804" fill="#F7D275"/>
<path d="M212.646 135.296H102.92C140.488 103.885 164.759 94.8765 212.646 91.2739V135.296Z" fill="#758E67"/>
<path d="M102.201 135.295L212.215 135.295C174.548 101.283 150.214 91.5293 102.201 87.6284L102.201 135.295Z" fill="#5B704F"/>
<ellipse cx="114.596" cy="74.3392" rx="5.3398" ry="3.39094" fill="white"/>
<ellipse cx="117.358" cy="70.9487" rx="4.78741" ry="3.2553" fill="white"/>
<ellipse cx="123.987" cy="70.5416" rx="4.78741" ry="3.66221" fill="white"/>
<ellipse cx="125.828" cy="74.3392" rx="5.8922" ry="3.39094" fill="white"/>
<ellipse cx="120.305" cy="74.0685" rx="4.78741" ry="3.66221" fill="white"/>
<ellipse cx="141.149" cy="83.5726" rx="4.24441" ry="2.78841" fill="white"/>
<ellipse cx="150.078" cy="83.5726" rx="4.68349" ry="2.78841" fill="white"/>
<ellipse cx="145.684" cy="83.3504" rx="3.80533" ry="3.01149" fill="white"/>
<ellipse cx="202.203" cy="70.1136" rx="4.24441" ry="2.78841" fill="white"/>
<ellipse cx="206.741" cy="69.8909" rx="3.80533" ry="3.01149" fill="white"/>
<path d="M160.074 39.3394L146.322 52.697" stroke="#8A6A19" stroke-width="3"/>
<path d="M161.793 39.3394L174.399 52.697" stroke="#8A6A19" stroke-width="3"/>
<rect x="81" y="50.1406" width="150.701" height="11.1314" fill="#A35F28"/>
<rect x="81" y="134.739" width="150.701" height="11.1314" fill="#A35F28"/>
<rect x="212.219" y="152.549" width="107.974" height="12.0332" transform="rotate(-90 212.219 152.549)" fill="#A35F28"/>
<rect x="90.168" y="152.549" width="107.974" height="12.0332" transform="rotate(-90 90.168 152.549)" fill="#A35F28"/>
<path d="M224.252 50.1406L212.219 61.272" stroke="black" stroke-width="2" stroke-linecap="round"/>
<path d="M212.791 50.1406L224.251 61.272" stroke="black" stroke-width="2" stroke-linecap="round"/>
<path d="M212.219 62.3853H224.252" stroke="black" stroke-width="2"/>
<path d="M211.646 50.1406V61.272" stroke="black" stroke-width="2"/>
<path d="M224.252 135.296L212.219 146.427" stroke="black" stroke-width="2" stroke-linecap="round"/>
<path d="M212.791 135.296L224.251 146.427" stroke="black" stroke-width="2" stroke-linecap="round"/>
<path d="M212.219 133.626H224.252" stroke="black" stroke-width="2"/>
<path d="M211.646 134.739V145.871" stroke="black" stroke-width="2"/>
<path d="M102.201 134.739L90.168 145.871" stroke="black" stroke-width="2" stroke-linecap="round"/>
<path d="M90.7422 134.739L102.202 145.871" stroke="black" stroke-width="2" stroke-linecap="round"/>
<path d="M90.168 133.626H102.201" stroke="black" stroke-width="2"/>
<path d="M103.348 134.739V145.871" stroke="black" stroke-width="2"/>
<path d="M102.201 50.1406L90.168 61.272" stroke="black" stroke-width="2" stroke-linecap="round"/>
<path d="M90.7422 50.1406L102.202 61.272" stroke="black" stroke-width="2" stroke-linecap="round"/>
<path d="M90.168 62.9414H102.201" stroke="black" stroke-width="2"/>
<path d="M103.348 50.1406V61.272" stroke="black" stroke-width="2"/>
<g filter="url(#filter1_d_0_1)">
<ellipse cx="160.934" cy="38.5046" rx="2.57854" ry="2.50456" fill="white"/>
<path d="M160.934 36.2002C162.253 36.2002 163.312 37.2376 163.312 38.5049C163.312 39.7721 162.253 40.8096 160.934 40.8096C159.615 40.8094 158.556 39.7719 158.556 38.5049C158.556 37.2377 159.615 36.2004 160.934 36.2002Z" stroke="#B2BEB5" stroke-width="0.4"/>
</g>
<rect x="133.148" y="184" width="7.69811" height="2.77931" rx="1.38966" fill="#5C4033"/>
<path d="M146.507 206.769C146.507 207.765 146.258 208.752 145.775 209.673C145.291 210.594 144.582 211.431 143.689 212.135C142.795 212.84 141.734 213.399 140.567 213.781C139.399 214.162 138.148 214.358 136.884 214.358C135.621 214.358 134.369 214.162 133.202 213.781C132.034 213.399 130.974 212.84 130.08 212.135C129.187 211.431 128.478 210.594 127.994 209.673C127.511 208.752 127.262 207.765 127.262 206.769L136.884 206.769H146.507Z" fill="#C48D27"/>
<path d="M137.679 214.359C137.679 214.443 137.658 214.526 137.618 214.604C137.579 214.682 137.52 214.753 137.447 214.812C137.373 214.872 137.286 214.919 137.189 214.951C137.093 214.983 136.99 215 136.886 215C136.782 215 136.679 214.983 136.583 214.951C136.487 214.919 136.399 214.872 136.326 214.812C136.252 214.753 136.194 214.682 136.154 214.604C136.114 214.526 136.094 214.443 136.094 214.359L136.886 214.359H137.679Z" fill="#5C4033"/>
<path d="M146.507 206.769H127.262V193.407H146.507V206.769Z" fill="#C48D27"/>
<path d="M149 195.224C149 193.947 148.69 192.682 148.087 191.502C147.483 190.321 146.6 189.249 145.485 188.346C144.371 187.442 143.048 186.726 141.592 186.237C140.136 185.748 138.576 185.497 137 185.497C135.424 185.497 133.864 185.748 132.408 186.237C130.952 186.726 129.629 187.442 128.515 188.346C127.4 189.249 126.517 190.321 125.913 191.502C125.31 192.682 125 193.947 125 195.224L137 195.224H149Z" fill="#7C462C"/>
<path d="M156.12 186.04C156.36 185.8 156.667 185.653 157.04 185.6C157.44 185.52 157.907 185.48 158.44 185.48H168.32C168.667 185.48 169.053 185.48 169.48 185.48C169.933 185.453 170.36 185.48 170.76 185.56C171.16 185.64 171.507 185.787 171.8 186C172.12 186.187 172.347 186.493 172.48 186.92C172.56 187.187 172.587 187.493 172.56 187.84C172.56 188.187 172.493 188.52 172.36 188.84C172.253 189.133 172.08 189.4 171.84 189.64C171.6 189.853 171.307 189.973 170.96 190C170.267 190.133 169.547 190.173 168.8 190.12C168.053 190.04 167.333 190 166.64 190C165.867 190 165.187 190.027 164.6 190.08C164.013 190.133 163.347 190.16 162.6 190.16C162.307 190.16 161.933 190.147 161.48 190.12C161.027 190.093 160.68 190.12 160.44 190.2C160.227 190.253 160.053 190.36 159.92 190.52C159.813 190.68 159.733 190.867 159.68 191.08C159.627 191.267 159.6 191.467 159.6 191.68C159.6 191.893 159.6 192.08 159.6 192.24C159.6 192.693 159.573 193.16 159.52 193.64C159.493 194.093 159.467 194.547 159.44 195C159.387 195.613 159.467 195.96 159.68 196.04C159.92 196.093 160.32 196.04 160.88 195.88C161.84 195.64 162.827 195.52 163.84 195.52C165.2 195.52 166.467 195.707 167.64 196.08C168.813 196.427 169.827 196.973 170.68 197.72C171.56 198.44 172.24 199.36 172.72 200.48C173.227 201.573 173.48 202.853 173.48 204.32C173.48 204.587 173.467 204.84 173.44 205.08C173.44 205.32 173.413 205.56 173.36 205.8C173.147 207.48 172.52 208.96 171.48 210.24C170.44 211.52 169.12 212.44 167.52 213C165.627 213.72 163.667 214.053 161.64 214C159.613 213.92 157.747 213.333 156.04 212.24C155.56 211.947 155.12 211.6 154.72 211.2C154.32 210.773 154.027 210.293 153.84 209.76C153.627 209.2 153.56 208.627 153.64 208.04C153.747 207.427 154.107 206.973 154.72 206.68C155.173 206.467 155.587 206.4 155.96 206.48C156.36 206.533 156.733 206.667 157.08 206.88C157.427 207.067 157.76 207.307 158.08 207.6C158.427 207.867 158.773 208.093 159.12 208.28C159.733 208.573 160.373 208.827 161.04 209.04C161.707 209.227 162.413 209.32 163.16 209.32C164.813 209.32 166.133 208.88 167.12 208C168.133 207.12 168.64 205.933 168.64 204.44C168.64 203 168.12 201.88 167.08 201.08C166.04 200.253 164.64 199.84 162.88 199.84C162.427 199.84 161.973 199.867 161.52 199.92C161.067 199.973 160.613 200.067 160.16 200.2C159.733 200.307 159.307 200.427 158.88 200.56C158.48 200.693 158.08 200.787 157.68 200.84C157.28 200.867 156.88 200.827 156.48 200.72C156.107 200.587 155.747 200.307 155.4 199.88C155.053 199.507 154.88 199.053 154.88 198.52C154.88 197.987 154.907 197.493 154.96 197.04C155.013 196.267 155.053 195.493 155.08 194.72C155.107 193.947 155.147 193.173 155.2 192.4C155.253 191.627 155.293 190.867 155.32 190.12C155.373 189.347 155.427 188.573 155.48 187.8C155.507 187.347 155.573 186.987 155.68 186.72C155.787 186.453 155.933 186.227 156.12 186.04ZM187.366 213.88C186.886 213.88 186.393 213.853 185.886 213.8C185.406 213.72 184.926 213.587 184.446 213.4C183.726 213.107 183.033 212.72 182.366 212.24C181.726 211.733 181.139 211.173 180.606 210.56C179.326 209.12 178.353 207.427 177.686 205.48C177.019 203.507 176.686 201.507 176.686 199.48C176.686 196.707 177.219 194.027 178.286 191.44C178.473 190.987 178.713 190.507 179.006 190C179.326 189.493 179.673 189.013 180.046 188.56C180.446 188.08 180.846 187.653 181.246 187.28C181.673 186.907 182.099 186.627 182.526 186.44C183.113 186.173 183.753 185.907 184.446 185.64C185.299 185.373 186.259 185.253 187.326 185.28C188.393 185.307 189.366 185.427 190.246 185.64C191.473 185.933 192.526 186.467 193.406 187.24C194.286 187.987 195.033 188.893 195.646 189.96C196.259 191 196.739 192.147 197.086 193.4C197.433 194.627 197.686 195.88 197.846 197.16C197.953 198.013 197.993 198.867 197.966 199.72C197.939 200.547 197.873 201.387 197.766 202.24C197.659 203.013 197.526 203.787 197.366 204.56C197.233 205.333 197.046 206.08 196.806 206.8C196.566 207.52 196.259 208.213 195.886 208.88C195.513 209.52 195.046 210.12 194.486 210.68C193.473 211.667 192.366 212.44 191.166 213C189.993 213.533 188.726 213.827 187.366 213.88ZM187.326 190.56C186.953 190.56 186.579 190.6 186.206 190.68C185.859 190.733 185.526 190.867 185.206 191.08C184.833 191.32 184.499 191.613 184.206 191.96C183.913 192.307 183.659 192.667 183.446 193.04C182.886 194 182.499 195.027 182.286 196.12C182.073 197.213 181.966 198.32 181.966 199.44C181.966 200.587 182.086 201.773 182.326 203C182.593 204.227 183.059 205.347 183.726 206.36C184.046 206.84 184.419 207.267 184.846 207.64C185.299 207.987 185.819 208.24 186.406 208.4C186.939 208.533 187.473 208.573 188.006 208.52C188.566 208.467 189.086 208.293 189.566 208C190.339 207.52 190.953 206.88 191.406 206.08C191.859 205.28 192.193 204.413 192.406 203.48C192.646 202.547 192.779 201.587 192.806 200.6C192.859 199.613 192.859 198.72 192.806 197.92C192.753 197.12 192.619 196.28 192.406 195.4C192.193 194.52 191.873 193.72 191.446 193C191.046 192.28 190.499 191.693 189.806 191.24C189.139 190.76 188.313 190.533 187.326 190.56Z" fill="black"/>
<defs>
<filter id="filter0_d_0_1" x="0" y="0" width="311" height="255" filterUnits="userSpaceOnUse" color-interpolation-filters="sRGB">
<feFlood flood-opacity="0" result="BackgroundImageFix"/>
<feColorMatrix in="SourceAlpha" type="matrix" values="0 0 0 0 0 0 0 0 0 0 0 0 0 0 0 0 0 0 127 0" result="hardAlpha"/>
<feOffset dy="5"/>
<feGaussianBlur stdDeviation="2"/>
<feComposite in2="hardAlpha" operator="out"/>
<feColorMatrix type="matrix" values="0 0 0 0 0 0 0 0 0 0 0 0 0 0 0 0 0 0 0.25 0"/>
<feBlend mode="normal" in2="BackgroundImageFix" result="effect1_dropShadow_0_1"/>
<feBlend mode="normal" in="SourceGraphic" in2="effect1_dropShadow_0_1" result="shape"/>
</filter>
<filter id="filter1_d_0_1" x="154.355" y="33" width="13.1562" height="13.0093" filterUnits="userSpaceOnUse" color-interpolation-filters="sRGB">
<feFlood flood-opacity="0" result="BackgroundImageFix"/>
<feColorMatrix in="SourceAlpha" type="matrix" values="0 0 0 0 0 0 0 0 0 0 0 0 0 0 0 0 0 0 127 0" result="hardAlpha"/>
<feOffset dy="1"/>
<feGaussianBlur stdDeviation="2"/>
<feComposite in2="hardAlpha" operator="out"/>
<feColorMatrix type="matrix" values="0 0 0 0 0 0 0 0 0 0 0 0 0 0 0 0 0 0 0.25 0"/>
<feBlend mode="normal" in2="BackgroundImageFix" result="effect1_dropShadow_0_1"/>
<feBlend mode="normal" in="SourceGraphic" in2="effect1_dropShadow_0_1" result="shape"/>
</filter>
</defs>
</svg>
