<svg width="72" height="183" viewBox="0 0 72 183" fill="none" xmlns="http://www.w3.org/2000/svg">
<path d="M17 18.4509C17 17.2829 17.6763 16.2159 18.7412 15.7363C21.4842 14.5011 23.7839 13.6341 26.9172 13.2328C28.5957 13.0179 30 14.3994 30 16.0916V65C30 66.6569 28.6569 68 27 68H20C18.3431 68 17 66.6569 17 65V18.4509Z" fill="white"/>
<path d="M27 19.486C27 19.001 27.2558 18.2466 27.4431 17.7993C28.1668 16.0715 29 16.7261 29 18.5994V65.7381C29 66.2024 28.6805 66.6056 28.2285 66.7117C27.6009 66.859 27 66.3827 27 65.7381V19.486Z" fill="#D9D9D9" fill-opacity="0.25"/>
<path d="M19.2339 18.039C23.7591 18.878 25.5071 18.1389 27.9382 15.0002" stroke="#D9D9D9" stroke-width="0.2"/>
<path d="M24 12C24.9868 14.1657 24.3936 15.0234 24 17.5" stroke="#54565F" stroke-width="0.2"/>
<path d="M22.4865 3.31259C22.5216 3.01566 22.5079 2.00931 22.5001 1.17481C22.4956 0.701166 22.6328 0.838429 22.669 1.31071C22.6938 1.63473 22.8458 1.75768 22.9784 2.05436C23.0184 2.14378 23.0493 2.23575 23.0718 2.32932C23.1698 2.6322 23.3451 3.01107 23.3448 3.45364C23.3443 4.36815 23.193 4.59583 23.1982 4.9944C23.2085 5.77282 23.2779 6.07767 23.5017 6.3581C23.7352 6.65074 23.7808 6.89559 24.0078 7.4991C24.1252 7.81105 24.2344 8.82018 24.3986 9.07308C24.7385 9.59648 25.2284 10.1963 25.0563 11.0625C24.85 12.1008 24.5225 11.8743 24.0078 12.4991C23.8854 12.6477 22.9316 12.7991 22.3683 12.4626C22.3073 12.4262 22.235 12.3521 22.2027 12.2472C22.0765 11.8375 22.0521 11.8673 22.0076 11.4991C21.9619 11.1209 22.134 10.3942 22.2328 10.0916C22.3517 9.72749 22.6251 9.35583 22.701 8.9991C22.7593 8.72548 22.7375 8.47362 22.701 7.86608C22.6606 7.19388 22.6606 6.79726 22.3683 6.23812C22.1538 5.82784 22.016 5.07075 22.1942 4.50218C22.3107 4.13052 22.4482 3.63688 22.4865 3.31259Z" fill="#A74115"/>
<path d="M23.3147 8.32074C23.3377 8.20062 23.3283 7.78929 23.3233 7.45381C23.32 7.23596 23.4035 7.27955 23.4295 7.49587C23.447 7.6419 23.5326 7.68902 23.6226 7.80532C23.6535 7.84528 23.6769 7.88659 23.6933 7.92871C23.7567 8.04947 23.8701 8.20053 23.8699 8.37698C23.8695 8.7416 23.7717 8.83238 23.7751 8.99129C23.7817 9.30165 23.8266 9.4232 23.9714 9.535C24.1224 9.65168 24.1519 9.7493 24.2988 9.98992C24.3747 10.1143 24.4453 10.5166 24.5516 10.6175C24.7714 10.8262 25.0883 11.0653 24.977 11.4107C24.8435 11.8246 24.8199 12.0153 24.2988 11.9834C23.9622 11.9629 23.4104 12.0407 23.2382 11.9689C23.2002 11.953 23.152 11.9249 23.1311 11.883C23.0495 11.7197 23.0337 11.7316 23.0049 11.5847C22.9753 11.4339 23.0867 11.1442 23.1506 11.0236C23.2275 10.8784 23.4044 10.7302 23.4535 10.588C23.4911 10.4789 23.4771 10.3785 23.4535 10.1362C23.4273 9.86823 23.4273 9.7101 23.2382 9.48717C23.0995 9.32358 23.0103 9.02173 23.1256 8.79504C23.2009 8.64686 23.2899 8.45004 23.3147 8.32074Z" fill="#DD7447"/>
<path d="M23.5 12.0009H24.5C24.7269 11.6336 24.7925 11.4228 24.5 11.0009C24.1617 10.6534 24 10.0019 24 10.5009V11.0009C24 11.5 23.5181 11.5142 23.5 12.0009Z" fill="#FAD484"/>
<path d="M23 86H24.3846C24.3846 86 27.1976 95.7516 29 102C27.498 108.248 25.1538 118 25.1538 118H23C23 118 20.8024 108.248 19 102C20.6522 95.7516 23 86 23 86Z" fill="#9F784D"/>
<path d="M24 126H24.6923C24.6923 126 26.0988 128.133 27 129.5C26.249 130.867 25.0769 133 25.0769 133H24C24 133 22.9012 130.867 22 129.5C22.8261 128.133 24 126 24 126Z" fill="#9F784D"/>
<ellipse cx="23.5" cy="86" rx="3.5" ry="1" fill="#5C4033"/>
<path d="M4 62H42C36.4206 66.4156 34.4497 70.7361 34.0709 80.2837C33.9859 82.4252 32.639 84.3626 30.5703 84.9228C25.3213 86.3441 21.4352 86.3784 16.2309 84.9097C14.2602 84.3535 12.9652 82.5271 12.8684 80.4817C12.5589 73.9397 11.6599 69.3784 4 62Z" fill="#9F784D"/>
<path d="M4.75195 63H22.252H40.752C39.4648 64.0515 38.8414 64.6046 38.5211 64.8984C37.8275 65.5347 36.7624 65.4038 35.8325 65.258C31.7755 64.6218 26.9682 64.3162 22.252 64.3099C18.8711 64.3054 13.8267 64.9231 10.3623 65.4129C9.02915 65.6014 5.92492 63.661 4.75195 63Z" fill="#70593F" fill-opacity="0.7"/>
<rect x="1" y="58" width="44" height="5" rx="2.5" fill="#9F784D"/>
<ellipse cx="24.5" cy="125" rx="3.5" ry="2" fill="#9F784D"/>
<path d="M26 123C26 111 22.4792 111 23.066 123L24.0301 124.642C24.1336 124.819 24.3791 124.842 24.5141 124.689L26 123Z" fill="#552E1C"/>
<path d="M27.4711 120.444C27.166 111.288 24.8421 112.103 25.0085 121.528C25.0298 122.731 25.8087 123.785 26.9377 124.201L29.2218 125.043C29.5237 125.154 29.7652 124.777 29.5377 124.549L28.9684 123.98C28.0307 123.042 27.5152 121.769 27.4711 120.444Z" fill="#552E1C"/>
<path d="M21.0328 120.444C21.3379 111.288 23.6619 112.103 23.4954 121.528C23.4741 122.731 22.6952 123.785 21.5662 124.201L19.2821 125.043C18.9802 125.154 18.7387 124.777 18.9662 124.549L19.5355 123.98C20.4732 123.042 20.9887 121.769 21.0328 120.444Z" fill="#552E1C"/>
<path d="M22.7832 162.5H27.4443C31.2297 162.5 34.0511 164.693 36.665 167.714C37.9715 169.224 39.2029 170.912 40.4717 172.606C41.734 174.292 43.0301 175.98 44.4463 177.446C45.774 178.821 47.5917 180.149 49.999 181.5H2.04395C5.36875 179.649 7.50401 177.675 8.77344 175.274C10.4359 172.131 12.2453 168.925 14.5039 166.505C16.7521 164.096 19.4108 162.5 22.7832 162.5Z" fill="#9F784D" stroke="#9F784D"/>
<path d="M24.9988 133H24.0005C23.3637 145.217 24.0002 156 17.5005 164C11.0008 172 38.999 171 31.9988 164C24.9985 157 25.9926 144.588 24.9988 133Z" fill="#9F784D"/>
<path d="M64.5 161C68.156 161 71 163.75 71 167C71 170.25 68.156 173 64.5 173C60.844 173 58 170.25 58 167C58 163.75 60.844 161 64.5 161Z" stroke="#9F784D" stroke-width="2"/>
<path d="M43.5 180.502C61.5 183.995 46.5 172.001 64 173" stroke="#9F784D" stroke-width="2" stroke-linecap="round"/>
<path d="M29.5 161C24.7903 159.737 23.2191 157.789 23 151M26 145L23.5 139" stroke="#415635" stroke-width="0.5" stroke-linecap="round"/>
<path d="M15 166.161C23.5 164.661 28.5 174.161 41 173.161M8 175.661C10.5405 169.495 17 179.661 27 181.661" stroke="#415635" stroke-linecap="round"/>
<path d="M20.5 106.5C25.0142 104.703 25.9748 102.773 27.5 97" stroke="#415635" stroke-linecap="round"/>
<path d="M29.6738 104.411C29.3537 101.793 29.1532 100.352 26.2618 100.998C25.2854 103.762 26.9144 103.962 29.6738 104.411Z" fill="#415635"/>
<path d="M31.5696 99.4864C28.6947 99.0122 27.1016 98.7747 26.5082 101.793C28.966 103.577 29.8895 102.046 31.5696 99.4864Z" fill="#3D4D34"/>
<path d="M19.9863 101.271C21.1175 103.956 21.7659 105.431 24.6359 104.324C24.8354 101.293 23.0478 101.328 19.9863 101.271Z" fill="#3D4D34"/>
<path d="M23.9386 108.896C23.7263 106.686 23.5887 105.47 21.1029 106.136C20.2039 108.522 21.5912 108.626 23.9386 108.896Z" fill="#3D4D34"/>
<path d="M26.1843 137.718C24.2712 138.423 23.2187 138.828 23.7609 140.847C25.8112 141.073 25.9195 139.835 26.1843 137.718Z" fill="#3D4D34"/>
<path d="M22.6287 142.869C23.5425 144.692 24.0631 145.692 26.0083 144.928C26.0043 142.866 24.762 142.896 22.6287 142.869Z" fill="#3D4D34"/>
<path d="M19.6287 151.869C20.5425 153.692 21.0631 154.692 23.0083 153.928C23.0043 151.866 21.762 151.896 19.6287 151.869Z" fill="#3D4D34"/>
<path d="M26.5872 154.537C24.8716 155.638 23.9316 156.262 24.8971 158.115C26.9478 157.893 26.7861 156.661 26.5872 154.537Z" fill="#3D4D34"/>
<path d="M24.2958 160.043C25.7904 161.429 26.6289 162.184 28.1827 160.787C27.456 158.856 26.3032 159.32 24.2958 160.043Z" fill="#3D4D34"/>
<path d="M15.6969 163.811C16.4539 165.704 16.8885 166.745 18.891 166.147C19.0608 164.092 17.8203 164.017 15.6969 163.811Z" fill="#3D4D34"/>
<path d="M17.2415 168.313C19.2235 168.791 20.3241 169.038 20.9949 167.059C19.4162 165.732 18.6381 166.701 17.2415 168.313Z" fill="#3D4D34"/>
<path d="M9.24147 176.313C11.2235 176.791 12.3241 177.038 12.9949 175.059C11.4162 173.732 10.6381 174.701 9.24147 176.313Z" fill="#3D4D34"/>
<path d="M8.92019 168.129C7.30354 170.757 6.43722 172.22 9.73411 173.58C12.7227 171.695 11.2809 170.409 8.92019 168.129Z" fill="#3D4D34"/>
<path d="M24.9545 166.444C24.8732 168.481 24.8452 169.609 26.9173 169.881C27.9111 168.073 26.8088 167.499 24.9545 166.444Z" fill="#3D4D34"/>
<path d="M11.9545 171.444C11.8732 173.481 11.8452 174.609 13.9173 174.881C14.9111 173.073 13.8088 172.499 11.9545 171.444Z" fill="#3D4D34"/>
<path d="M27.0086 172.44C28.8268 173.363 29.8404 173.858 30.9503 172.087C29.7208 170.431 28.74 171.194 27.0086 172.44Z" fill="#3D4D34"/>
<path d="M14.0086 178.44C15.8268 179.363 16.8404 179.858 17.9503 178.087C16.7208 176.431 15.74 177.194 14.0086 178.44Z" fill="#3D4D34"/>
<path d="M36.8761 170.594C37.1136 172.618 37.2619 173.737 39.351 173.682C40.0506 171.741 38.8723 171.346 36.8761 170.594Z" fill="#3D4D34"/>
<path d="M22.8761 177.594C23.1136 179.618 23.2619 180.737 25.351 180.682C26.0506 178.741 24.8723 178.346 22.8761 177.594Z" fill="#3D4D34"/>
<path d="M35.193 174.149C37.1509 174.718 38.2389 175.016 39.0002 173.07C37.4844 171.671 36.6625 172.603 35.193 174.149Z" fill="#3D4D34"/>
</svg>
