<svg width="60" height="60" viewBox="0 0 60 60" fill="none" xmlns="http://www.w3.org/2000/svg">
<path d="M25.7694 34.2309L37.8848 22.1155M50.2782 14.7217L40.0516 47.9581C39.1352 50.9367 38.6766 52.4267 37.8861 52.9206C37.2005 53.349 36.3516 53.4206 35.6049 53.1108C34.7438 52.7535 34.045 51.3583 32.6508 48.57L26.1735 35.6152C25.9522 35.1728 25.8415 34.9525 25.6937 34.7607C25.5626 34.5906 25.4113 34.4374 25.2411 34.3062C25.0538 34.1618 24.8372 34.0535 24.4144 33.8422L11.4298 27.3499C8.64154 25.9557 7.24729 25.258 6.89001 24.397C6.58017 23.6502 6.65083 22.8006 7.07922 22.1149C7.57319 21.3243 9.06308 20.8651 12.0426 19.9483L45.2791 9.72168C47.6215 9.00095 48.7931 8.64086 49.5843 8.93133C50.2735 9.18433 50.8168 9.7271 51.0698 10.4163C51.3601 11.2071 50.9998 12.3782 50.2798 14.7182L50.2782 14.7217Z" stroke="black" stroke-width="2" stroke-linecap="round" stroke-linejoin="round"/>
</svg>

