<svg width="311" height="255" viewBox="0 0 311 255" fill="none" xmlns="http://www.w3.org/2000/svg">
<g filter="url(#filter0_d_0_1)">
<rect x="4" width="303" height="246" rx="30" fill="#D9D9D9" fill-opacity="0.46" shape-rendering="crispEdges"/>
</g>
<rect x="78" y="188" width="156" height="31" rx="15.5" fill="#D9D9D9"/>
<rect x="42" y="36" width="228" height="129" fill="#E8CCA1"/>
<rect x="126.148" y="189" width="7.69811" height="2.77931" rx="1.38966" fill="#5C4033"/>
<path d="M139.507 211.769C139.507 212.765 139.258 213.752 138.775 214.673C138.291 215.594 137.582 216.431 136.689 217.135C135.795 217.84 134.734 218.399 133.567 218.781C132.399 219.162 131.148 219.358 129.884 219.358C128.621 219.358 127.369 219.162 126.202 218.781C125.034 218.399 123.974 217.84 123.08 217.135C122.187 216.431 121.478 215.594 120.994 214.673C120.511 213.752 120.262 212.765 120.262 211.769L129.884 211.769H139.507Z" fill="#C48D27"/>
<path d="M130.679 219.359C130.679 219.443 130.658 219.526 130.618 219.604C130.579 219.682 130.52 219.753 130.447 219.812C130.373 219.872 130.286 219.919 130.189 219.951C130.093 219.983 129.99 220 129.886 220C129.782 220 129.679 219.983 129.583 219.951C129.487 219.919 129.399 219.872 129.326 219.812C129.252 219.753 129.194 219.682 129.154 219.604C129.114 219.526 129.094 219.443 129.094 219.359L129.886 219.359H130.679Z" fill="#5C4033"/>
<path d="M139.507 211.769H120.262V198.407H139.507V211.769Z" fill="#C48D27"/>
<path d="M142 200.224C142 198.947 141.69 197.682 141.087 196.502C140.483 195.321 139.6 194.249 138.485 193.346C137.371 192.442 136.048 191.726 134.592 191.237C133.136 190.748 131.576 190.497 130 190.497C128.424 190.497 126.864 190.748 125.408 191.237C123.952 191.726 122.629 192.442 121.515 193.346C120.4 194.249 119.517 195.321 118.913 196.502C118.31 197.682 118 198.947 118 200.224L130 200.224H142Z" fill="#7C462C"/>
<path d="M151.32 199.52C150.92 200.133 150.44 200.507 149.88 200.64C149.347 200.773 148.827 200.733 148.32 200.52C147.813 200.307 147.387 199.96 147.04 199.48C146.72 198.973 146.587 198.4 146.64 197.76C146.667 197.333 146.773 196.867 146.96 196.36C147.147 195.853 147.373 195.373 147.64 194.92C147.933 194.44 148.24 194 148.56 193.6C148.907 193.173 149.253 192.813 149.6 192.52C150.24 192.013 150.96 191.573 151.76 191.2C152.587 190.827 153.44 190.547 154.32 190.36C155.227 190.173 156.12 190.093 157 190.12C157.907 190.147 158.747 190.28 159.52 190.52C161.653 191.187 163.307 192.24 164.48 193.68C165.653 195.12 166.24 196.987 166.24 199.28C166.24 200.373 166.133 201.36 165.92 202.24C165.733 203.093 165.387 203.92 164.88 204.72C164.4 205.52 163.747 206.333 162.92 207.16C162.12 207.987 161.12 208.893 159.92 209.88C159.52 210.227 159.107 210.573 158.68 210.92C158.253 211.267 157.827 211.613 157.4 211.96C157.267 212.067 157.013 212.227 156.64 212.44C156.267 212.653 155.933 212.867 155.64 213.08C155.347 213.293 155.173 213.493 155.12 213.68C155.067 213.867 155.28 213.973 155.76 214C156.347 214.053 156.813 214.067 157.16 214.04C157.507 214.013 157.973 214 158.56 214C159.253 214 159.933 213.987 160.6 213.96C161.267 213.933 161.933 213.947 162.6 214C162.867 214.027 163.16 214.04 163.48 214.04C163.8 214.013 164.12 214.013 164.44 214.04C164.76 214.04 165.067 214.08 165.36 214.16C165.653 214.213 165.907 214.333 166.12 214.52C166.333 214.707 166.493 214.96 166.6 215.28C166.707 215.6 166.76 215.947 166.76 216.32C166.787 216.667 166.76 217.013 166.68 217.36C166.6 217.68 166.467 217.933 166.28 218.12C165.933 218.52 165.507 218.72 165 218.72C164.493 218.693 164.013 218.68 163.56 218.68H149.2C148.933 218.68 148.64 218.693 148.32 218.72C148.027 218.747 147.76 218.72 147.52 218.64C147.04 218.507 146.8 218.253 146.8 217.88C146.827 217.507 146.84 217.12 146.84 216.72C146.84 216.053 147 215.44 147.32 214.88C147.64 214.293 148.04 213.76 148.52 213.28C149.027 212.773 149.56 212.307 150.12 211.88C150.68 211.453 151.2 211.04 151.68 210.64C152.373 210.027 153.12 209.413 153.92 208.8C154.72 208.187 155.48 207.573 156.2 206.96C157.133 206.187 157.92 205.48 158.56 204.84C159.227 204.2 159.76 203.6 160.16 203.04C160.56 202.48 160.853 201.933 161.04 201.4C161.227 200.84 161.32 200.253 161.32 199.64C161.32 198.28 160.907 197.24 160.08 196.52C159.253 195.773 158.2 195.4 156.92 195.4C155.987 195.4 155.107 195.6 154.28 196C153.48 196.4 152.813 196.987 152.28 197.76C152.12 198.053 151.96 198.36 151.8 198.68C151.667 198.973 151.507 199.253 151.32 199.52ZM180.678 218.88C180.198 218.88 179.705 218.853 179.198 218.8C178.718 218.72 178.238 218.587 177.758 218.4C177.038 218.107 176.345 217.72 175.678 217.24C175.038 216.733 174.452 216.173 173.918 215.56C172.638 214.12 171.665 212.427 170.998 210.48C170.332 208.507 169.998 206.507 169.998 204.48C169.998 201.707 170.532 199.027 171.598 196.44C171.785 195.987 172.025 195.507 172.318 195C172.638 194.493 172.985 194.013 173.358 193.56C173.758 193.08 174.158 192.653 174.558 192.28C174.985 191.907 175.412 191.627 175.838 191.44C176.425 191.173 177.065 190.907 177.758 190.64C178.612 190.373 179.572 190.253 180.638 190.28C181.705 190.307 182.678 190.427 183.558 190.64C184.785 190.933 185.838 191.467 186.718 192.24C187.598 192.987 188.345 193.893 188.958 194.96C189.572 196 190.052 197.147 190.398 198.4C190.745 199.627 190.998 200.88 191.158 202.16C191.265 203.013 191.305 203.867 191.278 204.72C191.252 205.547 191.185 206.387 191.078 207.24C190.972 208.013 190.838 208.787 190.678 209.56C190.545 210.333 190.358 211.08 190.118 211.8C189.878 212.52 189.572 213.213 189.198 213.88C188.825 214.52 188.358 215.12 187.798 215.68C186.785 216.667 185.678 217.44 184.478 218C183.305 218.533 182.038 218.827 180.678 218.88ZM180.638 195.56C180.265 195.56 179.892 195.6 179.518 195.68C179.172 195.733 178.838 195.867 178.518 196.08C178.145 196.32 177.812 196.613 177.518 196.96C177.225 197.307 176.972 197.667 176.758 198.04C176.198 199 175.812 200.027 175.598 201.12C175.385 202.213 175.278 203.32 175.278 204.44C175.278 205.587 175.398 206.773 175.638 208C175.905 209.227 176.372 210.347 177.038 211.36C177.358 211.84 177.732 212.267 178.158 212.64C178.612 212.987 179.132 213.24 179.718 213.4C180.252 213.533 180.785 213.573 181.318 213.52C181.878 213.467 182.398 213.293 182.878 213C183.652 212.52 184.265 211.88 184.718 211.08C185.172 210.28 185.505 209.413 185.718 208.48C185.958 207.547 186.092 206.587 186.118 205.6C186.172 204.613 186.172 203.72 186.118 202.92C186.065 202.12 185.932 201.28 185.718 200.4C185.505 199.52 185.185 198.72 184.758 198C184.358 197.28 183.812 196.693 183.118 196.24C182.452 195.76 181.625 195.533 180.638 195.56Z" fill="black"/>
<defs>
<filter id="filter0_d_0_1" x="0" y="0" width="311" height="255" filterUnits="userSpaceOnUse" color-interpolation-filters="sRGB">
<feFlood flood-opacity="0" result="BackgroundImageFix"/>
<feColorMatrix in="SourceAlpha" type="matrix" values="0 0 0 0 0 0 0 0 0 0 0 0 0 0 0 0 0 0 127 0" result="hardAlpha"/>
<feOffset dy="5"/>
<feGaussianBlur stdDeviation="2"/>
<feComposite in2="hardAlpha" operator="out"/>
<feColorMatrix type="matrix" values="0 0 0 0 0 0 0 0 0 0 0 0 0 0 0 0 0 0 0.25 0"/>
<feBlend mode="normal" in2="BackgroundImageFix" result="effect1_dropShadow_0_1"/>
<feBlend mode="normal" in="SourceGraphic" in2="effect1_dropShadow_0_1" result="shape"/>
</filter>
</defs>
</svg>

