<svg width="311" height="255" viewBox="0 0 311 255" fill="none" xmlns="http://www.w3.org/2000/svg">
<g filter="url(#filter0_d_0_1)">
<rect x="4" width="303" height="246" rx="30" fill="#D9D9D9" fill-opacity="0.46" shape-rendering="crispEdges"/>
</g>
<rect x="78" y="183" width="156" height="31" rx="15.5" fill="#D9D9D9"/>
<rect x="42" y="31" width="228" height="129" fill="#F6EAD3"/>
<rect x="130.148" y="183" width="7.69811" height="2.77931" rx="1.38966" fill="#5C4033"/>
<path d="M143.507 205.769C143.507 206.765 143.258 207.752 142.775 208.673C142.291 209.594 141.582 210.431 140.689 211.135C139.795 211.84 138.734 212.399 137.567 212.781C136.399 213.162 135.148 213.358 133.884 213.358C132.621 213.358 131.369 213.162 130.202 212.781C129.034 212.399 127.974 211.84 127.08 211.135C126.187 210.431 125.478 209.594 124.994 208.673C124.511 207.752 124.262 206.765 124.262 205.769L133.884 205.769H143.507Z" fill="#C48D27"/>
<path d="M134.679 213.359C134.679 213.443 134.658 213.526 134.618 213.604C134.579 213.682 134.52 213.753 134.447 213.812C134.373 213.872 134.286 213.919 134.189 213.951C134.093 213.983 133.99 214 133.886 214C133.782 214 133.679 213.983 133.583 213.951C133.487 213.919 133.399 213.872 133.326 213.812C133.252 213.753 133.194 213.682 133.154 213.604C133.114 213.526 133.094 213.443 133.094 213.359L133.886 213.359H134.679Z" fill="#5C4033"/>
<path d="M143.507 205.769H124.262V192.407H143.507V205.769Z" fill="#C48D27"/>
<path d="M146 194.224C146 192.947 145.69 191.682 145.087 190.502C144.483 189.321 143.6 188.249 142.485 187.346C141.371 186.442 140.048 185.726 138.592 185.237C137.136 184.748 135.576 184.497 134 184.497C132.424 184.497 130.864 184.748 129.408 185.237C127.952 185.726 126.629 186.442 125.515 187.346C124.4 188.249 123.517 189.321 122.913 190.502C122.31 191.682 122 192.947 122 194.224L134 194.224H146Z" fill="#7C462C"/>
<path d="M155.32 193.52C154.92 194.133 154.44 194.507 153.88 194.64C153.347 194.773 152.827 194.733 152.32 194.52C151.813 194.307 151.387 193.96 151.04 193.48C150.72 192.973 150.587 192.4 150.64 191.76C150.667 191.333 150.773 190.867 150.96 190.36C151.147 189.853 151.373 189.373 151.64 188.92C151.933 188.44 152.24 188 152.56 187.6C152.907 187.173 153.253 186.813 153.6 186.52C154.24 186.013 154.96 185.573 155.76 185.2C156.587 184.827 157.44 184.547 158.32 184.36C159.227 184.173 160.12 184.093 161 184.12C161.907 184.147 162.747 184.28 163.52 184.52C165.653 185.187 167.307 186.24 168.48 187.68C169.653 189.12 170.24 190.987 170.24 193.28C170.24 194.373 170.133 195.36 169.92 196.24C169.733 197.093 169.387 197.92 168.88 198.72C168.4 199.52 167.747 200.333 166.92 201.16C166.12 201.987 165.12 202.893 163.92 203.88C163.52 204.227 163.107 204.573 162.68 204.92C162.253 205.267 161.827 205.613 161.4 205.96C161.267 206.067 161.013 206.227 160.64 206.44C160.267 206.653 159.933 206.867 159.64 207.08C159.347 207.293 159.173 207.493 159.12 207.68C159.067 207.867 159.28 207.973 159.76 208C160.347 208.053 160.813 208.067 161.16 208.04C161.507 208.013 161.973 208 162.56 208C163.253 208 163.933 207.987 164.6 207.96C165.267 207.933 165.933 207.947 166.6 208C166.867 208.027 167.16 208.04 167.48 208.04C167.8 208.013 168.12 208.013 168.44 208.04C168.76 208.04 169.067 208.08 169.36 208.16C169.653 208.213 169.907 208.333 170.12 208.52C170.333 208.707 170.493 208.96 170.6 209.28C170.707 209.6 170.76 209.947 170.76 210.32C170.787 210.667 170.76 211.013 170.68 211.36C170.6 211.68 170.467 211.933 170.28 212.12C169.933 212.52 169.507 212.72 169 212.72C168.493 212.693 168.013 212.68 167.56 212.68H153.2C152.933 212.68 152.64 212.693 152.32 212.72C152.027 212.747 151.76 212.72 151.52 212.64C151.04 212.507 150.8 212.253 150.8 211.88C150.827 211.507 150.84 211.12 150.84 210.72C150.84 210.053 151 209.44 151.32 208.88C151.64 208.293 152.04 207.76 152.52 207.28C153.027 206.773 153.56 206.307 154.12 205.88C154.68 205.453 155.2 205.04 155.68 204.64C156.373 204.027 157.12 203.413 157.92 202.8C158.72 202.187 159.48 201.573 160.2 200.96C161.133 200.187 161.92 199.48 162.56 198.84C163.227 198.2 163.76 197.6 164.16 197.04C164.56 196.48 164.853 195.933 165.04 195.4C165.227 194.84 165.32 194.253 165.32 193.64C165.32 192.28 164.907 191.24 164.08 190.52C163.253 189.773 162.2 189.4 160.92 189.4C159.987 189.4 159.107 189.6 158.28 190C157.48 190.4 156.813 190.987 156.28 191.76C156.12 192.053 155.96 192.36 155.8 192.68C155.667 192.973 155.507 193.253 155.32 193.52ZM184.678 212.88C184.198 212.88 183.705 212.853 183.198 212.8C182.718 212.72 182.238 212.587 181.758 212.4C181.038 212.107 180.345 211.72 179.678 211.24C179.038 210.733 178.452 210.173 177.918 209.56C176.638 208.12 175.665 206.427 174.998 204.48C174.332 202.507 173.998 200.507 173.998 198.48C173.998 195.707 174.532 193.027 175.598 190.44C175.785 189.987 176.025 189.507 176.318 189C176.638 188.493 176.985 188.013 177.358 187.56C177.758 187.08 178.158 186.653 178.558 186.28C178.985 185.907 179.412 185.627 179.838 185.44C180.425 185.173 181.065 184.907 181.758 184.64C182.612 184.373 183.572 184.253 184.638 184.28C185.705 184.307 186.678 184.427 187.558 184.64C188.785 184.933 189.838 185.467 190.718 186.24C191.598 186.987 192.345 187.893 192.958 188.96C193.572 190 194.052 191.147 194.398 192.4C194.745 193.627 194.998 194.88 195.158 196.16C195.265 197.013 195.305 197.867 195.278 198.72C195.252 199.547 195.185 200.387 195.078 201.24C194.972 202.013 194.838 202.787 194.678 203.56C194.545 204.333 194.358 205.08 194.118 205.8C193.878 206.52 193.572 207.213 193.198 207.88C192.825 208.52 192.358 209.12 191.798 209.68C190.785 210.667 189.678 211.44 188.478 212C187.305 212.533 186.038 212.827 184.678 212.88ZM184.638 189.56C184.265 189.56 183.892 189.6 183.518 189.68C183.172 189.733 182.838 189.867 182.518 190.08C182.145 190.32 181.812 190.613 181.518 190.96C181.225 191.307 180.972 191.667 180.758 192.04C180.198 193 179.812 194.027 179.598 195.12C179.385 196.213 179.278 197.32 179.278 198.44C179.278 199.587 179.398 200.773 179.638 202C179.905 203.227 180.372 204.347 181.038 205.36C181.358 205.84 181.732 206.267 182.158 206.64C182.612 206.987 183.132 207.24 183.718 207.4C184.252 207.533 184.785 207.573 185.318 207.52C185.878 207.467 186.398 207.293 186.878 207C187.652 206.52 188.265 205.88 188.718 205.08C189.172 204.28 189.505 203.413 189.718 202.48C189.958 201.547 190.092 200.587 190.118 199.6C190.172 198.613 190.172 197.72 190.118 196.92C190.065 196.12 189.932 195.28 189.718 194.4C189.505 193.52 189.185 192.72 188.758 192C188.358 191.28 187.812 190.693 187.118 190.24C186.452 189.76 185.625 189.533 184.638 189.56Z" fill="black"/>
<defs>
<filter id="filter0_d_0_1" x="0" y="0" width="311" height="255" filterUnits="userSpaceOnUse" color-interpolation-filters="sRGB">
<feFlood flood-opacity="0" result="BackgroundImageFix"/>
<feColorMatrix in="SourceAlpha" type="matrix" values="0 0 0 0 0 0 0 0 0 0 0 0 0 0 0 0 0 0 127 0" result="hardAlpha"/>
<feOffset dy="5"/>
<feGaussianBlur stdDeviation="2"/>
<feComposite in2="hardAlpha" operator="out"/>
<feColorMatrix type="matrix" values="0 0 0 0 0 0 0 0 0 0 0 0 0 0 0 0 0 0 0.25 0"/>
<feBlend mode="normal" in2="BackgroundImageFix" result="effect1_dropShadow_0_1"/>
<feBlend mode="normal" in="SourceGraphic" in2="effect1_dropShadow_0_1" result="shape"/>
</filter>
</defs>
</svg>
