<svg width="311" height="255" viewBox="0 0 311 255" fill="none" xmlns="http://www.w3.org/2000/svg">
<g filter="url(#filter0_d_0_1)">
<rect x="4" width="303" height="246" rx="30" fill="#D9D9D9" fill-opacity="0.46" shape-rendering="crispEdges"/>
</g>
<rect x="78" y="188" width="156" height="31" rx="15.5" fill="#D9D9D9"/>
<rect x="42" y="36" width="228" height="129" fill="#B96B35"/>
<rect x="130.148" y="188" width="7.69811" height="2.77931" rx="1.38966" fill="#5C4033"/>
<path d="M143.507 210.769C143.507 211.765 143.258 212.752 142.775 213.673C142.291 214.594 141.582 215.431 140.689 216.135C139.795 216.84 138.734 217.399 137.567 217.781C136.399 218.162 135.148 218.358 133.884 218.358C132.621 218.358 131.369 218.162 130.202 217.781C129.034 217.399 127.974 216.84 127.08 216.135C126.187 215.431 125.478 214.594 124.994 213.673C124.511 212.752 124.262 211.765 124.262 210.769L133.884 210.769H143.507Z" fill="#C48D27"/>
<path d="M134.679 218.359C134.679 218.443 134.658 218.526 134.618 218.604C134.579 218.682 134.52 218.753 134.447 218.812C134.373 218.872 134.286 218.919 134.189 218.951C134.093 218.983 133.99 219 133.886 219C133.782 219 133.679 218.983 133.583 218.951C133.487 218.919 133.399 218.872 133.326 218.812C133.252 218.753 133.194 218.682 133.154 218.604C133.114 218.526 133.094 218.443 133.094 218.359L133.886 218.359H134.679Z" fill="#5C4033"/>
<path d="M143.507 210.769H124.262V197.407H143.507V210.769Z" fill="#C48D27"/>
<path d="M146 199.224C146 197.947 145.69 196.682 145.087 195.502C144.483 194.321 143.6 193.249 142.485 192.346C141.371 191.442 140.048 190.726 138.592 190.237C137.136 189.748 135.576 189.497 134 189.497C132.424 189.497 130.864 189.748 129.408 190.237C127.952 190.726 126.629 191.442 125.515 192.346C124.4 193.249 123.517 194.321 122.913 195.502C122.31 196.682 122 197.947 122 199.224L134 199.224H146Z" fill="#7C462C"/>
<path d="M155.32 198.52C154.92 199.133 154.44 199.507 153.88 199.64C153.347 199.773 152.827 199.733 152.32 199.52C151.813 199.307 151.387 198.96 151.04 198.48C150.72 197.973 150.587 197.4 150.64 196.76C150.667 196.333 150.773 195.867 150.96 195.36C151.147 194.853 151.373 194.373 151.64 193.92C151.933 193.44 152.24 193 152.56 192.6C152.907 192.173 153.253 191.813 153.6 191.52C154.24 191.013 154.96 190.573 155.76 190.2C156.587 189.827 157.44 189.547 158.32 189.36C159.227 189.173 160.12 189.093 161 189.12C161.907 189.147 162.747 189.28 163.52 189.52C165.653 190.187 167.307 191.24 168.48 192.68C169.653 194.12 170.24 195.987 170.24 198.28C170.24 199.373 170.133 200.36 169.92 201.24C169.733 202.093 169.387 202.92 168.88 203.72C168.4 204.52 167.747 205.333 166.92 206.16C166.12 206.987 165.12 207.893 163.92 208.88C163.52 209.227 163.107 209.573 162.68 209.92C162.253 210.267 161.827 210.613 161.4 210.96C161.267 211.067 161.013 211.227 160.64 211.44C160.267 211.653 159.933 211.867 159.64 212.08C159.347 212.293 159.173 212.493 159.12 212.68C159.067 212.867 159.28 212.973 159.76 213C160.347 213.053 160.813 213.067 161.16 213.04C161.507 213.013 161.973 213 162.56 213C163.253 213 163.933 212.987 164.6 212.96C165.267 212.933 165.933 212.947 166.6 213C166.867 213.027 167.16 213.04 167.48 213.04C167.8 213.013 168.12 213.013 168.44 213.04C168.76 213.04 169.067 213.08 169.36 213.16C169.653 213.213 169.907 213.333 170.12 213.52C170.333 213.707 170.493 213.96 170.6 214.28C170.707 214.6 170.76 214.947 170.76 215.32C170.787 215.667 170.76 216.013 170.68 216.36C170.6 216.68 170.467 216.933 170.28 217.12C169.933 217.52 169.507 217.72 169 217.72C168.493 217.693 168.013 217.68 167.56 217.68H153.2C152.933 217.68 152.64 217.693 152.32 217.72C152.027 217.747 151.76 217.72 151.52 217.64C151.04 217.507 150.8 217.253 150.8 216.88C150.827 216.507 150.84 216.12 150.84 215.72C150.84 215.053 151 214.44 151.32 213.88C151.64 213.293 152.04 212.76 152.52 212.28C153.027 211.773 153.56 211.307 154.12 210.88C154.68 210.453 155.2 210.04 155.68 209.64C156.373 209.027 157.12 208.413 157.92 207.8C158.72 207.187 159.48 206.573 160.2 205.96C161.133 205.187 161.92 204.48 162.56 203.84C163.227 203.2 163.76 202.6 164.16 202.04C164.56 201.48 164.853 200.933 165.04 200.4C165.227 199.84 165.32 199.253 165.32 198.64C165.32 197.28 164.907 196.24 164.08 195.52C163.253 194.773 162.2 194.4 160.92 194.4C159.987 194.4 159.107 194.6 158.28 195C157.48 195.4 156.813 195.987 156.28 196.76C156.12 197.053 155.96 197.36 155.8 197.68C155.667 197.973 155.507 198.253 155.32 198.52ZM184.678 217.88C184.198 217.88 183.705 217.853 183.198 217.8C182.718 217.72 182.238 217.587 181.758 217.4C181.038 217.107 180.345 216.72 179.678 216.24C179.038 215.733 178.452 215.173 177.918 214.56C176.638 213.12 175.665 211.427 174.998 209.48C174.332 207.507 173.998 205.507 173.998 203.48C173.998 200.707 174.532 198.027 175.598 195.44C175.785 194.987 176.025 194.507 176.318 194C176.638 193.493 176.985 193.013 177.358 192.56C177.758 192.08 178.158 191.653 178.558 191.28C178.985 190.907 179.412 190.627 179.838 190.44C180.425 190.173 181.065 189.907 181.758 189.64C182.612 189.373 183.572 189.253 184.638 189.28C185.705 189.307 186.678 189.427 187.558 189.64C188.785 189.933 189.838 190.467 190.718 191.24C191.598 191.987 192.345 192.893 192.958 193.96C193.572 195 194.052 196.147 194.398 197.4C194.745 198.627 194.998 199.88 195.158 201.16C195.265 202.013 195.305 202.867 195.278 203.72C195.252 204.547 195.185 205.387 195.078 206.24C194.972 207.013 194.838 207.787 194.678 208.56C194.545 209.333 194.358 210.08 194.118 210.8C193.878 211.52 193.572 212.213 193.198 212.88C192.825 213.52 192.358 214.12 191.798 214.68C190.785 215.667 189.678 216.44 188.478 217C187.305 217.533 186.038 217.827 184.678 217.88ZM184.638 194.56C184.265 194.56 183.892 194.6 183.518 194.68C183.172 194.733 182.838 194.867 182.518 195.08C182.145 195.32 181.812 195.613 181.518 195.96C181.225 196.307 180.972 196.667 180.758 197.04C180.198 198 179.812 199.027 179.598 200.12C179.385 201.213 179.278 202.32 179.278 203.44C179.278 204.587 179.398 205.773 179.638 207C179.905 208.227 180.372 209.347 181.038 210.36C181.358 210.84 181.732 211.267 182.158 211.64C182.612 211.987 183.132 212.24 183.718 212.4C184.252 212.533 184.785 212.573 185.318 212.52C185.878 212.467 186.398 212.293 186.878 212C187.652 211.52 188.265 210.88 188.718 210.08C189.172 209.28 189.505 208.413 189.718 207.48C189.958 206.547 190.092 205.587 190.118 204.6C190.172 203.613 190.172 202.72 190.118 201.92C190.065 201.12 189.932 200.28 189.718 199.4C189.505 198.52 189.185 197.72 188.758 197C188.358 196.28 187.812 195.693 187.118 195.24C186.452 194.76 185.625 194.533 184.638 194.56Z" fill="black"/>
<defs>
<filter id="filter0_d_0_1" x="0" y="0" width="311" height="255" filterUnits="userSpaceOnUse" color-interpolation-filters="sRGB">
<feFlood flood-opacity="0" result="BackgroundImageFix"/>
<feColorMatrix in="SourceAlpha" type="matrix" values="0 0 0 0 0 0 0 0 0 0 0 0 0 0 0 0 0 0 127 0" result="hardAlpha"/>
<feOffset dy="5"/>
<feGaussianBlur stdDeviation="2"/>
<feComposite in2="hardAlpha" operator="out"/>
<feColorMatrix type="matrix" values="0 0 0 0 0 0 0 0 0 0 0 0 0 0 0 0 0 0 0.25 0"/>
<feBlend mode="normal" in2="BackgroundImageFix" result="effect1_dropShadow_0_1"/>
<feBlend mode="normal" in="SourceGraphic" in2="effect1_dropShadow_0_1" result="shape"/>
</filter>
</defs>
</svg>
