<svg width="44" height="45" viewBox="0 0 44 45" fill="none" xmlns="http://www.w3.org/2000/svg">
<path d="M12.2169 5.43164C11.3941 15.8376 12.2017 20.9483 21.4448 25.6731C22.6954 15.607 19.6707 11.6209 12.2169 5.43164Z" fill="#FFD05E"/>
<path d="M31.4491 4.9375C32.2719 15.3434 31.4643 20.4542 22.2212 25.179C20.9706 15.1129 23.9953 11.1268 31.4491 4.9375Z" fill="#FFD05E"/>
<path d="M41.043 31.2856C30.5293 32.1 25.3657 31.3007 20.592 22.1522C30.7623 20.9144 34.7896 23.9082 41.043 31.2856Z" fill="#FFD05E"/>
<path d="M40.0449 12.9234C29.5313 12.109 24.3676 12.9083 19.5939 22.0567C29.7642 23.2946 33.7916 20.3008 40.0449 12.9234Z" fill="#FFD05E"/>
<path d="M43.9127 22.1602C33.8739 26.6746 28.514 27.7241 20.548 20.5068C30.098 15.7017 35.127 17.1909 43.9127 22.1602Z" fill="#FFD05E"/>
<path d="M3.45508 31.2856C13.9687 32.1 19.1324 31.3007 23.9061 22.1522C13.7358 20.9144 9.70841 23.9082 3.45508 31.2856Z" fill="#FFD05E"/>
<path d="M3.45508 12.9234C13.9687 12.109 19.1324 12.9083 23.9061 22.0567C13.7358 23.2946 9.70841 20.3008 3.45508 12.9234Z" fill="#FFD05E"/>
<path d="M0.086941 23.1483C10.0791 27.6427 15.4145 28.6865 23.3471 21.4932C13.8418 16.709 8.83486 18.1944 0.086941 23.1483Z" fill="#FFD05E"/>
<path d="M12.0743 39.1602C11.2515 28.7542 12.0591 23.6435 21.3022 18.9187C22.5529 28.9848 19.5281 32.9709 12.0743 39.1602Z" fill="#FFD05E"/>
<path d="M31.5897 39.1602C32.4125 28.7542 31.6049 23.6435 22.3618 18.9187C21.1112 28.9848 24.136 32.9709 31.5897 39.1602Z" fill="#FFD05E"/>
<path d="M22.3956 43.9606C26.7647 34.4608 27.7718 29.3848 20.7189 21.816C16.0652 30.8517 17.5301 35.6214 22.3956 43.9606Z" fill="#FFD05E"/>
<path d="M22.3956 0.0843261C26.7647 9.58417 27.7718 14.6601 20.7189 22.2289C16.0652 13.1932 17.5301 8.42356 22.3956 0.0843261Z" fill="#FFD05E"/>
<ellipse cx="22.7362" cy="21.6785" rx="5.73625" ry="5.67749" fill="#33363F"/>
</svg>
