<svg width="311" height="255" viewBox="0 0 311 255" fill="none" xmlns="http://www.w3.org/2000/svg">
<g filter="url(#filter0_d_0_1)">
<rect x="4" width="303" height="246" rx="30" fill="#D9D9D9" fill-opacity="0.46" shape-rendering="crispEdges"/>
</g>
<rect x="42" y="31" width="228" height="129" fill="white"/>
<rect x="78" y="183" width="156" height="31" rx="15.5" fill="#D9D9D9"/>
<path d="M171.359 59.4687C171.314 60.0439 171.596 61.312 171.69 62.1136C172.255 62.929 171.69 63.7306 171.642 64.1348C171.215 65.5756 170.653 67.1858 170.511 68.9721C170.085 70.4129 169.164 72.0426 168.012 73.8093C167.072 75.2501 166.437 76.2829 165.658 77.3215C164.62 78.7052 163.723 80.1159 162.691 82.0447C161.89 83.5425 160.885 84.8663 160.101 86.3049C159.347 87.6887 159.098 90.3244 157.744 90.6204C156.425 90.9089 155.279 92.9143 154.166 92.3445C153.602 92.056 153.08 91.4047 152.374 91.2509C150.773 90.9019 144.139 91.8856 140.884 89.7514C139.656 88.9463 138.224 88.6955 137.211 87.6783C136.175 86.6383 135.112 86.2314 133.818 85.4912C132.405 84.6827 130.79 84.519 129.345 83.5321C128.167 82.727 126.726 80.8574 121.85 82.2122C119.972 82.734 118.384 82.955 116.864 83.8845C115.355 84.8071 114.081 85.81 112.909 86.5899C111.777 87.3431 110.563 88.3552 109.518 89.4715C108.386 90.6808 107.096 91.4307 106.506 92.6382C106.224 93.2134 105.734 95.4859 106.179 98.3478C106.51 100.473 106.574 102.063 107.311 103.235C108.403 104.971 109.784 107.376 111.127 109.34C112.071 110.721 113.415 113.01 114.943 113.193C116.406 113.367 117.721 113.822 118.9 114.288C120.362 114.867 121.757 115.351 123.516 116.073C124.787 116.594 125.968 116.919 127.566 117.455C129.122 117.977 130.652 118.37 133.03 118.837C134.491 119.124 135.889 119.87 137.363 120.046C139.295 120.278 140.419 121.202 141.742 122.007C143.251 122.924 144.887 123.138 146.215 124.369C147.394 125.46 148.526 125.913 149.653 127.076C150.881 128.342 152.54 129.361 153.277 130.876C153.893 132.143 154.405 134.199 155.966 135.135C156.346 135.363 156.831 135.288 157.237 135.48C158.697 136.171 161.22 136.751 162.934 136.052C164.066 135.591 165.634 135.568 167.362 134.668C168.683 133.981 170.655 133.392 171.789 131.844C173.012 130.173 174.056 128.887 175.037 127.122C175.838 125.682 176.614 124.321 177.296 122.919C177.912 121.653 179.301 120.663 179.509 118.771C179.698 117.044 180.072 115.521 180.83 114.281C181.676 112.897 182.087 111.3 183.326 110.31C184.411 109.442 185.57 108.215 186.292 106.333C186.955 104.605 187.751 103.133 188.411 101.843C189.119 100.459 189.803 99.0176 190.673 97.6965C191.662 96.1952 192.436 94.6065 193.217 93.1461C194.11 91.4755 194.807 90.0362 196.044 88.3659C197.41 86.5208 198.245 83.8636 199.669 83.5908C201.762 83.19 204.942 84.8437 205.93 83.9934C206.068 83.8742 205.984 83.5267 205.832 83.1849C205.221 81.8011 204.729 80.3777 204.137 79.0387C203.525 77.6549 202.773 75.7352 201.356 74.6644C200.129 73.7367 199.159 71.7636 197.729 71.0935C196.263 70.406 194.431 70.7128 193.112 69.8842C191.369 68.7889 190.205 67.8384 188.591 66.6571C186.943 65.4513 186.068 64.4998 185.156 63.4905C184.118 62.3416 182.867 62.2495 181.526 61.3621C179.687 60.1441 171.652 55.7392 171.359 59.4687Z" fill="#7A543A"/>
<path d="M171.359 59.4687C171.314 60.0439 171.596 61.312 171.69 62.1136C185.156 67.4795 190.673 80.5703 199.669 83.5908C201.762 83.19 204.942 84.8437 205.93 83.9934C206.068 83.8742 205.984 83.5267 205.832 83.1849C205.221 81.8011 204.729 80.3777 204.137 79.0387C203.525 77.6549 202.773 75.7352 201.356 74.6644C200.129 73.7367 199.159 71.7636 197.729 71.0935C196.263 70.406 194.431 70.7128 193.112 69.8842C191.369 68.7889 190.205 67.8384 188.591 66.6571C186.943 65.4513 186.068 64.4998 185.156 63.4905C184.118 62.3416 182.867 62.2495 181.526 61.3621C179.687 60.1441 171.652 55.7392 171.359 59.4687Z" fill="#D1AB80"/>
<path d="M171.359 59.4687C171.314 60.0439 171.596 61.312 171.69 62.1136C172.255 62.929 171.69 63.7306 171.642 64.1348C171.215 65.5756 170.653 67.1858 170.511 68.9721C170.085 70.4129 169.164 72.0426 168.012 73.8093C167.072 75.2501 166.437 76.2829 165.658 77.3215C164.62 78.7052 163.723 80.1159 162.691 82.0447C161.89 83.5425 160.885 84.8663 160.101 86.3049C159.347 87.6887 159.098 90.3244 157.744 90.6204C156.425 90.9089 155.279 92.9143 154.166 92.3445C153.602 92.056 153.08 91.4047 152.374 91.2509C150.773 90.9019 144.139 91.8856 140.884 89.7514C139.656 88.9463 138.224 88.6955 137.211 87.6783C136.175 86.6383 135.112 86.2314 133.818 85.4912C132.405 84.6827 130.79 84.519 129.345 83.5321C128.313 82.8272 127.08 81.3059 123.516 81.8481C127.857 98.6582 125.675 105.338 114.943 113.193C113.415 113.01 112.071 110.721 111.127 109.34C109.784 107.376 108.403 104.971 107.311 103.235C106.574 102.063 106.51 100.473 106.179 98.3478C105.734 95.4859 106.224 93.2134 106.506 92.6382C107.096 91.4307 108.386 90.6808 109.518 89.4715C110.563 88.3552 111.777 87.3431 112.909 86.5899C114.081 85.81 115.355 84.8071 116.864 83.8845C118.384 82.955 119.972 82.734 121.85 82.2122C122.456 82.0438 123.009 81.9251 123.516 81.8481C127.08 81.3059 128.313 82.8272 129.345 83.5321C130.79 84.519 132.405 84.6827 133.818 85.4912C135.112 86.2314 136.175 86.6383 137.211 87.6783C138.224 88.6955 139.656 88.9463 140.884 89.7514C144.139 91.8856 150.773 90.9019 152.374 91.2509C153.08 91.4047 153.602 92.056 154.166 92.3445C155.279 92.9143 156.425 90.9089 157.744 90.6204C159.098 90.3244 159.347 87.6887 160.101 86.3049C160.885 84.8663 161.89 83.5425 162.691 82.0447C163.723 80.1159 164.62 78.7052 165.658 77.3215C166.437 76.2829 167.072 75.2501 168.012 73.8093C169.164 72.0426 170.085 70.4129 170.511 68.9721C170.653 67.1858 171.215 65.5756 171.642 64.1348C171.69 63.7306 172.255 62.929 171.69 62.1136C171.596 61.312 171.314 60.0439 171.359 59.4687C171.652 55.7392 179.687 60.1441 181.526 61.3621C182.867 62.2495 184.118 62.3416 185.156 63.4905C186.068 64.4998 186.943 65.4513 188.591 66.6571C190.205 67.8384 191.369 68.7889 193.112 69.8842C194.431 70.7128 196.263 70.406 197.729 71.0935C199.159 71.7636 200.129 73.7367 201.356 74.6644C202.773 75.7352 203.525 77.6549 204.137 79.0387C204.729 80.3777 205.221 81.8011 205.832 83.1849C205.984 83.5267 206.068 83.8742 205.93 83.9934C204.942 84.8437 201.762 83.19 199.669 83.5908C198.245 83.8636 197.41 86.5208 196.044 88.3659C194.807 90.0362 194.11 91.4755 193.217 93.1461C192.436 94.6065 191.662 96.1952 190.673 97.6965C189.803 99.0176 189.119 100.459 188.411 101.843C187.751 103.133 186.955 104.605 186.292 106.333C185.57 108.215 184.411 109.442 183.326 110.31C182.087 111.3 181.676 112.897 180.83 114.281C180.072 115.521 179.698 117.044 179.509 118.771C179.301 120.663 177.912 121.653 177.296 122.919C176.614 124.321 175.838 125.682 175.037 127.122C174.056 128.887 173.012 130.173 171.789 131.844C170.655 133.392 168.683 133.981 167.362 134.668C165.634 135.568 164.066 135.591 162.934 136.052C161.22 136.751 158.697 136.171 157.237 135.48C156.831 135.288 156.346 135.363 155.966 135.135C154.405 134.199 153.893 132.143 153.277 130.876C152.54 129.361 150.881 128.342 149.653 127.076C148.891 126.29 148.127 125.829 147.348 125.275C151.713 113.397 175.529 107.956 179.509 118.771C179.698 117.044 180.072 115.521 180.83 114.281C181.676 112.897 182.087 111.3 183.326 110.31C184.411 109.442 185.57 108.215 186.292 106.333C186.955 104.605 187.751 103.133 188.411 101.843C189.119 100.459 189.803 99.0176 190.673 97.6965C191.662 96.1952 192.436 94.6065 193.217 93.1461C194.11 91.4755 194.807 90.0362 196.044 88.3659C197.41 86.5208 198.245 83.8636 199.669 83.5908C201.762 83.19 204.942 84.8437 205.93 83.9934C206.068 83.8742 205.984 83.5267 205.832 83.1849C205.221 81.8011 204.729 80.3777 204.137 79.0387C203.525 77.6549 202.773 75.7352 201.356 74.6644C200.129 73.7367 199.159 71.7636 197.729 71.0935C196.263 70.406 194.431 70.7128 193.112 69.8842C191.369 68.7889 190.205 67.8384 188.591 66.6571C186.943 65.4513 186.068 64.4998 185.156 63.4905C184.118 62.3416 182.867 62.2495 181.526 61.3621C179.687 60.1441 171.652 55.7392 171.359 59.4687Z" fill="#D1AB80"/>
<path d="M180.814 66.8604L153.992 120.294" stroke="#D1AB80" stroke-width="0.5"/>
<path d="M157.112 90.7822L143.038 122.68" stroke="#D1AB80" stroke-width="0.5"/>
<path d="M148.224 91.6694L134.891 119.137" stroke="#D1AB80" stroke-width="0.5"/>
<path d="M139.704 89.0117L126.371 116.922" stroke="#D1AB80" stroke-width="0.5"/>
<path d="M186.742 72.1768L160.641 123.906" stroke="#D1AB80" stroke-width="0.5"/>
<path d="M191.927 78.3794L167.531 127.818" stroke="#D1AB80" stroke-width="0.5"/>
<path d="M176.741 115.593L123.779 89.6912" stroke="#D1AB80" stroke-width="0.5"/>
<path d="M185.259 107.619L154.148 92.3269" stroke="#D1AB80" stroke-width="0.5"/>
<path d="M189.703 98.7588L160.814 85.2389" stroke="#D1AB80" stroke-width="0.5"/>
<path d="M194.148 91.6704L165.26 78.1506" stroke="#D1AB80" stroke-width="0.5"/>
<path d="M171.128 120.893L123.037 98.2901" stroke="#D1AB80" stroke-width="0.5"/>
<path d="M162.604 125.815L119.333 104.953" stroke="#D1AB80" stroke-width="0.5"/>
<rect x="126.148" y="184" width="7.69811" height="2.77931" rx="1.38966" fill="#5C4033"/>
<path d="M139.507 206.769C139.507 207.765 139.258 208.752 138.775 209.673C138.291 210.594 137.582 211.431 136.689 212.135C135.795 212.84 134.734 213.399 133.567 213.781C132.399 214.162 131.148 214.358 129.884 214.358C128.621 214.358 127.369 214.162 126.202 213.781C125.034 213.399 123.974 212.84 123.08 212.135C122.187 211.431 121.478 210.594 120.994 209.673C120.511 208.752 120.262 207.765 120.262 206.769L129.884 206.769H139.507Z" fill="#C48D27"/>
<path d="M130.679 214.359C130.679 214.443 130.658 214.526 130.618 214.604C130.579 214.682 130.52 214.753 130.447 214.812C130.373 214.872 130.286 214.919 130.189 214.951C130.093 214.983 129.99 215 129.886 215C129.782 215 129.679 214.983 129.583 214.951C129.487 214.919 129.399 214.872 129.326 214.812C129.252 214.753 129.194 214.682 129.154 214.604C129.114 214.526 129.094 214.443 129.094 214.359L129.886 214.359H130.679Z" fill="#5C4033"/>
<path d="M139.507 206.769H120.262V193.407H139.507V206.769Z" fill="#C48D27"/>
<path d="M142 195.224C142 193.947 141.69 192.682 141.087 191.502C140.483 190.321 139.6 189.249 138.485 188.346C137.371 187.442 136.048 186.726 134.592 186.237C133.136 185.748 131.576 185.497 130 185.497C128.424 185.497 126.864 185.748 125.408 186.237C123.952 186.726 122.629 187.442 121.515 188.346C120.4 189.249 119.517 190.321 118.913 191.502C118.31 192.682 118 193.947 118 195.224L130 195.224H142Z" fill="#7C462C"/>
<path d="M147.28 189.56C146.933 189.24 146.76 188.76 146.76 188.12C146.787 187.827 146.84 187.547 146.92 187.28C147 186.987 147.147 186.733 147.36 186.52C147.947 185.987 148.573 185.68 149.24 185.6C149.907 185.52 150.627 185.453 151.4 185.4C152.013 185.373 152.56 185.373 153.04 185.4C153.52 185.4 154.067 185.4 154.68 185.4C155.613 185.4 156.627 185.413 157.72 185.44C158.84 185.467 159.893 185.507 160.88 185.56C161.28 185.587 161.68 185.64 162.08 185.72C162.48 185.8 162.84 185.947 163.16 186.16C163.48 186.347 163.733 186.6 163.92 186.92C164.133 187.213 164.253 187.587 164.28 188.04C164.307 188.573 164.227 189.08 164.04 189.56C163.88 190.04 163.653 190.507 163.36 190.96C163.067 191.387 162.733 191.8 162.36 192.2C162.013 192.573 161.68 192.92 161.36 193.24C160.773 193.853 160.107 194.507 159.36 195.2C158.613 195.893 157.947 196.547 157.36 197.16C158.4 197.293 159.4 197.533 160.36 197.88C161.347 198.227 162.213 198.707 162.96 199.32C163.707 199.933 164.293 200.707 164.72 201.64C165.173 202.547 165.4 203.64 165.4 204.92C165.4 206.2 165.147 207.387 164.64 208.48C164.16 209.573 163.48 210.533 162.6 211.36C161.72 212.16 160.68 212.787 159.48 213.24C158.28 213.693 156.96 213.92 155.52 213.92C154.907 213.92 154.24 213.867 153.52 213.76C152.827 213.653 152.133 213.493 151.44 213.28C150.747 213.067 150.08 212.8 149.44 212.48C148.827 212.133 148.293 211.72 147.84 211.24C147.52 210.92 147.24 210.547 147 210.12C146.787 209.667 146.653 209.213 146.6 208.76C146.573 208.28 146.667 207.853 146.88 207.48C147.093 207.08 147.467 206.787 148 206.6C148.4 206.467 148.787 206.413 149.16 206.44C149.533 206.467 149.893 206.56 150.24 206.72C150.587 206.853 150.92 207.013 151.24 207.2C151.587 207.387 151.92 207.573 152.24 207.76C153.227 208.373 154.253 208.733 155.32 208.84C156.413 208.947 157.48 208.693 158.52 208.08C159.107 207.733 159.533 207.307 159.8 206.8C160.067 206.267 160.173 205.733 160.12 205.2C160.093 204.667 159.92 204.16 159.6 203.68C159.307 203.2 158.893 202.8 158.36 202.48C157.853 202.187 157.293 201.987 156.68 201.88C156.067 201.773 155.453 201.667 154.84 201.56C154.227 201.453 153.64 201.307 153.08 201.12C152.52 200.933 152.04 200.613 151.64 200.16C151.187 199.653 151.04 199.107 151.2 198.52C151.36 197.933 151.653 197.36 152.08 196.8C152.533 196.24 153.027 195.707 153.56 195.2C154.12 194.693 154.56 194.267 154.88 193.92C155.067 193.733 155.28 193.507 155.52 193.24C155.787 192.973 156.027 192.707 156.24 192.44C156.48 192.173 156.68 191.92 156.84 191.68C157.027 191.413 157.147 191.173 157.2 190.96C157.28 190.747 157.24 190.6 157.08 190.52C156.92 190.413 156.72 190.36 156.48 190.36C156.24 190.333 155.973 190.333 155.68 190.36C155.413 190.36 155.2 190.36 155.04 190.36H152.36C151.987 190.36 151.573 190.373 151.12 190.4C150.667 190.4 150.2 190.387 149.72 190.36C149.267 190.307 148.813 190.227 148.36 190.12C147.933 190.013 147.573 189.827 147.28 189.56ZM179.272 213.88C178.792 213.88 178.299 213.853 177.792 213.8C177.312 213.72 176.832 213.587 176.352 213.4C175.632 213.107 174.939 212.72 174.272 212.24C173.632 211.733 173.046 211.173 172.512 210.56C171.232 209.12 170.259 207.427 169.592 205.48C168.926 203.507 168.592 201.507 168.592 199.48C168.592 196.707 169.126 194.027 170.192 191.44C170.379 190.987 170.619 190.507 170.912 190C171.232 189.493 171.579 189.013 171.952 188.56C172.352 188.08 172.752 187.653 173.152 187.28C173.579 186.907 174.006 186.627 174.432 186.44C175.019 186.173 175.659 185.907 176.352 185.64C177.206 185.373 178.166 185.253 179.232 185.28C180.299 185.307 181.272 185.427 182.152 185.64C183.379 185.933 184.432 186.467 185.312 187.24C186.192 187.987 186.939 188.893 187.552 189.96C188.166 191 188.646 192.147 188.992 193.4C189.339 194.627 189.592 195.88 189.752 197.16C189.859 198.013 189.899 198.867 189.872 199.72C189.846 200.547 189.779 201.387 189.672 202.24C189.566 203.013 189.432 203.787 189.272 204.56C189.139 205.333 188.952 206.08 188.712 206.8C188.472 207.52 188.166 208.213 187.792 208.88C187.419 209.52 186.952 210.12 186.392 210.68C185.379 211.667 184.272 212.44 183.072 213C181.899 213.533 180.632 213.827 179.272 213.88ZM179.232 190.56C178.859 190.56 178.486 190.6 178.112 190.68C177.766 190.733 177.432 190.867 177.112 191.08C176.739 191.32 176.406 191.613 176.112 191.96C175.819 192.307 175.566 192.667 175.352 193.04C174.792 194 174.406 195.027 174.192 196.12C173.979 197.213 173.872 198.32 173.872 199.44C173.872 200.587 173.992 201.773 174.232 203C174.499 204.227 174.966 205.347 175.632 206.36C175.952 206.84 176.326 207.267 176.752 207.64C177.206 207.987 177.726 208.24 178.312 208.4C178.846 208.533 179.379 208.573 179.912 208.52C180.472 208.467 180.992 208.293 181.472 208C182.246 207.52 182.859 206.88 183.312 206.08C183.766 205.28 184.099 204.413 184.312 203.48C184.552 202.547 184.686 201.587 184.712 200.6C184.766 199.613 184.766 198.72 184.712 197.92C184.659 197.12 184.526 196.28 184.312 195.4C184.099 194.52 183.779 193.72 183.352 193C182.952 192.28 182.406 191.693 181.712 191.24C181.046 190.76 180.219 190.533 179.232 190.56Z" fill="black"/>
<defs>
<filter id="filter0_d_0_1" x="0" y="0" width="311" height="255" filterUnits="userSpaceOnUse" color-interpolation-filters="sRGB">
<feFlood flood-opacity="0" result="BackgroundImageFix"/>
<feColorMatrix in="SourceAlpha" type="matrix" values="0 0 0 0 0 0 0 0 0 0 0 0 0 0 0 0 0 0 127 0" result="hardAlpha"/>
<feOffset dy="5"/>
<feGaussianBlur stdDeviation="2"/>
<feComposite in2="hardAlpha" operator="out"/>
<feColorMatrix type="matrix" values="0 0 0 0 0 0 0 0 0 0 0 0 0 0 0 0 0 0 0.25 0"/>
<feBlend mode="normal" in2="BackgroundImageFix" result="effect1_dropShadow_0_1"/>
<feBlend mode="normal" in="SourceGraphic" in2="effect1_dropShadow_0_1" result="shape"/>
</filter>
</defs>
</svg>

