<svg width="67" height="36" viewBox="0 0 67 36" fill="none" xmlns="http://www.w3.org/2000/svg">
<path d="M61 6.00098C51.5605 0.613943 47.6046 4.78684 36.9221 7.81514C39.1634 9.97849 38.9964 12.0556 36.4613 14.4803C40.2416 20.6071 46.0416 25.1739 50.7263 28.0285C53.8564 29.9359 57.0005 27.3106 56.3032 23.7143L56.1718 23.0369C60.3689 19.035 61.7243 12.7003 61 6.00098Z" fill="#FAC641"/>
<path d="M6.99996 6.0006C16.6902 1.07671 21.5715 4.26205 32.0943 7.80374C30.5888 9.55329 30.5092 11.1147 32.4075 13.9159C33.7021 15.8265 24.1637 22.5292 17.0709 26.7801C13.9265 28.6646 11.092 26.3045 11.9633 22.7463L12.1275 22.076C8.12973 17.8757 5.95091 12.6569 6.99996 6.0006Z" fill="#FAC641"/>
<path d="M41.2043 10.4285C44.5046 9.22964 45.7784 9.44557 56.8402 13.436C57.903 13.019 57.9219 12.5893 57.5906 11.685" stroke="#DC9E03" stroke-width="0.5"/>
<path d="M27.2877 9.88824C24.0289 8.58098 22.7487 8.75472 11.5605 12.3775C10.5121 11.9257 10.5075 11.4956 10.8686 10.6027" stroke="#DC9E03" stroke-width="0.5"/>
<path d="M28.4883 14.668C25.4989 18.1294 18.1486 21.5495 14.7044 22.2099" stroke="#DC9E03" stroke-width="0.5"/>
<path d="M40.1113 15.7246C43.1007 19.1861 50.451 22.6061 53.8952 23.2666" stroke="#DC9E03" stroke-width="0.5"/>
<path d="M39.0942 11.0567C39.0942 13.682 36.9614 15.8103 34.3303 15.8103C31.6993 15.8103 29.5664 13.682 29.5664 11.0567C29.5664 8.43134 31.6993 7.35944 34.3303 7.35944C36.9614 7.35944 39.0942 8.43134 39.0942 11.0567Z" fill="#EAA906"/>
<path d="M35.918 9.47168C37.3173 11.4038 37.0626 12.2936 35.3887 13.6971" stroke="#F7BF08" stroke-width="0.5"/>
</svg>
