<svg width="311" height="255" viewBox="0 0 311 255" fill="none" xmlns="http://www.w3.org/2000/svg">
<g filter="url(#filter0_d_0_1)">
<rect x="4" width="303" height="246" rx="30" fill="#D9D9D9" fill-opacity="0.46" shape-rendering="crispEdges"/>
</g>
<rect x="42" y="36" width="228" height="129" fill="white"/>
<rect x="78" y="188" width="156" height="31" rx="15.5" fill="#D9D9D9"/>
<rect x="124.148" y="188" width="7.69811" height="2.77931" rx="1.38966" fill="#5C4033"/>
<path d="M137.507 210.769C137.507 211.765 137.258 212.752 136.775 213.673C136.291 214.594 135.582 215.431 134.689 216.135C133.795 216.84 132.734 217.399 131.567 217.781C130.399 218.162 129.148 218.358 127.884 218.358C126.621 218.358 125.369 218.162 124.202 217.781C123.034 217.399 121.974 216.84 121.08 216.135C120.187 215.431 119.478 214.594 118.994 213.673C118.511 212.752 118.262 211.765 118.262 210.769L127.884 210.769H137.507Z" fill="#C48D27"/>
<path d="M128.679 218.359C128.679 218.443 128.658 218.526 128.618 218.604C128.579 218.682 128.52 218.753 128.447 218.812C128.373 218.872 128.286 218.919 128.189 218.951C128.093 218.983 127.99 219 127.886 219C127.782 219 127.679 218.983 127.583 218.951C127.487 218.919 127.399 218.872 127.326 218.812C127.252 218.753 127.194 218.682 127.154 218.604C127.114 218.526 127.094 218.443 127.094 218.359L127.886 218.359H128.679Z" fill="#5C4033"/>
<path d="M137.507 210.769H118.262V197.407H137.507V210.769Z" fill="#C48D27"/>
<path d="M140 199.224C140 197.947 139.69 196.682 139.087 195.502C138.483 194.321 137.6 193.249 136.485 192.346C135.371 191.442 134.048 190.726 132.592 190.237C131.136 189.748 129.576 189.497 128 189.497C126.424 189.497 124.864 189.748 123.408 190.237C121.952 190.726 120.629 191.442 119.515 192.346C118.4 193.249 117.517 194.321 116.913 195.502C116.31 196.682 116 197.947 116 199.224L128 199.224H140Z" fill="#7C462C"/>
<path d="M161.4 190.08C161.587 190.373 161.707 190.747 161.76 191.2C161.893 192.133 161.947 193.093 161.92 194.08C161.92 195.04 161.933 195.987 161.96 196.92C161.96 198.013 161.96 199.093 161.96 200.16C161.987 201.227 162 202.307 162 203.4V206.8H163.72C164.013 206.8 164.32 206.84 164.64 206.92C164.96 206.973 165.253 207.08 165.52 207.24C165.787 207.4 166.013 207.6 166.2 207.84C166.387 208.08 166.493 208.373 166.52 208.72C166.52 209.573 166.253 210.16 165.72 210.48C165.187 210.773 164.547 210.947 163.8 211C163.747 211 163.627 211.013 163.44 211.04C163.28 211.04 163.093 211.04 162.88 211.04C162.667 211.04 162.467 211.04 162.28 211.04C162.12 211.04 162.027 211.013 162 210.96V213.68C162 213.973 162 214.307 162 214.68C162 215.053 161.973 215.427 161.92 215.8C161.867 216.147 161.76 216.48 161.6 216.8C161.467 217.12 161.253 217.373 160.96 217.56C160.827 217.64 160.653 217.707 160.44 217.76C160.253 217.787 160.04 217.813 159.8 217.84C159.56 217.867 159.32 217.88 159.08 217.88C158.867 217.853 158.68 217.813 158.52 217.76C158.04 217.6 157.733 217.267 157.6 216.76C157.467 216.227 157.373 215.733 157.32 215.28C157.32 215.2 157.32 214.947 157.32 214.52C157.32 214.067 157.32 213.6 157.32 213.12C157.32 212.613 157.307 212.16 157.28 211.76C157.253 211.36 157.213 211.16 157.16 211.16H150.12C149.347 211.16 148.533 211.147 147.68 211.12C146.827 211.093 146.093 210.853 145.48 210.4C145 210.053 144.72 209.667 144.64 209.24C144.56 208.787 144.587 208.347 144.72 207.92C144.88 207.467 145.107 207.027 145.4 206.6C145.693 206.173 145.973 205.787 146.24 205.44C147.253 204.08 148.227 202.693 149.16 201.28C150.12 199.867 151.08 198.467 152.04 197.08C152.573 196.36 153.12 195.667 153.68 195C154.267 194.333 154.813 193.64 155.32 192.92C155.693 192.36 156.093 191.787 156.52 191.2C156.973 190.613 157.533 190.16 158.2 189.84C158.84 189.547 159.453 189.4 160.04 189.4C160.627 189.4 161.08 189.627 161.4 190.08ZM157.44 197.28L150.8 206.64H157.44V197.28ZM180.397 217.88C179.917 217.88 179.424 217.853 178.917 217.8C178.437 217.72 177.957 217.587 177.477 217.4C176.757 217.107 176.064 216.72 175.397 216.24C174.757 215.733 174.171 215.173 173.637 214.56C172.357 213.12 171.384 211.427 170.717 209.48C170.051 207.507 169.717 205.507 169.717 203.48C169.717 200.707 170.251 198.027 171.317 195.44C171.504 194.987 171.744 194.507 172.037 194C172.357 193.493 172.704 193.013 173.077 192.56C173.477 192.08 173.877 191.653 174.277 191.28C174.704 190.907 175.131 190.627 175.557 190.44C176.144 190.173 176.784 189.907 177.477 189.64C178.331 189.373 179.291 189.253 180.357 189.28C181.424 189.307 182.397 189.427 183.277 189.64C184.504 189.933 185.557 190.467 186.437 191.24C187.317 191.987 188.064 192.893 188.677 193.96C189.291 195 189.771 196.147 190.117 197.4C190.464 198.627 190.717 199.88 190.877 201.16C190.984 202.013 191.024 202.867 190.997 203.72C190.971 204.547 190.904 205.387 190.797 206.24C190.691 207.013 190.557 207.787 190.397 208.56C190.264 209.333 190.077 210.08 189.837 210.8C189.597 211.52 189.291 212.213 188.917 212.88C188.544 213.52 188.077 214.12 187.517 214.68C186.504 215.667 185.397 216.44 184.197 217C183.024 217.533 181.757 217.827 180.397 217.88ZM180.357 194.56C179.984 194.56 179.611 194.6 179.237 194.68C178.891 194.733 178.557 194.867 178.237 195.08C177.864 195.32 177.531 195.613 177.237 195.96C176.944 196.307 176.691 196.667 176.477 197.04C175.917 198 175.531 199.027 175.317 200.12C175.104 201.213 174.997 202.32 174.997 203.44C174.997 204.587 175.117 205.773 175.357 207C175.624 208.227 176.091 209.347 176.757 210.36C177.077 210.84 177.451 211.267 177.877 211.64C178.331 211.987 178.851 212.24 179.437 212.4C179.971 212.533 180.504 212.573 181.037 212.52C181.597 212.467 182.117 212.293 182.597 212C183.371 211.52 183.984 210.88 184.437 210.08C184.891 209.28 185.224 208.413 185.437 207.48C185.677 206.547 185.811 205.587 185.837 204.6C185.891 203.613 185.891 202.72 185.837 201.92C185.784 201.12 185.651 200.28 185.437 199.4C185.224 198.52 184.904 197.72 184.477 197C184.077 196.28 183.531 195.693 182.837 195.24C182.171 194.76 181.344 194.533 180.357 194.56Z" fill="black"/>
<path d="M204.418 86.3406C187.702 76.67 180.696 84.1611 161.778 89.5974C165.747 93.4809 165.452 97.2097 160.962 101.562C169.179 115.062 182.784 124.343 191.513 128.9C194.762 130.596 197.956 127.84 197.265 124.228L195.868 116.923C203.301 109.739 205.701 98.367 204.418 86.3406Z" fill="#FAC641"/>
<path d="M108.788 86.339C125.949 77.4998 134.593 83.218 153.228 89.5759C150.562 92.7167 150.421 95.5197 153.783 100.548C156.418 104.49 133.709 119.797 121.362 126.723C118.167 128.516 115.259 125.999 116.122 122.425L117.869 115.197C110.789 107.657 106.93 98.2882 108.788 86.339Z" fill="#FAC641"/>
<path d="M169.362 94.2876C175.206 92.1353 177.462 92.523 197.052 99.6864C198.934 98.9379 198.967 98.1665 198.381 96.543" stroke="#DC9E03" stroke-width="0.5"/>
<path d="M144.715 93.3171C138.945 90.9703 136.677 91.2822 116.864 97.7857C115.007 96.9746 114.999 96.2026 115.639 94.5996" stroke="#DC9E03" stroke-width="0.5"/>
<path d="M146.842 101.898C141.548 108.112 128.531 114.252 122.432 115.437" stroke="#DC9E03" stroke-width="0.5"/>
<path d="M167.428 103.794C172.722 110.008 185.738 116.148 191.838 117.333" stroke="#DC9E03" stroke-width="0.5"/>
<path d="M165.621 95.4156C165.621 100.129 161.844 103.949 157.185 103.949C152.525 103.949 148.748 100.129 148.748 95.4156C148.748 90.7027 152.525 88.7784 157.185 88.7784C161.844 88.7784 165.621 90.7027 165.621 95.4156Z" fill="#EAA906"/>
<path d="M160 92.5703C162.478 96.0388 162.027 97.636 159.062 100.156" stroke="#F7BF08" stroke-width="0.5"/>
<defs>
<filter id="filter0_d_0_1" x="0" y="0" width="311" height="255" filterUnits="userSpaceOnUse" color-interpolation-filters="sRGB">
<feFlood flood-opacity="0" result="BackgroundImageFix"/>
<feColorMatrix in="SourceAlpha" type="matrix" values="0 0 0 0 0 0 0 0 0 0 0 0 0 0 0 0 0 0 127 0" result="hardAlpha"/>
<feOffset dy="5"/>
<feGaussianBlur stdDeviation="2"/>
<feComposite in2="hardAlpha" operator="out"/>
<feColorMatrix type="matrix" values="0 0 0 0 0 0 0 0 0 0 0 0 0 0 0 0 0 0 0.25 0"/>
<feBlend mode="normal" in2="BackgroundImageFix" result="effect1_dropShadow_0_1"/>
<feBlend mode="normal" in="SourceGraphic" in2="effect1_dropShadow_0_1" result="shape"/>
</filter>
</defs>
</svg>
