<svg width="311" height="255" viewBox="0 0 311 255" fill="none" xmlns="http://www.w3.org/2000/svg">
<g filter="url(#filter0_d_0_1)">
<rect x="4" width="303" height="246" rx="30" fill="#D9D9D9" fill-opacity="0.46" shape-rendering="crispEdges"/>
</g>
<rect x="42" y="36" width="228" height="129" fill="white"/>
<rect x="78" y="188" width="156" height="31" rx="15.5" fill="#D9D9D9"/>
<rect width="82.0607" height="60.42" rx="20" transform="matrix(0.979319 0.202321 -0.16132 0.986902 125.639 60.7554)" fill="#B78D2B"/>
<rect width="82.0607" height="60.42" rx="20" transform="matrix(0.979319 0.202321 -0.16132 0.986902 111.746 58)" fill="#D1A234"/>
<g filter="url(#filter1_d_0_1)">
<path d="M197.332 86.3782L198.341 86.6011C199.008 86.7487 199.641 86.2405 199.641 85.5568C199.641 80.4777 196.069 76.0991 191.093 75.0796L132.275 63.029C121.272 60.7747 110.571 68.0201 108.578 79.0731L107.813 83.3159C106.851 88.6522 110.317 93.783 115.627 94.8826L173.341 106.835C178.968 108 184.418 104.194 185.26 98.509L185.891 94.2572C186.698 88.81 191.955 85.1899 197.332 86.3782Z" fill="#A9744F"/>
<path d="M197.332 86.3782L198.341 86.6011C199.008 86.7487 199.641 86.2405 199.641 85.5568C199.641 80.4777 196.069 76.0991 191.093 75.0796L132.275 63.029C121.272 60.7747 110.571 68.0201 108.578 79.0731L107.813 83.3159C106.851 88.6522 110.317 93.783 115.627 94.8826L173.341 106.835C178.968 108 184.418 104.194 185.26 98.509L185.891 94.2572C186.698 88.81 191.955 85.1899 197.332 86.3782Z" stroke="#A9744F"/>
</g>
<path d="M134.057 62.7168C136.902 63.3314 138.468 63.2151 141.18 63.8959C132.49 85.6388 128.697 98.3428 124.56 122.263C121.49 121.787 120.115 121.229 117.438 119.316C122.207 96.303 126.033 84.0016 134.057 62.7168Z" fill="#5C4033"/>
<path d="M174.421 70.9707C177.265 71.5853 178.831 71.469 181.543 72.1498C172.853 93.8927 169.06 106.597 164.924 130.517C161.854 130.041 160.479 130.662 157.801 128.749C162.57 105.736 166.396 92.2555 174.421 70.9707Z" fill="#5C4033"/>
<ellipse cx="1.78031" cy="2.3588" rx="1.78031" ry="2.3588" transform="matrix(0.983912 0.178653 -0.181004 0.983482 162.215 115.778)" fill="#F5DEB3"/>
<ellipse cx="1.78031" cy="2.3588" rx="1.78031" ry="2.3588" transform="matrix(0.983912 0.178653 -0.181004 0.983482 121.854 107.524)" fill="#F5DEB3"/>
<rect x="126.148" y="188" width="7.69811" height="2.77931" rx="1.38966" fill="#5C4033"/>
<path d="M139.507 210.769C139.507 211.765 139.258 212.752 138.775 213.673C138.291 214.594 137.582 215.431 136.689 216.135C135.795 216.84 134.734 217.399 133.567 217.781C132.399 218.162 131.148 218.358 129.884 218.358C128.621 218.358 127.369 218.162 126.202 217.781C125.034 217.399 123.974 216.84 123.08 216.135C122.187 215.431 121.478 214.594 120.994 213.673C120.511 212.752 120.262 211.765 120.262 210.769L129.884 210.769H139.507Z" fill="#C48D27"/>
<path d="M130.679 218.359C130.679 218.443 130.658 218.526 130.618 218.604C130.579 218.682 130.52 218.753 130.447 218.812C130.373 218.872 130.286 218.919 130.189 218.951C130.093 218.983 129.99 219 129.886 219C129.782 219 129.679 218.983 129.583 218.951C129.487 218.919 129.399 218.872 129.326 218.812C129.252 218.753 129.194 218.682 129.154 218.604C129.114 218.526 129.094 218.443 129.094 218.359L129.886 218.359H130.679Z" fill="#5C4033"/>
<path d="M139.507 210.769H120.262V197.407H139.507V210.769Z" fill="#C48D27"/>
<path d="M142 199.224C142 197.947 141.69 196.682 141.087 195.502C140.483 194.321 139.6 193.249 138.485 192.346C137.371 191.442 136.048 190.726 134.592 190.237C133.136 189.748 131.576 189.497 130 189.497C128.424 189.497 126.864 189.748 125.408 190.237C123.952 190.726 122.629 191.442 121.515 192.346C120.4 193.249 119.517 194.321 118.913 195.502C118.31 196.682 118 197.947 118 199.224L130 199.224H142Z" fill="#7C462C"/>
<path d="M147.48 189.96C147.8 189.8 148.16 189.707 148.56 189.68C148.96 189.627 149.387 189.6 149.84 189.6H164.32C164.693 189.6 165.093 189.587 165.52 189.56C165.947 189.533 166.333 189.613 166.68 189.8C167.16 190.067 167.44 190.493 167.52 191.08C167.6 191.64 167.547 192.28 167.36 193C167.2 193.693 166.947 194.44 166.6 195.24C166.253 196.013 165.893 196.76 165.52 197.48C165.147 198.173 164.787 198.813 164.44 199.4C164.093 199.96 163.853 200.387 163.72 200.68C163.293 201.48 162.893 202.213 162.52 202.88C162.173 203.547 161.827 204.213 161.48 204.88C161.16 205.547 160.813 206.213 160.44 206.88C160.093 207.547 159.707 208.28 159.28 209.08C158.747 210.173 158.133 211.32 157.44 212.52C156.773 213.693 156.133 214.8 155.52 215.84C155.333 216.16 155.12 216.48 154.88 216.8C154.64 217.12 154.36 217.387 154.04 217.6C153.747 217.813 153.4 217.947 153 218C152.627 218.053 152.213 217.973 151.76 217.76C151.067 217.387 150.613 216.84 150.4 216.12C150.213 215.4 150.28 214.733 150.6 214.12C151.107 213.213 151.6 212.307 152.08 211.4C152.56 210.467 153.04 209.547 153.52 208.64C154.24 207.28 154.907 205.973 155.52 204.72C156.16 203.467 156.84 202.16 157.56 200.8C157.773 200.4 158.067 199.92 158.44 199.36C158.813 198.773 159.16 198.173 159.48 197.56C159.827 196.947 160.093 196.347 160.28 195.76C160.493 195.147 160.56 194.613 160.48 194.16C159.547 194.08 158.693 194.053 157.92 194.08C157.173 194.08 156.347 194.08 155.44 194.08H151.56C151.08 194.08 150.56 194.093 150 194.12C149.467 194.147 148.96 194.12 148.48 194.04C148 193.933 147.587 193.733 147.24 193.44C146.92 193.147 146.72 192.667 146.64 192C146.587 191.44 146.64 191 146.8 190.68C146.96 190.36 147.187 190.12 147.48 189.96ZM181.499 217.88C181.019 217.88 180.525 217.853 180.019 217.8C179.539 217.72 179.059 217.587 178.579 217.4C177.859 217.107 177.165 216.72 176.499 216.24C175.859 215.733 175.272 215.173 174.739 214.56C173.459 213.12 172.485 211.427 171.819 209.48C171.152 207.507 170.819 205.507 170.819 203.48C170.819 200.707 171.352 198.027 172.419 195.44C172.605 194.987 172.845 194.507 173.139 194C173.459 193.493 173.805 193.013 174.179 192.56C174.579 192.08 174.979 191.653 175.379 191.28C175.805 190.907 176.232 190.627 176.659 190.44C177.245 190.173 177.885 189.907 178.579 189.64C179.432 189.373 180.392 189.253 181.459 189.28C182.525 189.307 183.499 189.427 184.379 189.64C185.605 189.933 186.659 190.467 187.539 191.24C188.419 191.987 189.165 192.893 189.779 193.96C190.392 195 190.872 196.147 191.219 197.4C191.565 198.627 191.819 199.88 191.979 201.16C192.085 202.013 192.125 202.867 192.099 203.72C192.072 204.547 192.005 205.387 191.899 206.24C191.792 207.013 191.659 207.787 191.499 208.56C191.365 209.333 191.179 210.08 190.939 210.8C190.699 211.52 190.392 212.213 190.019 212.88C189.645 213.52 189.179 214.12 188.619 214.68C187.605 215.667 186.499 216.44 185.299 217C184.125 217.533 182.859 217.827 181.499 217.88ZM181.459 194.56C181.085 194.56 180.712 194.6 180.339 194.68C179.992 194.733 179.659 194.867 179.339 195.08C178.965 195.32 178.632 195.613 178.339 195.96C178.045 196.307 177.792 196.667 177.579 197.04C177.019 198 176.632 199.027 176.419 200.12C176.205 201.213 176.099 202.32 176.099 203.44C176.099 204.587 176.219 205.773 176.459 207C176.725 208.227 177.192 209.347 177.859 210.36C178.179 210.84 178.552 211.267 178.979 211.64C179.432 211.987 179.952 212.24 180.539 212.4C181.072 212.533 181.605 212.573 182.139 212.52C182.699 212.467 183.219 212.293 183.699 212C184.472 211.52 185.085 210.88 185.539 210.08C185.992 209.28 186.325 208.413 186.539 207.48C186.779 206.547 186.912 205.587 186.939 204.6C186.992 203.613 186.992 202.72 186.939 201.92C186.885 201.12 186.752 200.28 186.539 199.4C186.325 198.52 186.005 197.72 185.579 197C185.179 196.28 184.632 195.693 183.939 195.24C183.272 194.76 182.445 194.533 181.459 194.56Z" fill="black"/>
<defs>
<filter id="filter0_d_0_1" x="0" y="0" width="311" height="255" filterUnits="userSpaceOnUse" color-interpolation-filters="sRGB">
<feFlood flood-opacity="0" result="BackgroundImageFix"/>
<feColorMatrix in="SourceAlpha" type="matrix" values="0 0 0 0 0 0 0 0 0 0 0 0 0 0 0 0 0 0 127 0" result="hardAlpha"/>
<feOffset dy="5"/>
<feGaussianBlur stdDeviation="2"/>
<feComposite in2="hardAlpha" operator="out"/>
<feColorMatrix type="matrix" values="0 0 0 0 0 0 0 0 0 0 0 0 0 0 0 0 0 0 0.25 0"/>
<feBlend mode="normal" in2="BackgroundImageFix" result="effect1_dropShadow_0_1"/>
<feBlend mode="normal" in="SourceGraphic" in2="effect1_dropShadow_0_1" result="shape"/>
</filter>
<filter id="filter1_d_0_1" x="107.152" y="62.1177" width="92.9883" height="46.4272" filterUnits="userSpaceOnUse" color-interpolation-filters="sRGB">
<feFlood flood-opacity="0" result="BackgroundImageFix"/>
<feColorMatrix in="SourceAlpha" type="matrix" values="0 0 0 0 0 0 0 0 0 0 0 0 0 0 0 0 0 0 127 0" result="hardAlpha"/>
<feOffset dy="1"/>
<feComposite in2="hardAlpha" operator="out"/>
<feColorMatrix type="matrix" values="0 0 0 0 0 0 0 0 0 0 0 0 0 0 0 0 0 0 0.25 0"/>
<feBlend mode="normal" in2="BackgroundImageFix" result="effect1_dropShadow_0_1"/>
<feBlend mode="normal" in="SourceGraphic" in2="effect1_dropShadow_0_1" result="shape"/>
</filter>
</defs>
</svg>

