<svg width="83" height="63" viewBox="0 0 83 63" fill="none" xmlns="http://www.w3.org/2000/svg">
<path d="M54.2481 1.07372C54.2105 1.4943 54.4451 2.42135 54.5225 3.00738C54.9916 3.60352 54.5225 4.18956 54.4826 4.4851C54.1284 5.53845 53.6617 6.71558 53.5444 8.02153C53.1903 9.07488 52.4262 10.2663 51.4699 11.558C50.6901 12.6113 50.1631 13.3664 49.5162 14.1257C48.6542 15.1373 47.9098 16.1686 47.0535 17.5787C46.3886 18.6737 45.555 19.6416 44.9039 20.6933C44.2777 21.705 44.0716 23.6319 42.9479 23.8483C41.8526 24.0592 40.9015 25.5254 39.9774 25.1088C39.5095 24.8979 39.076 24.4217 38.4904 24.3093C37.1617 24.0542 31.6556 24.7733 28.954 23.213C27.9349 22.6244 26.7456 22.441 25.9049 21.6974C25.0453 20.9371 24.163 20.6396 23.0892 20.0984C21.9165 19.5073 20.5754 19.3877 19.3765 18.6662C18.3984 18.0776 17.2025 16.7107 13.1553 17.7012C11.5967 18.0827 10.2788 18.2442 9.01677 18.9238C7.76432 19.5983 6.70694 20.3315 5.73436 20.9017C4.79503 21.4524 3.78696 22.1923 2.91987 23.0084C1.98053 23.8925 0.909481 24.4407 0.419659 25.3235C0.186291 25.7441 -0.22083 27.4054 0.148764 29.4977C0.423178 31.0512 0.476313 32.2141 1.0881 33.0708C1.9946 34.3401 3.14097 36.0984 4.25558 37.5343C5.03895 38.5434 6.15407 40.2174 7.42306 40.3508C8.63681 40.4783 9.72855 40.8106 10.7066 41.1515C11.9204 41.5746 13.0786 41.9288 14.5379 42.4562C15.5933 42.8376 16.5731 43.0746 17.9 43.4666C19.1912 43.848 20.4608 44.1357 22.4349 44.477C23.6475 44.6867 24.8081 45.232 26.0316 45.3611C27.6347 45.5304 28.5674 46.2065 29.6658 46.7946C30.9182 47.4653 32.2759 47.6213 33.3786 48.5212C34.3566 49.3194 35.2963 49.6504 36.2318 50.5003C37.2509 51.4261 38.6281 52.1714 39.2398 53.2789C39.7511 54.2047 40.1763 55.7078 41.4714 56.3922C41.7869 56.559 42.1894 56.5041 42.5269 56.6449C43.7383 57.1501 45.8324 57.5737 47.2552 57.0629C48.1945 56.7257 49.4962 56.7088 50.9305 56.0512C52.027 55.5486 53.6634 55.1181 54.6046 53.9862C55.6201 52.7649 56.4863 51.8244 57.3006 50.5344C57.9655 49.4811 58.6097 48.4865 59.1758 47.4615C59.6871 46.5357 60.8401 45.8124 61.0122 44.429C61.1694 43.166 61.4796 42.0525 62.1087 41.1465C62.8112 40.1348 63.1525 38.9668 64.1809 38.2428C65.0815 37.6088 66.043 36.7118 66.6424 35.3354C67.1924 34.0724 67.8535 32.9963 68.4015 32.0528C68.989 31.0411 69.5566 29.9874 70.279 29.0216C71.0998 27.924 71.7419 26.7625 72.3898 25.6948C73.131 24.4735 73.7098 23.4212 74.7364 22.2001C75.8704 20.8512 76.5635 18.9085 77.7456 18.7091C79.4824 18.4161 82.122 19.6251 82.9418 19.0034C83.0568 18.9162 82.9864 18.6622 82.8609 18.4123C82.3531 17.4006 81.945 16.36 81.4537 15.3811C80.9459 14.3694 80.322 12.9659 79.1458 12.1831C78.1267 11.5049 77.3217 10.0624 76.1355 9.5725C74.9182 9.06983 73.3978 9.29417 72.303 8.6884C70.8559 7.88765 69.8899 7.1927 68.5504 6.3291C67.183 5.44752 66.4568 4.7519 65.6995 4.014C64.8376 3.1741 63.7994 3.10677 62.6869 2.45797C61.16 1.56755 54.4913 -1.65287 54.2481 1.07372Z" fill="#7A543A"/>
<path d="M54.2481 1.07372C54.2105 1.4943 54.4451 2.42135 54.5225 3.00738C65.6995 6.93036 70.279 16.5009 77.7456 18.7091C79.4824 18.4161 82.122 19.6251 82.9418 19.0034C83.0568 18.9162 82.9864 18.6622 82.8609 18.4123C82.3531 17.4006 81.945 16.36 81.4537 15.3811C80.9459 14.3694 80.322 12.9659 79.1458 12.1831C78.1267 11.5049 77.3217 10.0624 76.1355 9.5725C74.9182 9.06983 73.3978 9.29417 72.303 8.6884C70.8559 7.88765 69.8899 7.1927 68.5504 6.3291C67.183 5.44752 66.4568 4.7519 65.6995 4.014C64.8376 3.1741 63.7994 3.10677 62.6869 2.45797C61.16 1.56755 54.4913 -1.65287 54.2481 1.07372Z" fill="#D1AB80"/>
<path d="M54.2481 1.07372C54.2105 1.4943 54.4451 2.42135 54.5225 3.00738C54.9916 3.60352 54.5225 4.18956 54.4826 4.4851C54.1284 5.53845 53.6617 6.71558 53.5444 8.02153C53.1903 9.07488 52.4262 10.2663 51.4699 11.558C50.6901 12.6113 50.1631 13.3664 49.5162 14.1257C48.6542 15.1373 47.9098 16.1686 47.0535 17.5787C46.3886 18.6737 45.555 19.6416 44.9039 20.6933C44.2777 21.705 44.0716 23.6319 42.9479 23.8483C41.8526 24.0592 40.9015 25.5254 39.9774 25.1088C39.5095 24.8979 39.076 24.4217 38.4904 24.3093C37.1617 24.0542 31.6556 24.7733 28.954 23.213C27.9349 22.6244 26.7456 22.441 25.9049 21.6974C25.0453 20.9371 24.163 20.6396 23.0892 20.0984C21.9165 19.5073 20.5754 19.3877 19.3765 18.6662C18.52 18.1508 17.4965 17.0386 14.5379 17.435C18.1413 29.7246 16.3303 34.6085 7.42306 40.3508C6.15407 40.2174 5.03895 38.5434 4.25558 37.5343C3.14097 36.0984 1.9946 34.3401 1.0881 33.0708C0.476313 32.2141 0.423178 31.0512 0.148764 29.4977C-0.22083 27.4054 0.186291 25.7441 0.419659 25.3235C0.909481 24.4407 1.98053 23.8925 2.91987 23.0084C3.78696 22.1923 4.79503 21.4524 5.73436 20.9017C6.70694 20.3315 7.76432 19.5983 9.01677 18.9238C10.2788 18.2442 11.5967 18.0827 13.1553 17.7012C13.6585 17.5781 14.1177 17.4913 14.5379 17.435C17.4965 17.0386 18.52 18.1508 19.3765 18.6662C20.5754 19.3877 21.9165 19.5073 23.0892 20.0984C24.163 20.6396 25.0453 20.9371 25.9049 21.6974C26.7456 22.441 27.9349 22.6244 28.954 23.213C31.6556 24.7733 37.1617 24.0542 38.4904 24.3093C39.076 24.4217 39.5095 24.8979 39.9774 25.1088C40.9015 25.5254 41.8526 24.0592 42.9479 23.8483C44.0716 23.6319 44.2777 21.705 44.9039 20.6933C45.555 19.6416 46.3886 18.6737 47.0535 17.5787C47.9098 16.1686 48.6542 15.1373 49.5162 14.1257C50.1631 13.3664 50.6901 12.6113 51.4699 11.558C52.4262 10.2663 53.1903 9.07488 53.5444 8.02153C53.6617 6.71558 54.1284 5.53845 54.4826 4.4851C54.5225 4.18956 54.9916 3.60352 54.5225 3.00738C54.4451 2.42135 54.2105 1.4943 54.2481 1.07372C54.4913 -1.65287 61.16 1.56755 62.6869 2.45797C63.7994 3.10677 64.8376 3.1741 65.6995 4.014C66.4568 4.7519 67.183 5.44752 68.5504 6.3291C69.8899 7.1927 70.8559 7.88765 72.303 8.6884C73.3978 9.29417 74.9182 9.06983 76.1355 9.5725C77.3217 10.0624 78.1267 11.5049 79.1458 12.1831C80.322 12.9659 80.9459 14.3694 81.4537 15.3811C81.945 16.36 82.3531 17.4006 82.8609 18.4123C82.9864 18.6622 83.0568 18.9162 82.9418 19.0034C82.122 19.6251 79.4824 18.4161 77.7456 18.7091C76.5635 18.9085 75.8704 20.8512 74.7364 22.2001C73.7098 23.4212 73.131 24.4735 72.3898 25.6948C71.7419 26.7625 71.0998 27.924 70.279 29.0216C69.5566 29.9874 68.989 31.0411 68.4015 32.0528C67.8535 32.9963 67.1924 34.0724 66.6424 35.3354C66.043 36.7118 65.0815 37.6088 64.1809 38.2428C63.1525 38.9668 62.8112 40.1348 62.1087 41.1465C61.4796 42.0525 61.1694 43.166 61.0122 44.429C60.8401 45.8124 59.6871 46.5357 59.1758 47.4615C58.6097 48.4865 57.9655 49.4811 57.3006 50.5344C56.4863 51.8244 55.6201 52.7649 54.6046 53.9862C53.6634 55.1181 52.027 55.5486 50.9305 56.0512C49.4962 56.7088 48.1945 56.7257 47.2552 57.0629C45.8324 57.5737 43.7383 57.1501 42.5269 56.6449C42.1894 56.5041 41.7869 56.559 41.4714 56.3922C40.1763 55.7078 39.7511 54.2047 39.2398 53.2789C38.6281 52.1714 37.2509 51.4261 36.2318 50.5003C35.5997 49.9261 34.9657 49.5887 34.3192 49.184C37.9415 40.4997 57.7094 36.5219 61.0122 44.429C61.1694 43.166 61.4796 42.0525 62.1087 41.1465C62.8112 40.1348 63.1525 38.9668 64.1809 38.2428C65.0815 37.6088 66.043 36.7118 66.6424 35.3354C67.1924 34.0724 67.8535 32.9963 68.4015 32.0528C68.989 31.0411 69.5566 29.9874 70.279 29.0216C71.0998 27.924 71.7419 26.7625 72.3898 25.6948C73.131 24.4735 73.7098 23.4212 74.7364 22.2001C75.8704 20.8512 76.5635 18.9085 77.7456 18.7091C79.4824 18.4161 82.122 19.6251 82.9418 19.0034C83.0568 18.9162 82.9864 18.6622 82.8609 18.4123C82.3531 17.4006 81.945 16.36 81.4537 15.3811C80.9459 14.3694 80.322 12.9659 79.1458 12.1831C78.1267 11.5049 77.3217 10.0624 76.1355 9.5725C74.9182 9.06983 73.3978 9.29417 72.303 8.6884C70.8559 7.88765 69.8899 7.1927 68.5504 6.3291C67.183 5.44752 66.4568 4.7519 65.6995 4.014C64.8376 3.1741 63.7994 3.10677 62.6869 2.45797C61.16 1.56755 54.4913 -1.65287 54.2481 1.07372Z" fill="#D1AB80"/>
<path d="M62.0958 6.47754L39.834 45.542" stroke="#D1AB80" stroke-width="0.5"/>
<path d="M42.4223 23.9668L30.7408 47.2871" stroke="#D1AB80" stroke-width="0.5"/>
<path d="M35.0452 24.6152L23.9785 44.6963" stroke="#D1AB80" stroke-width="0.5"/>
<path d="M27.9749 22.6719L16.9082 43.0768" stroke="#D1AB80" stroke-width="0.5"/>
<path d="M67.0154 10.3643L45.3516 48.1825" stroke="#D1AB80" stroke-width="0.5"/>
<path d="M71.3184 14.8984L51.0703 51.0422" stroke="#D1AB80" stroke-width="0.5"/>
<path d="M58.7151 42.1052L14.7565 23.169" stroke="#D1AB80" stroke-width="0.5"/>
<path d="M65.7845 36.2755L39.9628 25.0957" stroke="#D1AB80" stroke-width="0.5"/>
<path d="M69.4737 29.7981L45.4964 19.9139" stroke="#D1AB80" stroke-width="0.5"/>
<path d="M73.1631 24.6154L49.1858 14.7313" stroke="#D1AB80" stroke-width="0.5"/>
<path d="M54.0564 45.98L14.1405 29.4556" stroke="#D1AB80" stroke-width="0.5"/>
<path d="M46.9813 49.5788L11.0659 34.327" stroke="#D1AB80" stroke-width="0.5"/>
</svg>
