<svg width="311" height="255" viewBox="0 0 311 255" fill="none" xmlns="http://www.w3.org/2000/svg">
<g filter="url(#filter0_d_0_1)">
<rect x="4" width="303" height="246" rx="30" fill="#D9D9D9" fill-opacity="0.46" shape-rendering="crispEdges"/>
</g>
<rect x="42" y="31" width="228" height="129" fill="white"/>
<rect x="78" y="183" width="156" height="31" rx="15.5" fill="#D9D9D9"/>
<rect x="126.148" y="183" width="7.69811" height="2.77931" rx="1.38966" fill="#5C4033"/>
<path d="M139.507 205.769C139.507 206.765 139.258 207.752 138.775 208.673C138.291 209.594 137.582 210.431 136.689 211.135C135.795 211.84 134.734 212.399 133.567 212.781C132.399 213.162 131.148 213.358 129.884 213.358C128.621 213.358 127.369 213.162 126.202 212.781C125.034 212.399 123.974 211.84 123.08 211.135C122.187 210.431 121.478 209.594 120.994 208.673C120.511 207.752 120.262 206.765 120.262 205.769L129.884 205.769H139.507Z" fill="#C48D27"/>
<path d="M130.679 213.359C130.679 213.443 130.658 213.526 130.618 213.604C130.579 213.682 130.52 213.753 130.447 213.812C130.373 213.872 130.286 213.919 130.189 213.951C130.093 213.983 129.99 214 129.886 214C129.782 214 129.679 213.983 129.583 213.951C129.487 213.919 129.399 213.872 129.326 213.812C129.252 213.753 129.194 213.682 129.154 213.604C129.114 213.526 129.094 213.443 129.094 213.359L129.886 213.359H130.679Z" fill="#5C4033"/>
<path d="M139.507 205.769H120.262V192.407H139.507V205.769Z" fill="#C48D27"/>
<path d="M142 194.224C142 192.947 141.69 191.682 141.087 190.502C140.483 189.321 139.6 188.249 138.485 187.346C137.371 186.442 136.048 185.726 134.592 185.237C133.136 184.748 131.576 184.497 130 184.497C128.424 184.497 126.864 184.748 125.408 185.237C123.952 185.726 122.629 186.442 121.515 187.346C120.4 188.249 119.517 189.321 118.913 190.502C118.31 191.682 118 192.947 118 194.224L130 194.224H142Z" fill="#7C462C"/>
<path d="M147.28 188.56C146.933 188.24 146.76 187.76 146.76 187.12C146.787 186.827 146.84 186.547 146.92 186.28C147 185.987 147.147 185.733 147.36 185.52C147.947 184.987 148.573 184.68 149.24 184.6C149.907 184.52 150.627 184.453 151.4 184.4C152.013 184.373 152.56 184.373 153.04 184.4C153.52 184.4 154.067 184.4 154.68 184.4C155.613 184.4 156.627 184.413 157.72 184.44C158.84 184.467 159.893 184.507 160.88 184.56C161.28 184.587 161.68 184.64 162.08 184.72C162.48 184.8 162.84 184.947 163.16 185.16C163.48 185.347 163.733 185.6 163.92 185.92C164.133 186.213 164.253 186.587 164.28 187.04C164.307 187.573 164.227 188.08 164.04 188.56C163.88 189.04 163.653 189.507 163.36 189.96C163.067 190.387 162.733 190.8 162.36 191.2C162.013 191.573 161.68 191.92 161.36 192.24C160.773 192.853 160.107 193.507 159.36 194.2C158.613 194.893 157.947 195.547 157.36 196.16C158.4 196.293 159.4 196.533 160.36 196.88C161.347 197.227 162.213 197.707 162.96 198.32C163.707 198.933 164.293 199.707 164.72 200.64C165.173 201.547 165.4 202.64 165.4 203.92C165.4 205.2 165.147 206.387 164.64 207.48C164.16 208.573 163.48 209.533 162.6 210.36C161.72 211.16 160.68 211.787 159.48 212.24C158.28 212.693 156.96 212.92 155.52 212.92C154.907 212.92 154.24 212.867 153.52 212.76C152.827 212.653 152.133 212.493 151.44 212.28C150.747 212.067 150.08 211.8 149.44 211.48C148.827 211.133 148.293 210.72 147.84 210.24C147.52 209.92 147.24 209.547 147 209.12C146.787 208.667 146.653 208.213 146.6 207.76C146.573 207.28 146.667 206.853 146.88 206.48C147.093 206.08 147.467 205.787 148 205.6C148.4 205.467 148.787 205.413 149.16 205.44C149.533 205.467 149.893 205.56 150.24 205.72C150.587 205.853 150.92 206.013 151.24 206.2C151.587 206.387 151.92 206.573 152.24 206.76C153.227 207.373 154.253 207.733 155.32 207.84C156.413 207.947 157.48 207.693 158.52 207.08C159.107 206.733 159.533 206.307 159.8 205.8C160.067 205.267 160.173 204.733 160.12 204.2C160.093 203.667 159.92 203.16 159.6 202.68C159.307 202.2 158.893 201.8 158.36 201.48C157.853 201.187 157.293 200.987 156.68 200.88C156.067 200.773 155.453 200.667 154.84 200.56C154.227 200.453 153.64 200.307 153.08 200.12C152.52 199.933 152.04 199.613 151.64 199.16C151.187 198.653 151.04 198.107 151.2 197.52C151.36 196.933 151.653 196.36 152.08 195.8C152.533 195.24 153.027 194.707 153.56 194.2C154.12 193.693 154.56 193.267 154.88 192.92C155.067 192.733 155.28 192.507 155.52 192.24C155.787 191.973 156.027 191.707 156.24 191.44C156.48 191.173 156.68 190.92 156.84 190.68C157.027 190.413 157.147 190.173 157.2 189.96C157.28 189.747 157.24 189.6 157.08 189.52C156.92 189.413 156.72 189.36 156.48 189.36C156.24 189.333 155.973 189.333 155.68 189.36C155.413 189.36 155.2 189.36 155.04 189.36H152.36C151.987 189.36 151.573 189.373 151.12 189.4C150.667 189.4 150.2 189.387 149.72 189.36C149.267 189.307 148.813 189.227 148.36 189.12C147.933 189.013 147.573 188.827 147.28 188.56ZM179.272 212.88C178.792 212.88 178.299 212.853 177.792 212.8C177.312 212.72 176.832 212.587 176.352 212.4C175.632 212.107 174.939 211.72 174.272 211.24C173.632 210.733 173.046 210.173 172.512 209.56C171.232 208.12 170.259 206.427 169.592 204.48C168.926 202.507 168.592 200.507 168.592 198.48C168.592 195.707 169.126 193.027 170.192 190.44C170.379 189.987 170.619 189.507 170.912 189C171.232 188.493 171.579 188.013 171.952 187.56C172.352 187.08 172.752 186.653 173.152 186.28C173.579 185.907 174.006 185.627 174.432 185.44C175.019 185.173 175.659 184.907 176.352 184.64C177.206 184.373 178.166 184.253 179.232 184.28C180.299 184.307 181.272 184.427 182.152 184.64C183.379 184.933 184.432 185.467 185.312 186.24C186.192 186.987 186.939 187.893 187.552 188.96C188.166 190 188.646 191.147 188.992 192.4C189.339 193.627 189.592 194.88 189.752 196.16C189.859 197.013 189.899 197.867 189.872 198.72C189.846 199.547 189.779 200.387 189.672 201.24C189.566 202.013 189.432 202.787 189.272 203.56C189.139 204.333 188.952 205.08 188.712 205.8C188.472 206.52 188.166 207.213 187.792 207.88C187.419 208.52 186.952 209.12 186.392 209.68C185.379 210.667 184.272 211.44 183.072 212C181.899 212.533 180.632 212.827 179.272 212.88ZM179.232 189.56C178.859 189.56 178.486 189.6 178.112 189.68C177.766 189.733 177.432 189.867 177.112 190.08C176.739 190.32 176.406 190.613 176.112 190.96C175.819 191.307 175.566 191.667 175.352 192.04C174.792 193 174.406 194.027 174.192 195.12C173.979 196.213 173.872 197.32 173.872 198.44C173.872 199.587 173.992 200.773 174.232 202C174.499 203.227 174.966 204.347 175.632 205.36C175.952 205.84 176.326 206.267 176.752 206.64C177.206 206.987 177.726 207.24 178.312 207.4C178.846 207.533 179.379 207.573 179.912 207.52C180.472 207.467 180.992 207.293 181.472 207C182.246 206.52 182.859 205.88 183.312 205.08C183.766 204.28 184.099 203.413 184.312 202.48C184.552 201.547 184.686 200.587 184.712 199.6C184.766 198.613 184.766 197.72 184.712 196.92C184.659 196.12 184.526 195.28 184.312 194.4C184.099 193.52 183.779 192.72 183.352 192C182.952 191.28 182.406 190.693 181.712 190.24C181.046 189.76 180.219 189.533 179.232 189.56Z" fill="black"/>
<path d="M139.211 69.8638C137.715 88.7652 139.184 98.0484 155.989 106.631C158.263 88.3464 152.764 81.106 139.211 69.8638Z" fill="#FFD05E"/>
<path d="M174.179 68.9668C175.675 87.8682 174.207 97.1514 157.401 105.734C155.127 87.4494 160.627 80.209 174.179 68.9668Z" fill="#FFD05E"/>
<path d="M191.625 116.825C172.509 118.304 163.121 116.852 154.441 100.235C172.933 97.9866 180.255 103.425 191.625 116.825Z" fill="#FFD05E"/>
<path d="M189.811 83.4724C170.695 81.9932 161.306 83.4451 152.627 100.062C171.118 102.311 178.441 96.8728 189.811 83.4724Z" fill="#FFD05E"/>
<path d="M196.841 100.249C178.589 108.449 168.844 110.355 154.36 97.2459C171.724 88.5179 180.867 91.223 196.841 100.249Z" fill="#FFD05E"/>
<path d="M123.281 116.825C142.397 118.304 151.785 116.852 160.465 100.235C141.973 97.9866 134.651 103.425 123.281 116.825Z" fill="#FFD05E"/>
<path d="M123.281 83.4724C142.397 81.9932 151.785 83.4451 160.465 100.062C141.973 102.311 134.651 96.8728 123.281 83.4724Z" fill="#FFD05E"/>
<path d="M117.158 102.045C135.326 110.209 145.026 112.105 159.449 99.0387C142.167 90.3487 133.063 93.0469 117.158 102.045Z" fill="#FFD05E"/>
<path d="M138.954 131.129C137.458 112.228 138.926 102.945 155.731 94.3626C158.005 112.647 152.506 119.887 138.954 131.129Z" fill="#FFD05E"/>
<path d="M174.435 131.129C175.931 112.228 174.463 102.945 157.657 94.3626C155.383 112.647 160.883 119.887 174.435 131.129Z" fill="#FFD05E"/>
<path d="M157.718 139.849C165.662 122.593 167.493 113.373 154.669 99.625C146.208 116.038 148.872 124.701 157.718 139.849Z" fill="#FFD05E"/>
<path d="M157.718 60.1514C165.662 77.407 167.493 86.6269 154.669 100.375C146.208 83.9624 148.872 75.2989 157.718 60.1514Z" fill="#FFD05E"/>
<ellipse cx="158.338" cy="99.3751" rx="10.4295" ry="10.3126" fill="#33363F"/>
<defs>
<filter id="filter0_d_0_1" x="0" y="0" width="311" height="255" filterUnits="userSpaceOnUse" color-interpolation-filters="sRGB">
<feFlood flood-opacity="0" result="BackgroundImageFix"/>
<feColorMatrix in="SourceAlpha" type="matrix" values="0 0 0 0 0 0 0 0 0 0 0 0 0 0 0 0 0 0 127 0" result="hardAlpha"/>
<feOffset dy="5"/>
<feGaussianBlur stdDeviation="2"/>
<feComposite in2="hardAlpha" operator="out"/>
<feColorMatrix type="matrix" values="0 0 0 0 0 0 0 0 0 0 0 0 0 0 0 0 0 0 0.25 0"/>
<feBlend mode="normal" in2="BackgroundImageFix" result="effect1_dropShadow_0_1"/>
<feBlend mode="normal" in="SourceGraphic" in2="effect1_dropShadow_0_1" result="shape"/>
</filter>
</defs>
</svg>
