<svg width="311" height="255" viewBox="0 0 311 255" fill="none" xmlns="http://www.w3.org/2000/svg">
<g filter="url(#filter0_d_0_1)">
<rect x="4" width="303" height="246" rx="30" fill="#D9D9D9" fill-opacity="0.46" shape-rendering="crispEdges"/>
</g>
<rect x="42" y="31" width="228" height="129" fill="white"/>
<rect x="78" y="183" width="156" height="31" rx="15.5" fill="#D9D9D9"/>
<path d="M128.841 131.461C128.611 135.289 128.534 137.427 129.674 141.001" stroke="#4B4B4B" stroke-width="1.5" stroke-linecap="round"/>
<path d="M125.038 131.437C124.519 135.313 124.331 137.46 125.142 141.025" stroke="#4B4B4B" stroke-width="1.5" stroke-linecap="round"/>
<path d="M120.686 130.507C120.872 133.863 120.959 135.773 120.497 140.092" stroke="#4B4B4B" stroke-width="1.5" stroke-linecap="round"/>
<path d="M116.951 130.508C117.326 133.874 117.287 135.909 116.324 140.069" stroke="#4B4B4B" stroke-width="1.5" stroke-linecap="round"/>
<path d="M120.095 98.0693C127.043 89.0819 126.956 82.1485 125.097 68.9712L139.68 70.8793C142.435 83.9033 144.586 90.3041 137.588 99.5003C128.756 110.154 127.359 118.377 130.62 133.543C130.933 134.999 129.632 136.306 128.183 135.966L116.342 133.185C115.581 133.006 114.991 132.394 114.841 131.626C111.413 114.028 112.558 106.556 120.095 98.0693Z" fill="#4B4B4B"/>
<path d="M130.091 130.984L114.25 128.599L114.849 132.028C114.991 132.837 115.613 133.477 116.417 133.643L128.329 136.089C129.746 136.38 130.994 135.117 130.685 133.703L130.091 130.984Z" fill="#FFFFF0"/>
<path d="M193.875 58C176.289 66.96 164.037 66.6775 143.016 68.0174L195.125 74.2186C195.222 67.9369 195.101 64.4048 193.875 58Z" fill="#A3A397"/>
<path d="M119.671 61.3394C148.158 64.9888 164.617 71.0432 198.044 67.0636C199.115 73.419 199.697 76.9832 197.21 83.2822C166.778 88.543 121.338 86.1443 119.671 81.3741C118.003 76.6039 119.671 61.3394 119.671 61.3394Z" fill="#4B4B4B"/>
<path d="M122.645 83.2822L125.978 62.2934L119.725 61.3394C118.785 70.8716 118.317 76.1217 119.725 81.8511C120.316 82.2188 121.292 82.7585 122.645 83.2822Z" fill="#FFFFF0"/>
<path d="M138.485 85.667C137.074 76.4758 136.911 71.6631 138.902 64.2012L153.493 66.5863C151.699 73.5893 152.002 77.9402 153.909 86.144C148.055 86.4693 144.621 86.1869 138.485 85.667Z" fill="#FFFFF0"/>
<path d="M169.335 86.1439C168.542 78.9887 168.402 75.1595 169.312 68.1992C174.113 68.5436 177.25 68.3459 182.652 68.1992C183 75.5028 182.948 79.1619 181.842 85.1899C178.175 85.5557 177.254 85.7546 169.335 86.1439Z" fill="#F5F5DC"/>
<path d="M193.931 67.5405L198.099 67.0635C199.275 74.1172 199.266 77.7453 197.266 83.2821L194.348 83.7591C195.38 77.5969 195.412 74.0657 193.931 67.5405Z" fill="#F5F5DC"/>
<path d="M193.875 67.5405L198.044 67.0635C199.474 74.1375 199.384 77.7267 197.21 83.2821L194.292 83.7591C195.324 77.5969 195.356 74.0657 193.875 67.5405Z" fill="#FFFFF0"/>
<path d="M142.181 89.0062L125.505 86.6211C125.119 90.2613 121.754 95.6844 122.17 95.2074C122.587 94.7304 136.761 100.455 136.761 100.455C139.822 96.6862 141.232 94.347 142.181 89.0062Z" fill="#F5F5DC"/>
<path d="M115.501 104.271C115.501 104.271 132.176 109.518 131.343 109.518C130.557 109.518 128.865 118.927 129.178 119.927C129.266 119.976 129.296 120.006 129.258 120.012C129.223 120.018 129.197 119.988 129.178 119.927C127.839 119.178 113 113.811 113 113.811C113.29 109.714 113.757 107.977 115.501 104.271Z" fill="#FFFFF0"/>
<rect x="125.148" y="183" width="7.69811" height="2.77931" rx="1.38966" fill="#5C4033"/>
<path d="M138.507 205.769C138.507 206.765 138.258 207.752 137.775 208.673C137.291 209.594 136.582 210.431 135.689 211.135C134.795 211.84 133.734 212.399 132.567 212.781C131.399 213.162 130.148 213.358 128.884 213.358C127.621 213.358 126.369 213.162 125.202 212.781C124.034 212.399 122.974 211.84 122.08 211.135C121.187 210.431 120.478 209.594 119.994 208.673C119.511 207.752 119.262 206.765 119.262 205.769L128.884 205.769H138.507Z" fill="#C48D27"/>
<path d="M129.679 213.359C129.679 213.443 129.658 213.526 129.618 213.604C129.579 213.682 129.52 213.753 129.447 213.812C129.373 213.872 129.286 213.919 129.189 213.951C129.093 213.983 128.99 214 128.886 214C128.782 214 128.679 213.983 128.583 213.951C128.487 213.919 128.399 213.872 128.326 213.812C128.252 213.753 128.194 213.682 128.154 213.604C128.114 213.526 128.094 213.443 128.094 213.359L128.886 213.359H129.679Z" fill="#5C4033"/>
<path d="M138.507 205.769H119.262V192.407H138.507V205.769Z" fill="#C48D27"/>
<path d="M141 194.224C141 192.947 140.69 191.682 140.087 190.502C139.483 189.321 138.6 188.249 137.485 187.346C136.371 186.442 135.048 185.726 133.592 185.237C132.136 184.748 130.576 184.497 129 184.497C127.424 184.497 125.864 184.748 124.408 185.237C122.952 185.726 121.629 186.442 120.515 187.346C119.4 188.249 118.517 189.321 117.913 190.502C117.31 191.682 117 192.947 117 194.224L129 194.224H141Z" fill="#7C462C"/>
<path d="M148.12 185.04C148.36 184.8 148.667 184.653 149.04 184.6C149.44 184.52 149.907 184.48 150.44 184.48H160.32C160.667 184.48 161.053 184.48 161.48 184.48C161.933 184.453 162.36 184.48 162.76 184.56C163.16 184.64 163.507 184.787 163.8 185C164.12 185.187 164.347 185.493 164.48 185.92C164.56 186.187 164.587 186.493 164.56 186.84C164.56 187.187 164.493 187.52 164.36 187.84C164.253 188.133 164.08 188.4 163.84 188.64C163.6 188.853 163.307 188.973 162.96 189C162.267 189.133 161.547 189.173 160.8 189.12C160.053 189.04 159.333 189 158.64 189C157.867 189 157.187 189.027 156.6 189.08C156.013 189.133 155.347 189.16 154.6 189.16C154.307 189.16 153.933 189.147 153.48 189.12C153.027 189.093 152.68 189.12 152.44 189.2C152.227 189.253 152.053 189.36 151.92 189.52C151.813 189.68 151.733 189.867 151.68 190.08C151.627 190.267 151.6 190.467 151.6 190.68C151.6 190.893 151.6 191.08 151.6 191.24C151.6 191.693 151.573 192.16 151.52 192.64C151.493 193.093 151.467 193.547 151.44 194C151.387 194.613 151.467 194.96 151.68 195.04C151.92 195.093 152.32 195.04 152.88 194.88C153.84 194.64 154.827 194.52 155.84 194.52C157.2 194.52 158.467 194.707 159.64 195.08C160.813 195.427 161.827 195.973 162.68 196.72C163.56 197.44 164.24 198.36 164.72 199.48C165.227 200.573 165.48 201.853 165.48 203.32C165.48 203.587 165.467 203.84 165.44 204.08C165.44 204.32 165.413 204.56 165.36 204.8C165.147 206.48 164.52 207.96 163.48 209.24C162.44 210.52 161.12 211.44 159.52 212C157.627 212.72 155.667 213.053 153.64 213C151.613 212.92 149.747 212.333 148.04 211.24C147.56 210.947 147.12 210.6 146.72 210.2C146.32 209.773 146.027 209.293 145.84 208.76C145.627 208.2 145.56 207.627 145.64 207.04C145.747 206.427 146.107 205.973 146.72 205.68C147.173 205.467 147.587 205.4 147.96 205.48C148.36 205.533 148.733 205.667 149.08 205.88C149.427 206.067 149.76 206.307 150.08 206.6C150.427 206.867 150.773 207.093 151.12 207.28C151.733 207.573 152.373 207.827 153.04 208.04C153.707 208.227 154.413 208.32 155.16 208.32C156.813 208.32 158.133 207.88 159.12 207C160.133 206.12 160.64 204.933 160.64 203.44C160.64 202 160.12 200.88 159.08 200.08C158.04 199.253 156.64 198.84 154.88 198.84C154.427 198.84 153.973 198.867 153.52 198.92C153.067 198.973 152.613 199.067 152.16 199.2C151.733 199.307 151.307 199.427 150.88 199.56C150.48 199.693 150.08 199.787 149.68 199.84C149.28 199.867 148.88 199.827 148.48 199.72C148.107 199.587 147.747 199.307 147.4 198.88C147.053 198.507 146.88 198.053 146.88 197.52C146.88 196.987 146.907 196.493 146.96 196.04C147.013 195.267 147.053 194.493 147.08 193.72C147.107 192.947 147.147 192.173 147.2 191.4C147.253 190.627 147.293 189.867 147.32 189.12C147.373 188.347 147.427 187.573 147.48 186.8C147.507 186.347 147.573 185.987 147.68 185.72C147.787 185.453 147.933 185.227 148.12 185.04ZM179.366 212.88C178.886 212.88 178.393 212.853 177.886 212.8C177.406 212.72 176.926 212.587 176.446 212.4C175.726 212.107 175.033 211.72 174.366 211.24C173.726 210.733 173.139 210.173 172.606 209.56C171.326 208.12 170.353 206.427 169.686 204.48C169.019 202.507 168.686 200.507 168.686 198.48C168.686 195.707 169.219 193.027 170.286 190.44C170.473 189.987 170.713 189.507 171.006 189C171.326 188.493 171.673 188.013 172.046 187.56C172.446 187.08 172.846 186.653 173.246 186.28C173.673 185.907 174.099 185.627 174.526 185.44C175.113 185.173 175.753 184.907 176.446 184.64C177.299 184.373 178.259 184.253 179.326 184.28C180.393 184.307 181.366 184.427 182.246 184.64C183.473 184.933 184.526 185.467 185.406 186.24C186.286 186.987 187.033 187.893 187.646 188.96C188.259 190 188.739 191.147 189.086 192.4C189.433 193.627 189.686 194.88 189.846 196.16C189.953 197.013 189.993 197.867 189.966 198.72C189.939 199.547 189.873 200.387 189.766 201.24C189.659 202.013 189.526 202.787 189.366 203.56C189.233 204.333 189.046 205.08 188.806 205.8C188.566 206.52 188.259 207.213 187.886 207.88C187.513 208.52 187.046 209.12 186.486 209.68C185.473 210.667 184.366 211.44 183.166 212C181.993 212.533 180.726 212.827 179.366 212.88ZM179.326 189.56C178.953 189.56 178.579 189.6 178.206 189.68C177.859 189.733 177.526 189.867 177.206 190.08C176.833 190.32 176.499 190.613 176.206 190.96C175.913 191.307 175.659 191.667 175.446 192.04C174.886 193 174.499 194.027 174.286 195.12C174.073 196.213 173.966 197.32 173.966 198.44C173.966 199.587 174.086 200.773 174.326 202C174.593 203.227 175.059 204.347 175.726 205.36C176.046 205.84 176.419 206.267 176.846 206.64C177.299 206.987 177.819 207.24 178.406 207.4C178.939 207.533 179.473 207.573 180.006 207.52C180.566 207.467 181.086 207.293 181.566 207C182.339 206.52 182.953 205.88 183.406 205.08C183.859 204.28 184.193 203.413 184.406 202.48C184.646 201.547 184.779 200.587 184.806 199.6C184.859 198.613 184.859 197.72 184.806 196.92C184.753 196.12 184.619 195.28 184.406 194.4C184.193 193.52 183.873 192.72 183.446 192C183.046 191.28 182.499 190.693 181.806 190.24C181.139 189.76 180.313 189.533 179.326 189.56Z" fill="black"/>
<defs>
<filter id="filter0_d_0_1" x="0" y="0" width="311" height="255" filterUnits="userSpaceOnUse" color-interpolation-filters="sRGB">
<feFlood flood-opacity="0" result="BackgroundImageFix"/>
<feColorMatrix in="SourceAlpha" type="matrix" values="0 0 0 0 0 0 0 0 0 0 0 0 0 0 0 0 0 0 127 0" result="hardAlpha"/>
<feOffset dy="5"/>
<feGaussianBlur stdDeviation="2"/>
<feComposite in2="hardAlpha" operator="out"/>
<feColorMatrix type="matrix" values="0 0 0 0 0 0 0 0 0 0 0 0 0 0 0 0 0 0 0.25 0"/>
<feBlend mode="normal" in2="BackgroundImageFix" result="effect1_dropShadow_0_1"/>
<feBlend mode="normal" in="SourceGraphic" in2="effect1_dropShadow_0_1" result="shape"/>
</filter>
</defs>
</svg>
