<svg width="206" height="175" viewBox="0 0 206 175" fill="none" xmlns="http://www.w3.org/2000/svg">
<path d="M47.2377 152.876C47.3398 160.194 47.5123 164.27 50.6368 170.847" stroke="#4B4B4B" stroke-width="1.5" stroke-linecap="round"/>
<path d="M38.731 153.555C38.1953 161.018 38.1203 165.132 40.5059 171.753" stroke="#4B4B4B" stroke-width="1.5" stroke-linecap="round"/>
<path d="M28.8496 152.607C29.8056 158.95 30.309 162.564 29.9703 170.858" stroke="#4B4B4B" stroke-width="1.5" stroke-linecap="round"/>
<path d="M20.5 153.318C21.879 159.645 22.1203 163.519 20.6371 171.605" stroke="#4B4B4B" stroke-width="1.5" stroke-linecap="round"/>
<path d="M22.3085 91.0791C36.3975 72.6856 35.0882 59.5269 28.8118 34.8388L61.7237 35.7039C69.9792 59.9312 75.817 71.6872 61.6503 90.4869C43.0281 113.12 41.7169 129.328 52.5417 159.304C53.0493 160.71 51.9111 162.173 50.4262 162.005L18.0013 158.341C17.2243 158.253 16.5644 157.706 16.3232 156.962C5.43453 123.374 6.64609 108.831 22.3085 91.0791Z" fill="#4B4B4B"/>
<path d="M49.957 151.735L14.1543 150.201L16.4002 157.802C16.633 158.59 17.3236 159.155 18.1418 159.228L50.5878 162.102C52.0348 162.23 53.1314 160.821 52.6524 159.45L49.957 151.735Z" fill="#FFFFF0"/>
<path d="M180.823 0.971609C142.945 21.3269 115.506 23.1095 68.7211 29.635L186.229 31.5541C185.434 19.599 184.596 12.91 180.823 0.971609Z" fill="#A3A397"/>
<path d="M15.4559 21.3636C79.7366 22.9055 117.51 31.2947 191.608 17.4044C195.025 29.2784 196.901 35.941 192.353 48.3814C125.158 64.1392 23.1751 68.1832 18.6793 59.4344C14.1835 50.6856 15.4559 21.3636 15.4559 21.3636Z" fill="#4B4B4B"/>
<path d="M25.6344 62.497L29.7107 21.9823L15.5761 21.3531C15.0075 39.6446 14.8059 49.7096 18.8762 60.3304C20.2563 60.9172 22.5262 61.758 25.6344 62.497Z" fill="#FFFFF0"/>
<path d="M61.4316 64.0311C56.7981 46.8329 55.6597 37.7184 58.91 23.1621L91.9165 24.9322C89.0323 38.5793 90.41 46.7896 95.9952 62.0176C82.9571 63.7442 75.2347 63.8574 61.4316 64.0311Z" fill="#FFFFF0"/>
<path d="M130.488 59.0979C127.563 45.6515 126.634 38.4015 127.549 25.003C138.337 24.7486 145.32 23.7791 157.376 22.4776C159.329 36.2902 159.801 43.2534 158.297 54.9174C150.158 56.3067 148.13 56.859 130.488 59.0979Z" fill="#F5F5DC"/>
<path d="M182.487 19.0908L191.731 17.3952C195.494 30.5763 196.058 37.4724 192.476 48.3723L186.028 49.8311C187.344 37.9261 186.848 31.2099 182.487 19.0908Z" fill="#F5F5DC"/>
<path d="M182.36 19.1018L191.604 17.4061C195.94 30.5777 196.316 37.415 192.349 48.3832L185.901 49.842C187.217 37.937 186.721 31.2208 182.36 19.1018Z" fill="#FFFFF0"/>
<path d="M70.2346 69.6759L32.5677 68.3004C32.2886 75.2908 25.6375 86.2331 26.4925 85.2478C27.3475 84.2624 59.9595 92.4566 59.9595 92.4566C66.1977 84.7162 68.974 80.0041 70.2346 69.6759Z" fill="#F5F5DC"/>
<path d="M13.0358 103.733C13.0358 103.733 51.1632 110.547 49.2991 110.705C47.5425 110.853 45.2741 129.053 46.1333 130.895C46.3388 130.972 46.4096 131.022 46.3271 131.041C46.2502 131.059 46.1859 131.007 46.1333 130.895C43.0191 129.725 8.97832 122.335 8.97832 122.335C8.9673 114.494 9.73185 111.106 13.0358 103.733Z" fill="#FFFFF0"/>
</svg>
