<svg width="311" height="255" viewBox="0 0 311 255" fill="none" xmlns="http://www.w3.org/2000/svg">
<g filter="url(#filter0_d_0_1)">
<rect x="4" width="303" height="246" rx="30" fill="#D9D9D9" fill-opacity="0.46" shape-rendering="crispEdges"/>
</g>
<rect x="42" y="31" width="228" height="129" fill="white"/>
<rect x="78" y="183" width="156" height="31" rx="15.5" fill="#D9D9D9"/>
<path d="M91.0586 96.3979C111.655 108.795 122.569 109.4 141.508 105.249" stroke="#557245" stroke-width="2" stroke-linecap="round"/>
<path d="M82.3964 100.363C80.4733 100.623 92.7978 106.451 95.5333 101.073C91.3981 95.2523 84.3195 100.103 82.3964 100.363Z" fill="#557245"/>
<path d="M95.5333 101.073C92.7978 106.451 80.4733 100.623 82.3964 100.363C84.3195 100.103 91.3981 95.2523 95.5333 101.073ZM95.5333 101.073L99.3937 101.188" stroke="#557245" stroke-width="0.4" stroke-linecap="round"/>
<path d="M97.4878 90.4587C96.4163 89.026 94.7933 100.307 101.99 100.942C106.913 96.0746 98.5592 91.8914 97.4878 90.4587Z" fill="#557245"/>
<path d="M101.99 100.942C94.7933 100.307 96.4163 89.026 97.4878 90.4587C98.5592 91.8914 106.913 96.0746 101.99 100.942ZM101.99 100.942L102.888 103.006" stroke="#557245" stroke-width="0.4" stroke-linecap="round"/>
<path d="M116.267 95.6955C115.196 94.2628 113.573 105.544 120.769 106.179C125.692 101.311 117.338 97.1282 116.267 95.6955Z" fill="#557245"/>
<path d="M120.769 106.179C113.573 105.544 115.196 94.2628 116.267 95.6955C117.338 97.1282 125.692 101.311 120.769 106.179ZM120.769 106.179L121.723 107.929" stroke="#557245" stroke-width="0.4" stroke-linecap="round"/>
<path d="M107.095 94.0852C106.024 92.6524 104.401 103.934 111.598 104.569C116.521 99.7011 108.167 95.5179 107.095 94.0852Z" fill="#557245"/>
<path d="M111.598 104.569C104.401 103.934 106.024 92.6524 107.095 94.0852C108.167 95.5179 116.521 99.7011 111.598 104.569ZM111.598 104.569L112.496 106.632" stroke="#557245" stroke-width="0.4" stroke-linecap="round"/>
<path d="M124.896 95.9157C123.825 94.483 122.202 105.764 129.398 106.399C134.321 101.532 125.967 97.3485 124.896 95.9157Z" fill="#557245"/>
<path d="M129.398 106.399C122.202 105.764 123.825 94.483 124.896 95.9157C125.967 97.3485 134.321 101.532 129.398 106.399ZM129.398 106.399L130.026 107.768" stroke="#557245" stroke-width="0.4" stroke-linecap="round"/>
<path d="M92.2945 108.831C90.3549 109.024 99.1925 100.713 104.352 105.164C103.24 111.6 94.234 108.638 92.2945 108.831Z" fill="#557245"/>
<path d="M104.352 105.164C99.1925 100.713 90.3549 109.024 92.2945 108.831C94.234 108.638 103.24 111.6 104.352 105.164ZM104.352 105.164L106.733 104.45" stroke="#557245" stroke-width="0.4" stroke-linecap="round"/>
<path d="M102.771 111.964C100.831 112.157 109.669 103.846 114.829 108.297C113.716 114.734 104.711 111.771 102.771 111.964Z" fill="#557245"/>
<path d="M114.829 108.297C109.669 103.846 100.831 112.157 102.771 111.964C104.711 111.771 113.716 114.734 114.829 108.297ZM114.829 108.297L117.209 107.583" stroke="#557245" stroke-width="0.4" stroke-linecap="round"/>
<path d="M116.313 115.935C114.614 116.673 119.293 106.158 125.86 108.97C127.494 115.481 118.013 115.196 116.313 115.935Z" fill="#557245"/>
<path d="M125.86 108.97C119.293 106.158 114.614 116.673 116.313 115.935C118.013 115.196 127.494 115.481 125.86 108.97ZM125.86 108.97L127.749 107.605" stroke="#557245" stroke-width="0.4" stroke-linecap="round"/>
<path d="M86.6928 84.6779C85.6214 83.2452 83.9983 94.5265 91.1951 95.1617C96.1181 90.2938 87.7642 86.1106 86.6928 84.6779Z" fill="#557245"/>
<path d="M91.1951 95.1617C83.9983 94.5265 85.6214 83.2452 86.6928 84.6779C87.7642 86.1106 96.1181 90.2938 91.1951 95.1617ZM91.1951 95.1617L92.0931 97.2251" stroke="#557245" stroke-width="0.4" stroke-linecap="round"/>
<path d="M224.947 95.2217C204.351 107.618 193.437 108.223 174.498 104.072" stroke="#557245" stroke-width="2" stroke-linecap="round"/>
<path d="M233.606 99.1873C235.529 99.4474 223.204 105.275 220.469 99.8971C224.604 94.0766 231.682 98.9272 233.606 99.1873Z" fill="#557245"/>
<path d="M220.469 99.8971C223.204 105.275 235.529 99.4474 233.606 99.1873C231.682 98.9272 224.604 94.0766 220.469 99.8971ZM220.469 99.8971L216.608 100.012" stroke="#557245" stroke-width="0.4" stroke-linecap="round"/>
<path d="M218.516 89.2829C219.588 87.8502 221.211 99.1314 214.014 99.7667C209.091 94.8988 217.445 90.7156 218.516 89.2829Z" fill="#557245"/>
<path d="M214.014 99.7667C221.211 99.1314 219.588 87.8502 218.516 89.2829C217.445 90.7156 209.091 94.8988 214.014 99.7667ZM214.014 99.7667L213.116 101.83" stroke="#557245" stroke-width="0.4" stroke-linecap="round"/>
<path d="M199.743 94.5183C200.814 93.0855 202.437 104.367 195.24 105.002C190.317 100.134 198.671 95.951 199.743 94.5183Z" fill="#557245"/>
<path d="M195.24 105.002C202.437 104.367 200.814 93.0855 199.743 94.5183C198.671 95.951 190.317 100.134 195.24 105.002ZM195.24 105.002L194.287 106.751" stroke="#557245" stroke-width="0.4" stroke-linecap="round"/>
<path d="M208.917 92.9099C209.988 91.4771 211.611 102.758 204.414 103.394C199.491 98.5258 207.845 94.3426 208.917 92.9099Z" fill="#557245"/>
<path d="M204.414 103.394C211.611 102.758 209.988 91.4771 208.917 92.9099C207.845 94.3426 199.491 98.5258 204.414 103.394ZM204.414 103.394L203.516 105.457" stroke="#557245" stroke-width="0.4" stroke-linecap="round"/>
<path d="M191.11 94.7385C192.181 93.3057 193.804 104.587 186.608 105.222C181.685 100.354 190.038 96.1712 191.11 94.7385Z" fill="#557245"/>
<path d="M186.608 105.222C193.804 104.587 192.181 93.3057 191.11 94.7385C190.038 96.1712 181.685 100.354 186.608 105.222ZM186.608 105.222L185.98 106.591" stroke="#557245" stroke-width="0.4" stroke-linecap="round"/>
<path d="M223.709 107.656C225.649 107.849 216.811 99.5379 211.652 103.989C212.764 110.425 221.77 107.463 223.709 107.656Z" fill="#557245"/>
<path d="M211.652 103.989C216.811 99.5379 225.649 107.849 223.709 107.656C221.77 107.463 212.764 110.425 211.652 103.989ZM211.652 103.989L209.271 103.275" stroke="#557245" stroke-width="0.4" stroke-linecap="round"/>
<path d="M213.235 110.788C215.174 110.982 206.337 102.67 201.177 107.121C202.29 113.558 211.295 110.595 213.235 110.788Z" fill="#557245"/>
<path d="M201.177 107.121C206.337 102.67 215.174 110.982 213.235 110.788C211.295 110.595 202.29 113.558 201.177 107.121ZM201.177 107.121L198.797 106.408" stroke="#557245" stroke-width="0.4" stroke-linecap="round"/>
<path d="M199.693 114.759C201.392 115.498 196.713 104.982 190.146 107.795C188.512 114.305 197.993 114.02 199.693 114.759Z" fill="#557245"/>
<path d="M190.146 107.795C196.713 104.982 201.392 115.498 199.693 114.759C197.993 114.02 188.512 114.305 190.146 107.795ZM190.146 107.795L188.256 106.43" stroke="#557245" stroke-width="0.4" stroke-linecap="round"/>
<path d="M229.313 83.5021C230.384 82.0694 232.008 93.3507 224.811 93.9859C219.888 89.118 228.242 84.9349 229.313 83.5021Z" fill="#557245"/>
<path d="M224.811 93.9859C232.008 93.3507 230.384 82.0694 229.313 83.5021C228.242 84.9349 219.888 89.118 224.811 93.9859ZM224.811 93.9859L223.913 96.0493" stroke="#557245" stroke-width="0.4" stroke-linecap="round"/>
<path d="M124.475 133.391C126.009 131.802 127.195 129.968 127.551 128.412C125.771 128.915 123.805 130.124 122.171 131.589C119.635 133.863 122.132 135.819 124.475 133.391Z" fill="#F4B42A"/>
<path d="M126.694 135.299C127.819 133.417 128.062 131.368 127.085 130.218C124.994 131.636 123.454 133.779 123.021 135.587C122.544 137.575 125.476 137.335 126.694 135.299Z" fill="#F4B42A"/>
<path d="M120.897 128.421C122.955 127.645 125.025 127.763 125.994 128.92C124.227 130.722 121.839 131.859 119.974 131.97C117.923 132.091 118.67 129.26 120.897 128.421Z" fill="#F4B42A"/>
<path d="M127.838 130.446C127.886 129.73 126.329 127.993 125.608 127.952C125.122 127.925 124.857 128.439 125.096 128.861C125.662 129.86 125.975 130.221 126.824 130.925C127.215 131.25 127.804 130.951 127.838 130.446Z" fill="#538736"/>
<path d="M127.084 128.797L134.799 122.829" stroke="#538736" stroke-width="2.5" stroke-linecap="round"/>
<path d="M183.256 72.4824L181.115 78.397" stroke="#DC9909" stroke-width="0.4"/>
<path d="M183.914 74.7993L180.952 80.4203" stroke="#DC9909" stroke-width="0.4"/>
<path d="M185.957 74.7988L182.402 80.0614" stroke="#DC9909" stroke-width="0.4"/>
<path d="M187.592 76.6045L183.927 81.7723" stroke="#DC9909" stroke-width="0.4"/>
<path d="M180.253 77.0684C179.058 79.5178 178.417 82.2952 178.75 84.3302C180.625 83.0486 182.36 80.695 183.433 78.2482C184.738 75.2738 181.682 74.1418 180.253 77.0684Z" fill="#F4B42A"/>
<path d="M176.89 76.1461C176.538 78.6755 177.347 81.2398 179.092 82.3517C180.692 80.12 181.217 77.1369 180.609 74.9455C180.03 72.8537 177.22 73.7751 176.89 76.1461Z" fill="#F4B42A"/>
<path d="M187.528 83.5839C185.671 84.6337 183.56 85.0693 182.056 84.5347C183.087 82.7002 184.939 81.1202 186.811 80.2751C189.237 79.1798 189.898 82.2446 187.528 83.5839Z" fill="#F4B42A"/>
<path d="M185.444 81.0222C184.12 82.9799 182.132 84.55 180.233 84.9007C180.27 82.7296 181.356 80.3268 182.88 78.6051C184.696 76.5541 186.995 78.7289 185.444 81.0222Z" fill="#F4B42A"/>
<path d="M177.523 82.5204C177.934 83.4493 181.687 85.4754 182.695 85.3154C183.457 85.1943 183.614 84.2698 182.989 83.8195C181.556 82.7859 180.193 82.0075 178.599 81.2843C177.864 80.9507 177.197 81.7838 177.523 82.5204Z" fill="#538736"/>
<path d="M179.956 83.7354L174.263 92.5565" stroke="#538736" stroke-width="2.5" stroke-linecap="round"/>
<ellipse cx="0.620272" cy="0.79427" rx="0.620272" ry="0.79427" transform="matrix(0.867119 0.4981 -0.501902 0.864924 182.5 71.2783)" fill="#DC9909"/>
<ellipse cx="0.620272" cy="0.79427" rx="0.620272" ry="0.79427" transform="matrix(0.867119 0.4981 -0.501902 0.864924 184.082 73.0386)" fill="#DC9909"/>
<ellipse cx="0.620272" cy="0.79427" rx="0.620272" ry="0.79427" transform="matrix(0.867119 0.4981 -0.501902 0.864924 185.66 74.7993)" fill="#DC9909"/>
<ellipse cx="0.620272" cy="0.79427" rx="0.620272" ry="0.79427" transform="matrix(0.867119 0.4981 -0.501902 0.864924 187.24 76.5586)" fill="#DC9909"/>
<path d="M191.637 90.5954C184.318 103.789 180.17 111.026 167.409 104.513C168.687 89.1459 177.116 89.8969 191.637 90.5954Z" fill="#5D8F40"/>
<path d="M187.045 93.0947C185.195 94.0212 175.263 96.6742 169.559 103.139" stroke="#5C4033" stroke-width="0.5" stroke-linecap="round"/>
<path d="M192.621 124.615C185.302 111.421 181.155 104.184 168.393 110.697C169.672 126.064 178.1 125.313 192.621 124.615Z" fill="#5D8F40"/>
<path d="M188.029 122.114C186.179 121.188 176.248 118.535 170.543 112.07" stroke="#5C4033" stroke-width="0.5" stroke-linecap="round"/>
<path d="M116.101 70.9755C115.367 89.5942 115.109 99.8855 133.186 100.417C141.879 83.0331 132.269 78.8413 116.101 70.9755Z" fill="#5D8F40"/>
<path d="M119.43 76.4058C120.824 78.5065 129.828 87.2732 131.76 97.6546" stroke="#5C4033" stroke-width="0.5" stroke-linecap="round"/>
<path d="M131.792 134.316C128.874 119.528 127.377 111.332 141.36 108.159C150.309 120.749 143.367 125.564 131.792 134.316Z" fill="#5D8F40"/>
<path d="M133.695 129.465C134.514 127.572 140.408 119.188 140.601 110.587" stroke="#5C4033" stroke-width="0.5" stroke-linecap="round"/>
<path d="M171.809 76.0574C160.021 85.5196 153.578 90.8403 162.241 102.214C177.229 98.2923 175.022 90.1642 171.809 76.0574Z" fill="#5D8F40"/>
<path d="M170.133 80.9878C169.537 82.9615 168.636 93.1533 163.227 99.8659" stroke="#5C4033" stroke-width="0.5" stroke-linecap="round"/>
<path d="M138.422 72.9043C131.006 75.1992 133.5 91.4692 142.671 100.152C149.481 88.3959 146.61 72.8049 139.209 72.7855C138.945 72.7848 138.674 72.8262 138.422 72.9043Z" fill="#FEAAA4"/>
<path d="M119.87 88.3308C117.169 95.7743 131.389 103.543 143.699 101.277C138.613 88.6287 124.689 81.5901 120.233 87.6501C120.082 87.8554 119.957 88.0899 119.87 88.3308Z" fill="#FEAAA4"/>
<path d="M165.824 111.059C168.524 103.616 154.304 95.8472 141.994 98.113C147.081 110.761 161.004 117.8 165.461 111.74C165.612 111.535 165.736 111.3 165.824 111.059Z" fill="#FEAAA4"/>
<path d="M147.328 126.13C154.744 123.835 152.25 107.565 143.079 98.8823C136.269 110.639 139.14 126.23 146.541 126.249C146.805 126.25 147.076 126.208 147.328 126.13Z" fill="#FEAAA4"/>
<path d="M163.795 82.6218C167.712 89.4726 155.029 99.6448 142.524 99.5995C145.385 86.2424 157.897 76.8393 163.317 82.0094C163.503 82.1865 163.667 82.3976 163.795 82.6218Z" fill="#FEAAA4"/>
<path d="M122.086 116.513C118.169 109.662 130.852 99.4894 143.357 99.5348C140.496 112.892 127.983 122.295 122.564 117.125C122.378 116.948 122.214 116.737 122.086 116.513Z" fill="#FEAAA4"/>
<ellipse cx="143.326" cy="99.4214" rx="5.0702" ry="5.18507" fill="#332F2F"/>
<path d="M162.762 86.6746C157.983 88.3443 159.666 99.0282 165.713 104.753C170.202 97.005 168.366 86.7529 163.542 86.5572C163.279 86.5465 163.011 86.5875 162.762 86.6746Z" fill="#8D3029"/>
<path d="M150.503 97.0129C148.902 101.925 158.273 106.995 166.394 105.501C163.039 97.1616 153.908 92.4894 150.863 96.3378C150.705 96.5375 150.582 96.7691 150.503 97.0129Z" fill="#8D3029"/>
<path d="M181.152 111.884C182.752 106.971 173.381 101.901 165.26 103.396C168.615 111.735 177.747 116.407 180.791 112.559C180.949 112.359 181.072 112.127 181.152 111.884Z" fill="#8D3029"/>
<path d="M168.935 121.987C173.714 120.317 172.032 109.633 165.984 103.909C161.495 111.657 163.331 121.909 168.155 122.104C168.419 122.115 168.686 122.074 168.935 121.987Z" fill="#8D3029"/>
<path d="M179.823 93.207C182.227 97.7606 173.862 104.414 165.613 104.384C167.499 95.5781 175.695 89.3567 179.348 92.5998C179.54 92.77 179.702 92.9785 179.823 93.207Z" fill="#8D3029"/>
<path d="M151.956 115.52C149.553 110.966 157.918 104.313 166.167 104.343C164.28 113.148 156.084 119.37 152.431 116.127C152.239 115.957 152.077 115.748 151.956 115.52Z" fill="#8D3029"/>
<ellipse cx="166.15" cy="104.267" rx="3.37232" ry="3.44798" fill="#393333"/>
<rect x="125.148" y="183" width="7.69811" height="2.77931" rx="1.38966" fill="#5C4033"/>
<path d="M138.507 205.769C138.507 206.765 138.258 207.752 137.775 208.673C137.291 209.594 136.582 210.431 135.689 211.135C134.795 211.84 133.734 212.399 132.567 212.781C131.399 213.162 130.148 213.358 128.884 213.358C127.621 213.358 126.369 213.162 125.202 212.781C124.034 212.399 122.974 211.84 122.08 211.135C121.187 210.431 120.478 209.594 119.994 208.673C119.511 207.752 119.262 206.765 119.262 205.769L128.884 205.769H138.507Z" fill="#C48D27"/>
<path d="M129.679 213.359C129.679 213.443 129.658 213.526 129.618 213.604C129.579 213.682 129.52 213.753 129.447 213.812C129.373 213.872 129.286 213.919 129.189 213.951C129.093 213.983 128.99 214 128.886 214C128.782 214 128.679 213.983 128.583 213.951C128.487 213.919 128.399 213.872 128.326 213.812C128.252 213.753 128.194 213.682 128.154 213.604C128.114 213.526 128.094 213.443 128.094 213.359L128.886 213.359H129.679Z" fill="#5C4033"/>
<path d="M138.507 205.769H119.262V192.407H138.507V205.769Z" fill="#C48D27"/>
<path d="M141 194.224C141 192.947 140.69 191.682 140.087 190.502C139.483 189.321 138.6 188.249 137.485 187.346C136.371 186.442 135.048 185.726 133.592 185.237C132.136 184.748 130.576 184.497 129 184.497C127.424 184.497 125.864 184.748 124.408 185.237C122.952 185.726 121.629 186.442 120.515 187.346C119.4 188.249 118.517 189.321 117.913 190.502C117.31 191.682 117 192.947 117 194.224L129 194.224H141Z" fill="#7C462C"/>
<path d="M146.48 184.96C146.8 184.8 147.16 184.707 147.56 184.68C147.96 184.627 148.387 184.6 148.84 184.6H163.32C163.693 184.6 164.093 184.587 164.52 184.56C164.947 184.533 165.333 184.613 165.68 184.8C166.16 185.067 166.44 185.493 166.52 186.08C166.6 186.64 166.547 187.28 166.36 188C166.2 188.693 165.947 189.44 165.6 190.24C165.253 191.013 164.893 191.76 164.52 192.48C164.147 193.173 163.787 193.813 163.44 194.4C163.093 194.96 162.853 195.387 162.72 195.68C162.293 196.48 161.893 197.213 161.52 197.88C161.173 198.547 160.827 199.213 160.48 199.88C160.16 200.547 159.813 201.213 159.44 201.88C159.093 202.547 158.707 203.28 158.28 204.08C157.747 205.173 157.133 206.32 156.44 207.52C155.773 208.693 155.133 209.8 154.52 210.84C154.333 211.16 154.12 211.48 153.88 211.8C153.64 212.12 153.36 212.387 153.04 212.6C152.747 212.813 152.4 212.947 152 213C151.627 213.053 151.213 212.973 150.76 212.76C150.067 212.387 149.613 211.84 149.4 211.12C149.213 210.4 149.28 209.733 149.6 209.12C150.107 208.213 150.6 207.307 151.08 206.4C151.56 205.467 152.04 204.547 152.52 203.64C153.24 202.28 153.907 200.973 154.52 199.72C155.16 198.467 155.84 197.16 156.56 195.8C156.773 195.4 157.067 194.92 157.44 194.36C157.813 193.773 158.16 193.173 158.48 192.56C158.827 191.947 159.093 191.347 159.28 190.76C159.493 190.147 159.56 189.613 159.48 189.16C158.547 189.08 157.693 189.053 156.92 189.08C156.173 189.08 155.347 189.08 154.44 189.08H150.56C150.08 189.08 149.56 189.093 149 189.12C148.467 189.147 147.96 189.12 147.48 189.04C147 188.933 146.587 188.733 146.24 188.44C145.92 188.147 145.72 187.667 145.64 187C145.587 186.44 145.64 186 145.8 185.68C145.96 185.36 146.187 185.12 146.48 184.96ZM180.499 212.88C180.019 212.88 179.525 212.853 179.019 212.8C178.539 212.72 178.059 212.587 177.579 212.4C176.859 212.107 176.165 211.72 175.499 211.24C174.859 210.733 174.272 210.173 173.739 209.56C172.459 208.12 171.485 206.427 170.819 204.48C170.152 202.507 169.819 200.507 169.819 198.48C169.819 195.707 170.352 193.027 171.419 190.44C171.605 189.987 171.845 189.507 172.139 189C172.459 188.493 172.805 188.013 173.179 187.56C173.579 187.08 173.979 186.653 174.379 186.28C174.805 185.907 175.232 185.627 175.659 185.44C176.245 185.173 176.885 184.907 177.579 184.64C178.432 184.373 179.392 184.253 180.459 184.28C181.525 184.307 182.499 184.427 183.379 184.64C184.605 184.933 185.659 185.467 186.539 186.24C187.419 186.987 188.165 187.893 188.779 188.96C189.392 190 189.872 191.147 190.219 192.4C190.565 193.627 190.819 194.88 190.979 196.16C191.085 197.013 191.125 197.867 191.099 198.72C191.072 199.547 191.005 200.387 190.899 201.24C190.792 202.013 190.659 202.787 190.499 203.56C190.365 204.333 190.179 205.08 189.939 205.8C189.699 206.52 189.392 207.213 189.019 207.88C188.645 208.52 188.179 209.12 187.619 209.68C186.605 210.667 185.499 211.44 184.299 212C183.125 212.533 181.859 212.827 180.499 212.88ZM180.459 189.56C180.085 189.56 179.712 189.6 179.339 189.68C178.992 189.733 178.659 189.867 178.339 190.08C177.965 190.32 177.632 190.613 177.339 190.96C177.045 191.307 176.792 191.667 176.579 192.04C176.019 193 175.632 194.027 175.419 195.12C175.205 196.213 175.099 197.32 175.099 198.44C175.099 199.587 175.219 200.773 175.459 202C175.725 203.227 176.192 204.347 176.859 205.36C177.179 205.84 177.552 206.267 177.979 206.64C178.432 206.987 178.952 207.24 179.539 207.4C180.072 207.533 180.605 207.573 181.139 207.52C181.699 207.467 182.219 207.293 182.699 207C183.472 206.52 184.085 205.88 184.539 205.08C184.992 204.28 185.325 203.413 185.539 202.48C185.779 201.547 185.912 200.587 185.939 199.6C185.992 198.613 185.992 197.72 185.939 196.92C185.885 196.12 185.752 195.28 185.539 194.4C185.325 193.52 185.005 192.72 184.579 192C184.179 191.28 183.632 190.693 182.939 190.24C182.272 189.76 181.445 189.533 180.459 189.56Z" fill="black"/>
<defs>
<filter id="filter0_d_0_1" x="0" y="0" width="311" height="255" filterUnits="userSpaceOnUse" color-interpolation-filters="sRGB">
<feFlood flood-opacity="0" result="BackgroundImageFix"/>
<feColorMatrix in="SourceAlpha" type="matrix" values="0 0 0 0 0 0 0 0 0 0 0 0 0 0 0 0 0 0 127 0" result="hardAlpha"/>
<feOffset dy="5"/>
<feGaussianBlur stdDeviation="2"/>
<feComposite in2="hardAlpha" operator="out"/>
<feColorMatrix type="matrix" values="0 0 0 0 0 0 0 0 0 0 0 0 0 0 0 0 0 0 0.25 0"/>
<feBlend mode="normal" in2="BackgroundImageFix" result="effect1_dropShadow_0_1"/>
<feBlend mode="normal" in="SourceGraphic" in2="effect1_dropShadow_0_1" result="shape"/>
</filter>
</defs>
</svg>
