<svg width="100" height="43" viewBox="0 0 100 43" fill="none" xmlns="http://www.w3.org/2000/svg">
<path d="M7.63086 17.2734C20.666 24.3172 27.5733 24.6609 39.5596 22.3023" stroke="#557245" stroke-width="2" stroke-linecap="round"/>
<path d="M2.14926 19.5262C0.932141 19.674 8.73231 22.9851 10.4636 19.9295C7.84639 16.6223 3.36637 19.3784 2.14926 19.5262Z" fill="#557245"/>
<path d="M10.4636 19.9295C8.73231 22.9851 0.932141 19.674 2.14926 19.5262C3.36637 19.3784 7.84639 16.6223 10.4636 19.9295ZM10.4636 19.9295L12.9068 19.9949" stroke="#557245" stroke-width="0.4" stroke-linecap="round"/>
<path d="M11.6997 13.8993C11.0216 13.0853 9.9944 19.4952 14.5492 19.8562C17.665 17.0903 12.3778 14.7134 11.6997 13.8993Z" fill="#557245"/>
<path d="M14.5492 19.8562C9.9944 19.4952 11.0216 13.0853 11.6997 13.8993C12.3778 14.7134 17.665 17.0903 14.5492 19.8562ZM14.5492 19.8562L15.1176 21.0286" stroke="#557245" stroke-width="0.4" stroke-linecap="round"/>
<path d="M23.5845 16.8749C22.9064 16.0609 21.8792 22.4708 26.434 22.8318C29.5497 20.0659 24.2626 17.689 23.5845 16.8749Z" fill="#557245"/>
<path d="M26.434 22.8318C21.8792 22.4708 22.9064 16.0609 23.5845 16.8749C24.2626 17.689 29.5497 20.0659 26.434 22.8318ZM26.434 22.8318L27.0376 23.8258" stroke="#557245" stroke-width="0.4" stroke-linecap="round"/>
<path d="M17.7798 15.9599C17.1017 15.1458 16.0745 21.5558 20.6293 21.9167C23.7451 19.1508 18.4579 16.774 17.7798 15.9599Z" fill="#557245"/>
<path d="M20.6293 21.9167C16.0745 21.5558 17.1017 15.1458 17.7798 15.9599C18.4579 16.774 23.7451 19.1508 20.6293 21.9167ZM20.6293 21.9167L21.1977 23.0891" stroke="#557245" stroke-width="0.4" stroke-linecap="round"/>
<path d="M29.0454 16.9999C28.3673 16.1859 27.3401 22.5958 31.8949 22.9568C35.0107 20.1909 29.7235 17.814 29.0454 16.9999Z" fill="#557245"/>
<path d="M31.8949 22.9568C27.3401 22.5958 28.3673 16.1859 29.0454 16.9999C29.7235 17.814 35.0107 20.1909 31.8949 22.9568ZM31.8949 22.9568L32.2919 23.7342" stroke="#557245" stroke-width="0.4" stroke-linecap="round"/>
<path d="M8.41295 24.3382C7.1854 24.448 12.7787 19.7255 16.0441 22.2546C15.34 25.9118 9.64049 24.2284 8.41295 24.3382Z" fill="#557245"/>
<path d="M16.0441 22.2546C12.7787 19.7255 7.1854 24.448 8.41295 24.3382C9.64049 24.2284 15.34 25.9118 16.0441 22.2546ZM16.0441 22.2546L17.5509 21.8491" stroke="#557245" stroke-width="0.4" stroke-linecap="round"/>
<path d="M15.0438 26.1185C13.8163 26.2283 19.4095 21.5057 22.675 24.0348C21.9709 27.692 16.2713 26.0086 15.0438 26.1185Z" fill="#557245"/>
<path d="M22.675 24.0348C19.4095 21.5057 13.8163 26.2283 15.0438 26.1185C16.2713 26.0086 21.9709 27.692 22.675 24.0348ZM22.675 24.0348L24.1817 23.6293" stroke="#557245" stroke-width="0.4" stroke-linecap="round"/>
<path d="M23.614 28.3742C22.5386 28.7939 25.4997 22.8189 29.6561 24.4171C30.6899 28.1162 24.6894 27.9545 23.614 28.3742Z" fill="#557245"/>
<path d="M29.6561 24.4171C25.4997 22.8189 22.5386 28.7939 23.614 28.3742C24.6894 27.9545 30.6899 28.1162 29.6561 24.4171ZM29.6561 24.4171L30.8518 23.6414" stroke="#557245" stroke-width="0.4" stroke-linecap="round"/>
<path d="M4.8677 10.6152C4.18959 9.80109 3.16237 16.2111 7.71719 16.572C10.833 13.8061 5.5458 11.4292 4.8677 10.6152Z" fill="#557245"/>
<path d="M7.71719 16.572C3.16237 16.2111 4.18959 9.80109 4.8677 10.6152C5.5458 11.4292 10.833 13.8061 7.71719 16.572ZM7.71719 16.572L8.28558 17.7444" stroke="#557245" stroke-width="0.4" stroke-linecap="round"/>
<path d="M92.3672 16.6055C79.3321 23.6492 72.4248 23.993 60.4385 21.6343" stroke="#557245" stroke-width="2" stroke-linecap="round"/>
<path d="M97.8468 18.8582C99.064 19.006 91.2638 22.3172 89.5325 19.2615C92.1497 15.9543 96.6297 18.7104 97.8468 18.8582Z" fill="#557245"/>
<path d="M89.5325 19.2615C91.2638 22.3172 99.064 19.006 97.8468 18.8582C96.6297 18.7104 92.1497 15.9543 89.5325 19.2615ZM89.5325 19.2615L87.0893 19.3269" stroke="#557245" stroke-width="0.4" stroke-linecap="round"/>
<path d="M88.2964 13.2314C88.9745 12.4173 90.0017 18.8273 85.4469 19.1882C82.3311 16.4223 87.6183 14.0454 88.2964 13.2314Z" fill="#557245"/>
<path d="M85.4469 19.1882C90.0017 18.8273 88.9745 12.4173 88.2964 13.2314C87.6183 14.0454 82.3311 16.4223 85.4469 19.1882ZM85.4469 19.1882L84.8785 20.3606" stroke="#557245" stroke-width="0.4" stroke-linecap="round"/>
<path d="M76.4155 16.206C77.0936 15.3919 78.1208 21.8019 73.566 22.1628C70.4503 19.3969 75.7374 17.0201 76.4155 16.206Z" fill="#557245"/>
<path d="M73.566 22.1628C78.1208 21.8019 77.0936 15.3919 76.4155 16.206C75.7374 17.0201 70.4503 19.3969 73.566 22.1628ZM73.566 22.1628L72.9624 23.1568" stroke="#557245" stroke-width="0.4" stroke-linecap="round"/>
<path d="M82.2221 15.2919C82.9003 14.4779 83.9275 20.8878 79.3727 21.2488C76.2569 18.4828 81.544 16.106 82.2221 15.2919Z" fill="#557245"/>
<path d="M79.3727 21.2488C83.9275 20.8878 82.9003 14.4779 82.2221 15.2919C81.544 16.106 76.2569 18.4828 79.3727 21.2488ZM79.3727 21.2488L78.8043 22.4212" stroke="#557245" stroke-width="0.4" stroke-linecap="round"/>
<path d="M70.9526 16.331C71.6307 15.5169 72.6579 21.9269 68.1031 22.2878C64.9874 19.5219 70.2745 17.1451 70.9526 16.331Z" fill="#557245"/>
<path d="M68.1031 22.2878C72.6579 21.9269 71.6307 15.5169 70.9526 16.331C70.2745 17.1451 64.9874 19.5219 68.1031 22.2878ZM68.1031 22.2878L67.7062 23.0653" stroke="#557245" stroke-width="0.4" stroke-linecap="round"/>
<path d="M91.5851 23.6712C92.8126 23.781 87.2194 19.0585 83.954 21.5876C84.658 25.2448 90.3576 23.5614 91.5851 23.6712Z" fill="#557245"/>
<path d="M83.954 21.5876C87.2194 19.0585 92.8126 23.781 91.5851 23.6712C90.3576 23.5614 84.658 25.2448 83.954 21.5876ZM83.954 21.5876L82.4472 21.1821" stroke="#557245" stroke-width="0.4" stroke-linecap="round"/>
<path d="M84.9542 25.4505C86.1818 25.5603 80.5885 20.8378 77.3231 23.3669C78.0271 27.0241 83.7267 25.3407 84.9542 25.4505Z" fill="#557245"/>
<path d="M77.3231 23.3669C80.5885 20.8378 86.1818 25.5603 84.9542 25.4505C83.7267 25.3407 78.0271 27.0241 77.3231 23.3669ZM77.3231 23.3669L75.8163 22.9614" stroke="#557245" stroke-width="0.4" stroke-linecap="round"/>
<path d="M76.3841 27.7062C77.4595 28.1259 74.4983 22.1509 70.342 23.7491C69.3081 27.4483 75.3086 27.2865 76.3841 27.7062Z" fill="#557245"/>
<path d="M70.342 23.7491C74.4983 22.1509 77.4595 28.1259 76.3841 27.7062C75.3086 27.2865 69.3081 27.4483 70.342 23.7491ZM70.342 23.7491L69.1462 22.9735" stroke="#557245" stroke-width="0.4" stroke-linecap="round"/>
<path d="M95.1304 9.9472C95.8085 9.13312 96.8357 15.5431 92.2809 15.904C89.1651 13.1381 94.4522 10.7613 95.1304 9.9472Z" fill="#557245"/>
<path d="M92.2809 15.904C96.8357 15.5431 95.8085 9.13312 95.1304 9.9472C94.4522 10.7613 89.1651 13.1381 92.2809 15.904ZM92.2809 15.904L91.7125 17.0764" stroke="#557245" stroke-width="0.4" stroke-linecap="round"/>
<path d="M30.4429 36.197C30.5712 35.9453 30.6681 35.6992 30.7279 35.4642C30.4296 35.5399 30.1231 35.6437 29.8145 35.7709C26.4312 37.1649 29.0167 38.9941 30.4429 36.197Z" fill="#F4B42A"/>
<path d="M30.7553 38.0981C30.8977 37.4647 30.8058 36.8841 30.4326 36.4896C29.6371 36.974 28.9676 37.607 28.5006 38.2581C27.1326 40.1647 30.3381 39.9536 30.7553 38.0981Z" fill="#F4B42A"/>
<path d="M28.0246 35.1894C28.7476 35.1741 29.3717 35.3558 29.742 35.7526C29.0698 36.3682 28.2556 36.8472 27.4567 37.1451C25.117 38.0173 25.9064 35.2342 28.0246 35.1894Z" fill="#F4B42A"/>
<path d="M30.9082 36.6382C30.9368 36.233 29.9343 35.2263 29.4811 35.2019C29.1781 35.1857 29.0188 35.4725 29.1691 35.7111C29.5327 36.2885 29.7302 36.4925 30.2768 36.899C30.523 37.0822 30.8882 36.9213 30.9082 36.6382Z" fill="#538736"/>
<path d="M30.4319 35.683L35.3148 32.292" stroke="#538736" stroke-width="2.5" stroke-linecap="round"/>
<path d="M65.9824 3.68457L64.6272 7.04522" stroke="#DC9909" stroke-width="0.4"/>
<path d="M66.3984 5.00098L64.5239 8.1948" stroke="#DC9909" stroke-width="0.4"/>
<path d="M67.6914 5.00098L65.4417 7.99113" stroke="#DC9909" stroke-width="0.4"/>
<path d="M68.7266 6.02734L66.4071 8.9637" stroke="#DC9909" stroke-width="0.4"/>
<path d="M63.2567 8.38765C63.0764 9.12049 63.0225 9.82442 63.1306 10.4174C63.7353 10.0464 64.3168 9.51722 64.8317 8.90351C66.9013 6.43646 63.9792 5.4512 63.2567 8.38765Z" fill="#F4B42A"/>
<path d="M61.9813 7.2388C62.1581 8.11841 62.6261 8.88143 63.3465 9.29346C64.0039 8.47052 64.3744 7.46776 64.4485 6.52485C64.6235 4.29666 61.5657 5.17005 61.9813 7.2388Z" fill="#F4B42A"/>
<path d="M66.8472 10.6043C66.2559 10.6985 65.6928 10.6829 65.2233 10.533C65.5437 10.0209 65.9895 9.54371 66.5008 9.13379C68.7518 7.32884 69.4607 10.1877 66.8472 10.6043Z" fill="#F4B42A"/>
<path d="M66.0809 9.82026C65.45 10.2928 64.7503 10.6286 64.0688 10.7416C64.0821 10.0451 64.3069 9.30665 64.6737 8.61955C65.9321 6.26272 68.2426 8.20123 66.0809 9.82026Z" fill="#F4B42A"/>
<path d="M62.3952 9.47508C62.6482 10.0084 64.8977 11.0884 65.5384 10.9902C66.0358 10.914 66.1683 10.3555 65.7676 10.0978C64.8942 9.53624 64.0596 9.1077 63.0923 8.71032C62.6231 8.51755 62.1898 9.04207 62.3952 9.47508Z" fill="#538736"/>
<path d="M63.8934 10.0789L60.2908 15.091" stroke="#538736" stroke-width="2.5" stroke-linecap="round"/>
<ellipse cx="0.383004" cy="0.46478" rx="0.383004" ry="0.46478" transform="matrix(0.888771 0.458351 -0.542834 0.83984 65.5039 3.00098)" fill="#DC9909"/>
<ellipse cx="0.383004" cy="0.46478" rx="0.383004" ry="0.46478" transform="matrix(0.888771 0.458351 -0.542834 0.83984 66.5039 4.00098)" fill="#DC9909"/>
<ellipse cx="0.383004" cy="0.46478" rx="0.383004" ry="0.46478" transform="matrix(0.888771 0.458351 -0.542834 0.83984 67.5039 5.00098)" fill="#DC9909"/>
<ellipse cx="0.383004" cy="0.46478" rx="0.383004" ry="0.46478" transform="matrix(0.888771 0.458351 -0.542834 0.83984 68.5039 6.00098)" fill="#DC9909"/>
<path d="M71.2854 13.9777C66.6535 21.4744 64.0284 25.5862 55.9515 21.8856C56.7608 13.1542 62.0952 13.5809 71.2854 13.9777Z" fill="#5D8F40"/>
<path d="M68.3809 15.3975C67.21 15.9239 60.9244 17.4313 57.3139 21.1049" stroke="#5C4033" stroke-width="0.5" stroke-linecap="round"/>
<path d="M71.9104 33.3065C67.2785 25.8097 64.6534 21.698 56.5765 25.3986C57.3858 34.13 62.7202 33.7033 71.9104 33.3065Z" fill="#5D8F40"/>
<path d="M69.0039 31.8857C67.833 31.3593 61.5475 29.8519 57.9369 26.1783" stroke="#5C4033" stroke-width="0.5" stroke-linecap="round"/>
<path d="M23.4795 2.82872C23.0146 13.4078 22.8511 19.2553 34.292 19.5571C39.7942 9.67977 33.7116 7.29802 23.4795 2.82872Z" fill="#5D8F40"/>
<path d="M25.5859 5.91504C26.4682 7.10866 32.1669 12.0899 33.3897 17.9885" stroke="#5C4033" stroke-width="0.5" stroke-linecap="round"/>
<path d="M33.4112 38.8183C31.5647 30.416 30.6167 25.7591 39.467 23.9564C45.1303 31.1098 40.7369 33.8457 33.4112 38.8183Z" fill="#5D8F40"/>
<path d="M34.6152 36.0625C35.1334 34.9869 38.8636 30.2232 38.9859 25.3361" stroke="#5C4033" stroke-width="0.5" stroke-linecap="round"/>
<path d="M58.7374 5.71579C51.2765 11.0921 47.1991 14.1153 52.6816 20.5777C62.1675 18.3496 60.7708 13.7312 58.7374 5.71579Z" fill="#5D8F40"/>
<path d="M57.6758 8.5166C57.2987 9.63803 56.7282 15.429 53.3051 19.243" stroke="#5C4033" stroke-width="0.5" stroke-linecap="round"/>
<path d="M37.5063 3.95413C32.9378 5.36307 34.5355 14.5088 40.2969 19.4064C44.5746 12.7773 42.8172 4.0025 38.2125 3.85858C37.9741 3.85113 37.7327 3.88431 37.5063 3.95413Z" fill="#FEAAA4"/>
<path d="M25.8041 12.854C24.3901 17.0322 33.2575 21.3158 40.947 20.0451C37.7715 12.9563 29.1547 8.96855 26.2136 12.1657C26.0287 12.3666 25.8891 12.603 25.8041 12.854Z" fill="#FEAAA4"/>
<path d="M55.0103 25.4389C56.4243 21.2608 47.557 16.9772 39.8675 18.2478C43.043 25.3367 51.6598 29.3244 54.6009 26.1273C54.7857 25.9263 54.9254 25.6899 55.0103 25.4389Z" fill="#FEAAA4"/>
<path d="M43.3453 34.1367C47.9138 32.7278 46.3161 23.582 40.5547 18.6844C36.277 25.3135 38.0343 34.0883 42.6391 34.2322C42.8775 34.2397 43.1189 34.2065 43.3453 34.1367Z" fill="#FEAAA4"/>
<path d="M53.7479 9.5824C55.9575 13.4721 48.0255 19.1179 40.2031 19.0924C41.9919 11.5955 49.7408 6.29065 53.2356 8.99398C53.4459 9.15664 53.6208 9.35862 53.7479 9.5824Z" fill="#FEAAA4"/>
<path d="M27.1857 28.566C24.9761 24.6763 32.9081 19.0306 40.7305 19.056C38.9417 26.553 31.1927 31.8578 27.698 29.1545C27.4877 28.9918 27.3128 28.7898 27.1857 28.566Z" fill="#FEAAA4"/>
<ellipse cx="40.7109" cy="18.991" rx="3.20893" ry="2.94612" fill="#332F2F"/>
<path d="M52.9121 11.7833C50.0129 12.8347 51.0966 18.8052 54.8806 22.0212C57.6884 17.6708 56.5869 11.9307 53.6138 11.6889C53.3759 11.6695 53.1346 11.7027 52.9121 11.7833Z" fill="#8D3029"/>
<path d="M45.2007 17.7931C44.4797 20.5301 50.2752 23.2791 55.3111 22.4471C53.2329 17.8088 47.6508 15.167 45.6086 17.1087C45.4098 17.2977 45.2679 17.538 45.2007 17.7931Z" fill="#8D3029"/>
<path d="M64.7036 25.9051C65.4246 23.1681 59.6291 20.4192 54.5932 21.2512C56.6714 25.8895 62.2535 28.5312 64.2957 26.5895C64.4945 26.4005 64.6364 26.1602 64.7036 25.9051Z" fill="#8D3029"/>
<path d="M57.0195 31.7801C59.9187 30.7288 58.8351 24.7583 55.0511 21.5423C52.2432 25.8927 53.3447 31.6328 56.3179 31.8746C56.5558 31.894 56.7971 31.8608 57.0195 31.7801Z" fill="#8D3029"/>
<path d="M63.8865 15.6031C65.1409 18.1844 59.9436 21.8291 54.8171 21.8124C55.9886 16.9036 61.0037 13.4081 63.3764 15.0181C63.5975 15.1681 63.7746 15.3727 63.8865 15.6031Z" fill="#8D3029"/>
<path d="M46.0978 27.9975C44.8435 25.4161 50.0408 21.7715 55.1672 21.7882C53.9957 26.697 48.9807 30.1925 46.608 28.5825C46.3869 28.4325 46.2098 28.2279 46.0978 27.9975Z" fill="#8D3029"/>
<ellipse cx="55.1558" cy="21.7452" rx="2.13434" ry="1.95911" fill="#393333"/>
</svg>
