<svg width="220" height="202" viewBox="0 0 220 202" fill="none" xmlns="http://www.w3.org/2000/svg">
<path d="M1.90205 198.009C1.15959 193.704 -0.143232 191.314 0.0128518 187.065C0.535314 191.536 1.14854 193.996 4.841 198.009C2.61247 190.641 5.99425 189.539 8.19971 182.728C6.89452 190.732 4.52034 192.415 8.19971 198.009L11.5584 185.413L10.9288 198.009C12.919 192.923 15.5048 190.951 19.1156 187.065C16.3043 191.455 13.0737 193.129 13.2379 198.009H10.9288H8.19971H4.841H1.90205Z" fill="#34B41E"/>
<path d="M200.817 188.458C199.372 184.365 197.214 179.452 197.329 176.327L199.245 182.991C200.676 186.47 202.729 190.075 204.899 192.433C202.67 185.065 202.694 169.715 204.899 162.904C203.594 170.908 204.578 186.84 208.258 192.433V166.415L210.987 192.433C212.977 187.348 213.871 177.528 217.481 173.642C214.67 178.033 213.132 187.553 213.296 192.433L220 176.327L214.332 192.433H213.296H210.987H208.258H204.899H201.96L200.817 188.458Z" fill="#34B41E"/>
<rect x="52.0596" y="90.6307" width="123.013" height="107.378" rx="38" fill="#35230F"/>
<path d="M31.6026 99.2832C32.621 89.6403 34.5416 84.2192 40.0039 74.524L167.516 81.5449L170.433 105.292L175.263 122.844L182.63 146.326L187.668 167.86L189.977 178.805L197.114 182.846C176.509 184.499 179.142 194.832 175.263 194.498C172.361 187.628 172.579 189.677 174.004 182.846L178.204 165.102L170.433 146.326L169.173 126.518C167.194 120.347 163.766 115.907 163.292 109.393C160.215 97.9679 151.117 94.7206 135.778 99.2832C119.013 113.742 111.961 115.317 95.7232 114.791C85.3574 124.528 78.2442 132.84 74.9412 157.949C81.0471 177.031 78.6166 188.931 74.9412 198.32C69.6686 201.925 71.3057 202.645 64.3677 200.59L45.1326 190.781C31.8148 194.565 28.4525 202.548 16.0603 198.32C14.1583 182.43 12.9203 173.452 21.7312 161.8C27.4165 153.564 28.3248 147.009 27.6121 133.327C25.3105 119.62 26.2098 112.153 31.6026 99.2832Z" fill="#CB9372"/>
<path d="M26.1357 99.3036C27.1535 89.6528 29.0731 84.2271 34.5325 74.524H172.659L174.549 100.956L180.846 121.192L194.491 142.668L197.01 165.176L206.037 185.413V192.227C185.442 193.881 173.597 200.82 169.721 200.487C166.82 193.611 167.038 189.772 168.461 182.935L172.659 165.176L164.893 146.385L163.633 126.561C161.655 120.385 158.229 115.941 157.755 109.422C154.68 97.9872 145.587 94.7372 130.256 99.3036C113.5 113.775 104.292 116.763 88.0623 116.236C77.7019 125.982 74.5696 136.743 71.2684 161.872C77.3711 180.97 78.0906 189.025 74.4172 198.422C69.1473 202.03 65.8178 202.75 58.8835 200.693L43.5589 198.422C30.2481 202.208 22.9872 202.653 10.6016 198.422C8.70059 182.519 7.46324 173.533 16.2695 161.872C21.9518 153.629 22.8596 147.068 22.1472 133.375C19.8469 119.657 20.7457 112.184 26.1357 99.3036Z" fill="#643E24"/>
<path d="M34.0261 74.7028C51.2677 65.1859 65.1458 62.5823 92.1738 59.422C106.336 58.6703 113.79 58.5965 125.761 59.422C152.279 62.94 163.791 66.3182 169.405 72.046C178.665 78.3273 167.937 77.9464 141.925 86.2666C130.278 90.5967 124.315 91.0984 114.215 90.19C99.057 86.4923 90.6101 86.3814 75.5902 88.125C63.3722 89.0597 56.5822 87.7147 44.5221 82.7561C32.5544 82.8437 30.1723 80.4795 34.0261 74.7028Z" fill="#CC916F"/>
<path d="M98.9414 69.311C101.414 68.1237 108.437 66.5286 110.766 66.9713C111.691 67.147 111.747 68.8347 111.869 70.2024C112.183 73.7198 106.915 74.7905 102.899 76.1178C91.4151 79.9124 86.9315 76.7047 83.8402 76.0042C82.502 75.701 81.5153 74.5828 80.9184 73.3372C80.628 72.7312 80.6411 72.0636 80.824 71.3938C81.572 68.6549 84.1374 67.5225 87.3643 66.3424C90.499 65.196 92.9467 64.1463 95.7954 63.2457C102.731 61.053 112.789 62.4005 115.507 63.546C119.044 65.0366 119.202 72.2371 119.217 75.161C119.232 78.2344 115.406 78.9269 113.312 80.086C111.825 80.909 109.868 80.7141 104.285 81.4466C99.5007 82.0742 90.6974 82.7183 85.437 83.0175C75.4581 83.5851 70.8868 83.1536 67.9815 82.4319C63.3266 81.2757 60.2012 81.8147 57.3662 81.004C54.4074 80.1578 51.9598 78.7983 50.9116 77.0237C49.9715 75.4319 49.5381 73.482 49.6814 71.4397C49.9188 68.0576 54.1534 66.8962 62.6285 63.6322C66.4738 62.1512 73.0213 61.8203 83.714 60.4798C89.0657 59.8089 98.5069 59.1026 104.09 58.6947C113.742 57.9894 117.429 59.555 120.821 60.2365C125.424 61.1613 128.031 61.7209 130.4 63.6995C134.78 67.3582 134.853 70.8728 135.372 75.7822C135.679 78.6776 131.775 80.0905 128.943 82.1314C126.58 83.8345 123.619 83.5755 120.641 84.8118C116.789 85.4758 114.081 86.0396 111.59 86.3381C110.536 86.5108 109.911 86.7265 109.225 86.4645" stroke="#F4E8C1" stroke-linecap="round"/>
<path d="M138.768 61.1421C138.763 61.6233 140.382 63.5627 142.97 66.1558C143.549 66.7355 144.105 66.8096 144.594 67.1328C148.294 69.581 145.739 78.1447 144.526 80.0112C143.027 82.3174 140.236 84.1427 136.676 86.6508C135.857 87.2244 135.376 87.5452 134.887 87.8709C134.399 88.1965 133.917 88.5173 132.936 89.3339" stroke="#F4E8C1" stroke-linecap="round"/>
<path d="M154.322 65.5167C156.261 67.2957 157.88 69.551 158.774 71.8283C159.184 72.8723 159.668 74.577 159.348 76.842C157.564 79.6078 156.757 81.066 155.707 81.7951C155.138 82.043 154.497 82.043 153.35 83.0151" stroke="#F4E8C1" stroke-linecap="round"/>
<path d="M64 54L63 69M63 69L58 70M63 69V72.5M63 69H67" stroke="#DCBF71" stroke-width="2"/>
<path d="M39.1622 8.86679C32.8336 7.43454 29.2974 8.40065 23 11.4128C28.631 15.3448 31.9275 17.3647 39.1622 19.051C43.1214 15.072 42.6099 12.846 39.1622 8.86679Z" fill="#DCBF71"/>
<ellipse cx="11.0362" cy="13.9985" rx="11.0362" ry="13.9985" transform="matrix(0.992189 0.124744 -0.119059 0.992887 37.6885 0)" fill="#F8F9F3"/>
<path d="M36.0234 20.4597L54.672 21.7328C68.499 33.4116 73.4845 36.5121 79.5369 38.2821L115 52.2853C97.5526 52.244 89.8866 52.1259 79.5369 49.7393C55.8456 65.205 45.1781 63.2698 29.8072 43.3742C25.6945 32.4204 28.8111 27.9484 36.0234 20.4597Z" fill="#F8F9F3"/>
<ellipse cx="45.3781" cy="10.2756" rx="2.48649" ry="2.54605" fill="black"/>
<g filter="url(#filter0_d_419_88)">
<path d="M60.1831 52.2535C42.3913 49.2561 38.6489 46.2289 41.0662 29.5208C41.1658 28.8323 41.9351 28.4625 42.5448 28.7975C61.079 38.983 69.283 39.9266 84.7754 39.6234C85.7306 39.6047 86.1712 40.8008 85.4169 41.3871C74.5318 49.8481 70.457 50.1924 60.5593 52.2465C60.4378 52.2717 60.3055 52.2742 60.1831 52.2535Z" fill="#F8F9F3"/>
</g>
<path d="M88.5238 39.5551C75.7822 49.8696 70.6415 50.0559 59.933 52.2853L57.1713 48.4663L64.1023 47.1933L52.9131 42.1012H61.6158L57.1713 35.736C67.163 39.5382 76.0347 40.0442 88.5238 39.5551Z" fill="#596A7A"/>
<path d="M98.8383 48.4663L96.3518 45.9202L102.568 47.1933L115 52.2853H95.1086L98.8383 51.0123H92.6221L100.082 49.7393L93.8653 48.4663H98.8383Z" fill="#596A7A"/>
<path d="M49.5 56.5L48.5 71.5M48.5 71.5L43.5 72.5M48.5 71.5V75M48.5 71.5H52.5" stroke="#DCBF71" stroke-width="2"/>
<defs>
<filter id="filter0_d_419_88" x="36.4053" y="25.6723" width="53.3936" height="31.5951" filterUnits="userSpaceOnUse" color-interpolation-filters="sRGB">
<feFlood flood-opacity="0" result="BackgroundImageFix"/>
<feColorMatrix in="SourceAlpha" type="matrix" values="0 0 0 0 0 0 0 0 0 0 0 0 0 0 0 0 0 0 127 0" result="hardAlpha"/>
<feOffset dy="1"/>
<feGaussianBlur stdDeviation="2"/>
<feComposite in2="hardAlpha" operator="out"/>
<feColorMatrix type="matrix" values="0 0 0 0 0 0 0 0 0 0 0 0 0 0 0 0 0 0 0.25 0"/>
<feBlend mode="normal" in2="BackgroundImageFix" result="effect1_dropShadow_419_88"/>
<feBlend mode="normal" in="SourceGraphic" in2="effect1_dropShadow_419_88" result="shape"/>
</filter>
</defs>
</svg>
