<svg width="220" height="146" viewBox="0 0 220 146" fill="none" xmlns="http://www.w3.org/2000/svg">
<path d="M1.90205 142.009C1.15959 137.704 -0.143232 135.314 0.0128518 131.064C0.535314 135.536 1.14854 137.996 4.841 142.009C2.61247 134.641 5.99425 133.539 8.19971 126.728C6.89452 134.731 4.52034 136.415 8.19971 142.009L11.5584 129.413L10.9288 142.009C12.919 136.923 15.5048 134.951 19.1156 131.064C16.3043 135.455 13.0737 137.129 13.2379 142.009H10.9288H8.19971H4.841H1.90205Z" fill="#34B41E"/>
<path d="M200.817 132.458C199.372 128.365 197.214 123.452 197.329 120.327L199.245 126.991C200.676 130.47 202.729 134.075 204.899 136.433C202.67 129.065 202.694 113.715 204.899 106.904C203.594 114.908 204.578 130.84 208.258 136.433V110.415L210.987 136.433C212.977 131.348 213.871 121.528 217.481 117.642C214.67 122.033 213.132 131.553 213.296 136.433L220 120.327L214.332 136.433H213.296H210.987H208.258H204.899H201.96L200.817 132.458Z" fill="#34B41E"/>
<rect x="52.0596" y="34.6307" width="123.013" height="107.378" rx="38" fill="#35230F"/>
<path d="M31.6026 43.2832C32.621 33.6403 34.5416 28.2191 40.0039 18.524L167.516 25.5449L170.433 49.292L175.263 66.8442L182.63 90.3258L187.668 111.86L189.977 122.805L197.114 126.846C176.509 128.499 179.142 138.832 175.263 138.498C172.361 131.628 172.579 133.677 174.004 126.846L178.204 109.102L170.433 90.3258L169.173 70.5184C167.194 64.347 163.766 59.9074 163.292 53.3933C160.215 41.9679 151.117 38.7206 135.778 43.2832C119.013 57.7424 111.961 59.317 95.7232 58.7908C85.3574 68.5282 78.2442 76.8398 74.9412 101.949C81.0471 121.031 78.6166 132.931 74.9412 142.32C69.6686 145.925 71.3057 146.645 64.3677 144.59L45.1326 134.781C31.8148 138.565 28.4525 146.548 16.0603 142.32C14.1583 126.43 12.9203 117.452 21.7312 105.8C27.4165 97.5636 28.3248 91.0088 27.6121 77.3272C25.3105 63.6203 26.2098 56.1526 31.6026 43.2832Z" fill="#CB9372"/>
<path d="M26.1357 43.3036C27.1535 33.6528 29.0731 28.2271 34.5325 18.524H172.659L174.549 44.9555L180.846 65.1922L194.491 86.6678L197.01 109.176L206.037 129.413V136.227C185.442 137.881 173.597 144.82 169.721 144.487C166.82 137.611 167.038 133.772 168.461 126.935L172.659 109.176L164.893 90.3848L163.633 70.5611C161.655 64.3847 158.229 59.9414 157.755 53.4219C154.68 41.9872 145.587 38.7372 130.256 43.3036C113.5 57.7746 104.292 60.7629 88.0623 60.2363C77.7019 69.9817 74.5696 80.7426 71.2684 105.872C77.3711 124.97 78.0906 133.025 74.4172 142.422C69.1473 146.03 65.8178 146.75 58.8835 144.693L43.5589 142.422C30.2481 146.208 22.9872 146.653 10.6016 142.422C8.70059 126.519 7.46324 117.533 16.2695 105.872C21.9518 97.6285 22.8596 91.0684 22.1472 77.3755C19.8469 63.6573 20.7457 56.1835 26.1357 43.3036Z" fill="#643E24"/>
<path d="M34.0261 18.7028C51.2677 9.18585 65.1458 6.58229 92.1738 3.42202C106.336 2.67031 113.79 2.59647 125.761 3.42202C152.279 6.94003 163.791 10.3182 169.405 16.046C178.665 22.3273 167.937 21.9464 141.925 30.2665C130.278 34.5967 124.315 35.0984 114.215 34.19C99.057 30.4923 90.6101 30.3814 75.5902 32.125C63.3722 33.0597 56.5822 31.7147 44.5221 26.7561C32.5544 26.8437 30.1723 24.4795 34.0261 18.7028Z" fill="#CC916F"/>
<path d="M98.9414 13.311C101.414 12.1237 108.437 10.5286 110.766 10.9713C111.691 11.147 111.747 12.8347 111.869 14.2024C112.183 17.7198 106.915 18.7905 102.899 20.1177C91.4151 23.9124 86.9315 20.7047 83.8402 20.0042C82.502 19.701 81.5153 18.5828 80.9184 17.3372C80.628 16.7312 80.6411 16.0636 80.824 15.3937C81.572 12.6549 84.1374 11.5225 87.3643 10.3424C90.499 9.19601 92.9467 8.14628 95.7954 7.24567C102.731 5.05298 112.789 6.40054 115.507 7.54602C119.044 9.03659 119.202 16.2371 119.217 19.161C119.232 22.2344 115.406 22.9269 113.312 24.086C111.825 24.9089 109.868 24.7141 104.285 25.4466C99.5007 26.0742 90.6974 26.7183 85.437 27.0175C75.4581 27.5851 70.8868 27.1536 67.9815 26.4319C63.3266 25.2757 60.2012 25.8147 57.3662 25.004C54.4074 24.1578 51.9598 22.7983 50.9116 21.0237C49.9715 19.4319 49.5381 17.482 49.6814 15.4397C49.9188 12.0576 54.1534 10.8962 62.6285 7.63216C66.4738 6.1512 73.0213 5.82024 83.714 4.47978C89.0657 3.80888 98.5069 3.10262 104.09 2.6947C113.742 1.98942 117.429 3.55497 120.821 4.23648C125.424 5.16129 128.031 5.72087 130.4 7.69953C134.78 11.3582 134.853 14.8728 135.372 19.7822C135.679 22.6776 131.775 24.0905 128.943 26.1314C126.58 27.8345 123.619 27.5755 120.641 28.8118C116.789 29.4758 114.081 30.0396 111.59 30.3381C110.536 30.5108 109.911 30.7265 109.225 30.4645" stroke="#F4E8C1" stroke-linecap="round"/>
<path d="M138.768 5.14205C138.763 5.62326 140.382 7.56266 142.97 10.1558C143.549 10.7355 144.105 10.8096 144.594 11.1328C148.294 13.581 145.739 22.1447 144.526 24.0112C143.027 26.3174 140.236 28.1427 136.676 30.6508C135.857 31.2244 135.376 31.5452 134.887 31.8709C134.399 32.1965 133.917 32.5173 132.936 33.3339" stroke="#F4E8C1" stroke-linecap="round"/>
<path d="M154.322 9.51669C156.261 11.2957 157.88 13.551 158.774 15.8283C159.184 16.8723 159.668 18.577 159.348 20.842C157.564 23.6078 156.757 25.066 155.707 25.7951C155.138 26.043 154.497 26.043 153.35 27.0151" stroke="#F4E8C1" stroke-linecap="round"/>
</svg>
